<?xml version="1.0" encoding="UTF-8" standalone="no"?>
<svg
   xmlns:dc="http://purl.org/dc/elements/1.1/"
   xmlns:cc="http://creativecommons.org/ns#"
   xmlns:rdf="http://www.w3.org/1999/02/22-rdf-syntax-ns#"
   xmlns:svg="http://www.w3.org/2000/svg"
   xmlns="http://www.w3.org/2000/svg"
   xmlns:sodipodi="http://sodipodi.sourceforge.net/DTD/sodipodi-0.dtd"
   xmlns:inkscape="http://www.inkscape.org/namespaces/inkscape"
   width="210mm"
   height="297mm"
   viewBox="0 0 210 297"
   version="1.1"
   id="svg8"
   inkscape:version="1.0.2 (e86c870879, 2021-01-15)"
   sodipodi:docname="silk.svg">
  <defs
     id="defs2" />
  <sodipodi:namedview
     id="base"
     pagecolor="#ffffff"
     bordercolor="#666666"
     borderopacity="1.0"
     inkscape:pageopacity="0.0"
     inkscape:pageshadow="2"
     inkscape:zoom="11.2"
     inkscape:cx="-3.8587121"
     inkscape:cy="0.80265692"
     inkscape:document-units="mm"
     inkscape:current-layer="g874"
     inkscape:document-rotation="0"
     showgrid="false"
     inkscape:window-width="1364"
     inkscape:window-height="750"
     inkscape:window-x="1"
     inkscape:window-y="17"
     inkscape:window-maximized="0"
     inkscape:snap-center="true"
     inkscape:snap-page="true">
    <inkscape:grid
       type="xygrid"
       id="grid833" />
  </sodipodi:namedview>
  <metadata
     id="metadata5">
    <rdf:RDF>
      <cc:Work
         rdf:about="">
        <dc:format>image/svg+xml</dc:format>
        <dc:type
           rdf:resource="http://purl.org/dc/dcmitype/StillImage" />
        <dc:title />
      </cc:Work>
    </rdf:RDF>
  </metadata>
  <g
     inkscape:label="ONOFF"
     inkscape:groupmode="layer"
     id="layer1"
     style="display:none"
     sodipodi:insensitive="true">
    <g
       inkscape:groupmode="layer"
       id="layer4"
       inkscape:label="front_silk"
       style="display:inline"
       sodipodi:insensitive="true">
      <path
         id="path847-5"
         style="display:inline;fill:#000000;fill-opacity:1;stroke:none;stroke-width:0.265;stroke-linecap:round;stroke-linejoin:round;stroke-miterlimit:4;stroke-dasharray:none;stroke-opacity:1"
         d="M -2.5,-7.5000001 0,-10 2.5,-7.5000001 V -7 h -2 V 7 h 2 V 7.5 L 0,10 -2.5,7.5 V 7 h 2 V -7 h -2 z M -7.8586651,2.8280077 q 0.046853,0 0.079926,0.00551 0.033073,0.00276 0.057878,0.016536 0.027561,0.011024 0.049609,0.033073 0.024805,0.022049 0.055122,0.057878 L -5.813658,5.3167428 Q -5.8301944,5.1348419 -5.8301944,4.9722335 V 2.8280077 h 0.6366531 v 3.6600666 h -0.37207 q -0.085438,0 -0.1433159,-0.027561 -0.055121,-0.030317 -0.1102429,-0.096463 l -1.7969605,-2.361955 q 0.016536,0.1708766 0.016536,0.3169486 V 6.4880743 H -8.2390034 V 2.8280077 Z M -8.70478,4.6552849 q 0,0.4023869 -0.1267794,0.7468962 -0.1267794,0.3417532 -0.3610458,0.5925559 -0.2315102,0.2508028 -0.559483,0.3913626 -0.3279728,0.1405598 -0.7276038,0.1405598 -0.399631,0 -0.727603,-0.1405598 -0.327973,-0.1405598 -0.56224,-0.3913626 -0.234266,-0.2508027 -0.363801,-0.5925559 -0.12678,-0.3445093 -0.12678,-0.7468962 0,-0.3996308 0.12678,-0.741384 0.129535,-0.3445093 0.363801,-0.5925559 0.234267,-0.2508028 0.56224,-0.3913626 0.327972,-0.1433159 0.727603,-0.1433159 0.399631,0 0.7276038,0.1433159 0.3279728,0.1405598 0.559483,0.3913626 0.2342664,0.2508027 0.3610458,0.5925559 0.1267794,0.3417532 0.1267794,0.741384 z m -0.7386279,0 q 0,-0.2921439 -0.071658,-0.5236541 -0.071658,-0.2315102 -0.2067056,-0.3941186 -0.1322916,-0.1626084 -0.3252165,-0.2480467 -0.190169,-0.088194 -0.432704,-0.088194 -0.242534,0 -0.43546,0.088194 -0.192925,0.085438 -0.327972,0.2480467 -0.132292,0.1626084 -0.20395,0.3941186 -0.07166,0.2315102 -0.07166,0.5236541 0,0.2949 0.07166,0.5291663 0.07166,0.2315102 0.20395,0.3941186 0.135047,0.1598523 0.327972,0.2452906 0.192926,0.085438 0.43546,0.085438 0.242535,0 0.432704,-0.085438 0.1929249,-0.085438 0.3252165,-0.2452906 0.1350476,-0.1626084 0.2067056,-0.3941186 0.071658,-0.2342663 0.071658,-0.5291663 z m 5.9117798,-11.1406034 v 0.5760195 h -1.4248904 v 1.036284 h 1.1933801 v 0.5760195 h -1.1933801 v 1.4717437 h -0.7276037 v -3.6600667 z m -2.5907102,0 v 0.5760195 h -1.4248904 v 1.036284 h 1.1933802 v 0.5760195 h -1.1933802 v 1.4717437 H -8.2748323 V -6.4853185 Z M -8.70478,-4.6580412 q 0,0.4023868 -0.1267794,0.7468961 -0.1267794,0.3417532 -0.3610458,0.592556 -0.2315102,0.2508027 -0.559483,0.3913625 -0.3279728,0.1405598 -0.7276038,0.1405598 -0.399631,0 -0.727603,-0.1405598 -0.327973,-0.1405598 -0.56224,-0.3913625 -0.234266,-0.2508028 -0.363801,-0.592556 -0.12678,-0.3445093 -0.12678,-0.7468961 0,-0.3996308 0.12678,-0.741384 0.129535,-0.3445093 0.363801,-0.592556 0.234267,-0.2508028 0.56224,-0.3913625 0.327972,-0.1433159 0.727603,-0.1433159 0.399631,0 0.7276038,0.1433159 0.3279728,0.1405597 0.559483,0.3913625 0.2342664,0.2508028 0.3610458,0.592556 0.1267794,0.3417532 0.1267794,0.741384 z m -0.7386279,0 q 0,-0.2921439 -0.071658,-0.5236541 -0.071658,-0.2315103 -0.2067056,-0.3941187 -0.1322916,-0.1626084 -0.3252165,-0.2480467 -0.190169,-0.088194 -0.432704,-0.088194 -0.242534,0 -0.43546,0.088194 -0.192925,0.085438 -0.327972,0.2480467 -0.132292,0.1626084 -0.20395,0.3941187 -0.07166,0.2315102 -0.07166,0.5236541 0,0.2948999 0.07166,0.5291662 0.07166,0.2315103 0.20395,0.3941187 0.135047,0.1598523 0.327972,0.2452906 0.192926,0.085438 0.43546,0.085438 0.242535,0 0.432704,-0.085438 0.1929249,-0.085438 0.3252165,-0.2452906 0.1350476,-0.1626084 0.2067056,-0.3941187 0.071658,-0.2342663 0.071658,-0.5291662 z" />
    </g>
    <text
       xml:space="preserve"
       style="font-style:normal;font-variant:normal;font-weight:bold;font-stretch:normal;font-size:5.64444px;line-height:1.65;font-family:Carlito;-inkscape-font-specification:'Carlito Bold';text-align:start;letter-spacing:0px;word-spacing:0px;text-anchor:start;fill:#000000;fill-opacity:1;stroke:none;stroke-width:0.264583"
       x="-12.392407"
       y="-2.8252518"
       id="text841"><tspan
         sodipodi:role="line"
         x="-12.392407"
         y="-2.8252518"
         style="font-style:normal;font-variant:normal;font-weight:bold;font-stretch:normal;font-size:5.64444px;font-family:Carlito;-inkscape-font-specification:'Carlito Bold';text-align:start;text-anchor:start;stroke-width:0.264583"
         id="tspan843">OFF</tspan><tspan
         sodipodi:role="line"
         x="-12.392407"
         y="6.4880743"
         style="font-style:normal;font-variant:normal;font-weight:bold;font-stretch:normal;font-size:5.64444px;font-family:Carlito;-inkscape-font-specification:'Carlito Bold';text-align:start;text-anchor:start;stroke-width:0.264583"
         id="tspan851">ON</tspan></text>
    <path
       style="fill:#000000;fill-opacity:1;stroke:none;stroke-width:0.265;stroke-linecap:round;stroke-linejoin:round;stroke-miterlimit:4;stroke-dasharray:none;stroke-opacity:1"
       d="M -2.5,-7.5000001 0,-10 2.5,-7.5000001 V -7 h -2 V 7 h 2 V 7.5 L 0,10 -2.5,7.5 V 7 h 2 V -7 h -2 z"
       id="path847"
       sodipodi:nodetypes="ccccccccccccccc" />
  </g>
  <g
     inkscape:groupmode="layer"
     id="layer2"
     inkscape:label="PROGRAM_SERIAL"
     style="display:none"
     sodipodi:insensitive="true">
    <path
       style="display:inline;fill:#000000;fill-opacity:1;stroke:none;stroke-width:0.265;stroke-linecap:round;stroke-linejoin:round;stroke-miterlimit:4;stroke-dasharray:none;stroke-opacity:1"
       d="M -2.5,-7.5000001 0,-10 2.5,-7.5000001 V -7 h -2 V 7 h 2 V 7.5 L 0,10 -2.5,7.5 V 7 h 2 V -7 h -2 z"
       id="path847-3"
       sodipodi:nodetypes="ccccccccccccccc" />
    <text
       xml:space="preserve"
       style="font-style:normal;font-variant:normal;font-weight:bold;font-stretch:normal;font-size:4.23333px;line-height:1.95;font-family:Carlito;-inkscape-font-specification:'Carlito Bold';text-align:start;letter-spacing:0px;word-spacing:0px;text-anchor:start;display:inline;fill:#000000;fill-opacity:1;stroke:none;stroke-width:0.264583"
       x="3.2559891"
       y="-2.7539382"
       id="text857-3-3"><tspan
         sodipodi:role="line"
         x="3.2559891"
         y="-2.7539382"
         style="font-style:normal;font-variant:normal;font-weight:bold;font-stretch:normal;font-size:4.23333px;font-family:Carlito;-inkscape-font-specification:'Carlito Bold';text-align:start;text-anchor:start;stroke-width:0.264583"
         id="tspan865-6-5">FLASH</tspan><tspan
         sodipodi:role="line"
         x="3.2559891"
         y="5.5010552"
         style="font-style:normal;font-variant:normal;font-weight:bold;font-stretch:normal;font-size:4.23333px;font-family:Carlito;-inkscape-font-specification:'Carlito Bold';text-align:start;text-anchor:start;stroke-width:0.264583"
         id="tspan863-7-6">SERIAL</tspan></text>
    <g
       inkscape:groupmode="layer"
       id="layer3"
       inkscape:label="front_silk"
       style="display:none"
       sodipodi:insensitive="true">
      <path
         id="path1064"
         style="font-style:normal;font-variant:normal;font-weight:bold;font-stretch:normal;font-size:4.23333px;line-height:1.95;font-family:Carlito;-inkscape-font-specification:'Carlito Bold';text-align:start;letter-spacing:0px;word-spacing:0px;text-anchor:start;fill:#000000;fill-opacity:1;stroke:none;stroke-width:0.264583"
         d="m 14.165908,5.0545711 h 0.952913 v 0.446484 H 13.622273 V 2.7560053 h 0.543635 z m -0.768944,0.446484 h -0.417546 q -0.07235,0 -0.115755,-0.033073 -0.04341,-0.03514 -0.06408,-0.086816 L 12.625952,4.8416643 h -1.01079 l -0.171566,0.5374345 q -0.01654,0.045475 -0.06408,0.084749 -0.04547,0.037207 -0.113688,0.037207 H 10.842082 L 11.842537,2.756005 h 0.553971 z m -1.659846,-1.039729 h 0.76481 L 12.222876,3.5931628 q -0.0248,-0.064079 -0.05168,-0.148828 -0.02687,-0.086816 -0.05374,-0.1881021 -0.02481,0.1012858 -0.05168,0.1881021 -0.02687,0.086816 -0.04961,0.150895 z M 10.54236,5.5010551 H 9.9966574 V 2.7560053 H 10.54236 Z M 8.1115027,4.4447897 V 5.5010551 H 7.5658 V 2.7560053 h 0.8268223 q 0.2749184,0 0.4712886,0.059945 0.1963703,0.057878 0.3203936,0.1632974 0.1260904,0.1054198 0.183968,0.2521808 0.057878,0.1467609 0.057878,0.3224606 0,0.1343586 -0.037207,0.2563149 -0.037207,0.1198892 -0.1095539,0.221175 -0.07028,0.099219 -0.1736327,0.1777667 -0.1033527,0.076481 -0.2377114,0.1240234 0.051676,0.028939 0.097152,0.07028 0.045475,0.039274 0.084749,0.097152 l 0.6139149,1.000454 H 9.1739693 q -0.1302245,0 -0.2005044,-0.109554 L 8.4732374,4.5357401 q -0.031006,-0.049609 -0.07028,-0.07028 -0.037207,-0.02067 -0.1074868,-0.02067 z m 0,-0.3865394 h 0.2769855 q 0.1322915,0 0.2273761,-0.03514 0.097152,-0.03514 0.1591632,-0.097152 0.062012,-0.062012 0.09095,-0.1467609 0.031006,-0.086816 0.031006,-0.1881021 0,-0.2005044 -0.1240233,-0.3079912 Q 8.6489372,3.1735505 8.3926223,3.1735505 H 8.1115027 Z M 7.1751264,2.7560053 V 3.1880199 H 6.0465141 V 3.9135564 H 6.9250127 V 4.3290346 H 6.0465141 v 0.7400059 h 1.1306794 l -0.00207,0.4320146 H 5.5008114 V 2.7560053 Z M 4.9530417,3.2727692 q -0.020671,0.041341 -0.049609,0.059945 -0.026872,0.016536 -0.068213,0.016536 -0.039274,0 -0.084749,-0.028939 -0.045475,-0.028939 -0.1074868,-0.062012 -0.059945,-0.03514 -0.1405598,-0.064079 -0.080615,-0.028939 -0.186035,-0.028939 -0.186035,0 -0.2811196,0.09095 -0.093018,0.09095 -0.093018,0.2377114 0,0.093017 0.049609,0.1550292 0.051676,0.059945 0.1343586,0.1054198 0.084749,0.043408 0.1901691,0.078548 0.1074869,0.03514 0.2191079,0.076481 0.111621,0.039274 0.2170408,0.095084 0.1074869,0.053744 0.1901691,0.1364257 0.084749,0.082682 0.1343586,0.2025715 0.051676,0.1198892 0.051676,0.2914548 0,0.186035 -0.062012,0.3493324 -0.059945,0.1632974 -0.1777667,0.2852536 -0.1178222,0.1198893 -0.2893878,0.1901691 -0.1694986,0.07028 -0.3886065,0.07028 -0.1240233,0 -0.2480466,-0.026872 Q 3.8409658,5.4783174 3.7272777,5.4307752 3.6135897,5.3832329 3.512304,5.3170871 3.4110182,5.2509413 3.3345372,5.1682591 L 3.4957675,4.9098772 q 0.018604,-0.031006 0.049609,-0.049609 0.033073,-0.018604 0.07028,-0.018604 0.049609,0 0.1012858,0.039274 0.053743,0.037207 0.1240233,0.084749 0.07028,0.045475 0.1632974,0.084749 0.093018,0.037207 0.2211749,0.037207 0.186035,0 0.2893878,-0.095085 0.1033528,-0.095085 0.1033528,-0.2811196 0,-0.1054198 -0.051676,-0.1715656 Q 4.516893,4.4737285 4.4342107,4.4303203 4.3515285,4.3848451 4.2440416,4.3538392 4.1386218,4.3207663 4.0270008,4.2835593 3.9174469,4.2463523 3.80996,4.194676 3.7045401,4.1409325 3.6218579,4.0541162 3.5391757,3.9672998 3.4874993,3.8391424 3.43789,3.710985 3.43789,3.5208158 q 0,-0.150895 0.057878,-0.2935218 0.057878,-0.1446939 0.1694986,-0.2563149 0.111621,-0.111621 0.2728513,-0.1777668 0.1632974,-0.068213 0.37207,-0.068213 0.2356443,0 0.4361487,0.076481 0.2025715,0.076481 0.3451983,0.2149738 z m 9.0392333,-6.0267074 h -0.545702 v -1.1885569 h -1.112076 v 1.1885569 H 11.788794 V -5.498988 h 0.545703 v 1.1720205 h 1.112076 V -5.498988 h 0.545702 z M 11.25136,-4.9822241 q -0.02067,0.041341 -0.04961,0.059945 -0.02687,0.016536 -0.06821,0.016536 -0.03927,0 -0.08475,-0.028939 -0.04547,-0.028939 -0.107487,-0.062012 -0.05994,-0.03514 -0.14056,-0.064079 -0.08061,-0.028939 -0.186035,-0.028939 -0.186035,0 -0.281119,0.09095 -0.09302,0.09095 -0.09302,0.2377114 0,0.093018 0.04961,0.1550291 0.05168,0.059945 0.134358,0.1054199 0.08475,0.043408 0.190169,0.078548 0.107487,0.03514 0.219108,0.076481 0.111621,0.039274 0.217041,0.095085 0.107487,0.053743 0.190169,0.1364256 0.08475,0.082682 0.134359,0.2025715 0.05168,0.1198892 0.05168,0.2914548 0,0.186035 -0.06201,0.3493324 -0.05994,0.1632974 -0.177767,0.2852537 -0.117822,0.1198892 -0.289388,0.1901691 -0.169498,0.07028 -0.388606,0.07028 -0.124024,0 -0.248047,-0.026872 -0.121956,-0.024805 -0.235644,-0.072347 -0.1136884,-0.047542 -0.2149741,-0.113688 -0.1012857,-0.066146 -0.1777668,-0.148828 l 0.1612303,-0.258382 q 0.018603,-0.031006 0.049609,-0.049609 0.033073,-0.018604 0.07028,-0.018604 0.049609,0 0.1012856,0.039274 0.05374,0.037207 0.124024,0.084749 0.07028,0.045475 0.163297,0.084749 0.09302,0.037207 0.221175,0.037207 0.186035,0 0.289388,-0.095085 0.103353,-0.095085 0.103353,-0.2811195 0,-0.1054199 -0.05168,-0.1715656 -0.04961,-0.066146 -0.132291,-0.109554 -0.08268,-0.045475 -0.190169,-0.076481 -0.10542,-0.033073 -0.217041,-0.07028 -0.109554,-0.037207 -0.217041,-0.088883 -0.10542,-0.053743 -0.1881025,-0.1405598 -0.082682,-0.086816 -0.1343586,-0.2149738 -0.049609,-0.1281574 -0.049609,-0.3183265 0,-0.1508951 0.057878,-0.2935219 0.057878,-0.1446939 0.1694986,-0.2563149 0.1116215,-0.111621 0.2728515,-0.1777668 0.163298,-0.068213 0.37207,-0.068213 0.235645,0 0.436149,0.076481 0.202571,0.076481 0.345198,0.2149738 z M 9.5522403,-2.7539382 H 9.1346951 q -0.072347,0 -0.1157552,-0.033073 -0.043408,-0.03514 -0.064079,-0.086816 L 8.7812286,-3.4133289 H 7.7704384 l -0.1715656,0.5374344 q -0.016536,0.045475 -0.064079,0.084749 -0.045475,0.037207 -0.1136881,0.037207 H 6.9973596 L 7.9978145,-5.498988 H 8.5517854 Z M 7.8923947,-3.7936671 H 8.6572052 L 8.3781527,-4.6618305 q -0.024805,-0.064079 -0.051676,-0.148828 -0.026872,-0.086816 -0.053743,-0.188102 -0.024805,0.1012857 -0.051676,0.188102 -0.026872,0.086816 -0.049609,0.1508951 z m -1.9264958,0.5932449 h 0.9529127 v 0.446484 H 5.4222633 V -5.498988 H 5.9658989 Z M 5.0956685,-5.498988 v 0.4320146 H 4.0270008 v 0.7772129 h 0.8950351 v 0.4320146 H 4.0270008 v 1.1038077 H 3.4812981 V -5.498988 Z M -2.5,-7.5000001 0,-10 2.5,-7.5000001 V -7 h -2 V 7 h 2 V 7.5 L 0,10 -2.5,7.5 V 7 h 2 V -7 h -2 z" />
    </g>
  </g>
  <g
     inkscape:groupmode="layer"
     id="layer8"
     inkscape:label="SERIAL"
     style="display:none"
     sodipodi:insensitive="true">
    <g
       inkscape:groupmode="layer"
       id="g864"
       inkscape:label="front_silk"
       style="display:inline"
       sodipodi:insensitive="true">
      <path
         id="path862"
         style="font-style:normal;font-variant:normal;font-weight:bold;font-stretch:normal;font-size:4.23333px;line-height:1.95;font-family:Carlito;-inkscape-font-specification:'Carlito Bold';text-align:start;letter-spacing:0px;word-spacing:0px;text-anchor:start;fill:#000000;fill-opacity:1;stroke:none;stroke-width:0.264583"
         d="M 3.6911981,0.69529844 H 4.4058745 V 1.0301575 H 3.2834766 V -1.0286058 H 3.6911981 Z M 3.1144969,1.0301575 H 2.801341 c -0.036172,0 -0.065114,-0.00827 -0.086815,-0.024805 C 2.692821,0.9877825 2.676801,0.9660792 2.666466,0.9402413 L 2.5362446,0.5356202 H 1.778161 L 1.649488,0.93869137 c -0.00827,0.0227375 -0.024292,0.043924 -0.048059,0.063561 -0.022732,0.018603 -0.051157,0.027905 -0.085265,0.027905 H 1.1983578 L 1.9486903,-1.028606 H 2.3641637 Z M 1.8696269,0.25036988 H 2.4432277 L 2.2339411,-0.400745 c -0.012397,-0.0320389 -0.02532,-0.0692459 -0.038759,-0.1116197 -0.013432,-0.0434072 -0.026872,-0.0904324 -0.040304,-0.14107493 -0.012405,0.0506424 -0.025327,0.0976673 -0.03876,0.14107493 -0.013432,0.0434073 -0.025837,0.0811308 -0.037207,0.11316993 z M 0.97356883,1.0301575 H 0.56429667 V -1.0286058 H 0.97356883 Z M -0.84955287,0.23796772 V 1.0301575 H -1.2588251 v -2.0587633 h 0.62010943 c 0.1374576,0 0.2552784,0.014986 0.3534624,0.044958 0.098184,0.028938 0.1782814,0.069763 0.2402924,0.1224716 0.063044,0.052709 0.1090359,0.11575368 0.1379744,0.18913338 0.028938,0.0733799 0.043408,0.1539938 0.043408,0.2418426 0,0.0671782 -0.0093,0.13125649 -0.027905,0.19223393 -0.018603,0.0599438 -0.045992,0.11523698 -0.082164,0.16587932 -0.035139,0.0496089 -0.078547,0.0940501 -0.130223,0.13332347 -0.051676,0.0382398 -0.1111029,0.0692459 -0.1782815,0.0930165 0.025838,0.0144696 0.050126,0.0320389 0.072863,0.0527094 0.022738,0.019637 0.043924,0.0439247 0.063561,0.0728631 l 0.4604308,0.7503318 h -0.3674147 c -0.065111,0 -0.115237,-0.027388 -0.1503766,-0.0821645 l -0.3751665,-0.64181305 c -0.015503,-0.0248045 -0.033072,-0.0423738 -0.052709,-0.0527094 -0.018604,-0.0103349 -0.045475,-0.0155023 -0.080614,-0.0155023 z m 0,-0.28990116 h 0.2077367 c 0.066145,0 0.1229884,-0.008785 0.1705301,-0.0263547 0.048575,-0.01757 0.088366,-0.0418578 0.119371,-0.0728631 0.031005,-0.0310054 0.053743,-0.0676957 0.068212,-0.11006939 0.015503,-0.0434072 0.023254,-0.0904324 0.023254,-0.14107493 0,-0.10025103 -0.031005,-0.1772479 -0.093016,-0.2309907 -0.062011,-0.0547761 -0.1570941,-0.0821642 -0.2852501,-0.0821642 h -0.2108377 z M -1.5518269,-1.0286058 v 0.32400717 H -2.3982762 V -0.1604526 H -1.73941 v 0.31160501 h -0.6588662 v 0.55499795 h 0.8479996 l -0.00155,0.32400714 h -1.2557219 v -2.0587633 z m -1.6665441,0.3875684 c -0.010336,0.0206705 -0.022737,0.0356561 -0.037206,0.0449582 -0.013436,0.008268 -0.030489,0.0124019 -0.051159,0.0124019 -0.019637,0 -0.040824,-0.007237 -0.063561,-0.021704 -0.022737,-0.0144696 -0.049609,-0.0299719 -0.080614,-0.0465084 -0.029972,-0.01757 -0.065112,-0.033589 -0.1054186,-0.048059 -0.040307,-0.01447 -0.086815,-0.021704 -0.1395247,-0.021704 -0.093016,0 -0.1632955,0.022738 -0.2108372,0.068212 -0.046508,0.0454742 -0.069763,0.10490166 -0.069763,0.17828148 0,0.0465077 0.012402,0.0852648 0.037206,0.11627054 0.025838,0.0299719 0.059427,0.0563266 0.1007678,0.0790639 0.042374,0.021704 0.089916,0.0413403 0.1426252,0.0589103 0.053743,0.0175701 0.1085191,0.0366896 0.164329,0.0573601 0.05581,0.019637 0.1100694,0.0434073 0.1627787,0.0713122 0.053743,0.0268714 0.1012845,0.060978 0.1426251,0.10231808 0.042374,0.0413403 0.075963,0.0919828 0.1007678,0.15192685 0.025838,0.0599438 0.038757,0.13280673 0.038757,0.21858855 0,0.0930164 -0.015503,0.18034853 -0.046508,0.26199625 -0.029972,0.0816477 -0.074413,0.15296034 -0.1333235,0.2139377 -0.05891,0.0599438 -0.1312565,0.10748567 -0.2170383,0.14262516 -0.084748,0.0351393 -0.1818988,0.0527094 -0.2914515,0.0527094 -0.062011,0 -0.1240218,-0.00672 -0.1860327,-0.020154 -0.060977,-0.012401 -0.119887,-0.030487 -0.1767305,-0.0542581 -0.056843,-0.023771 -0.1105861,-0.0521926 -0.1612283,-0.0852651 -0.1668939,-0.10791422 -0.112593,-0.14484184 -0.012402,-0.30540387 0.0093,-0.0155031 0.021704,-0.0279049 0.037206,-0.0372063 0.016537,-0.009302 0.034106,-0.0139528 0.052709,-0.0139528 0.024805,0 0.050126,0.009818 0.075964,0.0294552 0.026871,0.0186035 0.057877,0.03979 0.093016,0.063561 0.035139,0.0227375 0.075963,0.043924 0.1224716,0.063561 0.046508,0.0186035 0.1018015,0.0279049 0.1658792,0.0279049 0.093016,0 0.1653625,-0.023771 0.2170383,-0.0713129 0.051676,-0.0475419 0.077514,-0.117821 0.077514,-0.21083724 0,-0.0527094 -0.012919,-0.0956002 -0.038756,-0.1286727 -0.024805,-0.0330715 -0.057877,-0.0604593 -0.099218,-0.0821632 -0.041341,-0.0227373 -0.088882,-0.0418574 -0.1426251,-0.0573602 -0.052709,-0.0165362 -0.1069689,-0.034106 -0.1627787,-0.0527093 -0.054776,-0.0186033 -0.109036,-0.0408238 -0.1627787,-0.0666617 -0.052709,-0.0268714 -0.099734,-0.062011 -0.141075,-0.10541862 -0.04134,-0.0434077 -0.07493,-0.0971505 -0.1007678,-0.16122847 -0.024804,-0.064078 -0.037206,-0.14365865 -0.037206,-0.23874217 0,-0.0754466 0.01447,-0.14882624 0.043408,-0.22013885 0.028938,-0.072346 0.071313,-0.1364241 0.1271225,-0.19223391 0.05581,-0.05581 0.1240218,-0.100251 0.2046361,-0.13332348 0.081648,-0.034106 0.1746642,-0.051159 0.2790492,-0.051159 0.1178208,0 0.2268567,0.01912 0.3271077,0.05736 0.1012846,0.03824 0.1875832,0.091983 0.2588957,0.16122851 z"
         sodipodi:nodetypes="ccccccccsccccccscccccccccscccccccccccsccsscccccccscccsccscscscscccccccccccccccccsscsscscccccccscccscscccscccssscccccscscscsccc" />
    </g>
  </g>
  <g
     inkscape:groupmode="layer"
     id="layer9"
     inkscape:label="FLASH"
     style="display:inline">
    <g
       inkscape:groupmode="layer"
       id="g874"
       inkscape:label="front_silk"
       style="display:inline">
      <path
         id="path872"
         style="font-style:normal;font-variant:normal;font-weight:bold;font-stretch:normal;font-size:4.23333px;line-height:1.95;font-family:Carlito;-inkscape-font-specification:'Carlito Bold';text-align:start;letter-spacing:0px;word-spacing:0px;text-anchor:start;fill:#000000;fill-opacity:1;stroke:none;stroke-width:0.264583"
         d="M 3.941625,1.0301725 H 3.5323476 V 0.13875291 H 2.6982888 V 1.0301725 H 2.2890106 v -2.0587919 h 0.4092782 v 0.87901737 H 3.5323476 V -1.0286194 H 3.941625 Z M 1.8859342,-0.64104557 c -0.010335,0.0206708 -0.02274,0.0356566 -0.037208,0.0449588 -0.013432,0.008268 -0.030488,0.012402 -0.051158,0.012402 -0.019635,0 -0.040823,-0.007238 -0.063563,-0.0217043 -0.022733,-0.0144698 -0.049605,-0.0299723 -0.080615,-0.0465091 -0.02997,-0.01757 -0.065108,-0.033589 -0.1054202,-0.048059 -0.040305,-0.01447 -0.086814,-0.021704 -0.1395266,-0.021704 -0.093017,0 -0.1632978,0.022738 -0.2108397,0.068213 -0.046508,0.0454748 -0.069765,0.10490308 -0.069765,0.17828392 0,0.0465091 0.012405,0.0852665 0.037208,0.11627208 0.025838,0.0299723 0.05943,0.0563274 0.1007687,0.0790651 0.042375,0.0217043 0.089918,0.0413408 0.1426271,0.0589111 0.053745,0.0175703 0.1085207,0.0366901 0.1643314,0.0573609 0.055808,0.0196373 0.110071,0.0434086 0.1627811,0.0713139 0.053745,0.0268718 0.1012862,0.0609781 0.142627,0.10231942 0.042375,0.0413408 0.075965,0.0919841 0.1007695,0.15192897 0.025838,0.0599446 0.03876,0.13280858 0.03876,0.21859159 0,0.0930177 -0.015503,0.18035103 -0.046508,0.26199988 -0.02997,0.0816479 -0.074415,0.1529615 -0.1333258,0.21393979 C 1.7789659,0.91648308 1.70662,0.96402556 1.6208371,0.99916562 1.5360877,1.0343054 1.4389362,1.0518757 1.3293819,1.0518757 c -0.06201,0 -0.124024,-0.00672 -0.1860356,-0.020154 C 1.0823712,1.019319 1.0234571,1.0012327 0.96661286,0.97746138 0.90976886,0.95369008 0.85602497,0.92526798 0.80538201,0.89219518 0.75473891,0.85912238 0.71029721,0.82191478 0.6720566,0.78057393 L 0.79297961,0.58678704 c 0.009302,-0.0155033 0.0217035,-0.0279053 0.0372068,-0.0372068 0.0165368,-0.009302 0.0341063,-0.013953 0.0527101,-0.013953 0.0248048,0 0.0501256,0.009818 0.0759644,0.0294556 0.0268726,0.0186038 0.0578776,0.0397906 0.0930182,0.0635619 0.035138,0.0227378 0.075965,0.0439246 0.122473,0.0635619 0.046508,0.0186038 0.1018038,0.0279053 0.1658817,0.0279053 0.093017,0 0.1653649,-0.0237713 0.2170414,-0.0713139 0.051675,-0.0475426 0.077515,-0.11782264 0.077515,-0.21084009 0,-0.0527101 -0.012922,-0.0956016 -0.03876,-0.12867449 -0.024803,-0.0330728 -0.057878,-0.0604614 -0.099219,-0.0821657 -0.04134,-0.0227378 -0.088883,-0.0418576 -0.142627,-0.0573609 -0.05271,-0.0165368 -0.1069705,-0.0341063 -0.1627811,-0.0527101 -0.05478,-0.0186038 -0.1090375,-0.0408241 -0.1627811,-0.0666624 -0.0527102,-0.0268718 -0.0997359,-0.0620116 -0.14107724,-0.10542008 -0.0413408,-0.0434078 -0.0749304,-0.0971517 -0.10076917,-0.16123071 -0.0248048,-0.0640786 -0.0372068,-0.14366064 -0.0372068,-0.2387454 0,-0.0754477 0.0144697,-0.14882838 0.0434085,-0.2201419 0.0289388,-0.072347 0.0713139,-0.136426 0.12712423,-0.1922366 0.0558106,-0.055811 0.12402368,-0.1002525 0.20463908,-0.13332538 0.081649,-0.034106 0.1746671,-0.05116 0.2790531,-0.05116 0.117823,0 0.2268606,0.01912 0.3271125,0.057361 0.1012855,0.03824 0.1875852,0.091984 0.2588991,0.1612307 z M 0.61159162,1.0301725 H 0.298432 c -0.036173,0 -0.065112,-0.00827 -0.086817,-0.024805 C 0.189911,0.98779744 0.173891,0.96609394 0.163556,0.94025564 L 0.0333316,0.53562845 h -0.7580943 l -0.1286745,0.40307666 c -0.00827,0.0227378 -0.024288,0.0439246 -0.048059,0.0635619 -0.022738,0.018604 -0.05116,0.027905 -0.085266,0.027905 h -0.3178102 l 0.7503428,-2.0587917 h 0.4154791 z M -0.6332953,0.25037416 h 0.5736091 L -0.268976,-0.40074983 c -0.012403,-0.0320393 -0.025322,-0.0692469 -0.038757,-0.11162125 -0.013436,-0.0434079 -0.026872,-0.0904337 -0.040307,-0.14107684 -0.012403,0.0506431 -0.025322,0.0976686 -0.038757,0.14107684 -0.013436,0.0434078 -0.025838,0.0811319 -0.037207,0.11317157 z m -1.4448751,0.44493467 h 0.7146861 V 1.0301725 H -2.485898 v -2.0587919 h 0.4077276 z M -2.7308446,-1.0286194 v 0.32401168 h -0.8015025 v 0.582911 h 0.6712777 V 0.20231495 H -3.5323471 V 1.0301725 H -3.941625 v -2.0587919 z"
         sodipodi:nodetypes="cccccccccccccccsccsscscccccccscccscsscccscccssscccccscscscsccccsccccccscccccccccscccccccccccccccccccc" />
    </g>
  </g>
  <g
     inkscape:groupmode="layer"
     id="layer5"
     inkscape:label="WARM"
     style="display:none"
     sodipodi:insensitive="true">
    <text
       xml:space="preserve"
       style="font-style:normal;font-variant:normal;font-weight:bold;font-stretch:normal;font-size:4.23333px;line-height:1.25;font-family:Carlito;-inkscape-font-specification:'Carlito Bold';letter-spacing:0px;word-spacing:0px;display:inline;fill:#c5c5c5;fill-opacity:1;stroke:none;stroke-width:0.264583"
       x="33.97805"
       y="-8.6260004"
       id="text1161-7"
       transform="rotate(90)"><tspan
         sodipodi:role="line"
         id="tspan1159-5"
         x="33.97805"
         y="-8.6260004"
         style="font-style:normal;font-variant:normal;font-weight:bold;font-stretch:normal;font-size:4.23333px;font-family:Carlito;-inkscape-font-specification:'Carlito Bold';fill:#c5c5c5;fill-opacity:1;stroke-width:0.264583"
         dx="0 -0.46772173 -0.03340869 -0.10022607">WARM</tspan></text>
    <g
       inkscape:groupmode="layer"
       id="layer6"
       inkscape:label="front_silk"
       style="display:inline">
      <path
         id="path896"
         style="font-style:normal;font-variant:normal;font-weight:bold;font-stretch:normal;font-size:4.23333px;line-height:1.25;font-family:Carlito;-inkscape-font-specification:'Carlito Bold';letter-spacing:0px;word-spacing:0px;display:inline;fill:#000000;fill-opacity:1;stroke:none;stroke-width:0.264583"
         d="m 9.7979859,43.393439 c -0.086813,0.04685 -0.1770725,0.08751 -0.2707764,0.121956 0.04823,0.01929 0.095082,0.03859 0.1405558,0.05788 0.046851,0.01929 0.091637,0.04065 0.1343545,0.06408 l 1.4841022,0.645062 c 0.02067,0.01103 0.03652,0.02205 0.04754,0.03307 0.0124,0.0124 0.02067,0.02549 0.02481,0.03927 0.0055,0.01378 0.009,0.02963 0.01033,0.04754 0.0014,0.01791 0.0021,0.03858 0.0021,0.06201 v 0.409277 H 8.6260333 v -0.47749 h 1.7176727 c 0.03721,0 0.07717,7e-4 0.119885,0.0021 0.0441,0.0027 0.08888,0.0062 0.134354,0.01034 L 9.0642359,43.742802 C 8.9843129,43.700082 8.9443503,43.637382 8.9443503,43.5547 v -0.07648 c 0,-0.08406 0.039962,-0.14745 0.1198856,-0.19017 l 1.5419471,-0.67603 c -0.04685,0.0055 -0.09302,0.0097 -0.138489,0.0124 -0.0441,0.0027 -0.08544,0.0041 -0.124019,0.0041 H 8.626 V 42.149 h 2.744969 v 0.411344 c 0,0.02343 -7.01e-4,0.04341 -0.0021,0.05994 -0.0014,0.01791 -0.0048,0.03376 -0.01033,0.04754 -0.0055,0.01516 -0.0138,0.02825 -0.02481,0.03927 -0.01103,0.0124 -0.02687,0.02411 -0.04754,0.03514 L 9.7979527,43.393428 Z M 9.6822658,40.368703 H 8.6260004 V 39.823 H 11.37105 v 0.826822 q 0,0.274919 -0.05994,0.471289 -0.05788,0.19637 -0.163298,0.320394 -0.10542,0.12609 -0.252181,0.183968 -0.146761,0.05788 -0.32246,0.05788 -0.134359,0 -0.256315,-0.03721 -0.119889,-0.03721 -0.221175,-0.109554 -0.099219,-0.07028 -0.1777669,-0.173632 -0.076481,-0.103353 -0.1240233,-0.237712 -0.028939,0.05168 -0.07028,0.09715 -0.039274,0.04547 -0.097152,0.08475 l -1.0004549,0.613916 v -0.489893 q 0,-0.130224 0.1095539,-0.200504 l 0.855761,-0.500227 q 0.049609,-0.03101 0.07028,-0.07028 0.020671,-0.03721 0.020671,-0.107487 z m 0.3865392,0 v 0.276985 q 0,0.132292 0.03514,0.227376 0.03514,0.09715 0.09715,0.159164 0.06201,0.06201 0.146761,0.09095 0.08682,0.03101 0.188102,0.03101 0.200504,0 0.307991,-0.124023 0.109554,-0.124024 0.109554,-0.380339 v -0.281119 z m -1.4428046,-0.65877 v -0.417546 q 0,-0.07235 0.033073,-0.115755 0.03514,-0.04341 0.086816,-0.06408 L 9.2853909,38.93892 V 37.92813 L 8.7479565,37.756564 q -0.045475,-0.01654 -0.084749,-0.06408 -0.037207,-0.04547 -0.037207,-0.113688 V 37.15505 l 2.7450495,1.000455 v 0.553971 z m 1.0397289,-1.659846 v 0.76481 l 0.8681637,-0.279052 q 0.06408,-0.02481 0.148828,-0.05168 0.08682,-0.02687 0.188102,-0.05374 -0.101286,-0.02481 -0.188102,-0.05168 -0.08682,-0.02687 -0.150895,-0.04961 z M 11.371001,34.097 v 0.454752 c 0,0.04823 -0.01102,0.08751 -0.03307,0.117822 -0.02205,0.03169 -0.05099,0.05305 -0.08682,0.06408 l -1.5854031,0.405143 c -0.082681,0.02343 -0.1784527,0.04548 -0.2873156,0.06615 0.053742,0.01103 0.1047288,0.02205 0.1529594,0.03307 0.049608,0.01103 0.095082,0.02412 0.1364231,0.03927 l 1.5833362,0.379403 c 0.03168,0.01103 0.05925,0.03239 0.08268,0.06408 0.02481,0.03169 0.03721,0.06959 0.03721,0.113688 v 0.159163 c 0,0.04823 -0.01102,0.08682 -0.03307,0.115756 -0.02067,0.03032 -0.04961,0.05168 -0.08682,0.06408 l -1.5854031,0.379447 c -0.039963,0.01378 -0.084058,0.02618 -0.1322892,0.03721 -0.046852,0.0124 -0.096461,0.02411 -0.1488254,0.03514 0.052365,0.0096 0.1019729,0.01929 0.1488254,0.02894 0.046852,0.01103 0.090259,0.02205 0.1302221,0.03307 l 1.5874702,0.405212 c 0.03168,0.0096 0.05925,0.03032 0.08268,0.06201 0.02481,0.03307 0.03721,0.07166 0.03721,0.115755 v 0.425814 L 8.6260005,36.881566 v -0.491961 l 1.8251765,-0.443526 c 0.02343,-0.0083 0.04961,-0.01654 0.07855,-0.02481 0.02893,-0.0069 0.05926,-0.01378 0.09094,-0.02067 -0.03169,-0.0069 -0.06201,-0.01447 -0.09094,-0.02274 -0.02895,-0.0083 -0.05512,-0.01585 -0.07855,-0.02274 L 8.6260005,35.401302 V 34.91141 Z" />
    </g>
  </g>
  <g
     inkscape:groupmode="layer"
     id="g1163"
     inkscape:label="COLD"
     style="display:none"
     sodipodi:insensitive="true">
    <g
       inkscape:groupmode="layer"
       id="layer7"
       inkscape:label="front_silk"
       style="display:inline"
       sodipodi:insensitive="true">
      <path
         id="path1197"
         style="font-style:normal;font-variant:normal;font-weight:bold;font-stretch:normal;font-size:4.23333px;line-height:1.25;font-family:Carlito;-inkscape-font-specification:'Carlito Bold';letter-spacing:0px;word-spacing:0px;fill:#000000;fill-opacity:1;stroke:none;stroke-width:0.264583"
         d="m -10.001533,35.326883 q 0.30179,0 0.556038,0.09508 0.25218,0.09508 0.434081,0.270784 0.181901,0.173633 0.283187,0.419612 0.101286,0.24598 0.101286,0.545703 v 1.000455 h -2.74505 v -1.000455 q 0,-0.299723 0.101286,-0.545703 0.101285,-0.245979 0.283186,-0.419612 0.181901,-0.1757 0.434082,-0.270784 0.252181,-0.09508 0.551904,-0.09508 z m 0,0.551904 q -0.219108,0 -0.392741,0.05374 -0.173633,0.05374 -0.295589,0.155029 -0.121956,0.09922 -0.186035,0.243913 -0.06615,0.144694 -0.06615,0.326595 v 0.454752 h 1.883088 v -0.454752 q 0,-0.181901 -0.06408,-0.326595 -0.06408,-0.144694 -0.186035,-0.243912 -0.121956,-0.101286 -0.295589,-0.15503 -0.175699,-0.05374 -0.396873,-0.05374 z m 0.928108,3.042705 V 37.96858 h 0.446484 v 1.496548 h -2.74505 v -0.543636 z m -0.928108,0.86403 q 0.30179,0 0.560172,0.09508 0.256315,0.09508 0.444417,0.270785 0.188102,0.173632 0.293522,0.419612 0.105419,0.245979 0.105419,0.545702 0,0.299724 -0.105419,0.545703 -0.10542,0.24598 -0.293522,0.421679 -0.188102,0.1757 -0.444417,0.272852 -0.258382,0.09509 -0.560172,0.09509 -0.299723,0 -0.556038,-0.09509 -0.258382,-0.09715 -0.444417,-0.272852 -0.188102,-0.175699 -0.293522,-0.421679 -0.107487,-0.245979 -0.107487,-0.545703 0,-0.299723 0.107487,-0.545702 0.10542,-0.24598 0.293522,-0.419613 0.188102,-0.175699 0.444417,-0.270784 0.256315,-0.09508 0.556038,-0.09508 z m 0,0.553971 q -0.219108,0 -0.392741,0.05374 -0.173633,0.05374 -0.295589,0.155029 -0.121956,0.09922 -0.186035,0.243913 -0.06615,0.142627 -0.06615,0.324528 0,0.1819 0.06615,0.326594 0.06408,0.144694 0.186035,0.24598 0.121956,0.09922 0.295589,0.152962 0.173633,0.05374 0.392741,0.05374 0.221175,0 0.396874,-0.05374 0.173633,-0.05374 0.295589,-0.152962 0.119889,-0.101286 0.183968,-0.24598 0.06408,-0.144694 0.06408,-0.326594 0,-0.181901 -0.06408,-0.324528 -0.06408,-0.144694 -0.183968,-0.243913 -0.121956,-0.101286 -0.295589,-0.155029 -0.175699,-0.05374 -0.396874,-0.05374 z m 0.709,2.515606 q 0,-0.04341 0.03307,-0.07441 l 0.233577,-0.217041 q 0.208773,0.148828 0.318326,0.374137 0.109554,0.223242 0.109554,0.531234 0,0.279052 -0.103352,0.502294 -0.10542,0.223242 -0.291455,0.380338 -0.188102,0.15503 -0.444417,0.239779 -0.258382,0.08268 -0.564306,0.08268 -0.307992,0 -0.564306,-0.08888 -0.258382,-0.09095 -0.444417,-0.254248 -0.186035,-0.163297 -0.289388,-0.390673 -0.103353,-0.227376 -0.103353,-0.500228 0,-0.276985 0.09922,-0.489892 0.09715,-0.212907 0.258382,-0.355534 l 0.254248,0.181901 q 0.02274,0.0186 0.04134,0.04341 0.0186,0.02274 0.0186,0.06615 0,0.04341 -0.03307,0.08475 -0.03307,0.03927 -0.07235,0.09922 -0.03927,0.05788 -0.07235,0.146761 -0.03307,0.08888 -0.03307,0.227376 0,0.150895 0.06408,0.274919 0.06201,0.124023 0.183967,0.212906 0.11989,0.08888 0.295589,0.138493 0.173633,0.04754 0.396875,0.04754 0.225309,0 0.401009,-0.05374 0.1757,-0.05374 0.297656,-0.144694 0.119889,-0.09302 0.183968,-0.21704 0.06201,-0.124024 0.06201,-0.266651 0,-0.08475 -0.0083,-0.152962 -0.01034,-0.06821 -0.03307,-0.12609 -0.02481,-0.05994 -0.06201,-0.111621 -0.03721,-0.05168 -0.09302,-0.103353 -0.01654,-0.02067 -0.02687,-0.04134 -0.0124,-0.02274 -0.0124,-0.04548 z" />
    </g>
    <text
       xml:space="preserve"
       style="font-style:normal;font-variant:normal;font-weight:bold;font-stretch:normal;font-size:4.23333px;line-height:1.25;font-family:Carlito;-inkscape-font-specification:'Carlito Bold';letter-spacing:0px;word-spacing:0px;fill:#000000;fill-opacity:1;stroke:none;stroke-width:0.264583"
       x="-44.760925"
       y="-8.6269436"
       id="text1161"
       transform="rotate(-90)"><tspan
         sodipodi:role="line"
         id="tspan1159"
         x="-44.760925"
         y="-8.6269436"
         style="font-style:normal;font-variant:normal;font-weight:bold;font-stretch:normal;font-size:4.23333px;font-family:Carlito;-inkscape-font-specification:'Carlito Bold';stroke-width:0.264583">COLD</tspan></text>
  </g>
</svg>
