%TF.GenerationSoftware,KiCad,Pcbnew,5.1.9+dfsg1-1+deb11u1*%
%TF.CreationDate,2023-04-21T22:24:47+02:00*%
%TF.ProjectId,base,62617365-2e6b-4696-9361-645f70636258,rev?*%
%TF.SameCoordinates,Original*%
%TF.FileFunction,Legend,Bot*%
%TF.FilePolarity,Positive*%
%FSLAX46Y46*%
G04 Gerber Fmt 4.6, Leading zero omitted, Abs format (unit mm)*
G04 Created by KiCad (PCBNEW 5.1.9+dfsg1-1+deb11u1) date 2023-04-21 22:24:47*
%MOMM*%
%LPD*%
G01*
G04 APERTURE LIST*
%ADD10C,0.300000*%
G04 APERTURE END LIST*
D10*
X6928571Y13821428D02*
X6928571Y12750000D01*
X6999999Y12535714D01*
X7142857Y12392857D01*
X7357142Y12321428D01*
X7499999Y12321428D01*
X5499999Y12321428D02*
X6214285Y12321428D01*
X6214285Y13821428D01*
X4142857Y12464285D02*
X4214285Y12392857D01*
X4428571Y12321428D01*
X4571428Y12321428D01*
X4785714Y12392857D01*
X4928571Y12535714D01*
X4999999Y12678571D01*
X5071428Y12964285D01*
X5071428Y13178571D01*
X4999999Y13464285D01*
X4928571Y13607142D01*
X4785714Y13750000D01*
X4571428Y13821428D01*
X4428571Y13821428D01*
X4214285Y13750000D01*
X4142857Y13678571D01*
X3071428Y13821428D02*
X3071428Y12750000D01*
X3142857Y12535714D01*
X3285714Y12392857D01*
X3499999Y12321428D01*
X3642857Y12321428D01*
X1642857Y12321428D02*
X2357142Y12321428D01*
X2357142Y13821428D01*
X285714Y12464285D02*
X357142Y12392857D01*
X571428Y12321428D01*
X714285Y12321428D01*
X928571Y12392857D01*
X1071428Y12535714D01*
X1142857Y12678571D01*
X1214285Y12964285D01*
X1214285Y13178571D01*
X1142857Y13464285D01*
X1071428Y13607142D01*
X928571Y13750000D01*
X714285Y13821428D01*
X571428Y13821428D01*
X357142Y13750000D01*
X285714Y13678571D01*
X-785714Y13821428D02*
X-785714Y12750000D01*
X-714285Y12535714D01*
X-571428Y12392857D01*
X-357142Y12321428D01*
X-214285Y12321428D01*
X-2214285Y12321428D02*
X-1500000Y12321428D01*
X-1500000Y13821428D01*
X-3571428Y12464285D02*
X-3500000Y12392857D01*
X-3285714Y12321428D01*
X-3142857Y12321428D01*
X-2928571Y12392857D01*
X-2785714Y12535714D01*
X-2714285Y12678571D01*
X-2642857Y12964285D01*
X-2642857Y13178571D01*
X-2714285Y13464285D01*
X-2785714Y13607142D01*
X-2928571Y13750000D01*
X-3142857Y13821428D01*
X-3285714Y13821428D01*
X-3500000Y13750000D01*
X-3571428Y13678571D01*
X-4642857Y13821428D02*
X-4642857Y12750000D01*
X-4571428Y12535714D01*
X-4428571Y12392857D01*
X-4214285Y12321428D01*
X-4071428Y12321428D01*
X-6071428Y12321428D02*
X-5357142Y12321428D01*
X-5357142Y13821428D01*
X-7428571Y12464285D02*
X-7357142Y12392857D01*
X-7142857Y12321428D01*
X-7000000Y12321428D01*
X-6785714Y12392857D01*
X-6642857Y12535714D01*
X-6571428Y12678571D01*
X-6500000Y12964285D01*
X-6500000Y13178571D01*
X-6571428Y13464285D01*
X-6642857Y13607142D01*
X-6785714Y13750000D01*
X-7000000Y13821428D01*
X-7142857Y13821428D01*
X-7357142Y13750000D01*
X-7428571Y13678571D01*
M02*
