%TF.GenerationSoftware,KiCad,Pcbnew,5.1.9+dfsg1-1+deb11u1*%
%TF.CreationDate,2023-04-08T12:53:26+02:00*%
%TF.ProjectId,base,62617365-2e6b-4696-9361-645f70636258,rev?*%
%TF.SameCoordinates,Original*%
%TF.FileFunction,Copper,L2,Bot*%
%TF.FilePolarity,Positive*%
%FSLAX46Y46*%
G04 Gerber Fmt 4.6, Leading zero omitted, Abs format (unit mm)*
G04 Created by KiCad (PCBNEW 5.1.9+dfsg1-1+deb11u1) date 2023-04-08 12:53:26*
%MOMM*%
%LPD*%
G01*
G04 APERTURE LIST*
%TA.AperFunction,ComponentPad*%
%ADD10C,2.600000*%
%TD*%
%TA.AperFunction,ComponentPad*%
%ADD11R,2.600000X2.600000*%
%TD*%
%TA.AperFunction,ComponentPad*%
%ADD12R,1.700000X1.700000*%
%TD*%
%TA.AperFunction,ComponentPad*%
%ADD13O,1.700000X1.700000*%
%TD*%
%TA.AperFunction,ComponentPad*%
%ADD14R,3.500000X3.500000*%
%TD*%
%TA.AperFunction,ComponentPad*%
%ADD15C,0.800000*%
%TD*%
%TA.AperFunction,ComponentPad*%
%ADD16C,6.400000*%
%TD*%
%TA.AperFunction,WasherPad*%
%ADD17C,4.000000*%
%TD*%
%TA.AperFunction,ComponentPad*%
%ADD18C,1.800000*%
%TD*%
%TA.AperFunction,ComponentPad*%
%ADD19O,1.600000X1.000000*%
%TD*%
%TA.AperFunction,ComponentPad*%
%ADD20O,2.100000X1.000000*%
%TD*%
%TA.AperFunction,ViaPad*%
%ADD21C,0.800000*%
%TD*%
%TA.AperFunction,Conductor*%
%ADD22C,0.350000*%
%TD*%
%TA.AperFunction,Conductor*%
%ADD23C,0.250000*%
%TD*%
%TA.AperFunction,Conductor*%
%ADD24C,0.254000*%
%TD*%
%TA.AperFunction,Conductor*%
%ADD25C,0.100000*%
%TD*%
G04 APERTURE END LIST*
D10*
%TO.P,J3,3*%
%TO.N,DATA_IN*%
X20000000Y35000000D03*
%TO.P,J3,2*%
%TO.N,VIN*%
X20000000Y30000000D03*
D11*
%TO.P,J3,1*%
%TO.N,GND*%
X20000000Y25000000D03*
%TD*%
D12*
%TO.P,J5,1*%
%TO.N,GND*%
X-23500000Y13000000D03*
D13*
%TO.P,J5,2*%
%TO.N,UPDI_RX*%
X-26040000Y13000000D03*
%TO.P,J5,3*%
%TO.N,UPDI_TX*%
X-28580000Y13000000D03*
%TO.P,J5,4*%
%TO.N,VUSB*%
X-31120000Y13000000D03*
%TD*%
D14*
%TO.P,J2,1*%
%TO.N,V_PSU*%
X0Y34000000D03*
%TO.P,J2,2*%
%TO.N,GND*%
%TA.AperFunction,ComponentPad*%
G36*
G01*
X-1000000Y41500000D02*
X1000000Y41500000D01*
G75*
G02*
X1750000Y40750000I0J-750000D01*
G01*
X1750000Y39250000D01*
G75*
G02*
X1000000Y38500000I-750000J0D01*
G01*
X-1000000Y38500000D01*
G75*
G02*
X-1750000Y39250000I0J750000D01*
G01*
X-1750000Y40750000D01*
G75*
G02*
X-1000000Y41500000I750000J0D01*
G01*
G37*
%TD.AperFunction*%
%TO.P,J2,3*%
%TO.N,Net-(J2-Pad3)*%
%TA.AperFunction,ComponentPad*%
G36*
G01*
X-5575000Y38750000D02*
X-3825000Y38750000D01*
G75*
G02*
X-2950000Y37875000I0J-875000D01*
G01*
X-2950000Y36125000D01*
G75*
G02*
X-3825000Y35250000I-875000J0D01*
G01*
X-5575000Y35250000D01*
G75*
G02*
X-6450000Y36125000I0J875000D01*
G01*
X-6450000Y37875000D01*
G75*
G02*
X-5575000Y38750000I875000J0D01*
G01*
G37*
%TD.AperFunction*%
%TD*%
D15*
%TO.P,REF\u002A\u002A,1*%
%TO.N,N/C*%
X39197056Y-10802944D03*
X37500000Y-10100000D03*
X35802944Y-10802944D03*
X35100000Y-12500000D03*
X35802944Y-14197056D03*
X37500000Y-14900000D03*
X39197056Y-14197056D03*
X39900000Y-12500000D03*
D16*
X37500000Y-12500000D03*
%TD*%
D15*
%TO.P,REF\u002A\u002A,1*%
%TO.N,N/C*%
X-10802944Y-35802944D03*
X-12500000Y-35100000D03*
X-14197056Y-35802944D03*
X-14900000Y-37500000D03*
X-14197056Y-39197056D03*
X-12500000Y-39900000D03*
X-10802944Y-39197056D03*
X-10100000Y-37500000D03*
D16*
X-12500000Y-37500000D03*
%TD*%
D15*
%TO.P,REF\u002A\u002A,1*%
%TO.N,N/C*%
X-10802944Y39197056D03*
X-12500000Y39900000D03*
X-14197056Y39197056D03*
X-14900000Y37500000D03*
X-14197056Y35802944D03*
X-12500000Y35100000D03*
X-10802944Y35802944D03*
X-10100000Y37500000D03*
D16*
X-12500000Y37500000D03*
%TD*%
D15*
%TO.P,REF\u002A\u002A,1*%
%TO.N,N/C*%
X14197056Y39197056D03*
X12500000Y39900000D03*
X10802944Y39197056D03*
X10100000Y37500000D03*
X10802944Y35802944D03*
X12500000Y35100000D03*
X14197056Y35802944D03*
X14900000Y37500000D03*
D16*
X12500000Y37500000D03*
%TD*%
D15*
%TO.P,REF\u002A\u002A,1*%
%TO.N,N/C*%
X14197056Y-35802944D03*
X12500000Y-35100000D03*
X10802944Y-35802944D03*
X10100000Y-37500000D03*
X10802944Y-39197056D03*
X12500000Y-39900000D03*
X14197056Y-39197056D03*
X14900000Y-37500000D03*
D16*
X12500000Y-37500000D03*
%TD*%
D15*
%TO.P,REF\u002A\u002A,1*%
%TO.N,N/C*%
X-35802944Y-10802944D03*
X-37500000Y-10100000D03*
X-39197056Y-10802944D03*
X-39900000Y-12500000D03*
X-39197056Y-14197056D03*
X-37500000Y-14900000D03*
X-35802944Y-14197056D03*
X-35100000Y-12500000D03*
D16*
X-37500000Y-12500000D03*
%TD*%
D15*
%TO.P,REF\u002A\u002A,1*%
%TO.N,N/C*%
X39197056Y14197056D03*
X37500000Y14900000D03*
X35802944Y14197056D03*
X35100000Y12500000D03*
X35802944Y10802944D03*
X37500000Y10100000D03*
X39197056Y10802944D03*
X39900000Y12500000D03*
D16*
X37500000Y12500000D03*
%TD*%
D15*
%TO.P,REF\u002A\u002A,1*%
%TO.N,N/C*%
X-35802944Y14197056D03*
X-37500000Y14900000D03*
X-39197056Y14197056D03*
X-39900000Y12500000D03*
X-39197056Y10802944D03*
X-37500000Y10100000D03*
X-35802944Y10802944D03*
X-35100000Y12500000D03*
D16*
X-37500000Y12500000D03*
%TD*%
D17*
%TO.P,RV3,*%
%TO.N,*%
X24925514Y-31643028D03*
X31643028Y-24925514D03*
D18*
%TO.P,RV3,1*%
%TO.N,Net-(R3-Pad2)*%
X21213203Y-24748737D03*
%TO.P,RV3,2*%
%TO.N,POT2*%
X22980970Y-22980970D03*
%TO.P,RV3,3*%
%TO.N,GND*%
X24748737Y-21213203D03*
%TD*%
D17*
%TO.P,RV2,*%
%TO.N,*%
X-4750000Y-40000000D03*
X4750000Y-40000000D03*
D18*
%TO.P,RV2,1*%
%TO.N,Net-(R2-Pad2)*%
X-2500000Y-32500000D03*
%TO.P,RV2,2*%
%TO.N,POT1*%
X0Y-32500000D03*
%TO.P,RV2,3*%
%TO.N,GND*%
X2500000Y-32500000D03*
%TD*%
D17*
%TO.P,RV1,*%
%TO.N,*%
X-31643028Y-24925514D03*
X-24925514Y-31643028D03*
D18*
%TO.P,RV1,1*%
%TO.N,Net-(R1-Pad2)*%
X-24748737Y-21213203D03*
%TO.P,RV1,2*%
%TO.N,POT0*%
X-22980970Y-22980970D03*
%TO.P,RV1,3*%
%TO.N,GND*%
X-21213203Y-24748737D03*
%TD*%
%TO.P,J1,S1*%
%TO.N,Net-(J1-PadS1)*%
%TA.AperFunction,ComponentPad*%
G36*
G01*
X-34955742Y29553446D02*
X-34531478Y29129182D01*
G75*
G02*
X-34531478Y28422076I-353553J-353553D01*
G01*
X-34531478Y28422076D01*
G75*
G02*
X-35238584Y28422076I-353553J353553D01*
G01*
X-35662848Y28846340D01*
G75*
G02*
X-35662848Y29553446I353553J353553D01*
G01*
X-35662848Y29553446D01*
G75*
G02*
X-34955742Y29553446I353553J-353553D01*
G01*
G37*
%TD.AperFunction*%
%TA.AperFunction,ComponentPad*%
G36*
G01*
X-28846340Y35662848D02*
X-28422076Y35238584D01*
G75*
G02*
X-28422076Y34531478I-353553J-353553D01*
G01*
X-28422076Y34531478D01*
G75*
G02*
X-29129182Y34531478I-353553J353553D01*
G01*
X-29553446Y34955742D01*
G75*
G02*
X-29553446Y35662848I353553J353553D01*
G01*
X-29553446Y35662848D01*
G75*
G02*
X-28846340Y35662848I353553J-353553D01*
G01*
G37*
%TD.AperFunction*%
%TA.AperFunction,ComponentPad*%
G36*
G01*
X-26067410Y32883919D02*
X-25289592Y32106101D01*
G75*
G02*
X-25289592Y31398995I-353553J-353553D01*
G01*
X-25289592Y31398995D01*
G75*
G02*
X-25996698Y31398995I-353553J353553D01*
G01*
X-26774516Y32176813D01*
G75*
G02*
X-26774516Y32883919I353553J353553D01*
G01*
X-26774516Y32883919D01*
G75*
G02*
X-26067410Y32883919I353553J-353553D01*
G01*
G37*
%TD.AperFunction*%
%TA.AperFunction,ComponentPad*%
G36*
G01*
X-32176813Y26774516D02*
X-31398995Y25996698D01*
G75*
G02*
X-31398995Y25289592I-353553J-353553D01*
G01*
X-31398995Y25289592D01*
G75*
G02*
X-32106101Y25289592I-353553J353553D01*
G01*
X-32883919Y26067410D01*
G75*
G02*
X-32883919Y26774516I353553J353553D01*
G01*
X-32883919Y26774516D01*
G75*
G02*
X-32176813Y26774516I353553J-353553D01*
G01*
G37*
%TD.AperFunction*%
%TD*%
%TO.P,SW1,3*%
%TO.N,Net-(SW1-Pad3)*%
%TA.AperFunction,ComponentPad*%
G36*
G01*
X38900000Y-3200000D02*
X40900000Y-3200000D01*
G75*
G02*
X41650000Y-3950000I0J-750000D01*
G01*
X41650000Y-5450000D01*
G75*
G02*
X40900000Y-6200000I-750000J0D01*
G01*
X38900000Y-6200000D01*
G75*
G02*
X38150000Y-5450000I0J750000D01*
G01*
X38150000Y-3950000D01*
G75*
G02*
X38900000Y-3200000I750000J0D01*
G01*
G37*
%TD.AperFunction*%
%TO.P,SW1,2*%
%TO.N,Net-(SW1-Pad2)*%
%TA.AperFunction,ComponentPad*%
G36*
G01*
X38900000Y1500000D02*
X40900000Y1500000D01*
G75*
G02*
X41650000Y750000I0J-750000D01*
G01*
X41650000Y-750000D01*
G75*
G02*
X40900000Y-1500000I-750000J0D01*
G01*
X38900000Y-1500000D01*
G75*
G02*
X38150000Y-750000I0J750000D01*
G01*
X38150000Y750000D01*
G75*
G02*
X38900000Y1500000I750000J0D01*
G01*
G37*
%TD.AperFunction*%
%TO.P,SW1,1*%
%TO.N,Net-(SW1-Pad1)*%
%TA.AperFunction,ComponentPad*%
G36*
G01*
X38900000Y6200000D02*
X40900000Y6200000D01*
G75*
G02*
X41650000Y5450000I0J-750000D01*
G01*
X41650000Y3950000D01*
G75*
G02*
X40900000Y3200000I-750000J0D01*
G01*
X38900000Y3200000D01*
G75*
G02*
X38150000Y3950000I0J750000D01*
G01*
X38150000Y5450000D01*
G75*
G02*
X38900000Y6200000I750000J0D01*
G01*
G37*
%TD.AperFunction*%
%TO.P,SW1,6*%
%TO.N,Net-(SW1-Pad6)*%
%TA.AperFunction,ComponentPad*%
G36*
G01*
X34100000Y-3200000D02*
X36100000Y-3200000D01*
G75*
G02*
X36850000Y-3950000I0J-750000D01*
G01*
X36850000Y-5450000D01*
G75*
G02*
X36100000Y-6200000I-750000J0D01*
G01*
X34100000Y-6200000D01*
G75*
G02*
X33350000Y-5450000I0J750000D01*
G01*
X33350000Y-3950000D01*
G75*
G02*
X34100000Y-3200000I750000J0D01*
G01*
G37*
%TD.AperFunction*%
%TO.P,SW1,5*%
%TO.N,VIN*%
%TA.AperFunction,ComponentPad*%
G36*
G01*
X34100000Y1500000D02*
X36100000Y1500000D01*
G75*
G02*
X36850000Y750000I0J-750000D01*
G01*
X36850000Y-750000D01*
G75*
G02*
X36100000Y-1500000I-750000J0D01*
G01*
X34100000Y-1500000D01*
G75*
G02*
X33350000Y-750000I0J750000D01*
G01*
X33350000Y750000D01*
G75*
G02*
X34100000Y1500000I750000J0D01*
G01*
G37*
%TD.AperFunction*%
%TO.P,SW1,4*%
%TO.N,V_PSU*%
%TA.AperFunction,ComponentPad*%
G36*
G01*
X34100000Y6200000D02*
X36100000Y6200000D01*
G75*
G02*
X36850000Y5450000I0J-750000D01*
G01*
X36850000Y3950000D01*
G75*
G02*
X36100000Y3200000I-750000J0D01*
G01*
X34100000Y3200000D01*
G75*
G02*
X33350000Y3950000I0J750000D01*
G01*
X33350000Y5450000D01*
G75*
G02*
X34100000Y6200000I750000J0D01*
G01*
G37*
%TD.AperFunction*%
%TD*%
D19*
%TO.P,J4,S1*%
%TO.N,Net-(J4-PadS1)*%
X-45450000Y-4220000D03*
X-45450000Y4420000D03*
D20*
X-41270000Y4420000D03*
X-41270000Y-4220000D03*
%TD*%
D21*
%TO.N,VIN*%
X16660000Y31700000D03*
%TO.N,GND*%
X-2475000Y-25974984D03*
X-800000Y-25700000D03*
X900000Y-27400000D03*
X800000Y-25500000D03*
X3500000Y-27100000D03*
X4500000Y-23400000D03*
X10000000Y-23200000D03*
X11700000Y-25000000D03*
X12300000Y-21300000D03*
X-27700000Y-6700000D03*
X-20300000Y-14100000D03*
X10900000Y-14000000D03*
X9000000Y-12600000D03*
X5300000Y-12700000D03*
X8300000Y-6900000D03*
X28800000Y1000000D03*
X9200000Y19600000D03*
X11100000Y17900000D03*
X19000000Y15400000D03*
X15000000Y19800000D03*
X15000000Y13400000D03*
X17000000Y30000000D03*
X24500000Y21400000D03*
X26700000Y13700000D03*
X34000000Y7500000D03*
X34000000Y19000000D03*
X36000000Y26000000D03*
X24000000Y40000000D03*
X3800000Y33800000D03*
X10610000Y33610000D03*
X12800000Y30600000D03*
X12800000Y28200000D03*
X-6500000Y31070000D03*
X-8470000Y23660000D03*
X-26100000Y15500000D03*
X-24200000Y17300000D03*
X12000000Y-6600000D03*
X30900000Y-1300000D03*
X23700000Y-1300000D03*
X22700000Y1300000D03*
X-19940000Y15400000D03*
X-11200000Y-20200000D03*
X-11900000Y-23000000D03*
X-4400000Y-23200000D03*
X-26500000Y-4800000D03*
X-6700000Y-28500000D03*
X-18800000Y-12400000D03*
X-22700000Y20800000D03*
X-16800000Y16400000D03*
X-16300000Y18900000D03*
X-14900000Y13100000D03*
X-13300000Y13100000D03*
X-13100000Y-12000000D03*
X-14900000Y-12900000D03*
X-6500000Y-18800000D03*
X-8200000Y-19600000D03*
X8400000Y38900000D03*
X6400000Y43800000D03*
X3400000Y40800000D03*
X16000000Y32700000D03*
X16920000Y23860000D03*
X16900000Y26060000D03*
%TO.N,3V3*%
X2475000Y-26025000D03*
X-1300000Y-26900000D03*
X10700000Y-24300000D03*
X12200000Y-22700000D03*
%TO.N,VUSB*%
X-28300000Y24800000D03*
X-28200000Y30800000D03*
%TO.N,VUSB2*%
X-42600000Y2000000D03*
X-38800000Y-2300000D03*
%TD*%
D22*
%TO.N,VIN*%
X18360000Y30000000D02*
X16660000Y31700000D01*
X20000000Y30000000D02*
X18360000Y30000000D01*
D23*
%TO.N,3V3*%
X-500000Y-26900000D02*
X-1300000Y-26900000D01*
X100000Y-26300000D02*
X-500000Y-26900000D01*
X2200000Y-26300000D02*
X100000Y-26300000D01*
X2475000Y-26025000D02*
X2200000Y-26300000D01*
X10700000Y-24200000D02*
X12200000Y-22700000D01*
X10700000Y-24300000D02*
X10700000Y-24200000D01*
D22*
%TO.N,VUSB*%
X-28300000Y24800000D02*
X-30400000Y26900000D01*
X-30400000Y26900000D02*
X-30400000Y29100000D01*
X-28700000Y30800000D02*
X-28200000Y30800000D01*
X-30400000Y29100000D02*
X-28700000Y30800000D01*
%TO.N,VUSB2*%
X-42600000Y2000000D02*
X-42600000Y-900000D01*
X-41200000Y-2300000D02*
X-38800000Y-2300000D01*
X-42600000Y-900000D02*
X-41200000Y-2300000D01*
%TD*%
D24*
%TO.N,GND*%
X2056987Y47549528D02*
X4792993Y47352044D01*
X7513077Y46997261D01*
X10208204Y46486357D01*
X12869420Y45821031D01*
X15487885Y45003492D01*
X18054901Y44036455D01*
X20561940Y42923134D01*
X23000675Y41667227D01*
X25363003Y40272905D01*
X27641079Y38744801D01*
X29827333Y37087991D01*
X31914504Y35307977D01*
X33895658Y33410675D01*
X35764214Y31402385D01*
X37513966Y29289780D01*
X39139099Y27079877D01*
X40634217Y24780018D01*
X41994351Y22397842D01*
X43214985Y19941262D01*
X44292062Y17418440D01*
X45222006Y14837755D01*
X46001727Y12207781D01*
X46628635Y9537253D01*
X47100648Y6835044D01*
X47416196Y4110130D01*
X47574233Y1371562D01*
X47574233Y-1371562D01*
X47416196Y-4110130D01*
X47100648Y-6835044D01*
X46628635Y-9537253D01*
X46001727Y-12207781D01*
X45222006Y-14837755D01*
X44292062Y-17418440D01*
X43214985Y-19941262D01*
X41994351Y-22397842D01*
X40634217Y-24780018D01*
X39139099Y-27079877D01*
X37513966Y-29289780D01*
X35764214Y-31402385D01*
X33895658Y-33410675D01*
X31914504Y-35307977D01*
X29827333Y-37087991D01*
X27641079Y-38744801D01*
X25363003Y-40272905D01*
X23000675Y-41667227D01*
X20561940Y-42923134D01*
X18054901Y-44036455D01*
X15487885Y-45003492D01*
X12869420Y-45821031D01*
X10208204Y-46486357D01*
X7513077Y-46997261D01*
X4792993Y-47352044D01*
X2056987Y-47549528D01*
X-685852Y-47589058D01*
X-3426413Y-47470502D01*
X-6155592Y-47194253D01*
X-8864322Y-46761230D01*
X-11543606Y-46172871D01*
X-14184544Y-45431130D01*
X-16778361Y-44538471D01*
X-19316443Y-43497861D01*
X-21790357Y-42312754D01*
X-24191886Y-40987089D01*
X-26513052Y-39525269D01*
X-28746145Y-37932150D01*
X-29722042Y-37147302D01*
X-16081000Y-37147302D01*
X-16081000Y-37852698D01*
X-15943384Y-38544539D01*
X-15673441Y-39196240D01*
X-15281544Y-39782754D01*
X-14782754Y-40281544D01*
X-14196240Y-40673441D01*
X-13544539Y-40943384D01*
X-12852698Y-41081000D01*
X-12147302Y-41081000D01*
X-11455461Y-40943384D01*
X-10803760Y-40673441D01*
X-10217246Y-40281544D01*
X-9718456Y-39782754D01*
X-9706922Y-39765492D01*
X-7131000Y-39765492D01*
X-7131000Y-40234508D01*
X-7039500Y-40694512D01*
X-6860015Y-41127827D01*
X-6599444Y-41517799D01*
X-6267799Y-41849444D01*
X-5877827Y-42110015D01*
X-5444512Y-42289500D01*
X-4984508Y-42381000D01*
X-4515492Y-42381000D01*
X-4055488Y-42289500D01*
X-3622173Y-42110015D01*
X-3232201Y-41849444D01*
X-2900556Y-41517799D01*
X-2639985Y-41127827D01*
X-2460500Y-40694512D01*
X-2369000Y-40234508D01*
X-2369000Y-39765492D01*
X2369000Y-39765492D01*
X2369000Y-40234508D01*
X2460500Y-40694512D01*
X2639985Y-41127827D01*
X2900556Y-41517799D01*
X3232201Y-41849444D01*
X3622173Y-42110015D01*
X4055488Y-42289500D01*
X4515492Y-42381000D01*
X4984508Y-42381000D01*
X5444512Y-42289500D01*
X5877827Y-42110015D01*
X6267799Y-41849444D01*
X6599444Y-41517799D01*
X6860015Y-41127827D01*
X7039500Y-40694512D01*
X7131000Y-40234508D01*
X7131000Y-39765492D01*
X7039500Y-39305488D01*
X6860015Y-38872173D01*
X6599444Y-38482201D01*
X6267799Y-38150556D01*
X5877827Y-37889985D01*
X5444512Y-37710500D01*
X4984508Y-37619000D01*
X4515492Y-37619000D01*
X4055488Y-37710500D01*
X3622173Y-37889985D01*
X3232201Y-38150556D01*
X2900556Y-38482201D01*
X2639985Y-38872173D01*
X2460500Y-39305488D01*
X2369000Y-39765492D01*
X-2369000Y-39765492D01*
X-2460500Y-39305488D01*
X-2639985Y-38872173D01*
X-2900556Y-38482201D01*
X-3232201Y-38150556D01*
X-3622173Y-37889985D01*
X-4055488Y-37710500D01*
X-4515492Y-37619000D01*
X-4984508Y-37619000D01*
X-5444512Y-37710500D01*
X-5877827Y-37889985D01*
X-6267799Y-38150556D01*
X-6599444Y-38482201D01*
X-6860015Y-38872173D01*
X-7039500Y-39305488D01*
X-7131000Y-39765492D01*
X-9706922Y-39765492D01*
X-9326559Y-39196240D01*
X-9056616Y-38544539D01*
X-8919000Y-37852698D01*
X-8919000Y-37147302D01*
X8919000Y-37147302D01*
X8919000Y-37852698D01*
X9056616Y-38544539D01*
X9326559Y-39196240D01*
X9718456Y-39782754D01*
X10217246Y-40281544D01*
X10803760Y-40673441D01*
X11455461Y-40943384D01*
X12147302Y-41081000D01*
X12852698Y-41081000D01*
X13544539Y-40943384D01*
X14196240Y-40673441D01*
X14782754Y-40281544D01*
X15281544Y-39782754D01*
X15673441Y-39196240D01*
X15943384Y-38544539D01*
X16081000Y-37852698D01*
X16081000Y-37147302D01*
X15943384Y-36455461D01*
X15673441Y-35803760D01*
X15281544Y-35217246D01*
X14782754Y-34718456D01*
X14196240Y-34326559D01*
X13544539Y-34056616D01*
X12852698Y-33919000D01*
X12147302Y-33919000D01*
X11455461Y-34056616D01*
X10803760Y-34326559D01*
X10217246Y-34718456D01*
X9718456Y-35217246D01*
X9326559Y-35803760D01*
X9056616Y-36455461D01*
X8919000Y-37147302D01*
X-8919000Y-37147302D01*
X-9056616Y-36455461D01*
X-9326559Y-35803760D01*
X-9718456Y-35217246D01*
X-10217246Y-34718456D01*
X-10803760Y-34326559D01*
X-11455461Y-34056616D01*
X-12147302Y-33919000D01*
X-12852698Y-33919000D01*
X-13544539Y-34056616D01*
X-14196240Y-34326559D01*
X-14782754Y-34718456D01*
X-15281544Y-35217246D01*
X-15673441Y-35803760D01*
X-15943384Y-36455461D01*
X-16081000Y-37147302D01*
X-29722042Y-37147302D01*
X-30883745Y-36213024D01*
X-32918753Y-34373602D01*
X-34844408Y-32419995D01*
X-35732522Y-31408520D01*
X-27306514Y-31408520D01*
X-27306514Y-31877536D01*
X-27215014Y-32337540D01*
X-27035529Y-32770855D01*
X-26774958Y-33160827D01*
X-26443313Y-33492472D01*
X-26053341Y-33753043D01*
X-25620026Y-33932528D01*
X-25160022Y-34024028D01*
X-24691006Y-34024028D01*
X-24231002Y-33932528D01*
X-23797687Y-33753043D01*
X-23407715Y-33492472D01*
X-23076070Y-33160827D01*
X-22815499Y-32770855D01*
X-22651048Y-32373833D01*
X-3781000Y-32373833D01*
X-3781000Y-32626167D01*
X-3731772Y-32873654D01*
X-3635207Y-33106781D01*
X-3495018Y-33316590D01*
X-3316590Y-33495018D01*
X-3106781Y-33635207D01*
X-2873654Y-33731772D01*
X-2626167Y-33781000D01*
X-2373833Y-33781000D01*
X-2126346Y-33731772D01*
X-1893219Y-33635207D01*
X-1683410Y-33495018D01*
X-1504982Y-33316590D01*
X-1364793Y-33106781D01*
X-1268228Y-32873654D01*
X-1250000Y-32782015D01*
X-1231772Y-32873654D01*
X-1135207Y-33106781D01*
X-995018Y-33316590D01*
X-816590Y-33495018D01*
X-606781Y-33635207D01*
X-373654Y-33731772D01*
X-126167Y-33781000D01*
X126167Y-33781000D01*
X373654Y-33731772D01*
X606781Y-33635207D01*
X713230Y-33564080D01*
X1615525Y-33564080D01*
X1699208Y-33818261D01*
X1971775Y-33949158D01*
X2264642Y-34024365D01*
X2566553Y-34040991D01*
X2865907Y-33998397D01*
X3151199Y-33898222D01*
X3300792Y-33818261D01*
X3384475Y-33564080D01*
X2500000Y-32679605D01*
X1615525Y-33564080D01*
X713230Y-33564080D01*
X816590Y-33495018D01*
X995018Y-33316590D01*
X1103445Y-33154317D01*
X1181739Y-33300792D01*
X1435920Y-33384475D01*
X2320395Y-32500000D01*
X2679605Y-32500000D01*
X3564080Y-33384475D01*
X3818261Y-33300792D01*
X3949158Y-33028225D01*
X4024365Y-32735358D01*
X4040991Y-32433447D01*
X3998397Y-32134093D01*
X3898222Y-31848801D01*
X3818261Y-31699208D01*
X3564080Y-31615525D01*
X2679605Y-32500000D01*
X2320395Y-32500000D01*
X1435920Y-31615525D01*
X1181739Y-31699208D01*
X1108071Y-31852607D01*
X995018Y-31683410D01*
X816590Y-31504982D01*
X713231Y-31435920D01*
X1615525Y-31435920D01*
X2500000Y-32320395D01*
X3384475Y-31435920D01*
X3375455Y-31408520D01*
X22544514Y-31408520D01*
X22544514Y-31877536D01*
X22636014Y-32337540D01*
X22815499Y-32770855D01*
X23076070Y-33160827D01*
X23407715Y-33492472D01*
X23797687Y-33753043D01*
X24231002Y-33932528D01*
X24691006Y-34024028D01*
X25160022Y-34024028D01*
X25620026Y-33932528D01*
X26053341Y-33753043D01*
X26443313Y-33492472D01*
X26774958Y-33160827D01*
X27035529Y-32770855D01*
X27215014Y-32337540D01*
X27306514Y-31877536D01*
X27306514Y-31408520D01*
X27215014Y-30948516D01*
X27035529Y-30515201D01*
X26774958Y-30125229D01*
X26443313Y-29793584D01*
X26053341Y-29533013D01*
X25620026Y-29353528D01*
X25160022Y-29262028D01*
X24691006Y-29262028D01*
X24231002Y-29353528D01*
X23797687Y-29533013D01*
X23407715Y-29793584D01*
X23076070Y-30125229D01*
X22815499Y-30515201D01*
X22636014Y-30948516D01*
X22544514Y-31408520D01*
X3375455Y-31408520D01*
X3300792Y-31181739D01*
X3028225Y-31050842D01*
X2735358Y-30975635D01*
X2433447Y-30959009D01*
X2134093Y-31001603D01*
X1848801Y-31101778D01*
X1699208Y-31181739D01*
X1615525Y-31435920D01*
X713231Y-31435920D01*
X606781Y-31364793D01*
X373654Y-31268228D01*
X126167Y-31219000D01*
X-126167Y-31219000D01*
X-373654Y-31268228D01*
X-606781Y-31364793D01*
X-816590Y-31504982D01*
X-995018Y-31683410D01*
X-1135207Y-31893219D01*
X-1231772Y-32126346D01*
X-1250000Y-32217985D01*
X-1268228Y-32126346D01*
X-1364793Y-31893219D01*
X-1504982Y-31683410D01*
X-1683410Y-31504982D01*
X-1893219Y-31364793D01*
X-2126346Y-31268228D01*
X-2373833Y-31219000D01*
X-2626167Y-31219000D01*
X-2873654Y-31268228D01*
X-3106781Y-31364793D01*
X-3316590Y-31504982D01*
X-3495018Y-31683410D01*
X-3635207Y-31893219D01*
X-3731772Y-32126346D01*
X-3781000Y-32373833D01*
X-22651048Y-32373833D01*
X-22636014Y-32337540D01*
X-22544514Y-31877536D01*
X-22544514Y-31408520D01*
X-22636014Y-30948516D01*
X-22815499Y-30515201D01*
X-23076070Y-30125229D01*
X-23407715Y-29793584D01*
X-23797687Y-29533013D01*
X-24231002Y-29353528D01*
X-24691006Y-29262028D01*
X-25160022Y-29262028D01*
X-25620026Y-29353528D01*
X-26053341Y-29533013D01*
X-26443313Y-29793584D01*
X-26774958Y-30125229D01*
X-27035529Y-30515201D01*
X-27215014Y-30948516D01*
X-27306514Y-31408520D01*
X-35732522Y-31408520D01*
X-36654313Y-30358691D01*
X-38342457Y-28196539D01*
X-39903231Y-25940721D01*
X-40665346Y-24691006D01*
X-34024028Y-24691006D01*
X-34024028Y-25160022D01*
X-33932528Y-25620026D01*
X-33753043Y-26053341D01*
X-33492472Y-26443313D01*
X-33160827Y-26774958D01*
X-32770855Y-27035529D01*
X-32337540Y-27215014D01*
X-31877536Y-27306514D01*
X-31408520Y-27306514D01*
X-30948516Y-27215014D01*
X-30515201Y-27035529D01*
X-30197246Y-26823078D01*
X-2081000Y-26823078D01*
X-2081000Y-26976922D01*
X-2050987Y-27127809D01*
X-1992113Y-27269942D01*
X-1906642Y-27397859D01*
X-1797859Y-27506642D01*
X-1669942Y-27592113D01*
X-1527809Y-27650987D01*
X-1376922Y-27681000D01*
X-1223078Y-27681000D01*
X-1072191Y-27650987D01*
X-930058Y-27592113D01*
X-802141Y-27506642D01*
X-701499Y-27406000D01*
X-524846Y-27406000D01*
X-500000Y-27408447D01*
X-475154Y-27406000D01*
X-475146Y-27406000D01*
X-400807Y-27398678D01*
X-305425Y-27369745D01*
X-217521Y-27322759D01*
X-140473Y-27259527D01*
X-124624Y-27240215D01*
X309592Y-26806000D01*
X2175154Y-26806000D01*
X2200000Y-26808447D01*
X2224846Y-26806000D01*
X2224854Y-26806000D01*
X2299193Y-26798678D01*
X2323777Y-26791221D01*
X2398078Y-26806000D01*
X2551922Y-26806000D01*
X2702809Y-26775987D01*
X2844942Y-26717113D01*
X2972859Y-26631642D01*
X3081642Y-26522859D01*
X3167113Y-26394942D01*
X3225987Y-26252809D01*
X3256000Y-26101922D01*
X3256000Y-25948078D01*
X3225987Y-25797191D01*
X3167113Y-25655058D01*
X3081642Y-25527141D01*
X2972859Y-25418358D01*
X2844942Y-25332887D01*
X2702809Y-25274013D01*
X2551922Y-25244000D01*
X2398078Y-25244000D01*
X2247191Y-25274013D01*
X2105058Y-25332887D01*
X1977141Y-25418358D01*
X1868358Y-25527141D01*
X1782887Y-25655058D01*
X1725335Y-25794000D01*
X124845Y-25794000D01*
X99999Y-25791553D01*
X75153Y-25794000D01*
X75146Y-25794000D01*
X10694Y-25800348D01*
X806Y-25801322D01*
X-94575Y-25830255D01*
X-182479Y-25877241D01*
X-259527Y-25940473D01*
X-275371Y-25959779D01*
X-705545Y-26389954D01*
X-802141Y-26293358D01*
X-930058Y-26207887D01*
X-1072191Y-26149013D01*
X-1223078Y-26119000D01*
X-1376922Y-26119000D01*
X-1527809Y-26149013D01*
X-1669942Y-26207887D01*
X-1797859Y-26293358D01*
X-1906642Y-26402141D01*
X-1992113Y-26530058D01*
X-2050987Y-26672191D01*
X-2081000Y-26823078D01*
X-30197246Y-26823078D01*
X-30125229Y-26774958D01*
X-29793584Y-26443313D01*
X-29533013Y-26053341D01*
X-29353528Y-25620026D01*
X-29262028Y-25160022D01*
X-29262028Y-25114643D01*
X-22711600Y-25114643D01*
X-22611424Y-25399935D01*
X-22457515Y-25660202D01*
X-22255788Y-25885442D01*
X-22013995Y-26066999D01*
X-21741428Y-26197896D01*
X-21579109Y-26247134D01*
X-21340203Y-26126573D01*
X-21340203Y-24875737D01*
X-21086203Y-24875737D01*
X-21086203Y-26126573D01*
X-20847297Y-26247134D01*
X-20562005Y-26146958D01*
X-20301738Y-25993049D01*
X-20076498Y-25791322D01*
X-19894941Y-25549529D01*
X-19764044Y-25276962D01*
X-19714806Y-25114643D01*
X-19835367Y-24875737D01*
X-21086203Y-24875737D01*
X-21340203Y-24875737D01*
X-22591039Y-24875737D01*
X-22711600Y-25114643D01*
X-29262028Y-25114643D01*
X-29262028Y-24691006D01*
X-29353528Y-24231002D01*
X-29533013Y-23797687D01*
X-29793584Y-23407715D01*
X-30125229Y-23076070D01*
X-30515201Y-22815499D01*
X-30948516Y-22636014D01*
X-31408520Y-22544514D01*
X-31877536Y-22544514D01*
X-32337540Y-22636014D01*
X-32770855Y-22815499D01*
X-33160827Y-23076070D01*
X-33492472Y-23407715D01*
X-33753043Y-23797687D01*
X-33932528Y-24231002D01*
X-34024028Y-24691006D01*
X-40665346Y-24691006D01*
X-41331450Y-23598731D01*
X-42622370Y-21178348D01*
X-42664505Y-21087036D01*
X-26029737Y-21087036D01*
X-26029737Y-21339370D01*
X-25980509Y-21586857D01*
X-25883944Y-21819984D01*
X-25743755Y-22029793D01*
X-25565327Y-22208221D01*
X-25355518Y-22348410D01*
X-25122391Y-22444975D01*
X-24874904Y-22494203D01*
X-24622570Y-22494203D01*
X-24375083Y-22444975D01*
X-24141956Y-22348410D01*
X-24064268Y-22296501D01*
X-24116177Y-22374189D01*
X-24212742Y-22607316D01*
X-24261970Y-22854803D01*
X-24261970Y-23107137D01*
X-24212742Y-23354624D01*
X-24116177Y-23587751D01*
X-23975988Y-23797560D01*
X-23797560Y-23975988D01*
X-23587751Y-24116177D01*
X-23354624Y-24212742D01*
X-23107137Y-24261970D01*
X-22854803Y-24261970D01*
X-22663388Y-24223895D01*
X-22711600Y-24382831D01*
X-22591039Y-24621737D01*
X-21519811Y-24621737D01*
X-21406952Y-24734596D01*
X-21227344Y-24554988D01*
X-21340203Y-24442129D01*
X-21340203Y-23370901D01*
X-21086203Y-23370901D01*
X-21086203Y-24621737D01*
X-19835367Y-24621737D01*
X-19714806Y-24382831D01*
X-19770900Y-24223078D01*
X9919000Y-24223078D01*
X9919000Y-24376922D01*
X9949013Y-24527809D01*
X10007887Y-24669942D01*
X10093358Y-24797859D01*
X10202141Y-24906642D01*
X10330058Y-24992113D01*
X10472191Y-25050987D01*
X10623078Y-25081000D01*
X10776922Y-25081000D01*
X10927809Y-25050987D01*
X11069942Y-24992113D01*
X11197859Y-24906642D01*
X11306642Y-24797859D01*
X11392113Y-24669942D01*
X11411735Y-24622570D01*
X19932203Y-24622570D01*
X19932203Y-24874904D01*
X19981431Y-25122391D01*
X20077996Y-25355518D01*
X20218185Y-25565327D01*
X20396613Y-25743755D01*
X20606422Y-25883944D01*
X20839549Y-25980509D01*
X21087036Y-26029737D01*
X21339370Y-26029737D01*
X21586857Y-25980509D01*
X21819984Y-25883944D01*
X22029793Y-25743755D01*
X22208221Y-25565327D01*
X22348410Y-25355518D01*
X22444975Y-25122391D01*
X22494203Y-24874904D01*
X22494203Y-24691006D01*
X29262028Y-24691006D01*
X29262028Y-25160022D01*
X29353528Y-25620026D01*
X29533013Y-26053341D01*
X29793584Y-26443313D01*
X30125229Y-26774958D01*
X30515201Y-27035529D01*
X30948516Y-27215014D01*
X31408520Y-27306514D01*
X31877536Y-27306514D01*
X32337540Y-27215014D01*
X32770855Y-27035529D01*
X33160827Y-26774958D01*
X33492472Y-26443313D01*
X33753043Y-26053341D01*
X33932528Y-25620026D01*
X34024028Y-25160022D01*
X34024028Y-24691006D01*
X33932528Y-24231002D01*
X33753043Y-23797687D01*
X33492472Y-23407715D01*
X33160827Y-23076070D01*
X32770855Y-22815499D01*
X32337540Y-22636014D01*
X31877536Y-22544514D01*
X31408520Y-22544514D01*
X30948516Y-22636014D01*
X30515201Y-22815499D01*
X30125229Y-23076070D01*
X29793584Y-23407715D01*
X29533013Y-23797687D01*
X29353528Y-24231002D01*
X29262028Y-24691006D01*
X22494203Y-24691006D01*
X22494203Y-24622570D01*
X22444975Y-24375083D01*
X22348410Y-24141956D01*
X22296501Y-24064268D01*
X22374189Y-24116177D01*
X22607316Y-24212742D01*
X22854803Y-24261970D01*
X23107137Y-24261970D01*
X23354624Y-24212742D01*
X23587751Y-24116177D01*
X23797560Y-23975988D01*
X23975988Y-23797560D01*
X24116177Y-23587751D01*
X24212742Y-23354624D01*
X24261970Y-23107137D01*
X24261970Y-22854803D01*
X24223895Y-22663388D01*
X24382831Y-22711600D01*
X24621737Y-22591039D01*
X24621737Y-21519811D01*
X24734596Y-21406952D01*
X24667847Y-21340203D01*
X24875737Y-21340203D01*
X24875737Y-22591039D01*
X25114643Y-22711600D01*
X25399935Y-22611424D01*
X25660202Y-22457515D01*
X25885442Y-22255788D01*
X26066999Y-22013995D01*
X26197896Y-21741428D01*
X26247134Y-21579109D01*
X26126573Y-21340203D01*
X24875737Y-21340203D01*
X24667847Y-21340203D01*
X24554988Y-21227344D01*
X24442129Y-21340203D01*
X23370901Y-21340203D01*
X23250340Y-21579109D01*
X23306718Y-21739669D01*
X23107137Y-21699970D01*
X22854803Y-21699970D01*
X22607316Y-21749198D01*
X22374189Y-21845763D01*
X22164380Y-21985952D01*
X21985952Y-22164380D01*
X21845763Y-22374189D01*
X21749198Y-22607316D01*
X21699970Y-22854803D01*
X21699970Y-23107137D01*
X21749198Y-23354624D01*
X21845763Y-23587751D01*
X21897672Y-23665439D01*
X21819984Y-23613530D01*
X21586857Y-23516965D01*
X21339370Y-23467737D01*
X21087036Y-23467737D01*
X20839549Y-23516965D01*
X20606422Y-23613530D01*
X20396613Y-23753719D01*
X20218185Y-23932147D01*
X20077996Y-24141956D01*
X19981431Y-24375083D01*
X19932203Y-24622570D01*
X11411735Y-24622570D01*
X11450987Y-24527809D01*
X11481000Y-24376922D01*
X11481000Y-24223078D01*
X11466319Y-24149272D01*
X12134592Y-23481000D01*
X12276922Y-23481000D01*
X12427809Y-23450987D01*
X12569942Y-23392113D01*
X12697859Y-23306642D01*
X12806642Y-23197859D01*
X12892113Y-23069942D01*
X12950987Y-22927809D01*
X12981000Y-22776922D01*
X12981000Y-22623078D01*
X12950987Y-22472191D01*
X12892113Y-22330058D01*
X12806642Y-22202141D01*
X12697859Y-22093358D01*
X12569942Y-22007887D01*
X12427809Y-21949013D01*
X12276922Y-21919000D01*
X12123078Y-21919000D01*
X11972191Y-21949013D01*
X11830058Y-22007887D01*
X11702141Y-22093358D01*
X11593358Y-22202141D01*
X11507887Y-22330058D01*
X11449013Y-22472191D01*
X11419000Y-22623078D01*
X11419000Y-22765408D01*
X10665409Y-23519000D01*
X10623078Y-23519000D01*
X10472191Y-23549013D01*
X10330058Y-23607887D01*
X10202141Y-23693358D01*
X10093358Y-23802141D01*
X10007887Y-23930058D01*
X9949013Y-24072191D01*
X9919000Y-24223078D01*
X-19770900Y-24223078D01*
X-19814982Y-24097539D01*
X-19968891Y-23837272D01*
X-20170618Y-23612032D01*
X-20412411Y-23430475D01*
X-20684978Y-23299578D01*
X-20847297Y-23250340D01*
X-21086203Y-23370901D01*
X-21340203Y-23370901D01*
X-21579109Y-23250340D01*
X-21739669Y-23306718D01*
X-21699970Y-23107137D01*
X-21699970Y-22854803D01*
X-21749198Y-22607316D01*
X-21845763Y-22374189D01*
X-21985952Y-22164380D01*
X-22164380Y-21985952D01*
X-22374189Y-21845763D01*
X-22607316Y-21749198D01*
X-22854803Y-21699970D01*
X-23107137Y-21699970D01*
X-23354624Y-21749198D01*
X-23587751Y-21845763D01*
X-23665439Y-21897672D01*
X-23613530Y-21819984D01*
X-23516965Y-21586857D01*
X-23467737Y-21339370D01*
X-23467737Y-21087036D01*
X-23515423Y-20847297D01*
X23250340Y-20847297D01*
X23370901Y-21086203D01*
X24621737Y-21086203D01*
X24621737Y-19835367D01*
X24875737Y-19835367D01*
X24875737Y-21086203D01*
X26126573Y-21086203D01*
X26247134Y-20847297D01*
X26146958Y-20562005D01*
X25993049Y-20301738D01*
X25791322Y-20076498D01*
X25549529Y-19894941D01*
X25276962Y-19764044D01*
X25114643Y-19714806D01*
X24875737Y-19835367D01*
X24621737Y-19835367D01*
X24382831Y-19714806D01*
X24097539Y-19814982D01*
X23837272Y-19968891D01*
X23612032Y-20170618D01*
X23430475Y-20412411D01*
X23299578Y-20684978D01*
X23250340Y-20847297D01*
X-23515423Y-20847297D01*
X-23516965Y-20839549D01*
X-23613530Y-20606422D01*
X-23753719Y-20396613D01*
X-23932147Y-20218185D01*
X-24141956Y-20077996D01*
X-24375083Y-19981431D01*
X-24622570Y-19932203D01*
X-24874904Y-19932203D01*
X-25122391Y-19981431D01*
X-25355518Y-20077996D01*
X-25565327Y-20218185D01*
X-25743755Y-20396613D01*
X-25883944Y-20606422D01*
X-25980509Y-20839549D01*
X-26029737Y-21087036D01*
X-42664505Y-21087036D01*
X-43771703Y-18687612D01*
X-44775631Y-16134798D01*
X-45630818Y-13528386D01*
X-45997325Y-12147302D01*
X-41081000Y-12147302D01*
X-41081000Y-12852698D01*
X-40943384Y-13544539D01*
X-40673441Y-14196240D01*
X-40281544Y-14782754D01*
X-39782754Y-15281544D01*
X-39196240Y-15673441D01*
X-38544539Y-15943384D01*
X-37852698Y-16081000D01*
X-37147302Y-16081000D01*
X-36455461Y-15943384D01*
X-35803760Y-15673441D01*
X-35217246Y-15281544D01*
X-34718456Y-14782754D01*
X-34326559Y-14196240D01*
X-34056616Y-13544539D01*
X-33919000Y-12852698D01*
X-33919000Y-12147302D01*
X33919000Y-12147302D01*
X33919000Y-12852698D01*
X34056616Y-13544539D01*
X34326559Y-14196240D01*
X34718456Y-14782754D01*
X35217246Y-15281544D01*
X35803760Y-15673441D01*
X36455461Y-15943384D01*
X37147302Y-16081000D01*
X37852698Y-16081000D01*
X38544539Y-15943384D01*
X39196240Y-15673441D01*
X39782754Y-15281544D01*
X40281544Y-14782754D01*
X40673441Y-14196240D01*
X40943384Y-13544539D01*
X41081000Y-12852698D01*
X41081000Y-12147302D01*
X40943384Y-11455461D01*
X40673441Y-10803760D01*
X40281544Y-10217246D01*
X39782754Y-9718456D01*
X39196240Y-9326559D01*
X38544539Y-9056616D01*
X37852698Y-8919000D01*
X37147302Y-8919000D01*
X36455461Y-9056616D01*
X35803760Y-9326559D01*
X35217246Y-9718456D01*
X34718456Y-10217246D01*
X34326559Y-10803760D01*
X34056616Y-11455461D01*
X33919000Y-12147302D01*
X-33919000Y-12147302D01*
X-34056616Y-11455461D01*
X-34326559Y-10803760D01*
X-34718456Y-10217246D01*
X-35217246Y-9718456D01*
X-35803760Y-9326559D01*
X-36455461Y-9056616D01*
X-37147302Y-8919000D01*
X-37852698Y-8919000D01*
X-38544539Y-9056616D01*
X-39196240Y-9326559D01*
X-39782754Y-9718456D01*
X-40281544Y-10217246D01*
X-40673441Y-10803760D01*
X-40943384Y-11455461D01*
X-41081000Y-12147302D01*
X-45997325Y-12147302D01*
X-46334425Y-10877035D01*
X-46884114Y-8189550D01*
X-47278058Y-5474861D01*
X-47386831Y-4220000D01*
X-46635262Y-4220000D01*
X-46618252Y-4392706D01*
X-46567875Y-4558775D01*
X-46486068Y-4711825D01*
X-46375975Y-4845975D01*
X-46241825Y-4956068D01*
X-46088775Y-5037875D01*
X-45922706Y-5088252D01*
X-45793273Y-5101000D01*
X-45106727Y-5101000D01*
X-44977294Y-5088252D01*
X-44811225Y-5037875D01*
X-44658175Y-4956068D01*
X-44524025Y-4845975D01*
X-44413932Y-4711825D01*
X-44332125Y-4558775D01*
X-44281748Y-4392706D01*
X-44264738Y-4220000D01*
X-44281748Y-4047294D01*
X-44332125Y-3881225D01*
X-44413932Y-3728175D01*
X-44524025Y-3594025D01*
X-44658175Y-3483932D01*
X-44811225Y-3402125D01*
X-44977294Y-3351748D01*
X-45106727Y-3339000D01*
X-45793273Y-3339000D01*
X-45922706Y-3351748D01*
X-46088775Y-3402125D01*
X-46241825Y-3483932D01*
X-46375975Y-3594025D01*
X-46486068Y-3728175D01*
X-46567875Y-3881225D01*
X-46618252Y-4047294D01*
X-46635262Y-4220000D01*
X-47386831Y-4220000D01*
X-47514949Y-2741985D01*
X-47594000Y0D01*
X-47534123Y2076922D01*
X-43381000Y2076922D01*
X-43381000Y1923078D01*
X-43350987Y1772191D01*
X-43292113Y1630058D01*
X-43206642Y1502141D01*
X-43156000Y1451499D01*
X-43155999Y-872686D01*
X-43158689Y-900000D01*
X-43147955Y-1008994D01*
X-43116161Y-1113801D01*
X-43064533Y-1210392D01*
X-42995052Y-1295053D01*
X-42973837Y-1312464D01*
X-42125602Y-2160700D01*
X-42134416Y-2164351D01*
X-42250049Y-2241614D01*
X-42348386Y-2339951D01*
X-42425649Y-2455584D01*
X-42478869Y-2584067D01*
X-42506000Y-2720465D01*
X-42506000Y-2859535D01*
X-42478869Y-2995933D01*
X-42425649Y-3124416D01*
X-42348386Y-3240049D01*
X-42250049Y-3338386D01*
X-42155942Y-3401266D01*
X-42158775Y-3402125D01*
X-42311825Y-3483932D01*
X-42445975Y-3594025D01*
X-42556068Y-3728175D01*
X-42637875Y-3881225D01*
X-42688252Y-4047294D01*
X-42705262Y-4220000D01*
X-42688252Y-4392706D01*
X-42637875Y-4558775D01*
X-42556068Y-4711825D01*
X-42445975Y-4845975D01*
X-42311825Y-4956068D01*
X-42158775Y-5037875D01*
X-41992706Y-5088252D01*
X-41863273Y-5101000D01*
X-40676727Y-5101000D01*
X-40547294Y-5088252D01*
X-40381225Y-5037875D01*
X-40228175Y-4956068D01*
X-40094025Y-4845975D01*
X-39983932Y-4711825D01*
X-39902125Y-4558775D01*
X-39851748Y-4392706D01*
X-39834738Y-4220000D01*
X-39851748Y-4047294D01*
X-39902125Y-3881225D01*
X-39983932Y-3728175D01*
X-40094025Y-3594025D01*
X-40228175Y-3483932D01*
X-40381225Y-3402125D01*
X-40547294Y-3351748D01*
X-40676727Y-3339000D01*
X-41350870Y-3339000D01*
X-41349951Y-3338386D01*
X-41251614Y-3240049D01*
X-41174351Y-3124416D01*
X-41121131Y-2995933D01*
X-41094000Y-2859535D01*
X-41094000Y-2856000D01*
X-39348501Y-2856000D01*
X-39297859Y-2906642D01*
X-39169942Y-2992113D01*
X-39027809Y-3050987D01*
X-38876922Y-3081000D01*
X-38723078Y-3081000D01*
X-38572191Y-3050987D01*
X-38430058Y-2992113D01*
X-38302141Y-2906642D01*
X-38193358Y-2797859D01*
X-38107887Y-2669942D01*
X-38049013Y-2527809D01*
X-38019000Y-2376922D01*
X-38019000Y-2223078D01*
X-38049013Y-2072191D01*
X-38107887Y-1930058D01*
X-38193358Y-1802141D01*
X-38302141Y-1693358D01*
X-38430058Y-1607887D01*
X-38572191Y-1549013D01*
X-38723078Y-1519000D01*
X-38876922Y-1519000D01*
X-39027809Y-1549013D01*
X-39169942Y-1607887D01*
X-39297859Y-1693358D01*
X-39348501Y-1744000D01*
X-40969698Y-1744000D01*
X-42044000Y-669699D01*
X-42044000Y609132D01*
X-8905191Y609132D01*
X-8905191Y-609132D01*
X-8739305Y-1816048D01*
X-8410621Y-2989135D01*
X-7925263Y-4106541D01*
X-7292273Y-5147449D01*
X-6523442Y-6092469D01*
X-5633091Y-6923999D01*
X-4637806Y-7626548D01*
X-3556128Y-8187028D01*
X-2408206Y-8595000D01*
X-1215424Y-8842863D01*
X0Y-8926000D01*
X1215424Y-8842863D01*
X2408206Y-8595000D01*
X3556128Y-8187028D01*
X4637806Y-7626548D01*
X5633091Y-6923999D01*
X6523442Y-6092469D01*
X7292273Y-5147449D01*
X7925263Y-4106541D01*
X7993258Y-3950000D01*
X32967157Y-3950000D01*
X32967157Y-5450000D01*
X32988924Y-5671007D01*
X33053390Y-5883520D01*
X33158075Y-6079374D01*
X33298959Y-6251041D01*
X33470626Y-6391925D01*
X33666480Y-6496610D01*
X33878993Y-6561076D01*
X34100000Y-6582843D01*
X36100000Y-6582843D01*
X36321007Y-6561076D01*
X36533520Y-6496610D01*
X36729374Y-6391925D01*
X36901041Y-6251041D01*
X37041925Y-6079374D01*
X37146610Y-5883520D01*
X37211076Y-5671007D01*
X37232843Y-5450000D01*
X37232843Y-3950000D01*
X37767157Y-3950000D01*
X37767157Y-5450000D01*
X37788924Y-5671007D01*
X37853390Y-5883520D01*
X37958075Y-6079374D01*
X38098959Y-6251041D01*
X38270626Y-6391925D01*
X38466480Y-6496610D01*
X38678993Y-6561076D01*
X38900000Y-6582843D01*
X40900000Y-6582843D01*
X41121007Y-6561076D01*
X41333520Y-6496610D01*
X41529374Y-6391925D01*
X41701041Y-6251041D01*
X41841925Y-6079374D01*
X41946610Y-5883520D01*
X42011076Y-5671007D01*
X42032843Y-5450000D01*
X42032843Y-3950000D01*
X42011076Y-3728993D01*
X41946610Y-3516480D01*
X41841925Y-3320626D01*
X41701041Y-3148959D01*
X41529374Y-3008075D01*
X41333520Y-2903390D01*
X41121007Y-2838924D01*
X40900000Y-2817157D01*
X38900000Y-2817157D01*
X38678993Y-2838924D01*
X38466480Y-2903390D01*
X38270626Y-3008075D01*
X38098959Y-3148959D01*
X37958075Y-3320626D01*
X37853390Y-3516480D01*
X37788924Y-3728993D01*
X37767157Y-3950000D01*
X37232843Y-3950000D01*
X37211076Y-3728993D01*
X37146610Y-3516480D01*
X37041925Y-3320626D01*
X36901041Y-3148959D01*
X36729374Y-3008075D01*
X36533520Y-2903390D01*
X36321007Y-2838924D01*
X36100000Y-2817157D01*
X34100000Y-2817157D01*
X33878993Y-2838924D01*
X33666480Y-2903390D01*
X33470626Y-3008075D01*
X33298959Y-3148959D01*
X33158075Y-3320626D01*
X33053390Y-3516480D01*
X32988924Y-3728993D01*
X32967157Y-3950000D01*
X7993258Y-3950000D01*
X8410621Y-2989135D01*
X8739305Y-1816048D01*
X8905191Y-609132D01*
X8905191Y609132D01*
X8885830Y750000D01*
X32967157Y750000D01*
X32967157Y-750000D01*
X32988924Y-971007D01*
X33053390Y-1183520D01*
X33158075Y-1379374D01*
X33298959Y-1551041D01*
X33470626Y-1691925D01*
X33666480Y-1796610D01*
X33878993Y-1861076D01*
X34100000Y-1882843D01*
X36100000Y-1882843D01*
X36321007Y-1861076D01*
X36533520Y-1796610D01*
X36729374Y-1691925D01*
X36901041Y-1551041D01*
X37041925Y-1379374D01*
X37146610Y-1183520D01*
X37211076Y-971007D01*
X37232843Y-750000D01*
X37232843Y750000D01*
X37767157Y750000D01*
X37767157Y-750000D01*
X37788924Y-971007D01*
X37853390Y-1183520D01*
X37958075Y-1379374D01*
X38098959Y-1551041D01*
X38270626Y-1691925D01*
X38466480Y-1796610D01*
X38678993Y-1861076D01*
X38900000Y-1882843D01*
X40900000Y-1882843D01*
X41121007Y-1861076D01*
X41333520Y-1796610D01*
X41529374Y-1691925D01*
X41701041Y-1551041D01*
X41841925Y-1379374D01*
X41946610Y-1183520D01*
X42011076Y-971007D01*
X42032843Y-750000D01*
X42032843Y750000D01*
X42011076Y971007D01*
X41946610Y1183520D01*
X41841925Y1379374D01*
X41701041Y1551041D01*
X41529374Y1691925D01*
X41333520Y1796610D01*
X41121007Y1861076D01*
X40900000Y1882843D01*
X38900000Y1882843D01*
X38678993Y1861076D01*
X38466480Y1796610D01*
X38270626Y1691925D01*
X38098959Y1551041D01*
X37958075Y1379374D01*
X37853390Y1183520D01*
X37788924Y971007D01*
X37767157Y750000D01*
X37232843Y750000D01*
X37211076Y971007D01*
X37146610Y1183520D01*
X37041925Y1379374D01*
X36901041Y1551041D01*
X36729374Y1691925D01*
X36533520Y1796610D01*
X36321007Y1861076D01*
X36100000Y1882843D01*
X34100000Y1882843D01*
X33878993Y1861076D01*
X33666480Y1796610D01*
X33470626Y1691925D01*
X33298959Y1551041D01*
X33158075Y1379374D01*
X33053390Y1183520D01*
X32988924Y971007D01*
X32967157Y750000D01*
X8885830Y750000D01*
X8739305Y1816048D01*
X8410621Y2989135D01*
X7925263Y4106541D01*
X7292273Y5147449D01*
X7046130Y5450000D01*
X32967157Y5450000D01*
X32967157Y3950000D01*
X32988924Y3728993D01*
X33053390Y3516480D01*
X33158075Y3320626D01*
X33298959Y3148959D01*
X33470626Y3008075D01*
X33666480Y2903390D01*
X33878993Y2838924D01*
X34100000Y2817157D01*
X36100000Y2817157D01*
X36321007Y2838924D01*
X36533520Y2903390D01*
X36729374Y3008075D01*
X36901041Y3148959D01*
X37041925Y3320626D01*
X37146610Y3516480D01*
X37211076Y3728993D01*
X37232843Y3950000D01*
X37232843Y5450000D01*
X37767157Y5450000D01*
X37767157Y3950000D01*
X37788924Y3728993D01*
X37853390Y3516480D01*
X37958075Y3320626D01*
X38098959Y3148959D01*
X38270626Y3008075D01*
X38466480Y2903390D01*
X38678993Y2838924D01*
X38900000Y2817157D01*
X40900000Y2817157D01*
X41121007Y2838924D01*
X41333520Y2903390D01*
X41529374Y3008075D01*
X41701041Y3148959D01*
X41841925Y3320626D01*
X41946610Y3516480D01*
X42011076Y3728993D01*
X42032843Y3950000D01*
X42032843Y5450000D01*
X42011076Y5671007D01*
X41946610Y5883520D01*
X41841925Y6079374D01*
X41701041Y6251041D01*
X41529374Y6391925D01*
X41333520Y6496610D01*
X41121007Y6561076D01*
X40900000Y6582843D01*
X38900000Y6582843D01*
X38678993Y6561076D01*
X38466480Y6496610D01*
X38270626Y6391925D01*
X38098959Y6251041D01*
X37958075Y6079374D01*
X37853390Y5883520D01*
X37788924Y5671007D01*
X37767157Y5450000D01*
X37232843Y5450000D01*
X37211076Y5671007D01*
X37146610Y5883520D01*
X37041925Y6079374D01*
X36901041Y6251041D01*
X36729374Y6391925D01*
X36533520Y6496610D01*
X36321007Y6561076D01*
X36100000Y6582843D01*
X34100000Y6582843D01*
X33878993Y6561076D01*
X33666480Y6496610D01*
X33470626Y6391925D01*
X33298959Y6251041D01*
X33158075Y6079374D01*
X33053390Y5883520D01*
X32988924Y5671007D01*
X32967157Y5450000D01*
X7046130Y5450000D01*
X6523442Y6092469D01*
X5633091Y6923999D01*
X4637806Y7626548D01*
X3556128Y8187028D01*
X2408206Y8595000D01*
X1215424Y8842863D01*
X0Y8926000D01*
X-1215424Y8842863D01*
X-2408206Y8595000D01*
X-3556128Y8187028D01*
X-4637806Y7626548D01*
X-5633091Y6923999D01*
X-6523442Y6092469D01*
X-7292273Y5147449D01*
X-7925263Y4106541D01*
X-8410621Y2989135D01*
X-8739305Y1816048D01*
X-8905191Y609132D01*
X-42044000Y609132D01*
X-42044000Y1451499D01*
X-41993358Y1502141D01*
X-41907887Y1630058D01*
X-41849013Y1772191D01*
X-41819000Y1923078D01*
X-41819000Y2076922D01*
X-41849013Y2227809D01*
X-41872536Y2284597D01*
X-41869535Y2284000D01*
X-41730465Y2284000D01*
X-41594067Y2311131D01*
X-41465584Y2364351D01*
X-41349951Y2441614D01*
X-41251614Y2539951D01*
X-41174351Y2655584D01*
X-41121131Y2784067D01*
X-41094000Y2920465D01*
X-41094000Y3059535D01*
X-41121131Y3195933D01*
X-41174351Y3324416D01*
X-41251614Y3440049D01*
X-41349951Y3538386D01*
X-41350870Y3539000D01*
X-40676727Y3539000D01*
X-40547294Y3551748D01*
X-40381225Y3602125D01*
X-40228175Y3683932D01*
X-40094025Y3794025D01*
X-39983932Y3928175D01*
X-39902125Y4081225D01*
X-39851748Y4247294D01*
X-39834738Y4420000D01*
X-39851748Y4592706D01*
X-39902125Y4758775D01*
X-39983932Y4911825D01*
X-40094025Y5045975D01*
X-40228175Y5156068D01*
X-40381225Y5237875D01*
X-40547294Y5288252D01*
X-40676727Y5301000D01*
X-41863273Y5301000D01*
X-41992706Y5288252D01*
X-42158775Y5237875D01*
X-42311825Y5156068D01*
X-42445975Y5045975D01*
X-42556068Y4911825D01*
X-42637875Y4758775D01*
X-42688252Y4592706D01*
X-42705262Y4420000D01*
X-42688252Y4247294D01*
X-42637875Y4081225D01*
X-42556068Y3928175D01*
X-42445975Y3794025D01*
X-42311825Y3683932D01*
X-42158775Y3602125D01*
X-42155942Y3601266D01*
X-42250049Y3538386D01*
X-42348386Y3440049D01*
X-42425649Y3324416D01*
X-42478869Y3195933D01*
X-42506000Y3059535D01*
X-42506000Y2920465D01*
X-42478869Y2784067D01*
X-42473515Y2771141D01*
X-42523078Y2781000D01*
X-42676922Y2781000D01*
X-42827809Y2750987D01*
X-42969942Y2692113D01*
X-43097859Y2606642D01*
X-43206642Y2497859D01*
X-43292113Y2369942D01*
X-43350987Y2227809D01*
X-43381000Y2076922D01*
X-47534123Y2076922D01*
X-47514949Y2741985D01*
X-47369496Y4420000D01*
X-46635262Y4420000D01*
X-46618252Y4247294D01*
X-46567875Y4081225D01*
X-46486068Y3928175D01*
X-46375975Y3794025D01*
X-46241825Y3683932D01*
X-46088775Y3602125D01*
X-45922706Y3551748D01*
X-45793273Y3539000D01*
X-45106727Y3539000D01*
X-44977294Y3551748D01*
X-44811225Y3602125D01*
X-44658175Y3683932D01*
X-44524025Y3794025D01*
X-44413932Y3928175D01*
X-44332125Y4081225D01*
X-44281748Y4247294D01*
X-44264738Y4420000D01*
X-44281748Y4592706D01*
X-44332125Y4758775D01*
X-44413932Y4911825D01*
X-44524025Y5045975D01*
X-44658175Y5156068D01*
X-44811225Y5237875D01*
X-44977294Y5288252D01*
X-45106727Y5301000D01*
X-45793273Y5301000D01*
X-45922706Y5288252D01*
X-46088775Y5237875D01*
X-46241825Y5156068D01*
X-46375975Y5045975D01*
X-46486068Y4911825D01*
X-46567875Y4758775D01*
X-46618252Y4592706D01*
X-46635262Y4420000D01*
X-47369496Y4420000D01*
X-47278058Y5474861D01*
X-46884114Y8189550D01*
X-46334425Y10877035D01*
X-45810130Y12852698D01*
X-41081000Y12852698D01*
X-41081000Y12147302D01*
X-40943384Y11455461D01*
X-40673441Y10803760D01*
X-40281544Y10217246D01*
X-39782754Y9718456D01*
X-39196240Y9326559D01*
X-38544539Y9056616D01*
X-37852698Y8919000D01*
X-37147302Y8919000D01*
X-36455461Y9056616D01*
X-35803760Y9326559D01*
X-35217246Y9718456D01*
X-34718456Y10217246D01*
X-34326559Y10803760D01*
X-34056616Y11455461D01*
X-33919000Y12147302D01*
X-33919000Y12852698D01*
X-33972417Y13121243D01*
X-32351000Y13121243D01*
X-32351000Y12878757D01*
X-32303693Y12640931D01*
X-32210898Y12416903D01*
X-32076180Y12215283D01*
X-31904717Y12043820D01*
X-31703097Y11909102D01*
X-31479069Y11816307D01*
X-31241243Y11769000D01*
X-30998757Y11769000D01*
X-30760931Y11816307D01*
X-30536903Y11909102D01*
X-30335283Y12043820D01*
X-30163820Y12215283D01*
X-30029102Y12416903D01*
X-29936307Y12640931D01*
X-29889000Y12878757D01*
X-29889000Y13121243D01*
X-29811000Y13121243D01*
X-29811000Y12878757D01*
X-29763693Y12640931D01*
X-29670898Y12416903D01*
X-29536180Y12215283D01*
X-29364717Y12043820D01*
X-29163097Y11909102D01*
X-28939069Y11816307D01*
X-28701243Y11769000D01*
X-28458757Y11769000D01*
X-28220931Y11816307D01*
X-27996903Y11909102D01*
X-27795283Y12043820D01*
X-27623820Y12215283D01*
X-27489102Y12416903D01*
X-27396307Y12640931D01*
X-27349000Y12878757D01*
X-27349000Y13121243D01*
X-27271000Y13121243D01*
X-27271000Y12878757D01*
X-27223693Y12640931D01*
X-27130898Y12416903D01*
X-26996180Y12215283D01*
X-26824717Y12043820D01*
X-26623097Y11909102D01*
X-26399069Y11816307D01*
X-26161243Y11769000D01*
X-25918757Y11769000D01*
X-25680931Y11816307D01*
X-25456903Y11909102D01*
X-25255283Y12043820D01*
X-25083820Y12215283D01*
X-24986927Y12360294D01*
X-24988072Y12150000D01*
X-24975812Y12025518D01*
X-24939502Y11905820D01*
X-24880537Y11795506D01*
X-24801185Y11698815D01*
X-24704494Y11619463D01*
X-24594180Y11560498D01*
X-24474482Y11524188D01*
X-24350000Y11511928D01*
X-23785750Y11515000D01*
X-23627000Y11673750D01*
X-23627000Y12873000D01*
X-23373000Y12873000D01*
X-23373000Y11673750D01*
X-23214250Y11515000D01*
X-22650000Y11511928D01*
X-22525518Y11524188D01*
X-22405820Y11560498D01*
X-22295506Y11619463D01*
X-22198815Y11698815D01*
X-22119463Y11795506D01*
X-22060498Y11905820D01*
X-22024188Y12025518D01*
X-22011928Y12150000D01*
X-22015000Y12714250D01*
X-22153448Y12852698D01*
X33919000Y12852698D01*
X33919000Y12147302D01*
X34056616Y11455461D01*
X34326559Y10803760D01*
X34718456Y10217246D01*
X35217246Y9718456D01*
X35803760Y9326559D01*
X36455461Y9056616D01*
X37147302Y8919000D01*
X37852698Y8919000D01*
X38544539Y9056616D01*
X39196240Y9326559D01*
X39782754Y9718456D01*
X40281544Y10217246D01*
X40673441Y10803760D01*
X40943384Y11455461D01*
X41081000Y12147302D01*
X41081000Y12852698D01*
X40943384Y13544539D01*
X40673441Y14196240D01*
X40281544Y14782754D01*
X39782754Y15281544D01*
X39196240Y15673441D01*
X38544539Y15943384D01*
X37852698Y16081000D01*
X37147302Y16081000D01*
X36455461Y15943384D01*
X35803760Y15673441D01*
X35217246Y15281544D01*
X34718456Y14782754D01*
X34326559Y14196240D01*
X34056616Y13544539D01*
X33919000Y12852698D01*
X-22153448Y12852698D01*
X-22173750Y12873000D01*
X-23373000Y12873000D01*
X-23627000Y12873000D01*
X-23647000Y12873000D01*
X-23647000Y13127000D01*
X-23627000Y13127000D01*
X-23627000Y14326250D01*
X-23373000Y14326250D01*
X-23373000Y13127000D01*
X-22173750Y13127000D01*
X-22015000Y13285750D01*
X-22011928Y13850000D01*
X-22024188Y13974482D01*
X-22060498Y14094180D01*
X-22119463Y14204494D01*
X-22198815Y14301185D01*
X-22295506Y14380537D01*
X-22405820Y14439502D01*
X-22525518Y14475812D01*
X-22650000Y14488072D01*
X-23214250Y14485000D01*
X-23373000Y14326250D01*
X-23627000Y14326250D01*
X-23785750Y14485000D01*
X-24350000Y14488072D01*
X-24474482Y14475812D01*
X-24594180Y14439502D01*
X-24704494Y14380537D01*
X-24801185Y14301185D01*
X-24880537Y14204494D01*
X-24939502Y14094180D01*
X-24975812Y13974482D01*
X-24988072Y13850000D01*
X-24986927Y13639706D01*
X-25083820Y13784717D01*
X-25255283Y13956180D01*
X-25456903Y14090898D01*
X-25680931Y14183693D01*
X-25918757Y14231000D01*
X-26161243Y14231000D01*
X-26399069Y14183693D01*
X-26623097Y14090898D01*
X-26824717Y13956180D01*
X-26996180Y13784717D01*
X-27130898Y13583097D01*
X-27223693Y13359069D01*
X-27271000Y13121243D01*
X-27349000Y13121243D01*
X-27396307Y13359069D01*
X-27489102Y13583097D01*
X-27623820Y13784717D01*
X-27795283Y13956180D01*
X-27996903Y14090898D01*
X-28220931Y14183693D01*
X-28458757Y14231000D01*
X-28701243Y14231000D01*
X-28939069Y14183693D01*
X-29163097Y14090898D01*
X-29364717Y13956180D01*
X-29536180Y13784717D01*
X-29670898Y13583097D01*
X-29763693Y13359069D01*
X-29811000Y13121243D01*
X-29889000Y13121243D01*
X-29936307Y13359069D01*
X-30029102Y13583097D01*
X-30163820Y13784717D01*
X-30335283Y13956180D01*
X-30536903Y14090898D01*
X-30760931Y14183693D01*
X-30998757Y14231000D01*
X-31241243Y14231000D01*
X-31479069Y14183693D01*
X-31703097Y14090898D01*
X-31904717Y13956180D01*
X-32076180Y13784717D01*
X-32210898Y13583097D01*
X-32303693Y13359069D01*
X-32351000Y13121243D01*
X-33972417Y13121243D01*
X-34056616Y13544539D01*
X-34326559Y14196240D01*
X-34718456Y14782754D01*
X-35217246Y15281544D01*
X-35803760Y15673441D01*
X-36455461Y15943384D01*
X-37147302Y16081000D01*
X-37852698Y16081000D01*
X-38544539Y15943384D01*
X-39196240Y15673441D01*
X-39782754Y15281544D01*
X-40281544Y14782754D01*
X-40673441Y14196240D01*
X-40943384Y13544539D01*
X-41081000Y12852698D01*
X-45810130Y12852698D01*
X-45630818Y13528386D01*
X-44775631Y16134798D01*
X-43771703Y18687612D01*
X-42622370Y21178348D01*
X-41331450Y23598731D01*
X-39903231Y25940721D01*
X-39570958Y26420963D01*
X-33415628Y26420963D01*
X-33398617Y26248258D01*
X-33348241Y26082189D01*
X-33266434Y25929138D01*
X-33183925Y25828601D01*
X-32344911Y24989586D01*
X-32244374Y24907077D01*
X-32091323Y24825270D01*
X-31925254Y24774894D01*
X-31752548Y24757883D01*
X-31579842Y24774894D01*
X-31413773Y24825270D01*
X-31260723Y24907077D01*
X-31126574Y25017171D01*
X-31016480Y25151320D01*
X-30934673Y25304370D01*
X-30884297Y25470439D01*
X-30867286Y25643145D01*
X-30884297Y25815851D01*
X-30934673Y25981920D01*
X-31016480Y26134971D01*
X-31098989Y26235508D01*
X-31575681Y26712200D01*
X-31574596Y26711984D01*
X-31435526Y26711984D01*
X-31299128Y26739115D01*
X-31170645Y26792335D01*
X-31055012Y26869598D01*
X-30956675Y26967935D01*
X-30956000Y26968945D01*
X-30956000Y26927305D01*
X-30958689Y26900000D01*
X-30956000Y26872696D01*
X-30956000Y26872689D01*
X-30947955Y26791006D01*
X-30916162Y26686200D01*
X-30864534Y26589608D01*
X-30795053Y26504947D01*
X-30773832Y26487531D01*
X-29081000Y24794697D01*
X-29081000Y24723078D01*
X-29050987Y24572191D01*
X-28992113Y24430058D01*
X-28906642Y24302141D01*
X-28797859Y24193358D01*
X-28669942Y24107887D01*
X-28527809Y24049013D01*
X-28376922Y24019000D01*
X-28223078Y24019000D01*
X-28072191Y24049013D01*
X-27930058Y24107887D01*
X-27802141Y24193358D01*
X-27693358Y24302141D01*
X-27607887Y24430058D01*
X-27549013Y24572191D01*
X-27519000Y24723078D01*
X-27519000Y24876922D01*
X-27549013Y25027809D01*
X-27607887Y25169942D01*
X-27693358Y25297859D01*
X-27802141Y25406642D01*
X-27930058Y25492113D01*
X-28072191Y25550987D01*
X-28223078Y25581000D01*
X-28294697Y25581000D01*
X-28733041Y26019344D01*
X-5904268Y26019344D01*
X-5904011Y25982547D01*
X-5904268Y25945751D01*
X-5903715Y25940108D01*
X-5852714Y25454866D01*
X-5845308Y25418787D01*
X-5838419Y25382675D01*
X-5836781Y25377248D01*
X-5692501Y24911154D01*
X-5678224Y24877191D01*
X-5664456Y24843113D01*
X-5661795Y24838107D01*
X-5429731Y24408915D01*
X-5409143Y24378391D01*
X-5389005Y24347618D01*
X-5385423Y24343224D01*
X-5074414Y23967279D01*
X-5048317Y23941363D01*
X-5022558Y23915059D01*
X-5018190Y23911445D01*
X-4640082Y23603069D01*
X-4609425Y23582700D01*
X-4579071Y23561917D01*
X-4574084Y23559220D01*
X-4143281Y23330158D01*
X-4109260Y23316136D01*
X-4075439Y23301640D01*
X-4070023Y23299963D01*
X-3602934Y23158940D01*
X-3566813Y23151788D01*
X-3530843Y23144143D01*
X-3525207Y23143550D01*
X-3525205Y23143550D01*
X-3039618Y23095938D01*
X-3019941Y23094000D01*
X7519941Y23094000D01*
X7538633Y23095841D01*
X7554249Y23095732D01*
X7559892Y23096285D01*
X8045134Y23147286D01*
X8081213Y23154692D01*
X8117325Y23161581D01*
X8122750Y23163218D01*
X8122756Y23163220D01*
X8588846Y23307499D01*
X8622809Y23321776D01*
X8656887Y23335544D01*
X8661888Y23338202D01*
X8661892Y23338204D01*
X8661895Y23338206D01*
X9091085Y23570269D01*
X9121609Y23590857D01*
X9152382Y23610995D01*
X9156776Y23614577D01*
X9260034Y23700000D01*
X18061928Y23700000D01*
X18074188Y23575518D01*
X18110498Y23455820D01*
X18169463Y23345506D01*
X18248815Y23248815D01*
X18345506Y23169463D01*
X18455820Y23110498D01*
X18575518Y23074188D01*
X18700000Y23061928D01*
X19714250Y23065000D01*
X19873000Y23223750D01*
X19873000Y24873000D01*
X20127000Y24873000D01*
X20127000Y23223750D01*
X20285750Y23065000D01*
X21300000Y23061928D01*
X21424482Y23074188D01*
X21544180Y23110498D01*
X21654494Y23169463D01*
X21751185Y23248815D01*
X21830537Y23345506D01*
X21889502Y23455820D01*
X21925812Y23575518D01*
X21938072Y23700000D01*
X21935000Y24714250D01*
X21776250Y24873000D01*
X20127000Y24873000D01*
X19873000Y24873000D01*
X18223750Y24873000D01*
X18065000Y24714250D01*
X18061928Y23700000D01*
X9260034Y23700000D01*
X9532721Y23925586D01*
X9558637Y23951683D01*
X9584941Y23977442D01*
X9588555Y23981810D01*
X9896931Y24359918D01*
X9917300Y24390575D01*
X9938083Y24420929D01*
X9940780Y24425916D01*
X10169842Y24856719D01*
X10183864Y24890740D01*
X10198360Y24924561D01*
X10200037Y24929977D01*
X10341060Y25397066D01*
X10348212Y25433187D01*
X10355857Y25469157D01*
X10356450Y25474795D01*
X10404062Y25960382D01*
X10406000Y25980059D01*
X10406000Y26300000D01*
X18061928Y26300000D01*
X18065000Y25285750D01*
X18223750Y25127000D01*
X19873000Y25127000D01*
X19873000Y26776250D01*
X20127000Y26776250D01*
X20127000Y25127000D01*
X21776250Y25127000D01*
X21935000Y25285750D01*
X21938072Y26300000D01*
X21925812Y26424482D01*
X21889502Y26544180D01*
X21830537Y26654494D01*
X21751185Y26751185D01*
X21654494Y26830537D01*
X21544180Y26889502D01*
X21424482Y26925812D01*
X21300000Y26938072D01*
X20285750Y26935000D01*
X20127000Y26776250D01*
X19873000Y26776250D01*
X19714250Y26935000D01*
X18700000Y26938072D01*
X18575518Y26925812D01*
X18455820Y26889502D01*
X18345506Y26830537D01*
X18248815Y26751185D01*
X18169463Y26654494D01*
X18110498Y26544180D01*
X18074188Y26424482D01*
X18061928Y26300000D01*
X10406000Y26300000D01*
X10406000Y31776922D01*
X15879000Y31776922D01*
X15879000Y31623078D01*
X15909013Y31472191D01*
X15967887Y31330058D01*
X16053358Y31202141D01*
X16162141Y31093358D01*
X16290058Y31007887D01*
X16432191Y30949013D01*
X16583078Y30919000D01*
X16654699Y30919000D01*
X17947535Y29626163D01*
X17964947Y29604947D01*
X18049608Y29535466D01*
X18146199Y29483838D01*
X18251005Y29452045D01*
X18332688Y29444000D01*
X18332695Y29444000D01*
X18359999Y29441311D01*
X18387304Y29444000D01*
X18410801Y29444000D01*
X18510317Y29203748D01*
X18694282Y28928425D01*
X18928425Y28694282D01*
X19203748Y28510317D01*
X19509670Y28383600D01*
X19834436Y28319000D01*
X20165564Y28319000D01*
X20490330Y28383600D01*
X20796252Y28510317D01*
X21071575Y28694282D01*
X21305718Y28928425D01*
X21489683Y29203748D01*
X21616400Y29509670D01*
X21681000Y29834436D01*
X21681000Y30165564D01*
X21616400Y30490330D01*
X21489683Y30796252D01*
X21305718Y31071575D01*
X21071575Y31305718D01*
X20796252Y31489683D01*
X20490330Y31616400D01*
X20165564Y31681000D01*
X19834436Y31681000D01*
X19509670Y31616400D01*
X19203748Y31489683D01*
X18928425Y31305718D01*
X18694282Y31071575D01*
X18510317Y30796252D01*
X18463376Y30682926D01*
X17441000Y31705301D01*
X17441000Y31776922D01*
X17410987Y31927809D01*
X17352113Y32069942D01*
X17266642Y32197859D01*
X17157859Y32306642D01*
X17029942Y32392113D01*
X16887809Y32450987D01*
X16736922Y32481000D01*
X16583078Y32481000D01*
X16432191Y32450987D01*
X16290058Y32392113D01*
X16162141Y32306642D01*
X16053358Y32197859D01*
X15967887Y32069942D01*
X15909013Y31927809D01*
X15879000Y31776922D01*
X10406000Y31776922D01*
X10406000Y32019941D01*
X10405861Y32021357D01*
X10405746Y32037743D01*
X10403818Y32056086D01*
X10403818Y32074523D01*
X10403226Y32080161D01*
X10348839Y32565035D01*
X10341176Y32601086D01*
X10334040Y32637126D01*
X10332367Y32642531D01*
X10332365Y32642541D01*
X10332361Y32642550D01*
X10184833Y33107617D01*
X10170343Y33141425D01*
X10156315Y33175460D01*
X10153619Y33180447D01*
X9918565Y33608010D01*
X9897763Y33638391D01*
X9877411Y33669022D01*
X9873798Y33673390D01*
X9560172Y34047154D01*
X9533851Y34072930D01*
X9507952Y34099010D01*
X9503565Y34102588D01*
X9503559Y34102594D01*
X9503552Y34102598D01*
X9123309Y34408322D01*
X9092520Y34428470D01*
X9062012Y34449048D01*
X9057011Y34451707D01*
X9057007Y34451710D01*
X9057003Y34451712D01*
X8624614Y34677759D01*
X8590475Y34691552D01*
X8556573Y34705803D01*
X8551150Y34707441D01*
X8551144Y34707443D01*
X8083083Y34845200D01*
X8046891Y34852104D01*
X8010892Y34859493D01*
X8005250Y34860047D01*
X7519344Y34904268D01*
X7482548Y34904011D01*
X7445751Y34904268D01*
X7440109Y34903715D01*
X6954866Y34852714D01*
X6918793Y34845309D01*
X6882675Y34838419D01*
X6877247Y34836781D01*
X6411154Y34692501D01*
X6377191Y34678224D01*
X6343113Y34664456D01*
X6338112Y34661798D01*
X6338108Y34661796D01*
X6338107Y34661795D01*
X5908914Y34429731D01*
X5878400Y34409149D01*
X5847618Y34389006D01*
X5843230Y34385427D01*
X5843224Y34385423D01*
X5843219Y34385418D01*
X5467279Y34074415D01*
X5441309Y34048263D01*
X5415060Y34022558D01*
X5411451Y34018196D01*
X5411446Y34018191D01*
X5411442Y34018186D01*
X5103069Y33640083D01*
X5082688Y33609407D01*
X5061917Y33579071D01*
X5059220Y33574085D01*
X4830158Y33143281D01*
X4816130Y33109246D01*
X4801640Y33075438D01*
X4799963Y33070023D01*
X4658940Y32602933D01*
X4651785Y32566795D01*
X4644143Y32530843D01*
X4643550Y32525205D01*
X4595938Y32039619D01*
X4594000Y32019940D01*
X4594001Y31019864D01*
X4552211Y30593654D01*
X4434199Y30202781D01*
X4242514Y29842274D01*
X3984457Y29525865D01*
X3669860Y29265609D01*
X3310704Y29071414D01*
X2920667Y28950677D01*
X2495594Y28906000D01*
X-3019941Y28906000D01*
X-3021357Y28905861D01*
X-3037743Y28905746D01*
X-3056086Y28903818D01*
X-3074523Y28903818D01*
X-3080161Y28903226D01*
X-3565035Y28848839D01*
X-3601086Y28841176D01*
X-3637126Y28834040D01*
X-3642531Y28832367D01*
X-3642541Y28832365D01*
X-3642550Y28832361D01*
X-4107617Y28684833D01*
X-4141425Y28670343D01*
X-4175460Y28656315D01*
X-4180447Y28653619D01*
X-4608010Y28418565D01*
X-4638391Y28397763D01*
X-4669022Y28377411D01*
X-4673390Y28373798D01*
X-5047154Y28060172D01*
X-5072930Y28033851D01*
X-5099010Y28007952D01*
X-5102588Y28003565D01*
X-5102594Y28003559D01*
X-5102598Y28003552D01*
X-5408322Y27623309D01*
X-5428470Y27592520D01*
X-5449048Y27562012D01*
X-5451707Y27557011D01*
X-5451710Y27557007D01*
X-5451710Y27557006D01*
X-5677759Y27124614D01*
X-5691552Y27090475D01*
X-5705803Y27056573D01*
X-5707442Y27051146D01*
X-5845200Y26583083D01*
X-5852104Y26546891D01*
X-5859493Y26510892D01*
X-5860047Y26505250D01*
X-5904268Y26019344D01*
X-28733041Y26019344D01*
X-29844000Y27130301D01*
X-29844000Y28869699D01*
X-28591444Y30122254D01*
X-28569942Y30107887D01*
X-28427809Y30049013D01*
X-28276922Y30019000D01*
X-28123078Y30019000D01*
X-27972191Y30049013D01*
X-27830058Y30107887D01*
X-27702141Y30193358D01*
X-27593358Y30302141D01*
X-27507887Y30430058D01*
X-27449013Y30572191D01*
X-27419000Y30723078D01*
X-27419000Y30799061D01*
X-27348449Y30799061D01*
X-27212051Y30826192D01*
X-27083568Y30879412D01*
X-26967935Y30956675D01*
X-26869598Y31055012D01*
X-26792335Y31170645D01*
X-26739115Y31299128D01*
X-26711984Y31435526D01*
X-26711984Y31574596D01*
X-26712200Y31575681D01*
X-26235508Y31098989D01*
X-26134971Y31016480D01*
X-25981920Y30934673D01*
X-25815851Y30884297D01*
X-25643145Y30867286D01*
X-25470439Y30884297D01*
X-25304370Y30934673D01*
X-25151320Y31016480D01*
X-25017171Y31126574D01*
X-24907077Y31260723D01*
X-24825270Y31413773D01*
X-24774894Y31579842D01*
X-24757883Y31752548D01*
X-24774894Y31925254D01*
X-24825270Y32091323D01*
X-24907077Y32244374D01*
X-24989586Y32344911D01*
X-25828601Y33183925D01*
X-25929138Y33266434D01*
X-26082189Y33348241D01*
X-26248258Y33398617D01*
X-26420963Y33415628D01*
X-26593668Y33398617D01*
X-26759737Y33348241D01*
X-26912788Y33266434D01*
X-27046937Y33156340D01*
X-27157031Y33022191D01*
X-27238838Y32869140D01*
X-27289214Y32703071D01*
X-27306225Y32530366D01*
X-27289214Y32357661D01*
X-27238838Y32191592D01*
X-27237442Y32188981D01*
X-27348449Y32211061D01*
X-27487519Y32211061D01*
X-27623917Y32183930D01*
X-27752400Y32130710D01*
X-27868033Y32053447D01*
X-27966370Y31955110D01*
X-28043633Y31839477D01*
X-28096853Y31710994D01*
X-28122724Y31580930D01*
X-28123078Y31581000D01*
X-28276922Y31581000D01*
X-28427809Y31550987D01*
X-28569942Y31492113D01*
X-28697859Y31406642D01*
X-28750816Y31353685D01*
X-28808995Y31347955D01*
X-28913801Y31316162D01*
X-29010392Y31264534D01*
X-29095053Y31195053D01*
X-29112465Y31173837D01*
X-30773837Y29512464D01*
X-30795052Y29495053D01*
X-30864533Y29410392D01*
X-30906575Y29331735D01*
X-30916161Y29313801D01*
X-30947955Y29208994D01*
X-30958689Y29100000D01*
X-30955999Y29072686D01*
X-30956000Y27867022D01*
X-30956675Y27868033D01*
X-31055012Y27966370D01*
X-31170645Y28043633D01*
X-31299128Y28096853D01*
X-31435526Y28123984D01*
X-31574596Y28123984D01*
X-31710994Y28096853D01*
X-31839477Y28043633D01*
X-31955110Y27966370D01*
X-32053447Y27868033D01*
X-32130710Y27752400D01*
X-32183930Y27623917D01*
X-32211061Y27487519D01*
X-32211061Y27348449D01*
X-32188981Y27237442D01*
X-32191592Y27238838D01*
X-32357661Y27289214D01*
X-32530366Y27306225D01*
X-32703071Y27289214D01*
X-32869140Y27238838D01*
X-33022191Y27157031D01*
X-33156340Y27046937D01*
X-33266434Y26912788D01*
X-33348241Y26759737D01*
X-33398617Y26593668D01*
X-33415628Y26420963D01*
X-39570958Y26420963D01*
X-38342457Y28196539D01*
X-37559069Y29199893D01*
X-36194557Y29199893D01*
X-36177546Y29027188D01*
X-36127170Y28861119D01*
X-36045363Y28708068D01*
X-35962854Y28607531D01*
X-35477393Y28122070D01*
X-35376856Y28039561D01*
X-35223806Y27957754D01*
X-35057737Y27907378D01*
X-34885031Y27890367D01*
X-34712326Y27907378D01*
X-34546257Y27957754D01*
X-34393206Y28039561D01*
X-34259057Y28149655D01*
X-34148963Y28283804D01*
X-34067156Y28436855D01*
X-34016780Y28602924D01*
X-33999769Y28775629D01*
X-34016780Y28948335D01*
X-34067156Y29114404D01*
X-34148963Y29267454D01*
X-34231472Y29367991D01*
X-34716933Y29853452D01*
X-34817470Y29935961D01*
X-34970521Y30017768D01*
X-35136590Y30068144D01*
X-35309295Y30085155D01*
X-35482000Y30068144D01*
X-35648069Y30017768D01*
X-35801120Y29935961D01*
X-35935269Y29825867D01*
X-36045363Y29691718D01*
X-36127170Y29538667D01*
X-36177546Y29372598D01*
X-36194557Y29199893D01*
X-37559069Y29199893D01*
X-36654313Y30358691D01*
X-34844408Y32419995D01*
X-32918753Y34373602D01*
X-31883568Y35309295D01*
X-30085155Y35309295D01*
X-30068144Y35136590D01*
X-30017768Y34970521D01*
X-29935961Y34817470D01*
X-29853452Y34716933D01*
X-29367991Y34231472D01*
X-29267454Y34148963D01*
X-29114404Y34067156D01*
X-28948335Y34016780D01*
X-28775629Y33999769D01*
X-28602924Y34016780D01*
X-28436855Y34067156D01*
X-28283804Y34148963D01*
X-28149655Y34259057D01*
X-28039561Y34393206D01*
X-27957754Y34546257D01*
X-27907378Y34712326D01*
X-27890367Y34885031D01*
X-27907378Y35057737D01*
X-27957754Y35223806D01*
X-28039561Y35376856D01*
X-28122070Y35477393D01*
X-28607531Y35962854D01*
X-28708068Y36045363D01*
X-28861119Y36127170D01*
X-29027188Y36177546D01*
X-29199893Y36194557D01*
X-29372598Y36177546D01*
X-29538667Y36127170D01*
X-29691718Y36045363D01*
X-29825867Y35935269D01*
X-29935961Y35801120D01*
X-30017768Y35648069D01*
X-30068144Y35482000D01*
X-30085155Y35309295D01*
X-31883568Y35309295D01*
X-30883745Y36213024D01*
X-28844938Y37852698D01*
X-16081000Y37852698D01*
X-16081000Y37147302D01*
X-15943384Y36455461D01*
X-15673441Y35803760D01*
X-15281544Y35217246D01*
X-14782754Y34718456D01*
X-14196240Y34326559D01*
X-13544539Y34056616D01*
X-12852698Y33919000D01*
X-12147302Y33919000D01*
X-11455461Y34056616D01*
X-10803760Y34326559D01*
X-10217246Y34718456D01*
X-9718456Y35217246D01*
X-9326559Y35803760D01*
X-9056616Y36455461D01*
X-8919000Y37147302D01*
X-8919000Y37852698D01*
X-8923436Y37875000D01*
X-6832843Y37875000D01*
X-6832843Y36125000D01*
X-6808674Y35879607D01*
X-6737095Y35643644D01*
X-6620858Y35426180D01*
X-6464429Y35235571D01*
X-6273820Y35079142D01*
X-6056356Y34962905D01*
X-5820393Y34891326D01*
X-5575000Y34867157D01*
X-3825000Y34867157D01*
X-3579607Y34891326D01*
X-3343644Y34962905D01*
X-3126180Y35079142D01*
X-2935571Y35235571D01*
X-2779142Y35426180D01*
X-2662905Y35643644D01*
X-2630643Y35750000D01*
X-2132843Y35750000D01*
X-2132843Y32250000D01*
X-2125487Y32175311D01*
X-2103701Y32103492D01*
X-2068322Y32037304D01*
X-2020711Y31979289D01*
X-1962696Y31931678D01*
X-1896508Y31896299D01*
X-1824689Y31874513D01*
X-1750000Y31867157D01*
X1750000Y31867157D01*
X1824689Y31874513D01*
X1896508Y31896299D01*
X1962696Y31931678D01*
X2020711Y31979289D01*
X2068322Y32037304D01*
X2103701Y32103492D01*
X2125487Y32175311D01*
X2132843Y32250000D01*
X2132843Y35750000D01*
X2125487Y35824689D01*
X2103701Y35896508D01*
X2068322Y35962696D01*
X2020711Y36020711D01*
X1962696Y36068322D01*
X1896508Y36103701D01*
X1824689Y36125487D01*
X1750000Y36132843D01*
X-1750000Y36132843D01*
X-1824689Y36125487D01*
X-1896508Y36103701D01*
X-1962696Y36068322D01*
X-2020711Y36020711D01*
X-2068322Y35962696D01*
X-2103701Y35896508D01*
X-2125487Y35824689D01*
X-2132843Y35750000D01*
X-2630643Y35750000D01*
X-2591326Y35879607D01*
X-2567157Y36125000D01*
X-2567157Y37852698D01*
X8919000Y37852698D01*
X8919000Y37147302D01*
X9056616Y36455461D01*
X9326559Y35803760D01*
X9718456Y35217246D01*
X10217246Y34718456D01*
X10803760Y34326559D01*
X11455461Y34056616D01*
X12147302Y33919000D01*
X12852698Y33919000D01*
X13544539Y34056616D01*
X14196240Y34326559D01*
X14782754Y34718456D01*
X15229862Y35165564D01*
X18319000Y35165564D01*
X18319000Y34834436D01*
X18383600Y34509670D01*
X18510317Y34203748D01*
X18694282Y33928425D01*
X18928425Y33694282D01*
X19203748Y33510317D01*
X19509670Y33383600D01*
X19834436Y33319000D01*
X20165564Y33319000D01*
X20490330Y33383600D01*
X20796252Y33510317D01*
X21071575Y33694282D01*
X21305718Y33928425D01*
X21489683Y34203748D01*
X21616400Y34509670D01*
X21681000Y34834436D01*
X21681000Y35165564D01*
X21616400Y35490330D01*
X21489683Y35796252D01*
X21305718Y36071575D01*
X21071575Y36305718D01*
X20796252Y36489683D01*
X20490330Y36616400D01*
X20165564Y36681000D01*
X19834436Y36681000D01*
X19509670Y36616400D01*
X19203748Y36489683D01*
X18928425Y36305718D01*
X18694282Y36071575D01*
X18510317Y35796252D01*
X18383600Y35490330D01*
X18319000Y35165564D01*
X15229862Y35165564D01*
X15281544Y35217246D01*
X15673441Y35803760D01*
X15943384Y36455461D01*
X16081000Y37147302D01*
X16081000Y37852698D01*
X15943384Y38544539D01*
X15673441Y39196240D01*
X15281544Y39782754D01*
X14782754Y40281544D01*
X14196240Y40673441D01*
X13544539Y40943384D01*
X12852698Y41081000D01*
X12147302Y41081000D01*
X11455461Y40943384D01*
X10803760Y40673441D01*
X10217246Y40281544D01*
X9718456Y39782754D01*
X9326559Y39196240D01*
X9056616Y38544539D01*
X8919000Y37852698D01*
X-2567157Y37852698D01*
X-2567157Y37875000D01*
X-2591326Y38120393D01*
X-2662905Y38356356D01*
X-2739684Y38500000D01*
X-2388072Y38500000D01*
X-2375812Y38375518D01*
X-2339502Y38255820D01*
X-2280537Y38145506D01*
X-2201185Y38048815D01*
X-2104494Y37969463D01*
X-1994180Y37910498D01*
X-1874482Y37874188D01*
X-1750000Y37861928D01*
X-285750Y37865000D01*
X-127000Y38023750D01*
X-127000Y39873000D01*
X127000Y39873000D01*
X127000Y38023750D01*
X285750Y37865000D01*
X1750000Y37861928D01*
X1874482Y37874188D01*
X1994180Y37910498D01*
X2104494Y37969463D01*
X2201185Y38048815D01*
X2280537Y38145506D01*
X2339502Y38255820D01*
X2375812Y38375518D01*
X2388072Y38500000D01*
X2385000Y39714250D01*
X2226250Y39873000D01*
X127000Y39873000D01*
X-127000Y39873000D01*
X-2226250Y39873000D01*
X-2385000Y39714250D01*
X-2388072Y38500000D01*
X-2739684Y38500000D01*
X-2779142Y38573820D01*
X-2935571Y38764429D01*
X-3126180Y38920858D01*
X-3343644Y39037095D01*
X-3579607Y39108674D01*
X-3825000Y39132843D01*
X-5575000Y39132843D01*
X-5820393Y39108674D01*
X-6056356Y39037095D01*
X-6273820Y38920858D01*
X-6464429Y38764429D01*
X-6620858Y38573820D01*
X-6737095Y38356356D01*
X-6808674Y38120393D01*
X-6832843Y37875000D01*
X-8923436Y37875000D01*
X-9056616Y38544539D01*
X-9326559Y39196240D01*
X-9718456Y39782754D01*
X-10217246Y40281544D01*
X-10803760Y40673441D01*
X-11455461Y40943384D01*
X-12147302Y41081000D01*
X-12852698Y41081000D01*
X-13544539Y40943384D01*
X-14196240Y40673441D01*
X-14782754Y40281544D01*
X-15281544Y39782754D01*
X-15673441Y39196240D01*
X-15943384Y38544539D01*
X-16081000Y37852698D01*
X-28844938Y37852698D01*
X-28746145Y37932150D01*
X-26513052Y39525269D01*
X-24191886Y40987089D01*
X-23262715Y41500000D01*
X-2388072Y41500000D01*
X-2385000Y40285750D01*
X-2226250Y40127000D01*
X-127000Y40127000D01*
X-127000Y41976250D01*
X127000Y41976250D01*
X127000Y40127000D01*
X2226250Y40127000D01*
X2385000Y40285750D01*
X2388072Y41500000D01*
X2375812Y41624482D01*
X2339502Y41744180D01*
X2280537Y41854494D01*
X2201185Y41951185D01*
X2104494Y42030537D01*
X1994180Y42089502D01*
X1874482Y42125812D01*
X1750000Y42138072D01*
X285750Y42135000D01*
X127000Y41976250D01*
X-127000Y41976250D01*
X-285750Y42135000D01*
X-1750000Y42138072D01*
X-1874482Y42125812D01*
X-1994180Y42089502D01*
X-2104494Y42030537D01*
X-2201185Y41951185D01*
X-2280537Y41854494D01*
X-2339502Y41744180D01*
X-2375812Y41624482D01*
X-2388072Y41500000D01*
X-23262715Y41500000D01*
X-21790357Y42312754D01*
X-19316443Y43497861D01*
X-16778361Y44538471D01*
X-14184544Y45431130D01*
X-11543606Y46172871D01*
X-8864322Y46761230D01*
X-6155592Y47194253D01*
X-3426413Y47470502D01*
X-685852Y47589058D01*
X2056987Y47549528D01*
%TA.AperFunction,Conductor*%
D25*
G36*
X2056987Y47549528D02*
G01*
X4792993Y47352044D01*
X7513077Y46997261D01*
X10208204Y46486357D01*
X12869420Y45821031D01*
X15487885Y45003492D01*
X18054901Y44036455D01*
X20561940Y42923134D01*
X23000675Y41667227D01*
X25363003Y40272905D01*
X27641079Y38744801D01*
X29827333Y37087991D01*
X31914504Y35307977D01*
X33895658Y33410675D01*
X35764214Y31402385D01*
X37513966Y29289780D01*
X39139099Y27079877D01*
X40634217Y24780018D01*
X41994351Y22397842D01*
X43214985Y19941262D01*
X44292062Y17418440D01*
X45222006Y14837755D01*
X46001727Y12207781D01*
X46628635Y9537253D01*
X47100648Y6835044D01*
X47416196Y4110130D01*
X47574233Y1371562D01*
X47574233Y-1371562D01*
X47416196Y-4110130D01*
X47100648Y-6835044D01*
X46628635Y-9537253D01*
X46001727Y-12207781D01*
X45222006Y-14837755D01*
X44292062Y-17418440D01*
X43214985Y-19941262D01*
X41994351Y-22397842D01*
X40634217Y-24780018D01*
X39139099Y-27079877D01*
X37513966Y-29289780D01*
X35764214Y-31402385D01*
X33895658Y-33410675D01*
X31914504Y-35307977D01*
X29827333Y-37087991D01*
X27641079Y-38744801D01*
X25363003Y-40272905D01*
X23000675Y-41667227D01*
X20561940Y-42923134D01*
X18054901Y-44036455D01*
X15487885Y-45003492D01*
X12869420Y-45821031D01*
X10208204Y-46486357D01*
X7513077Y-46997261D01*
X4792993Y-47352044D01*
X2056987Y-47549528D01*
X-685852Y-47589058D01*
X-3426413Y-47470502D01*
X-6155592Y-47194253D01*
X-8864322Y-46761230D01*
X-11543606Y-46172871D01*
X-14184544Y-45431130D01*
X-16778361Y-44538471D01*
X-19316443Y-43497861D01*
X-21790357Y-42312754D01*
X-24191886Y-40987089D01*
X-26513052Y-39525269D01*
X-28746145Y-37932150D01*
X-29722042Y-37147302D01*
X-16081000Y-37147302D01*
X-16081000Y-37852698D01*
X-15943384Y-38544539D01*
X-15673441Y-39196240D01*
X-15281544Y-39782754D01*
X-14782754Y-40281544D01*
X-14196240Y-40673441D01*
X-13544539Y-40943384D01*
X-12852698Y-41081000D01*
X-12147302Y-41081000D01*
X-11455461Y-40943384D01*
X-10803760Y-40673441D01*
X-10217246Y-40281544D01*
X-9718456Y-39782754D01*
X-9706922Y-39765492D01*
X-7131000Y-39765492D01*
X-7131000Y-40234508D01*
X-7039500Y-40694512D01*
X-6860015Y-41127827D01*
X-6599444Y-41517799D01*
X-6267799Y-41849444D01*
X-5877827Y-42110015D01*
X-5444512Y-42289500D01*
X-4984508Y-42381000D01*
X-4515492Y-42381000D01*
X-4055488Y-42289500D01*
X-3622173Y-42110015D01*
X-3232201Y-41849444D01*
X-2900556Y-41517799D01*
X-2639985Y-41127827D01*
X-2460500Y-40694512D01*
X-2369000Y-40234508D01*
X-2369000Y-39765492D01*
X2369000Y-39765492D01*
X2369000Y-40234508D01*
X2460500Y-40694512D01*
X2639985Y-41127827D01*
X2900556Y-41517799D01*
X3232201Y-41849444D01*
X3622173Y-42110015D01*
X4055488Y-42289500D01*
X4515492Y-42381000D01*
X4984508Y-42381000D01*
X5444512Y-42289500D01*
X5877827Y-42110015D01*
X6267799Y-41849444D01*
X6599444Y-41517799D01*
X6860015Y-41127827D01*
X7039500Y-40694512D01*
X7131000Y-40234508D01*
X7131000Y-39765492D01*
X7039500Y-39305488D01*
X6860015Y-38872173D01*
X6599444Y-38482201D01*
X6267799Y-38150556D01*
X5877827Y-37889985D01*
X5444512Y-37710500D01*
X4984508Y-37619000D01*
X4515492Y-37619000D01*
X4055488Y-37710500D01*
X3622173Y-37889985D01*
X3232201Y-38150556D01*
X2900556Y-38482201D01*
X2639985Y-38872173D01*
X2460500Y-39305488D01*
X2369000Y-39765492D01*
X-2369000Y-39765492D01*
X-2460500Y-39305488D01*
X-2639985Y-38872173D01*
X-2900556Y-38482201D01*
X-3232201Y-38150556D01*
X-3622173Y-37889985D01*
X-4055488Y-37710500D01*
X-4515492Y-37619000D01*
X-4984508Y-37619000D01*
X-5444512Y-37710500D01*
X-5877827Y-37889985D01*
X-6267799Y-38150556D01*
X-6599444Y-38482201D01*
X-6860015Y-38872173D01*
X-7039500Y-39305488D01*
X-7131000Y-39765492D01*
X-9706922Y-39765492D01*
X-9326559Y-39196240D01*
X-9056616Y-38544539D01*
X-8919000Y-37852698D01*
X-8919000Y-37147302D01*
X8919000Y-37147302D01*
X8919000Y-37852698D01*
X9056616Y-38544539D01*
X9326559Y-39196240D01*
X9718456Y-39782754D01*
X10217246Y-40281544D01*
X10803760Y-40673441D01*
X11455461Y-40943384D01*
X12147302Y-41081000D01*
X12852698Y-41081000D01*
X13544539Y-40943384D01*
X14196240Y-40673441D01*
X14782754Y-40281544D01*
X15281544Y-39782754D01*
X15673441Y-39196240D01*
X15943384Y-38544539D01*
X16081000Y-37852698D01*
X16081000Y-37147302D01*
X15943384Y-36455461D01*
X15673441Y-35803760D01*
X15281544Y-35217246D01*
X14782754Y-34718456D01*
X14196240Y-34326559D01*
X13544539Y-34056616D01*
X12852698Y-33919000D01*
X12147302Y-33919000D01*
X11455461Y-34056616D01*
X10803760Y-34326559D01*
X10217246Y-34718456D01*
X9718456Y-35217246D01*
X9326559Y-35803760D01*
X9056616Y-36455461D01*
X8919000Y-37147302D01*
X-8919000Y-37147302D01*
X-9056616Y-36455461D01*
X-9326559Y-35803760D01*
X-9718456Y-35217246D01*
X-10217246Y-34718456D01*
X-10803760Y-34326559D01*
X-11455461Y-34056616D01*
X-12147302Y-33919000D01*
X-12852698Y-33919000D01*
X-13544539Y-34056616D01*
X-14196240Y-34326559D01*
X-14782754Y-34718456D01*
X-15281544Y-35217246D01*
X-15673441Y-35803760D01*
X-15943384Y-36455461D01*
X-16081000Y-37147302D01*
X-29722042Y-37147302D01*
X-30883745Y-36213024D01*
X-32918753Y-34373602D01*
X-34844408Y-32419995D01*
X-35732522Y-31408520D01*
X-27306514Y-31408520D01*
X-27306514Y-31877536D01*
X-27215014Y-32337540D01*
X-27035529Y-32770855D01*
X-26774958Y-33160827D01*
X-26443313Y-33492472D01*
X-26053341Y-33753043D01*
X-25620026Y-33932528D01*
X-25160022Y-34024028D01*
X-24691006Y-34024028D01*
X-24231002Y-33932528D01*
X-23797687Y-33753043D01*
X-23407715Y-33492472D01*
X-23076070Y-33160827D01*
X-22815499Y-32770855D01*
X-22651048Y-32373833D01*
X-3781000Y-32373833D01*
X-3781000Y-32626167D01*
X-3731772Y-32873654D01*
X-3635207Y-33106781D01*
X-3495018Y-33316590D01*
X-3316590Y-33495018D01*
X-3106781Y-33635207D01*
X-2873654Y-33731772D01*
X-2626167Y-33781000D01*
X-2373833Y-33781000D01*
X-2126346Y-33731772D01*
X-1893219Y-33635207D01*
X-1683410Y-33495018D01*
X-1504982Y-33316590D01*
X-1364793Y-33106781D01*
X-1268228Y-32873654D01*
X-1250000Y-32782015D01*
X-1231772Y-32873654D01*
X-1135207Y-33106781D01*
X-995018Y-33316590D01*
X-816590Y-33495018D01*
X-606781Y-33635207D01*
X-373654Y-33731772D01*
X-126167Y-33781000D01*
X126167Y-33781000D01*
X373654Y-33731772D01*
X606781Y-33635207D01*
X713230Y-33564080D01*
X1615525Y-33564080D01*
X1699208Y-33818261D01*
X1971775Y-33949158D01*
X2264642Y-34024365D01*
X2566553Y-34040991D01*
X2865907Y-33998397D01*
X3151199Y-33898222D01*
X3300792Y-33818261D01*
X3384475Y-33564080D01*
X2500000Y-32679605D01*
X1615525Y-33564080D01*
X713230Y-33564080D01*
X816590Y-33495018D01*
X995018Y-33316590D01*
X1103445Y-33154317D01*
X1181739Y-33300792D01*
X1435920Y-33384475D01*
X2320395Y-32500000D01*
X2679605Y-32500000D01*
X3564080Y-33384475D01*
X3818261Y-33300792D01*
X3949158Y-33028225D01*
X4024365Y-32735358D01*
X4040991Y-32433447D01*
X3998397Y-32134093D01*
X3898222Y-31848801D01*
X3818261Y-31699208D01*
X3564080Y-31615525D01*
X2679605Y-32500000D01*
X2320395Y-32500000D01*
X1435920Y-31615525D01*
X1181739Y-31699208D01*
X1108071Y-31852607D01*
X995018Y-31683410D01*
X816590Y-31504982D01*
X713231Y-31435920D01*
X1615525Y-31435920D01*
X2500000Y-32320395D01*
X3384475Y-31435920D01*
X3375455Y-31408520D01*
X22544514Y-31408520D01*
X22544514Y-31877536D01*
X22636014Y-32337540D01*
X22815499Y-32770855D01*
X23076070Y-33160827D01*
X23407715Y-33492472D01*
X23797687Y-33753043D01*
X24231002Y-33932528D01*
X24691006Y-34024028D01*
X25160022Y-34024028D01*
X25620026Y-33932528D01*
X26053341Y-33753043D01*
X26443313Y-33492472D01*
X26774958Y-33160827D01*
X27035529Y-32770855D01*
X27215014Y-32337540D01*
X27306514Y-31877536D01*
X27306514Y-31408520D01*
X27215014Y-30948516D01*
X27035529Y-30515201D01*
X26774958Y-30125229D01*
X26443313Y-29793584D01*
X26053341Y-29533013D01*
X25620026Y-29353528D01*
X25160022Y-29262028D01*
X24691006Y-29262028D01*
X24231002Y-29353528D01*
X23797687Y-29533013D01*
X23407715Y-29793584D01*
X23076070Y-30125229D01*
X22815499Y-30515201D01*
X22636014Y-30948516D01*
X22544514Y-31408520D01*
X3375455Y-31408520D01*
X3300792Y-31181739D01*
X3028225Y-31050842D01*
X2735358Y-30975635D01*
X2433447Y-30959009D01*
X2134093Y-31001603D01*
X1848801Y-31101778D01*
X1699208Y-31181739D01*
X1615525Y-31435920D01*
X713231Y-31435920D01*
X606781Y-31364793D01*
X373654Y-31268228D01*
X126167Y-31219000D01*
X-126167Y-31219000D01*
X-373654Y-31268228D01*
X-606781Y-31364793D01*
X-816590Y-31504982D01*
X-995018Y-31683410D01*
X-1135207Y-31893219D01*
X-1231772Y-32126346D01*
X-1250000Y-32217985D01*
X-1268228Y-32126346D01*
X-1364793Y-31893219D01*
X-1504982Y-31683410D01*
X-1683410Y-31504982D01*
X-1893219Y-31364793D01*
X-2126346Y-31268228D01*
X-2373833Y-31219000D01*
X-2626167Y-31219000D01*
X-2873654Y-31268228D01*
X-3106781Y-31364793D01*
X-3316590Y-31504982D01*
X-3495018Y-31683410D01*
X-3635207Y-31893219D01*
X-3731772Y-32126346D01*
X-3781000Y-32373833D01*
X-22651048Y-32373833D01*
X-22636014Y-32337540D01*
X-22544514Y-31877536D01*
X-22544514Y-31408520D01*
X-22636014Y-30948516D01*
X-22815499Y-30515201D01*
X-23076070Y-30125229D01*
X-23407715Y-29793584D01*
X-23797687Y-29533013D01*
X-24231002Y-29353528D01*
X-24691006Y-29262028D01*
X-25160022Y-29262028D01*
X-25620026Y-29353528D01*
X-26053341Y-29533013D01*
X-26443313Y-29793584D01*
X-26774958Y-30125229D01*
X-27035529Y-30515201D01*
X-27215014Y-30948516D01*
X-27306514Y-31408520D01*
X-35732522Y-31408520D01*
X-36654313Y-30358691D01*
X-38342457Y-28196539D01*
X-39903231Y-25940721D01*
X-40665346Y-24691006D01*
X-34024028Y-24691006D01*
X-34024028Y-25160022D01*
X-33932528Y-25620026D01*
X-33753043Y-26053341D01*
X-33492472Y-26443313D01*
X-33160827Y-26774958D01*
X-32770855Y-27035529D01*
X-32337540Y-27215014D01*
X-31877536Y-27306514D01*
X-31408520Y-27306514D01*
X-30948516Y-27215014D01*
X-30515201Y-27035529D01*
X-30197246Y-26823078D01*
X-2081000Y-26823078D01*
X-2081000Y-26976922D01*
X-2050987Y-27127809D01*
X-1992113Y-27269942D01*
X-1906642Y-27397859D01*
X-1797859Y-27506642D01*
X-1669942Y-27592113D01*
X-1527809Y-27650987D01*
X-1376922Y-27681000D01*
X-1223078Y-27681000D01*
X-1072191Y-27650987D01*
X-930058Y-27592113D01*
X-802141Y-27506642D01*
X-701499Y-27406000D01*
X-524846Y-27406000D01*
X-500000Y-27408447D01*
X-475154Y-27406000D01*
X-475146Y-27406000D01*
X-400807Y-27398678D01*
X-305425Y-27369745D01*
X-217521Y-27322759D01*
X-140473Y-27259527D01*
X-124624Y-27240215D01*
X309592Y-26806000D01*
X2175154Y-26806000D01*
X2200000Y-26808447D01*
X2224846Y-26806000D01*
X2224854Y-26806000D01*
X2299193Y-26798678D01*
X2323777Y-26791221D01*
X2398078Y-26806000D01*
X2551922Y-26806000D01*
X2702809Y-26775987D01*
X2844942Y-26717113D01*
X2972859Y-26631642D01*
X3081642Y-26522859D01*
X3167113Y-26394942D01*
X3225987Y-26252809D01*
X3256000Y-26101922D01*
X3256000Y-25948078D01*
X3225987Y-25797191D01*
X3167113Y-25655058D01*
X3081642Y-25527141D01*
X2972859Y-25418358D01*
X2844942Y-25332887D01*
X2702809Y-25274013D01*
X2551922Y-25244000D01*
X2398078Y-25244000D01*
X2247191Y-25274013D01*
X2105058Y-25332887D01*
X1977141Y-25418358D01*
X1868358Y-25527141D01*
X1782887Y-25655058D01*
X1725335Y-25794000D01*
X124845Y-25794000D01*
X99999Y-25791553D01*
X75153Y-25794000D01*
X75146Y-25794000D01*
X10694Y-25800348D01*
X806Y-25801322D01*
X-94575Y-25830255D01*
X-182479Y-25877241D01*
X-259527Y-25940473D01*
X-275371Y-25959779D01*
X-705545Y-26389954D01*
X-802141Y-26293358D01*
X-930058Y-26207887D01*
X-1072191Y-26149013D01*
X-1223078Y-26119000D01*
X-1376922Y-26119000D01*
X-1527809Y-26149013D01*
X-1669942Y-26207887D01*
X-1797859Y-26293358D01*
X-1906642Y-26402141D01*
X-1992113Y-26530058D01*
X-2050987Y-26672191D01*
X-2081000Y-26823078D01*
X-30197246Y-26823078D01*
X-30125229Y-26774958D01*
X-29793584Y-26443313D01*
X-29533013Y-26053341D01*
X-29353528Y-25620026D01*
X-29262028Y-25160022D01*
X-29262028Y-25114643D01*
X-22711600Y-25114643D01*
X-22611424Y-25399935D01*
X-22457515Y-25660202D01*
X-22255788Y-25885442D01*
X-22013995Y-26066999D01*
X-21741428Y-26197896D01*
X-21579109Y-26247134D01*
X-21340203Y-26126573D01*
X-21340203Y-24875737D01*
X-21086203Y-24875737D01*
X-21086203Y-26126573D01*
X-20847297Y-26247134D01*
X-20562005Y-26146958D01*
X-20301738Y-25993049D01*
X-20076498Y-25791322D01*
X-19894941Y-25549529D01*
X-19764044Y-25276962D01*
X-19714806Y-25114643D01*
X-19835367Y-24875737D01*
X-21086203Y-24875737D01*
X-21340203Y-24875737D01*
X-22591039Y-24875737D01*
X-22711600Y-25114643D01*
X-29262028Y-25114643D01*
X-29262028Y-24691006D01*
X-29353528Y-24231002D01*
X-29533013Y-23797687D01*
X-29793584Y-23407715D01*
X-30125229Y-23076070D01*
X-30515201Y-22815499D01*
X-30948516Y-22636014D01*
X-31408520Y-22544514D01*
X-31877536Y-22544514D01*
X-32337540Y-22636014D01*
X-32770855Y-22815499D01*
X-33160827Y-23076070D01*
X-33492472Y-23407715D01*
X-33753043Y-23797687D01*
X-33932528Y-24231002D01*
X-34024028Y-24691006D01*
X-40665346Y-24691006D01*
X-41331450Y-23598731D01*
X-42622370Y-21178348D01*
X-42664505Y-21087036D01*
X-26029737Y-21087036D01*
X-26029737Y-21339370D01*
X-25980509Y-21586857D01*
X-25883944Y-21819984D01*
X-25743755Y-22029793D01*
X-25565327Y-22208221D01*
X-25355518Y-22348410D01*
X-25122391Y-22444975D01*
X-24874904Y-22494203D01*
X-24622570Y-22494203D01*
X-24375083Y-22444975D01*
X-24141956Y-22348410D01*
X-24064268Y-22296501D01*
X-24116177Y-22374189D01*
X-24212742Y-22607316D01*
X-24261970Y-22854803D01*
X-24261970Y-23107137D01*
X-24212742Y-23354624D01*
X-24116177Y-23587751D01*
X-23975988Y-23797560D01*
X-23797560Y-23975988D01*
X-23587751Y-24116177D01*
X-23354624Y-24212742D01*
X-23107137Y-24261970D01*
X-22854803Y-24261970D01*
X-22663388Y-24223895D01*
X-22711600Y-24382831D01*
X-22591039Y-24621737D01*
X-21519811Y-24621737D01*
X-21406952Y-24734596D01*
X-21227344Y-24554988D01*
X-21340203Y-24442129D01*
X-21340203Y-23370901D01*
X-21086203Y-23370901D01*
X-21086203Y-24621737D01*
X-19835367Y-24621737D01*
X-19714806Y-24382831D01*
X-19770900Y-24223078D01*
X9919000Y-24223078D01*
X9919000Y-24376922D01*
X9949013Y-24527809D01*
X10007887Y-24669942D01*
X10093358Y-24797859D01*
X10202141Y-24906642D01*
X10330058Y-24992113D01*
X10472191Y-25050987D01*
X10623078Y-25081000D01*
X10776922Y-25081000D01*
X10927809Y-25050987D01*
X11069942Y-24992113D01*
X11197859Y-24906642D01*
X11306642Y-24797859D01*
X11392113Y-24669942D01*
X11411735Y-24622570D01*
X19932203Y-24622570D01*
X19932203Y-24874904D01*
X19981431Y-25122391D01*
X20077996Y-25355518D01*
X20218185Y-25565327D01*
X20396613Y-25743755D01*
X20606422Y-25883944D01*
X20839549Y-25980509D01*
X21087036Y-26029737D01*
X21339370Y-26029737D01*
X21586857Y-25980509D01*
X21819984Y-25883944D01*
X22029793Y-25743755D01*
X22208221Y-25565327D01*
X22348410Y-25355518D01*
X22444975Y-25122391D01*
X22494203Y-24874904D01*
X22494203Y-24691006D01*
X29262028Y-24691006D01*
X29262028Y-25160022D01*
X29353528Y-25620026D01*
X29533013Y-26053341D01*
X29793584Y-26443313D01*
X30125229Y-26774958D01*
X30515201Y-27035529D01*
X30948516Y-27215014D01*
X31408520Y-27306514D01*
X31877536Y-27306514D01*
X32337540Y-27215014D01*
X32770855Y-27035529D01*
X33160827Y-26774958D01*
X33492472Y-26443313D01*
X33753043Y-26053341D01*
X33932528Y-25620026D01*
X34024028Y-25160022D01*
X34024028Y-24691006D01*
X33932528Y-24231002D01*
X33753043Y-23797687D01*
X33492472Y-23407715D01*
X33160827Y-23076070D01*
X32770855Y-22815499D01*
X32337540Y-22636014D01*
X31877536Y-22544514D01*
X31408520Y-22544514D01*
X30948516Y-22636014D01*
X30515201Y-22815499D01*
X30125229Y-23076070D01*
X29793584Y-23407715D01*
X29533013Y-23797687D01*
X29353528Y-24231002D01*
X29262028Y-24691006D01*
X22494203Y-24691006D01*
X22494203Y-24622570D01*
X22444975Y-24375083D01*
X22348410Y-24141956D01*
X22296501Y-24064268D01*
X22374189Y-24116177D01*
X22607316Y-24212742D01*
X22854803Y-24261970D01*
X23107137Y-24261970D01*
X23354624Y-24212742D01*
X23587751Y-24116177D01*
X23797560Y-23975988D01*
X23975988Y-23797560D01*
X24116177Y-23587751D01*
X24212742Y-23354624D01*
X24261970Y-23107137D01*
X24261970Y-22854803D01*
X24223895Y-22663388D01*
X24382831Y-22711600D01*
X24621737Y-22591039D01*
X24621737Y-21519811D01*
X24734596Y-21406952D01*
X24667847Y-21340203D01*
X24875737Y-21340203D01*
X24875737Y-22591039D01*
X25114643Y-22711600D01*
X25399935Y-22611424D01*
X25660202Y-22457515D01*
X25885442Y-22255788D01*
X26066999Y-22013995D01*
X26197896Y-21741428D01*
X26247134Y-21579109D01*
X26126573Y-21340203D01*
X24875737Y-21340203D01*
X24667847Y-21340203D01*
X24554988Y-21227344D01*
X24442129Y-21340203D01*
X23370901Y-21340203D01*
X23250340Y-21579109D01*
X23306718Y-21739669D01*
X23107137Y-21699970D01*
X22854803Y-21699970D01*
X22607316Y-21749198D01*
X22374189Y-21845763D01*
X22164380Y-21985952D01*
X21985952Y-22164380D01*
X21845763Y-22374189D01*
X21749198Y-22607316D01*
X21699970Y-22854803D01*
X21699970Y-23107137D01*
X21749198Y-23354624D01*
X21845763Y-23587751D01*
X21897672Y-23665439D01*
X21819984Y-23613530D01*
X21586857Y-23516965D01*
X21339370Y-23467737D01*
X21087036Y-23467737D01*
X20839549Y-23516965D01*
X20606422Y-23613530D01*
X20396613Y-23753719D01*
X20218185Y-23932147D01*
X20077996Y-24141956D01*
X19981431Y-24375083D01*
X19932203Y-24622570D01*
X11411735Y-24622570D01*
X11450987Y-24527809D01*
X11481000Y-24376922D01*
X11481000Y-24223078D01*
X11466319Y-24149272D01*
X12134592Y-23481000D01*
X12276922Y-23481000D01*
X12427809Y-23450987D01*
X12569942Y-23392113D01*
X12697859Y-23306642D01*
X12806642Y-23197859D01*
X12892113Y-23069942D01*
X12950987Y-22927809D01*
X12981000Y-22776922D01*
X12981000Y-22623078D01*
X12950987Y-22472191D01*
X12892113Y-22330058D01*
X12806642Y-22202141D01*
X12697859Y-22093358D01*
X12569942Y-22007887D01*
X12427809Y-21949013D01*
X12276922Y-21919000D01*
X12123078Y-21919000D01*
X11972191Y-21949013D01*
X11830058Y-22007887D01*
X11702141Y-22093358D01*
X11593358Y-22202141D01*
X11507887Y-22330058D01*
X11449013Y-22472191D01*
X11419000Y-22623078D01*
X11419000Y-22765408D01*
X10665409Y-23519000D01*
X10623078Y-23519000D01*
X10472191Y-23549013D01*
X10330058Y-23607887D01*
X10202141Y-23693358D01*
X10093358Y-23802141D01*
X10007887Y-23930058D01*
X9949013Y-24072191D01*
X9919000Y-24223078D01*
X-19770900Y-24223078D01*
X-19814982Y-24097539D01*
X-19968891Y-23837272D01*
X-20170618Y-23612032D01*
X-20412411Y-23430475D01*
X-20684978Y-23299578D01*
X-20847297Y-23250340D01*
X-21086203Y-23370901D01*
X-21340203Y-23370901D01*
X-21579109Y-23250340D01*
X-21739669Y-23306718D01*
X-21699970Y-23107137D01*
X-21699970Y-22854803D01*
X-21749198Y-22607316D01*
X-21845763Y-22374189D01*
X-21985952Y-22164380D01*
X-22164380Y-21985952D01*
X-22374189Y-21845763D01*
X-22607316Y-21749198D01*
X-22854803Y-21699970D01*
X-23107137Y-21699970D01*
X-23354624Y-21749198D01*
X-23587751Y-21845763D01*
X-23665439Y-21897672D01*
X-23613530Y-21819984D01*
X-23516965Y-21586857D01*
X-23467737Y-21339370D01*
X-23467737Y-21087036D01*
X-23515423Y-20847297D01*
X23250340Y-20847297D01*
X23370901Y-21086203D01*
X24621737Y-21086203D01*
X24621737Y-19835367D01*
X24875737Y-19835367D01*
X24875737Y-21086203D01*
X26126573Y-21086203D01*
X26247134Y-20847297D01*
X26146958Y-20562005D01*
X25993049Y-20301738D01*
X25791322Y-20076498D01*
X25549529Y-19894941D01*
X25276962Y-19764044D01*
X25114643Y-19714806D01*
X24875737Y-19835367D01*
X24621737Y-19835367D01*
X24382831Y-19714806D01*
X24097539Y-19814982D01*
X23837272Y-19968891D01*
X23612032Y-20170618D01*
X23430475Y-20412411D01*
X23299578Y-20684978D01*
X23250340Y-20847297D01*
X-23515423Y-20847297D01*
X-23516965Y-20839549D01*
X-23613530Y-20606422D01*
X-23753719Y-20396613D01*
X-23932147Y-20218185D01*
X-24141956Y-20077996D01*
X-24375083Y-19981431D01*
X-24622570Y-19932203D01*
X-24874904Y-19932203D01*
X-25122391Y-19981431D01*
X-25355518Y-20077996D01*
X-25565327Y-20218185D01*
X-25743755Y-20396613D01*
X-25883944Y-20606422D01*
X-25980509Y-20839549D01*
X-26029737Y-21087036D01*
X-42664505Y-21087036D01*
X-43771703Y-18687612D01*
X-44775631Y-16134798D01*
X-45630818Y-13528386D01*
X-45997325Y-12147302D01*
X-41081000Y-12147302D01*
X-41081000Y-12852698D01*
X-40943384Y-13544539D01*
X-40673441Y-14196240D01*
X-40281544Y-14782754D01*
X-39782754Y-15281544D01*
X-39196240Y-15673441D01*
X-38544539Y-15943384D01*
X-37852698Y-16081000D01*
X-37147302Y-16081000D01*
X-36455461Y-15943384D01*
X-35803760Y-15673441D01*
X-35217246Y-15281544D01*
X-34718456Y-14782754D01*
X-34326559Y-14196240D01*
X-34056616Y-13544539D01*
X-33919000Y-12852698D01*
X-33919000Y-12147302D01*
X33919000Y-12147302D01*
X33919000Y-12852698D01*
X34056616Y-13544539D01*
X34326559Y-14196240D01*
X34718456Y-14782754D01*
X35217246Y-15281544D01*
X35803760Y-15673441D01*
X36455461Y-15943384D01*
X37147302Y-16081000D01*
X37852698Y-16081000D01*
X38544539Y-15943384D01*
X39196240Y-15673441D01*
X39782754Y-15281544D01*
X40281544Y-14782754D01*
X40673441Y-14196240D01*
X40943384Y-13544539D01*
X41081000Y-12852698D01*
X41081000Y-12147302D01*
X40943384Y-11455461D01*
X40673441Y-10803760D01*
X40281544Y-10217246D01*
X39782754Y-9718456D01*
X39196240Y-9326559D01*
X38544539Y-9056616D01*
X37852698Y-8919000D01*
X37147302Y-8919000D01*
X36455461Y-9056616D01*
X35803760Y-9326559D01*
X35217246Y-9718456D01*
X34718456Y-10217246D01*
X34326559Y-10803760D01*
X34056616Y-11455461D01*
X33919000Y-12147302D01*
X-33919000Y-12147302D01*
X-34056616Y-11455461D01*
X-34326559Y-10803760D01*
X-34718456Y-10217246D01*
X-35217246Y-9718456D01*
X-35803760Y-9326559D01*
X-36455461Y-9056616D01*
X-37147302Y-8919000D01*
X-37852698Y-8919000D01*
X-38544539Y-9056616D01*
X-39196240Y-9326559D01*
X-39782754Y-9718456D01*
X-40281544Y-10217246D01*
X-40673441Y-10803760D01*
X-40943384Y-11455461D01*
X-41081000Y-12147302D01*
X-45997325Y-12147302D01*
X-46334425Y-10877035D01*
X-46884114Y-8189550D01*
X-47278058Y-5474861D01*
X-47386831Y-4220000D01*
X-46635262Y-4220000D01*
X-46618252Y-4392706D01*
X-46567875Y-4558775D01*
X-46486068Y-4711825D01*
X-46375975Y-4845975D01*
X-46241825Y-4956068D01*
X-46088775Y-5037875D01*
X-45922706Y-5088252D01*
X-45793273Y-5101000D01*
X-45106727Y-5101000D01*
X-44977294Y-5088252D01*
X-44811225Y-5037875D01*
X-44658175Y-4956068D01*
X-44524025Y-4845975D01*
X-44413932Y-4711825D01*
X-44332125Y-4558775D01*
X-44281748Y-4392706D01*
X-44264738Y-4220000D01*
X-44281748Y-4047294D01*
X-44332125Y-3881225D01*
X-44413932Y-3728175D01*
X-44524025Y-3594025D01*
X-44658175Y-3483932D01*
X-44811225Y-3402125D01*
X-44977294Y-3351748D01*
X-45106727Y-3339000D01*
X-45793273Y-3339000D01*
X-45922706Y-3351748D01*
X-46088775Y-3402125D01*
X-46241825Y-3483932D01*
X-46375975Y-3594025D01*
X-46486068Y-3728175D01*
X-46567875Y-3881225D01*
X-46618252Y-4047294D01*
X-46635262Y-4220000D01*
X-47386831Y-4220000D01*
X-47514949Y-2741985D01*
X-47594000Y0D01*
X-47534123Y2076922D01*
X-43381000Y2076922D01*
X-43381000Y1923078D01*
X-43350987Y1772191D01*
X-43292113Y1630058D01*
X-43206642Y1502141D01*
X-43156000Y1451499D01*
X-43155999Y-872686D01*
X-43158689Y-900000D01*
X-43147955Y-1008994D01*
X-43116161Y-1113801D01*
X-43064533Y-1210392D01*
X-42995052Y-1295053D01*
X-42973837Y-1312464D01*
X-42125602Y-2160700D01*
X-42134416Y-2164351D01*
X-42250049Y-2241614D01*
X-42348386Y-2339951D01*
X-42425649Y-2455584D01*
X-42478869Y-2584067D01*
X-42506000Y-2720465D01*
X-42506000Y-2859535D01*
X-42478869Y-2995933D01*
X-42425649Y-3124416D01*
X-42348386Y-3240049D01*
X-42250049Y-3338386D01*
X-42155942Y-3401266D01*
X-42158775Y-3402125D01*
X-42311825Y-3483932D01*
X-42445975Y-3594025D01*
X-42556068Y-3728175D01*
X-42637875Y-3881225D01*
X-42688252Y-4047294D01*
X-42705262Y-4220000D01*
X-42688252Y-4392706D01*
X-42637875Y-4558775D01*
X-42556068Y-4711825D01*
X-42445975Y-4845975D01*
X-42311825Y-4956068D01*
X-42158775Y-5037875D01*
X-41992706Y-5088252D01*
X-41863273Y-5101000D01*
X-40676727Y-5101000D01*
X-40547294Y-5088252D01*
X-40381225Y-5037875D01*
X-40228175Y-4956068D01*
X-40094025Y-4845975D01*
X-39983932Y-4711825D01*
X-39902125Y-4558775D01*
X-39851748Y-4392706D01*
X-39834738Y-4220000D01*
X-39851748Y-4047294D01*
X-39902125Y-3881225D01*
X-39983932Y-3728175D01*
X-40094025Y-3594025D01*
X-40228175Y-3483932D01*
X-40381225Y-3402125D01*
X-40547294Y-3351748D01*
X-40676727Y-3339000D01*
X-41350870Y-3339000D01*
X-41349951Y-3338386D01*
X-41251614Y-3240049D01*
X-41174351Y-3124416D01*
X-41121131Y-2995933D01*
X-41094000Y-2859535D01*
X-41094000Y-2856000D01*
X-39348501Y-2856000D01*
X-39297859Y-2906642D01*
X-39169942Y-2992113D01*
X-39027809Y-3050987D01*
X-38876922Y-3081000D01*
X-38723078Y-3081000D01*
X-38572191Y-3050987D01*
X-38430058Y-2992113D01*
X-38302141Y-2906642D01*
X-38193358Y-2797859D01*
X-38107887Y-2669942D01*
X-38049013Y-2527809D01*
X-38019000Y-2376922D01*
X-38019000Y-2223078D01*
X-38049013Y-2072191D01*
X-38107887Y-1930058D01*
X-38193358Y-1802141D01*
X-38302141Y-1693358D01*
X-38430058Y-1607887D01*
X-38572191Y-1549013D01*
X-38723078Y-1519000D01*
X-38876922Y-1519000D01*
X-39027809Y-1549013D01*
X-39169942Y-1607887D01*
X-39297859Y-1693358D01*
X-39348501Y-1744000D01*
X-40969698Y-1744000D01*
X-42044000Y-669699D01*
X-42044000Y609132D01*
X-8905191Y609132D01*
X-8905191Y-609132D01*
X-8739305Y-1816048D01*
X-8410621Y-2989135D01*
X-7925263Y-4106541D01*
X-7292273Y-5147449D01*
X-6523442Y-6092469D01*
X-5633091Y-6923999D01*
X-4637806Y-7626548D01*
X-3556128Y-8187028D01*
X-2408206Y-8595000D01*
X-1215424Y-8842863D01*
X0Y-8926000D01*
X1215424Y-8842863D01*
X2408206Y-8595000D01*
X3556128Y-8187028D01*
X4637806Y-7626548D01*
X5633091Y-6923999D01*
X6523442Y-6092469D01*
X7292273Y-5147449D01*
X7925263Y-4106541D01*
X7993258Y-3950000D01*
X32967157Y-3950000D01*
X32967157Y-5450000D01*
X32988924Y-5671007D01*
X33053390Y-5883520D01*
X33158075Y-6079374D01*
X33298959Y-6251041D01*
X33470626Y-6391925D01*
X33666480Y-6496610D01*
X33878993Y-6561076D01*
X34100000Y-6582843D01*
X36100000Y-6582843D01*
X36321007Y-6561076D01*
X36533520Y-6496610D01*
X36729374Y-6391925D01*
X36901041Y-6251041D01*
X37041925Y-6079374D01*
X37146610Y-5883520D01*
X37211076Y-5671007D01*
X37232843Y-5450000D01*
X37232843Y-3950000D01*
X37767157Y-3950000D01*
X37767157Y-5450000D01*
X37788924Y-5671007D01*
X37853390Y-5883520D01*
X37958075Y-6079374D01*
X38098959Y-6251041D01*
X38270626Y-6391925D01*
X38466480Y-6496610D01*
X38678993Y-6561076D01*
X38900000Y-6582843D01*
X40900000Y-6582843D01*
X41121007Y-6561076D01*
X41333520Y-6496610D01*
X41529374Y-6391925D01*
X41701041Y-6251041D01*
X41841925Y-6079374D01*
X41946610Y-5883520D01*
X42011076Y-5671007D01*
X42032843Y-5450000D01*
X42032843Y-3950000D01*
X42011076Y-3728993D01*
X41946610Y-3516480D01*
X41841925Y-3320626D01*
X41701041Y-3148959D01*
X41529374Y-3008075D01*
X41333520Y-2903390D01*
X41121007Y-2838924D01*
X40900000Y-2817157D01*
X38900000Y-2817157D01*
X38678993Y-2838924D01*
X38466480Y-2903390D01*
X38270626Y-3008075D01*
X38098959Y-3148959D01*
X37958075Y-3320626D01*
X37853390Y-3516480D01*
X37788924Y-3728993D01*
X37767157Y-3950000D01*
X37232843Y-3950000D01*
X37211076Y-3728993D01*
X37146610Y-3516480D01*
X37041925Y-3320626D01*
X36901041Y-3148959D01*
X36729374Y-3008075D01*
X36533520Y-2903390D01*
X36321007Y-2838924D01*
X36100000Y-2817157D01*
X34100000Y-2817157D01*
X33878993Y-2838924D01*
X33666480Y-2903390D01*
X33470626Y-3008075D01*
X33298959Y-3148959D01*
X33158075Y-3320626D01*
X33053390Y-3516480D01*
X32988924Y-3728993D01*
X32967157Y-3950000D01*
X7993258Y-3950000D01*
X8410621Y-2989135D01*
X8739305Y-1816048D01*
X8905191Y-609132D01*
X8905191Y609132D01*
X8885830Y750000D01*
X32967157Y750000D01*
X32967157Y-750000D01*
X32988924Y-971007D01*
X33053390Y-1183520D01*
X33158075Y-1379374D01*
X33298959Y-1551041D01*
X33470626Y-1691925D01*
X33666480Y-1796610D01*
X33878993Y-1861076D01*
X34100000Y-1882843D01*
X36100000Y-1882843D01*
X36321007Y-1861076D01*
X36533520Y-1796610D01*
X36729374Y-1691925D01*
X36901041Y-1551041D01*
X37041925Y-1379374D01*
X37146610Y-1183520D01*
X37211076Y-971007D01*
X37232843Y-750000D01*
X37232843Y750000D01*
X37767157Y750000D01*
X37767157Y-750000D01*
X37788924Y-971007D01*
X37853390Y-1183520D01*
X37958075Y-1379374D01*
X38098959Y-1551041D01*
X38270626Y-1691925D01*
X38466480Y-1796610D01*
X38678993Y-1861076D01*
X38900000Y-1882843D01*
X40900000Y-1882843D01*
X41121007Y-1861076D01*
X41333520Y-1796610D01*
X41529374Y-1691925D01*
X41701041Y-1551041D01*
X41841925Y-1379374D01*
X41946610Y-1183520D01*
X42011076Y-971007D01*
X42032843Y-750000D01*
X42032843Y750000D01*
X42011076Y971007D01*
X41946610Y1183520D01*
X41841925Y1379374D01*
X41701041Y1551041D01*
X41529374Y1691925D01*
X41333520Y1796610D01*
X41121007Y1861076D01*
X40900000Y1882843D01*
X38900000Y1882843D01*
X38678993Y1861076D01*
X38466480Y1796610D01*
X38270626Y1691925D01*
X38098959Y1551041D01*
X37958075Y1379374D01*
X37853390Y1183520D01*
X37788924Y971007D01*
X37767157Y750000D01*
X37232843Y750000D01*
X37211076Y971007D01*
X37146610Y1183520D01*
X37041925Y1379374D01*
X36901041Y1551041D01*
X36729374Y1691925D01*
X36533520Y1796610D01*
X36321007Y1861076D01*
X36100000Y1882843D01*
X34100000Y1882843D01*
X33878993Y1861076D01*
X33666480Y1796610D01*
X33470626Y1691925D01*
X33298959Y1551041D01*
X33158075Y1379374D01*
X33053390Y1183520D01*
X32988924Y971007D01*
X32967157Y750000D01*
X8885830Y750000D01*
X8739305Y1816048D01*
X8410621Y2989135D01*
X7925263Y4106541D01*
X7292273Y5147449D01*
X7046130Y5450000D01*
X32967157Y5450000D01*
X32967157Y3950000D01*
X32988924Y3728993D01*
X33053390Y3516480D01*
X33158075Y3320626D01*
X33298959Y3148959D01*
X33470626Y3008075D01*
X33666480Y2903390D01*
X33878993Y2838924D01*
X34100000Y2817157D01*
X36100000Y2817157D01*
X36321007Y2838924D01*
X36533520Y2903390D01*
X36729374Y3008075D01*
X36901041Y3148959D01*
X37041925Y3320626D01*
X37146610Y3516480D01*
X37211076Y3728993D01*
X37232843Y3950000D01*
X37232843Y5450000D01*
X37767157Y5450000D01*
X37767157Y3950000D01*
X37788924Y3728993D01*
X37853390Y3516480D01*
X37958075Y3320626D01*
X38098959Y3148959D01*
X38270626Y3008075D01*
X38466480Y2903390D01*
X38678993Y2838924D01*
X38900000Y2817157D01*
X40900000Y2817157D01*
X41121007Y2838924D01*
X41333520Y2903390D01*
X41529374Y3008075D01*
X41701041Y3148959D01*
X41841925Y3320626D01*
X41946610Y3516480D01*
X42011076Y3728993D01*
X42032843Y3950000D01*
X42032843Y5450000D01*
X42011076Y5671007D01*
X41946610Y5883520D01*
X41841925Y6079374D01*
X41701041Y6251041D01*
X41529374Y6391925D01*
X41333520Y6496610D01*
X41121007Y6561076D01*
X40900000Y6582843D01*
X38900000Y6582843D01*
X38678993Y6561076D01*
X38466480Y6496610D01*
X38270626Y6391925D01*
X38098959Y6251041D01*
X37958075Y6079374D01*
X37853390Y5883520D01*
X37788924Y5671007D01*
X37767157Y5450000D01*
X37232843Y5450000D01*
X37211076Y5671007D01*
X37146610Y5883520D01*
X37041925Y6079374D01*
X36901041Y6251041D01*
X36729374Y6391925D01*
X36533520Y6496610D01*
X36321007Y6561076D01*
X36100000Y6582843D01*
X34100000Y6582843D01*
X33878993Y6561076D01*
X33666480Y6496610D01*
X33470626Y6391925D01*
X33298959Y6251041D01*
X33158075Y6079374D01*
X33053390Y5883520D01*
X32988924Y5671007D01*
X32967157Y5450000D01*
X7046130Y5450000D01*
X6523442Y6092469D01*
X5633091Y6923999D01*
X4637806Y7626548D01*
X3556128Y8187028D01*
X2408206Y8595000D01*
X1215424Y8842863D01*
X0Y8926000D01*
X-1215424Y8842863D01*
X-2408206Y8595000D01*
X-3556128Y8187028D01*
X-4637806Y7626548D01*
X-5633091Y6923999D01*
X-6523442Y6092469D01*
X-7292273Y5147449D01*
X-7925263Y4106541D01*
X-8410621Y2989135D01*
X-8739305Y1816048D01*
X-8905191Y609132D01*
X-42044000Y609132D01*
X-42044000Y1451499D01*
X-41993358Y1502141D01*
X-41907887Y1630058D01*
X-41849013Y1772191D01*
X-41819000Y1923078D01*
X-41819000Y2076922D01*
X-41849013Y2227809D01*
X-41872536Y2284597D01*
X-41869535Y2284000D01*
X-41730465Y2284000D01*
X-41594067Y2311131D01*
X-41465584Y2364351D01*
X-41349951Y2441614D01*
X-41251614Y2539951D01*
X-41174351Y2655584D01*
X-41121131Y2784067D01*
X-41094000Y2920465D01*
X-41094000Y3059535D01*
X-41121131Y3195933D01*
X-41174351Y3324416D01*
X-41251614Y3440049D01*
X-41349951Y3538386D01*
X-41350870Y3539000D01*
X-40676727Y3539000D01*
X-40547294Y3551748D01*
X-40381225Y3602125D01*
X-40228175Y3683932D01*
X-40094025Y3794025D01*
X-39983932Y3928175D01*
X-39902125Y4081225D01*
X-39851748Y4247294D01*
X-39834738Y4420000D01*
X-39851748Y4592706D01*
X-39902125Y4758775D01*
X-39983932Y4911825D01*
X-40094025Y5045975D01*
X-40228175Y5156068D01*
X-40381225Y5237875D01*
X-40547294Y5288252D01*
X-40676727Y5301000D01*
X-41863273Y5301000D01*
X-41992706Y5288252D01*
X-42158775Y5237875D01*
X-42311825Y5156068D01*
X-42445975Y5045975D01*
X-42556068Y4911825D01*
X-42637875Y4758775D01*
X-42688252Y4592706D01*
X-42705262Y4420000D01*
X-42688252Y4247294D01*
X-42637875Y4081225D01*
X-42556068Y3928175D01*
X-42445975Y3794025D01*
X-42311825Y3683932D01*
X-42158775Y3602125D01*
X-42155942Y3601266D01*
X-42250049Y3538386D01*
X-42348386Y3440049D01*
X-42425649Y3324416D01*
X-42478869Y3195933D01*
X-42506000Y3059535D01*
X-42506000Y2920465D01*
X-42478869Y2784067D01*
X-42473515Y2771141D01*
X-42523078Y2781000D01*
X-42676922Y2781000D01*
X-42827809Y2750987D01*
X-42969942Y2692113D01*
X-43097859Y2606642D01*
X-43206642Y2497859D01*
X-43292113Y2369942D01*
X-43350987Y2227809D01*
X-43381000Y2076922D01*
X-47534123Y2076922D01*
X-47514949Y2741985D01*
X-47369496Y4420000D01*
X-46635262Y4420000D01*
X-46618252Y4247294D01*
X-46567875Y4081225D01*
X-46486068Y3928175D01*
X-46375975Y3794025D01*
X-46241825Y3683932D01*
X-46088775Y3602125D01*
X-45922706Y3551748D01*
X-45793273Y3539000D01*
X-45106727Y3539000D01*
X-44977294Y3551748D01*
X-44811225Y3602125D01*
X-44658175Y3683932D01*
X-44524025Y3794025D01*
X-44413932Y3928175D01*
X-44332125Y4081225D01*
X-44281748Y4247294D01*
X-44264738Y4420000D01*
X-44281748Y4592706D01*
X-44332125Y4758775D01*
X-44413932Y4911825D01*
X-44524025Y5045975D01*
X-44658175Y5156068D01*
X-44811225Y5237875D01*
X-44977294Y5288252D01*
X-45106727Y5301000D01*
X-45793273Y5301000D01*
X-45922706Y5288252D01*
X-46088775Y5237875D01*
X-46241825Y5156068D01*
X-46375975Y5045975D01*
X-46486068Y4911825D01*
X-46567875Y4758775D01*
X-46618252Y4592706D01*
X-46635262Y4420000D01*
X-47369496Y4420000D01*
X-47278058Y5474861D01*
X-46884114Y8189550D01*
X-46334425Y10877035D01*
X-45810130Y12852698D01*
X-41081000Y12852698D01*
X-41081000Y12147302D01*
X-40943384Y11455461D01*
X-40673441Y10803760D01*
X-40281544Y10217246D01*
X-39782754Y9718456D01*
X-39196240Y9326559D01*
X-38544539Y9056616D01*
X-37852698Y8919000D01*
X-37147302Y8919000D01*
X-36455461Y9056616D01*
X-35803760Y9326559D01*
X-35217246Y9718456D01*
X-34718456Y10217246D01*
X-34326559Y10803760D01*
X-34056616Y11455461D01*
X-33919000Y12147302D01*
X-33919000Y12852698D01*
X-33972417Y13121243D01*
X-32351000Y13121243D01*
X-32351000Y12878757D01*
X-32303693Y12640931D01*
X-32210898Y12416903D01*
X-32076180Y12215283D01*
X-31904717Y12043820D01*
X-31703097Y11909102D01*
X-31479069Y11816307D01*
X-31241243Y11769000D01*
X-30998757Y11769000D01*
X-30760931Y11816307D01*
X-30536903Y11909102D01*
X-30335283Y12043820D01*
X-30163820Y12215283D01*
X-30029102Y12416903D01*
X-29936307Y12640931D01*
X-29889000Y12878757D01*
X-29889000Y13121243D01*
X-29811000Y13121243D01*
X-29811000Y12878757D01*
X-29763693Y12640931D01*
X-29670898Y12416903D01*
X-29536180Y12215283D01*
X-29364717Y12043820D01*
X-29163097Y11909102D01*
X-28939069Y11816307D01*
X-28701243Y11769000D01*
X-28458757Y11769000D01*
X-28220931Y11816307D01*
X-27996903Y11909102D01*
X-27795283Y12043820D01*
X-27623820Y12215283D01*
X-27489102Y12416903D01*
X-27396307Y12640931D01*
X-27349000Y12878757D01*
X-27349000Y13121243D01*
X-27271000Y13121243D01*
X-27271000Y12878757D01*
X-27223693Y12640931D01*
X-27130898Y12416903D01*
X-26996180Y12215283D01*
X-26824717Y12043820D01*
X-26623097Y11909102D01*
X-26399069Y11816307D01*
X-26161243Y11769000D01*
X-25918757Y11769000D01*
X-25680931Y11816307D01*
X-25456903Y11909102D01*
X-25255283Y12043820D01*
X-25083820Y12215283D01*
X-24986927Y12360294D01*
X-24988072Y12150000D01*
X-24975812Y12025518D01*
X-24939502Y11905820D01*
X-24880537Y11795506D01*
X-24801185Y11698815D01*
X-24704494Y11619463D01*
X-24594180Y11560498D01*
X-24474482Y11524188D01*
X-24350000Y11511928D01*
X-23785750Y11515000D01*
X-23627000Y11673750D01*
X-23627000Y12873000D01*
X-23373000Y12873000D01*
X-23373000Y11673750D01*
X-23214250Y11515000D01*
X-22650000Y11511928D01*
X-22525518Y11524188D01*
X-22405820Y11560498D01*
X-22295506Y11619463D01*
X-22198815Y11698815D01*
X-22119463Y11795506D01*
X-22060498Y11905820D01*
X-22024188Y12025518D01*
X-22011928Y12150000D01*
X-22015000Y12714250D01*
X-22153448Y12852698D01*
X33919000Y12852698D01*
X33919000Y12147302D01*
X34056616Y11455461D01*
X34326559Y10803760D01*
X34718456Y10217246D01*
X35217246Y9718456D01*
X35803760Y9326559D01*
X36455461Y9056616D01*
X37147302Y8919000D01*
X37852698Y8919000D01*
X38544539Y9056616D01*
X39196240Y9326559D01*
X39782754Y9718456D01*
X40281544Y10217246D01*
X40673441Y10803760D01*
X40943384Y11455461D01*
X41081000Y12147302D01*
X41081000Y12852698D01*
X40943384Y13544539D01*
X40673441Y14196240D01*
X40281544Y14782754D01*
X39782754Y15281544D01*
X39196240Y15673441D01*
X38544539Y15943384D01*
X37852698Y16081000D01*
X37147302Y16081000D01*
X36455461Y15943384D01*
X35803760Y15673441D01*
X35217246Y15281544D01*
X34718456Y14782754D01*
X34326559Y14196240D01*
X34056616Y13544539D01*
X33919000Y12852698D01*
X-22153448Y12852698D01*
X-22173750Y12873000D01*
X-23373000Y12873000D01*
X-23627000Y12873000D01*
X-23647000Y12873000D01*
X-23647000Y13127000D01*
X-23627000Y13127000D01*
X-23627000Y14326250D01*
X-23373000Y14326250D01*
X-23373000Y13127000D01*
X-22173750Y13127000D01*
X-22015000Y13285750D01*
X-22011928Y13850000D01*
X-22024188Y13974482D01*
X-22060498Y14094180D01*
X-22119463Y14204494D01*
X-22198815Y14301185D01*
X-22295506Y14380537D01*
X-22405820Y14439502D01*
X-22525518Y14475812D01*
X-22650000Y14488072D01*
X-23214250Y14485000D01*
X-23373000Y14326250D01*
X-23627000Y14326250D01*
X-23785750Y14485000D01*
X-24350000Y14488072D01*
X-24474482Y14475812D01*
X-24594180Y14439502D01*
X-24704494Y14380537D01*
X-24801185Y14301185D01*
X-24880537Y14204494D01*
X-24939502Y14094180D01*
X-24975812Y13974482D01*
X-24988072Y13850000D01*
X-24986927Y13639706D01*
X-25083820Y13784717D01*
X-25255283Y13956180D01*
X-25456903Y14090898D01*
X-25680931Y14183693D01*
X-25918757Y14231000D01*
X-26161243Y14231000D01*
X-26399069Y14183693D01*
X-26623097Y14090898D01*
X-26824717Y13956180D01*
X-26996180Y13784717D01*
X-27130898Y13583097D01*
X-27223693Y13359069D01*
X-27271000Y13121243D01*
X-27349000Y13121243D01*
X-27396307Y13359069D01*
X-27489102Y13583097D01*
X-27623820Y13784717D01*
X-27795283Y13956180D01*
X-27996903Y14090898D01*
X-28220931Y14183693D01*
X-28458757Y14231000D01*
X-28701243Y14231000D01*
X-28939069Y14183693D01*
X-29163097Y14090898D01*
X-29364717Y13956180D01*
X-29536180Y13784717D01*
X-29670898Y13583097D01*
X-29763693Y13359069D01*
X-29811000Y13121243D01*
X-29889000Y13121243D01*
X-29936307Y13359069D01*
X-30029102Y13583097D01*
X-30163820Y13784717D01*
X-30335283Y13956180D01*
X-30536903Y14090898D01*
X-30760931Y14183693D01*
X-30998757Y14231000D01*
X-31241243Y14231000D01*
X-31479069Y14183693D01*
X-31703097Y14090898D01*
X-31904717Y13956180D01*
X-32076180Y13784717D01*
X-32210898Y13583097D01*
X-32303693Y13359069D01*
X-32351000Y13121243D01*
X-33972417Y13121243D01*
X-34056616Y13544539D01*
X-34326559Y14196240D01*
X-34718456Y14782754D01*
X-35217246Y15281544D01*
X-35803760Y15673441D01*
X-36455461Y15943384D01*
X-37147302Y16081000D01*
X-37852698Y16081000D01*
X-38544539Y15943384D01*
X-39196240Y15673441D01*
X-39782754Y15281544D01*
X-40281544Y14782754D01*
X-40673441Y14196240D01*
X-40943384Y13544539D01*
X-41081000Y12852698D01*
X-45810130Y12852698D01*
X-45630818Y13528386D01*
X-44775631Y16134798D01*
X-43771703Y18687612D01*
X-42622370Y21178348D01*
X-41331450Y23598731D01*
X-39903231Y25940721D01*
X-39570958Y26420963D01*
X-33415628Y26420963D01*
X-33398617Y26248258D01*
X-33348241Y26082189D01*
X-33266434Y25929138D01*
X-33183925Y25828601D01*
X-32344911Y24989586D01*
X-32244374Y24907077D01*
X-32091323Y24825270D01*
X-31925254Y24774894D01*
X-31752548Y24757883D01*
X-31579842Y24774894D01*
X-31413773Y24825270D01*
X-31260723Y24907077D01*
X-31126574Y25017171D01*
X-31016480Y25151320D01*
X-30934673Y25304370D01*
X-30884297Y25470439D01*
X-30867286Y25643145D01*
X-30884297Y25815851D01*
X-30934673Y25981920D01*
X-31016480Y26134971D01*
X-31098989Y26235508D01*
X-31575681Y26712200D01*
X-31574596Y26711984D01*
X-31435526Y26711984D01*
X-31299128Y26739115D01*
X-31170645Y26792335D01*
X-31055012Y26869598D01*
X-30956675Y26967935D01*
X-30956000Y26968945D01*
X-30956000Y26927305D01*
X-30958689Y26900000D01*
X-30956000Y26872696D01*
X-30956000Y26872689D01*
X-30947955Y26791006D01*
X-30916162Y26686200D01*
X-30864534Y26589608D01*
X-30795053Y26504947D01*
X-30773832Y26487531D01*
X-29081000Y24794697D01*
X-29081000Y24723078D01*
X-29050987Y24572191D01*
X-28992113Y24430058D01*
X-28906642Y24302141D01*
X-28797859Y24193358D01*
X-28669942Y24107887D01*
X-28527809Y24049013D01*
X-28376922Y24019000D01*
X-28223078Y24019000D01*
X-28072191Y24049013D01*
X-27930058Y24107887D01*
X-27802141Y24193358D01*
X-27693358Y24302141D01*
X-27607887Y24430058D01*
X-27549013Y24572191D01*
X-27519000Y24723078D01*
X-27519000Y24876922D01*
X-27549013Y25027809D01*
X-27607887Y25169942D01*
X-27693358Y25297859D01*
X-27802141Y25406642D01*
X-27930058Y25492113D01*
X-28072191Y25550987D01*
X-28223078Y25581000D01*
X-28294697Y25581000D01*
X-28733041Y26019344D01*
X-5904268Y26019344D01*
X-5904011Y25982547D01*
X-5904268Y25945751D01*
X-5903715Y25940108D01*
X-5852714Y25454866D01*
X-5845308Y25418787D01*
X-5838419Y25382675D01*
X-5836781Y25377248D01*
X-5692501Y24911154D01*
X-5678224Y24877191D01*
X-5664456Y24843113D01*
X-5661795Y24838107D01*
X-5429731Y24408915D01*
X-5409143Y24378391D01*
X-5389005Y24347618D01*
X-5385423Y24343224D01*
X-5074414Y23967279D01*
X-5048317Y23941363D01*
X-5022558Y23915059D01*
X-5018190Y23911445D01*
X-4640082Y23603069D01*
X-4609425Y23582700D01*
X-4579071Y23561917D01*
X-4574084Y23559220D01*
X-4143281Y23330158D01*
X-4109260Y23316136D01*
X-4075439Y23301640D01*
X-4070023Y23299963D01*
X-3602934Y23158940D01*
X-3566813Y23151788D01*
X-3530843Y23144143D01*
X-3525207Y23143550D01*
X-3525205Y23143550D01*
X-3039618Y23095938D01*
X-3019941Y23094000D01*
X7519941Y23094000D01*
X7538633Y23095841D01*
X7554249Y23095732D01*
X7559892Y23096285D01*
X8045134Y23147286D01*
X8081213Y23154692D01*
X8117325Y23161581D01*
X8122750Y23163218D01*
X8122756Y23163220D01*
X8588846Y23307499D01*
X8622809Y23321776D01*
X8656887Y23335544D01*
X8661888Y23338202D01*
X8661892Y23338204D01*
X8661895Y23338206D01*
X9091085Y23570269D01*
X9121609Y23590857D01*
X9152382Y23610995D01*
X9156776Y23614577D01*
X9260034Y23700000D01*
X18061928Y23700000D01*
X18074188Y23575518D01*
X18110498Y23455820D01*
X18169463Y23345506D01*
X18248815Y23248815D01*
X18345506Y23169463D01*
X18455820Y23110498D01*
X18575518Y23074188D01*
X18700000Y23061928D01*
X19714250Y23065000D01*
X19873000Y23223750D01*
X19873000Y24873000D01*
X20127000Y24873000D01*
X20127000Y23223750D01*
X20285750Y23065000D01*
X21300000Y23061928D01*
X21424482Y23074188D01*
X21544180Y23110498D01*
X21654494Y23169463D01*
X21751185Y23248815D01*
X21830537Y23345506D01*
X21889502Y23455820D01*
X21925812Y23575518D01*
X21938072Y23700000D01*
X21935000Y24714250D01*
X21776250Y24873000D01*
X20127000Y24873000D01*
X19873000Y24873000D01*
X18223750Y24873000D01*
X18065000Y24714250D01*
X18061928Y23700000D01*
X9260034Y23700000D01*
X9532721Y23925586D01*
X9558637Y23951683D01*
X9584941Y23977442D01*
X9588555Y23981810D01*
X9896931Y24359918D01*
X9917300Y24390575D01*
X9938083Y24420929D01*
X9940780Y24425916D01*
X10169842Y24856719D01*
X10183864Y24890740D01*
X10198360Y24924561D01*
X10200037Y24929977D01*
X10341060Y25397066D01*
X10348212Y25433187D01*
X10355857Y25469157D01*
X10356450Y25474795D01*
X10404062Y25960382D01*
X10406000Y25980059D01*
X10406000Y26300000D01*
X18061928Y26300000D01*
X18065000Y25285750D01*
X18223750Y25127000D01*
X19873000Y25127000D01*
X19873000Y26776250D01*
X20127000Y26776250D01*
X20127000Y25127000D01*
X21776250Y25127000D01*
X21935000Y25285750D01*
X21938072Y26300000D01*
X21925812Y26424482D01*
X21889502Y26544180D01*
X21830537Y26654494D01*
X21751185Y26751185D01*
X21654494Y26830537D01*
X21544180Y26889502D01*
X21424482Y26925812D01*
X21300000Y26938072D01*
X20285750Y26935000D01*
X20127000Y26776250D01*
X19873000Y26776250D01*
X19714250Y26935000D01*
X18700000Y26938072D01*
X18575518Y26925812D01*
X18455820Y26889502D01*
X18345506Y26830537D01*
X18248815Y26751185D01*
X18169463Y26654494D01*
X18110498Y26544180D01*
X18074188Y26424482D01*
X18061928Y26300000D01*
X10406000Y26300000D01*
X10406000Y31776922D01*
X15879000Y31776922D01*
X15879000Y31623078D01*
X15909013Y31472191D01*
X15967887Y31330058D01*
X16053358Y31202141D01*
X16162141Y31093358D01*
X16290058Y31007887D01*
X16432191Y30949013D01*
X16583078Y30919000D01*
X16654699Y30919000D01*
X17947535Y29626163D01*
X17964947Y29604947D01*
X18049608Y29535466D01*
X18146199Y29483838D01*
X18251005Y29452045D01*
X18332688Y29444000D01*
X18332695Y29444000D01*
X18359999Y29441311D01*
X18387304Y29444000D01*
X18410801Y29444000D01*
X18510317Y29203748D01*
X18694282Y28928425D01*
X18928425Y28694282D01*
X19203748Y28510317D01*
X19509670Y28383600D01*
X19834436Y28319000D01*
X20165564Y28319000D01*
X20490330Y28383600D01*
X20796252Y28510317D01*
X21071575Y28694282D01*
X21305718Y28928425D01*
X21489683Y29203748D01*
X21616400Y29509670D01*
X21681000Y29834436D01*
X21681000Y30165564D01*
X21616400Y30490330D01*
X21489683Y30796252D01*
X21305718Y31071575D01*
X21071575Y31305718D01*
X20796252Y31489683D01*
X20490330Y31616400D01*
X20165564Y31681000D01*
X19834436Y31681000D01*
X19509670Y31616400D01*
X19203748Y31489683D01*
X18928425Y31305718D01*
X18694282Y31071575D01*
X18510317Y30796252D01*
X18463376Y30682926D01*
X17441000Y31705301D01*
X17441000Y31776922D01*
X17410987Y31927809D01*
X17352113Y32069942D01*
X17266642Y32197859D01*
X17157859Y32306642D01*
X17029942Y32392113D01*
X16887809Y32450987D01*
X16736922Y32481000D01*
X16583078Y32481000D01*
X16432191Y32450987D01*
X16290058Y32392113D01*
X16162141Y32306642D01*
X16053358Y32197859D01*
X15967887Y32069942D01*
X15909013Y31927809D01*
X15879000Y31776922D01*
X10406000Y31776922D01*
X10406000Y32019941D01*
X10405861Y32021357D01*
X10405746Y32037743D01*
X10403818Y32056086D01*
X10403818Y32074523D01*
X10403226Y32080161D01*
X10348839Y32565035D01*
X10341176Y32601086D01*
X10334040Y32637126D01*
X10332367Y32642531D01*
X10332365Y32642541D01*
X10332361Y32642550D01*
X10184833Y33107617D01*
X10170343Y33141425D01*
X10156315Y33175460D01*
X10153619Y33180447D01*
X9918565Y33608010D01*
X9897763Y33638391D01*
X9877411Y33669022D01*
X9873798Y33673390D01*
X9560172Y34047154D01*
X9533851Y34072930D01*
X9507952Y34099010D01*
X9503565Y34102588D01*
X9503559Y34102594D01*
X9503552Y34102598D01*
X9123309Y34408322D01*
X9092520Y34428470D01*
X9062012Y34449048D01*
X9057011Y34451707D01*
X9057007Y34451710D01*
X9057003Y34451712D01*
X8624614Y34677759D01*
X8590475Y34691552D01*
X8556573Y34705803D01*
X8551150Y34707441D01*
X8551144Y34707443D01*
X8083083Y34845200D01*
X8046891Y34852104D01*
X8010892Y34859493D01*
X8005250Y34860047D01*
X7519344Y34904268D01*
X7482548Y34904011D01*
X7445751Y34904268D01*
X7440109Y34903715D01*
X6954866Y34852714D01*
X6918793Y34845309D01*
X6882675Y34838419D01*
X6877247Y34836781D01*
X6411154Y34692501D01*
X6377191Y34678224D01*
X6343113Y34664456D01*
X6338112Y34661798D01*
X6338108Y34661796D01*
X6338107Y34661795D01*
X5908914Y34429731D01*
X5878400Y34409149D01*
X5847618Y34389006D01*
X5843230Y34385427D01*
X5843224Y34385423D01*
X5843219Y34385418D01*
X5467279Y34074415D01*
X5441309Y34048263D01*
X5415060Y34022558D01*
X5411451Y34018196D01*
X5411446Y34018191D01*
X5411442Y34018186D01*
X5103069Y33640083D01*
X5082688Y33609407D01*
X5061917Y33579071D01*
X5059220Y33574085D01*
X4830158Y33143281D01*
X4816130Y33109246D01*
X4801640Y33075438D01*
X4799963Y33070023D01*
X4658940Y32602933D01*
X4651785Y32566795D01*
X4644143Y32530843D01*
X4643550Y32525205D01*
X4595938Y32039619D01*
X4594000Y32019940D01*
X4594001Y31019864D01*
X4552211Y30593654D01*
X4434199Y30202781D01*
X4242514Y29842274D01*
X3984457Y29525865D01*
X3669860Y29265609D01*
X3310704Y29071414D01*
X2920667Y28950677D01*
X2495594Y28906000D01*
X-3019941Y28906000D01*
X-3021357Y28905861D01*
X-3037743Y28905746D01*
X-3056086Y28903818D01*
X-3074523Y28903818D01*
X-3080161Y28903226D01*
X-3565035Y28848839D01*
X-3601086Y28841176D01*
X-3637126Y28834040D01*
X-3642531Y28832367D01*
X-3642541Y28832365D01*
X-3642550Y28832361D01*
X-4107617Y28684833D01*
X-4141425Y28670343D01*
X-4175460Y28656315D01*
X-4180447Y28653619D01*
X-4608010Y28418565D01*
X-4638391Y28397763D01*
X-4669022Y28377411D01*
X-4673390Y28373798D01*
X-5047154Y28060172D01*
X-5072930Y28033851D01*
X-5099010Y28007952D01*
X-5102588Y28003565D01*
X-5102594Y28003559D01*
X-5102598Y28003552D01*
X-5408322Y27623309D01*
X-5428470Y27592520D01*
X-5449048Y27562012D01*
X-5451707Y27557011D01*
X-5451710Y27557007D01*
X-5451710Y27557006D01*
X-5677759Y27124614D01*
X-5691552Y27090475D01*
X-5705803Y27056573D01*
X-5707442Y27051146D01*
X-5845200Y26583083D01*
X-5852104Y26546891D01*
X-5859493Y26510892D01*
X-5860047Y26505250D01*
X-5904268Y26019344D01*
X-28733041Y26019344D01*
X-29844000Y27130301D01*
X-29844000Y28869699D01*
X-28591444Y30122254D01*
X-28569942Y30107887D01*
X-28427809Y30049013D01*
X-28276922Y30019000D01*
X-28123078Y30019000D01*
X-27972191Y30049013D01*
X-27830058Y30107887D01*
X-27702141Y30193358D01*
X-27593358Y30302141D01*
X-27507887Y30430058D01*
X-27449013Y30572191D01*
X-27419000Y30723078D01*
X-27419000Y30799061D01*
X-27348449Y30799061D01*
X-27212051Y30826192D01*
X-27083568Y30879412D01*
X-26967935Y30956675D01*
X-26869598Y31055012D01*
X-26792335Y31170645D01*
X-26739115Y31299128D01*
X-26711984Y31435526D01*
X-26711984Y31574596D01*
X-26712200Y31575681D01*
X-26235508Y31098989D01*
X-26134971Y31016480D01*
X-25981920Y30934673D01*
X-25815851Y30884297D01*
X-25643145Y30867286D01*
X-25470439Y30884297D01*
X-25304370Y30934673D01*
X-25151320Y31016480D01*
X-25017171Y31126574D01*
X-24907077Y31260723D01*
X-24825270Y31413773D01*
X-24774894Y31579842D01*
X-24757883Y31752548D01*
X-24774894Y31925254D01*
X-24825270Y32091323D01*
X-24907077Y32244374D01*
X-24989586Y32344911D01*
X-25828601Y33183925D01*
X-25929138Y33266434D01*
X-26082189Y33348241D01*
X-26248258Y33398617D01*
X-26420963Y33415628D01*
X-26593668Y33398617D01*
X-26759737Y33348241D01*
X-26912788Y33266434D01*
X-27046937Y33156340D01*
X-27157031Y33022191D01*
X-27238838Y32869140D01*
X-27289214Y32703071D01*
X-27306225Y32530366D01*
X-27289214Y32357661D01*
X-27238838Y32191592D01*
X-27237442Y32188981D01*
X-27348449Y32211061D01*
X-27487519Y32211061D01*
X-27623917Y32183930D01*
X-27752400Y32130710D01*
X-27868033Y32053447D01*
X-27966370Y31955110D01*
X-28043633Y31839477D01*
X-28096853Y31710994D01*
X-28122724Y31580930D01*
X-28123078Y31581000D01*
X-28276922Y31581000D01*
X-28427809Y31550987D01*
X-28569942Y31492113D01*
X-28697859Y31406642D01*
X-28750816Y31353685D01*
X-28808995Y31347955D01*
X-28913801Y31316162D01*
X-29010392Y31264534D01*
X-29095053Y31195053D01*
X-29112465Y31173837D01*
X-30773837Y29512464D01*
X-30795052Y29495053D01*
X-30864533Y29410392D01*
X-30906575Y29331735D01*
X-30916161Y29313801D01*
X-30947955Y29208994D01*
X-30958689Y29100000D01*
X-30955999Y29072686D01*
X-30956000Y27867022D01*
X-30956675Y27868033D01*
X-31055012Y27966370D01*
X-31170645Y28043633D01*
X-31299128Y28096853D01*
X-31435526Y28123984D01*
X-31574596Y28123984D01*
X-31710994Y28096853D01*
X-31839477Y28043633D01*
X-31955110Y27966370D01*
X-32053447Y27868033D01*
X-32130710Y27752400D01*
X-32183930Y27623917D01*
X-32211061Y27487519D01*
X-32211061Y27348449D01*
X-32188981Y27237442D01*
X-32191592Y27238838D01*
X-32357661Y27289214D01*
X-32530366Y27306225D01*
X-32703071Y27289214D01*
X-32869140Y27238838D01*
X-33022191Y27157031D01*
X-33156340Y27046937D01*
X-33266434Y26912788D01*
X-33348241Y26759737D01*
X-33398617Y26593668D01*
X-33415628Y26420963D01*
X-39570958Y26420963D01*
X-38342457Y28196539D01*
X-37559069Y29199893D01*
X-36194557Y29199893D01*
X-36177546Y29027188D01*
X-36127170Y28861119D01*
X-36045363Y28708068D01*
X-35962854Y28607531D01*
X-35477393Y28122070D01*
X-35376856Y28039561D01*
X-35223806Y27957754D01*
X-35057737Y27907378D01*
X-34885031Y27890367D01*
X-34712326Y27907378D01*
X-34546257Y27957754D01*
X-34393206Y28039561D01*
X-34259057Y28149655D01*
X-34148963Y28283804D01*
X-34067156Y28436855D01*
X-34016780Y28602924D01*
X-33999769Y28775629D01*
X-34016780Y28948335D01*
X-34067156Y29114404D01*
X-34148963Y29267454D01*
X-34231472Y29367991D01*
X-34716933Y29853452D01*
X-34817470Y29935961D01*
X-34970521Y30017768D01*
X-35136590Y30068144D01*
X-35309295Y30085155D01*
X-35482000Y30068144D01*
X-35648069Y30017768D01*
X-35801120Y29935961D01*
X-35935269Y29825867D01*
X-36045363Y29691718D01*
X-36127170Y29538667D01*
X-36177546Y29372598D01*
X-36194557Y29199893D01*
X-37559069Y29199893D01*
X-36654313Y30358691D01*
X-34844408Y32419995D01*
X-32918753Y34373602D01*
X-31883568Y35309295D01*
X-30085155Y35309295D01*
X-30068144Y35136590D01*
X-30017768Y34970521D01*
X-29935961Y34817470D01*
X-29853452Y34716933D01*
X-29367991Y34231472D01*
X-29267454Y34148963D01*
X-29114404Y34067156D01*
X-28948335Y34016780D01*
X-28775629Y33999769D01*
X-28602924Y34016780D01*
X-28436855Y34067156D01*
X-28283804Y34148963D01*
X-28149655Y34259057D01*
X-28039561Y34393206D01*
X-27957754Y34546257D01*
X-27907378Y34712326D01*
X-27890367Y34885031D01*
X-27907378Y35057737D01*
X-27957754Y35223806D01*
X-28039561Y35376856D01*
X-28122070Y35477393D01*
X-28607531Y35962854D01*
X-28708068Y36045363D01*
X-28861119Y36127170D01*
X-29027188Y36177546D01*
X-29199893Y36194557D01*
X-29372598Y36177546D01*
X-29538667Y36127170D01*
X-29691718Y36045363D01*
X-29825867Y35935269D01*
X-29935961Y35801120D01*
X-30017768Y35648069D01*
X-30068144Y35482000D01*
X-30085155Y35309295D01*
X-31883568Y35309295D01*
X-30883745Y36213024D01*
X-28844938Y37852698D01*
X-16081000Y37852698D01*
X-16081000Y37147302D01*
X-15943384Y36455461D01*
X-15673441Y35803760D01*
X-15281544Y35217246D01*
X-14782754Y34718456D01*
X-14196240Y34326559D01*
X-13544539Y34056616D01*
X-12852698Y33919000D01*
X-12147302Y33919000D01*
X-11455461Y34056616D01*
X-10803760Y34326559D01*
X-10217246Y34718456D01*
X-9718456Y35217246D01*
X-9326559Y35803760D01*
X-9056616Y36455461D01*
X-8919000Y37147302D01*
X-8919000Y37852698D01*
X-8923436Y37875000D01*
X-6832843Y37875000D01*
X-6832843Y36125000D01*
X-6808674Y35879607D01*
X-6737095Y35643644D01*
X-6620858Y35426180D01*
X-6464429Y35235571D01*
X-6273820Y35079142D01*
X-6056356Y34962905D01*
X-5820393Y34891326D01*
X-5575000Y34867157D01*
X-3825000Y34867157D01*
X-3579607Y34891326D01*
X-3343644Y34962905D01*
X-3126180Y35079142D01*
X-2935571Y35235571D01*
X-2779142Y35426180D01*
X-2662905Y35643644D01*
X-2630643Y35750000D01*
X-2132843Y35750000D01*
X-2132843Y32250000D01*
X-2125487Y32175311D01*
X-2103701Y32103492D01*
X-2068322Y32037304D01*
X-2020711Y31979289D01*
X-1962696Y31931678D01*
X-1896508Y31896299D01*
X-1824689Y31874513D01*
X-1750000Y31867157D01*
X1750000Y31867157D01*
X1824689Y31874513D01*
X1896508Y31896299D01*
X1962696Y31931678D01*
X2020711Y31979289D01*
X2068322Y32037304D01*
X2103701Y32103492D01*
X2125487Y32175311D01*
X2132843Y32250000D01*
X2132843Y35750000D01*
X2125487Y35824689D01*
X2103701Y35896508D01*
X2068322Y35962696D01*
X2020711Y36020711D01*
X1962696Y36068322D01*
X1896508Y36103701D01*
X1824689Y36125487D01*
X1750000Y36132843D01*
X-1750000Y36132843D01*
X-1824689Y36125487D01*
X-1896508Y36103701D01*
X-1962696Y36068322D01*
X-2020711Y36020711D01*
X-2068322Y35962696D01*
X-2103701Y35896508D01*
X-2125487Y35824689D01*
X-2132843Y35750000D01*
X-2630643Y35750000D01*
X-2591326Y35879607D01*
X-2567157Y36125000D01*
X-2567157Y37852698D01*
X8919000Y37852698D01*
X8919000Y37147302D01*
X9056616Y36455461D01*
X9326559Y35803760D01*
X9718456Y35217246D01*
X10217246Y34718456D01*
X10803760Y34326559D01*
X11455461Y34056616D01*
X12147302Y33919000D01*
X12852698Y33919000D01*
X13544539Y34056616D01*
X14196240Y34326559D01*
X14782754Y34718456D01*
X15229862Y35165564D01*
X18319000Y35165564D01*
X18319000Y34834436D01*
X18383600Y34509670D01*
X18510317Y34203748D01*
X18694282Y33928425D01*
X18928425Y33694282D01*
X19203748Y33510317D01*
X19509670Y33383600D01*
X19834436Y33319000D01*
X20165564Y33319000D01*
X20490330Y33383600D01*
X20796252Y33510317D01*
X21071575Y33694282D01*
X21305718Y33928425D01*
X21489683Y34203748D01*
X21616400Y34509670D01*
X21681000Y34834436D01*
X21681000Y35165564D01*
X21616400Y35490330D01*
X21489683Y35796252D01*
X21305718Y36071575D01*
X21071575Y36305718D01*
X20796252Y36489683D01*
X20490330Y36616400D01*
X20165564Y36681000D01*
X19834436Y36681000D01*
X19509670Y36616400D01*
X19203748Y36489683D01*
X18928425Y36305718D01*
X18694282Y36071575D01*
X18510317Y35796252D01*
X18383600Y35490330D01*
X18319000Y35165564D01*
X15229862Y35165564D01*
X15281544Y35217246D01*
X15673441Y35803760D01*
X15943384Y36455461D01*
X16081000Y37147302D01*
X16081000Y37852698D01*
X15943384Y38544539D01*
X15673441Y39196240D01*
X15281544Y39782754D01*
X14782754Y40281544D01*
X14196240Y40673441D01*
X13544539Y40943384D01*
X12852698Y41081000D01*
X12147302Y41081000D01*
X11455461Y40943384D01*
X10803760Y40673441D01*
X10217246Y40281544D01*
X9718456Y39782754D01*
X9326559Y39196240D01*
X9056616Y38544539D01*
X8919000Y37852698D01*
X-2567157Y37852698D01*
X-2567157Y37875000D01*
X-2591326Y38120393D01*
X-2662905Y38356356D01*
X-2739684Y38500000D01*
X-2388072Y38500000D01*
X-2375812Y38375518D01*
X-2339502Y38255820D01*
X-2280537Y38145506D01*
X-2201185Y38048815D01*
X-2104494Y37969463D01*
X-1994180Y37910498D01*
X-1874482Y37874188D01*
X-1750000Y37861928D01*
X-285750Y37865000D01*
X-127000Y38023750D01*
X-127000Y39873000D01*
X127000Y39873000D01*
X127000Y38023750D01*
X285750Y37865000D01*
X1750000Y37861928D01*
X1874482Y37874188D01*
X1994180Y37910498D01*
X2104494Y37969463D01*
X2201185Y38048815D01*
X2280537Y38145506D01*
X2339502Y38255820D01*
X2375812Y38375518D01*
X2388072Y38500000D01*
X2385000Y39714250D01*
X2226250Y39873000D01*
X127000Y39873000D01*
X-127000Y39873000D01*
X-2226250Y39873000D01*
X-2385000Y39714250D01*
X-2388072Y38500000D01*
X-2739684Y38500000D01*
X-2779142Y38573820D01*
X-2935571Y38764429D01*
X-3126180Y38920858D01*
X-3343644Y39037095D01*
X-3579607Y39108674D01*
X-3825000Y39132843D01*
X-5575000Y39132843D01*
X-5820393Y39108674D01*
X-6056356Y39037095D01*
X-6273820Y38920858D01*
X-6464429Y38764429D01*
X-6620858Y38573820D01*
X-6737095Y38356356D01*
X-6808674Y38120393D01*
X-6832843Y37875000D01*
X-8923436Y37875000D01*
X-9056616Y38544539D01*
X-9326559Y39196240D01*
X-9718456Y39782754D01*
X-10217246Y40281544D01*
X-10803760Y40673441D01*
X-11455461Y40943384D01*
X-12147302Y41081000D01*
X-12852698Y41081000D01*
X-13544539Y40943384D01*
X-14196240Y40673441D01*
X-14782754Y40281544D01*
X-15281544Y39782754D01*
X-15673441Y39196240D01*
X-15943384Y38544539D01*
X-16081000Y37852698D01*
X-28844938Y37852698D01*
X-28746145Y37932150D01*
X-26513052Y39525269D01*
X-24191886Y40987089D01*
X-23262715Y41500000D01*
X-2388072Y41500000D01*
X-2385000Y40285750D01*
X-2226250Y40127000D01*
X-127000Y40127000D01*
X-127000Y41976250D01*
X127000Y41976250D01*
X127000Y40127000D01*
X2226250Y40127000D01*
X2385000Y40285750D01*
X2388072Y41500000D01*
X2375812Y41624482D01*
X2339502Y41744180D01*
X2280537Y41854494D01*
X2201185Y41951185D01*
X2104494Y42030537D01*
X1994180Y42089502D01*
X1874482Y42125812D01*
X1750000Y42138072D01*
X285750Y42135000D01*
X127000Y41976250D01*
X-127000Y41976250D01*
X-285750Y42135000D01*
X-1750000Y42138072D01*
X-1874482Y42125812D01*
X-1994180Y42089502D01*
X-2104494Y42030537D01*
X-2201185Y41951185D01*
X-2280537Y41854494D01*
X-2339502Y41744180D01*
X-2375812Y41624482D01*
X-2388072Y41500000D01*
X-23262715Y41500000D01*
X-21790357Y42312754D01*
X-19316443Y43497861D01*
X-16778361Y44538471D01*
X-14184544Y45431130D01*
X-11543606Y46172871D01*
X-8864322Y46761230D01*
X-6155592Y47194253D01*
X-3426413Y47470502D01*
X-685852Y47589058D01*
X2056987Y47549528D01*
G37*
%TD.AperFunction*%
%TD*%
M02*
