%TF.GenerationSoftware,KiCad,Pcbnew,5.1.9+dfsg1-1+deb11u1*%
%TF.CreationDate,2023-04-18T21:32:13+02:00*%
%TF.ProjectId,base,62617365-2e6b-4696-9361-645f70636258,rev?*%
%TF.SameCoordinates,Original*%
%TF.FileFunction,Soldermask,Top*%
%TF.FilePolarity,Negative*%
%FSLAX46Y46*%
G04 Gerber Fmt 4.6, Leading zero omitted, Abs format (unit mm)*
G04 Created by KiCad (PCBNEW 5.1.9+dfsg1-1+deb11u1) date 2023-04-18 21:32:13*
%MOMM*%
%LPD*%
G01*
G04 APERTURE LIST*
%ADD10C,4.000000*%
%ADD11C,1.800000*%
%ADD12C,2.600000*%
%ADD13R,2.600000X2.600000*%
%ADD14R,1.700000X1.700000*%
%ADD15O,1.700000X1.700000*%
%ADD16R,3.500000X3.500000*%
%ADD17C,0.800000*%
%ADD18C,6.400000*%
%ADD19R,0.900000X1.200000*%
%ADD20C,0.650000*%
%ADD21C,0.100000*%
%ADD22R,0.650000X1.060000*%
%ADD23O,1.600000X1.000000*%
%ADD24O,2.100000X1.000000*%
%ADD25R,1.450000X0.300000*%
%ADD26R,1.450000X0.600000*%
G04 APERTURE END LIST*
D10*
%TO.C,RV3*%
X24925514Y-31643028D03*
X31643028Y-24925514D03*
D11*
X21213203Y-24748737D03*
X22980970Y-22980970D03*
X24748737Y-21213203D03*
%TD*%
D10*
%TO.C,RV2*%
X-4750000Y-40000000D03*
X4750000Y-40000000D03*
D11*
X-2500000Y-32500000D03*
X0Y-32500000D03*
X2500000Y-32500000D03*
%TD*%
D10*
%TO.C,RV1*%
X-31643028Y-24925514D03*
X-24925514Y-31643028D03*
D11*
X-24748737Y-21213203D03*
X-22980970Y-22980970D03*
X-21213203Y-24748737D03*
%TD*%
D12*
%TO.C,J3*%
X20000000Y35000000D03*
X20000000Y30000000D03*
D13*
X20000000Y25000000D03*
%TD*%
D14*
%TO.C,J5*%
X-23500000Y13000000D03*
D15*
X-26040000Y13000000D03*
X-28580000Y13000000D03*
X-31120000Y13000000D03*
%TD*%
%TO.C,R4*%
G36*
G01*
X-17862500Y16100000D02*
X-18337500Y16100000D01*
G75*
G02*
X-18575000Y16337500I0J237500D01*
G01*
X-18575000Y16837500D01*
G75*
G02*
X-18337500Y17075000I237500J0D01*
G01*
X-17862500Y17075000D01*
G75*
G02*
X-17625000Y16837500I0J-237500D01*
G01*
X-17625000Y16337500D01*
G75*
G02*
X-17862500Y16100000I-237500J0D01*
G01*
G37*
G36*
G01*
X-17862500Y17925000D02*
X-18337500Y17925000D01*
G75*
G02*
X-18575000Y18162500I0J237500D01*
G01*
X-18575000Y18662500D01*
G75*
G02*
X-18337500Y18900000I237500J0D01*
G01*
X-17862500Y18900000D01*
G75*
G02*
X-17625000Y18662500I0J-237500D01*
G01*
X-17625000Y18162500D01*
G75*
G02*
X-17862500Y17925000I-237500J0D01*
G01*
G37*
%TD*%
D16*
%TO.C,J2*%
X0Y34000000D03*
G36*
G01*
X-1000000Y41500000D02*
X1000000Y41500000D01*
G75*
G02*
X1750000Y40750000I0J-750000D01*
G01*
X1750000Y39250000D01*
G75*
G02*
X1000000Y38500000I-750000J0D01*
G01*
X-1000000Y38500000D01*
G75*
G02*
X-1750000Y39250000I0J750000D01*
G01*
X-1750000Y40750000D01*
G75*
G02*
X-1000000Y41500000I750000J0D01*
G01*
G37*
G36*
G01*
X-5575000Y38750000D02*
X-3825000Y38750000D01*
G75*
G02*
X-2950000Y37875000I0J-875000D01*
G01*
X-2950000Y36125000D01*
G75*
G02*
X-3825000Y35250000I-875000J0D01*
G01*
X-5575000Y35250000D01*
G75*
G02*
X-6450000Y36125000I0J875000D01*
G01*
X-6450000Y37875000D01*
G75*
G02*
X-5575000Y38750000I875000J0D01*
G01*
G37*
%TD*%
D17*
%TO.C,REF\u002A\u002A*%
X39197056Y-10802944D03*
X37500000Y-10100000D03*
X35802944Y-10802944D03*
X35100000Y-12500000D03*
X35802944Y-14197056D03*
X37500000Y-14900000D03*
X39197056Y-14197056D03*
X39900000Y-12500000D03*
D18*
X37500000Y-12500000D03*
%TD*%
D17*
%TO.C,REF\u002A\u002A*%
X-10802944Y-35802944D03*
X-12500000Y-35100000D03*
X-14197056Y-35802944D03*
X-14900000Y-37500000D03*
X-14197056Y-39197056D03*
X-12500000Y-39900000D03*
X-10802944Y-39197056D03*
X-10100000Y-37500000D03*
D18*
X-12500000Y-37500000D03*
%TD*%
D17*
%TO.C,REF\u002A\u002A*%
X-10802944Y39197056D03*
X-12500000Y39900000D03*
X-14197056Y39197056D03*
X-14900000Y37500000D03*
X-14197056Y35802944D03*
X-12500000Y35100000D03*
X-10802944Y35802944D03*
X-10100000Y37500000D03*
D18*
X-12500000Y37500000D03*
%TD*%
D17*
%TO.C,REF\u002A\u002A*%
X14197056Y39197056D03*
X12500000Y39900000D03*
X10802944Y39197056D03*
X10100000Y37500000D03*
X10802944Y35802944D03*
X12500000Y35100000D03*
X14197056Y35802944D03*
X14900000Y37500000D03*
D18*
X12500000Y37500000D03*
%TD*%
D17*
%TO.C,REF\u002A\u002A*%
X14197056Y-35802944D03*
X12500000Y-35100000D03*
X10802944Y-35802944D03*
X10100000Y-37500000D03*
X10802944Y-39197056D03*
X12500000Y-39900000D03*
X14197056Y-39197056D03*
X14900000Y-37500000D03*
D18*
X12500000Y-37500000D03*
%TD*%
D17*
%TO.C,REF\u002A\u002A*%
X-35802944Y-10802944D03*
X-37500000Y-10100000D03*
X-39197056Y-10802944D03*
X-39900000Y-12500000D03*
X-39197056Y-14197056D03*
X-37500000Y-14900000D03*
X-35802944Y-14197056D03*
X-35100000Y-12500000D03*
D18*
X-37500000Y-12500000D03*
%TD*%
D17*
%TO.C,REF\u002A\u002A*%
X39197056Y14197056D03*
X37500000Y14900000D03*
X35802944Y14197056D03*
X35100000Y12500000D03*
X35802944Y10802944D03*
X37500000Y10100000D03*
X39197056Y10802944D03*
X39900000Y12500000D03*
D18*
X37500000Y12500000D03*
%TD*%
D17*
%TO.C,REF\u002A\u002A*%
X-35802944Y14197056D03*
X-37500000Y14900000D03*
X-39197056Y14197056D03*
X-39900000Y12500000D03*
X-39197056Y10802944D03*
X-37500000Y10100000D03*
X-35802944Y10802944D03*
X-35100000Y12500000D03*
D18*
X-37500000Y12500000D03*
%TD*%
%TO.C,C4*%
G36*
G01*
X12437500Y-18575000D02*
X11962500Y-18575000D01*
G75*
G02*
X11725000Y-18337500I0J237500D01*
G01*
X11725000Y-17737500D01*
G75*
G02*
X11962500Y-17500000I237500J0D01*
G01*
X12437500Y-17500000D01*
G75*
G02*
X12675000Y-17737500I0J-237500D01*
G01*
X12675000Y-18337500D01*
G75*
G02*
X12437500Y-18575000I-237500J0D01*
G01*
G37*
G36*
G01*
X12437500Y-20300000D02*
X11962500Y-20300000D01*
G75*
G02*
X11725000Y-20062500I0J237500D01*
G01*
X11725000Y-19462500D01*
G75*
G02*
X11962500Y-19225000I237500J0D01*
G01*
X12437500Y-19225000D01*
G75*
G02*
X12675000Y-19462500I0J-237500D01*
G01*
X12675000Y-20062500D01*
G75*
G02*
X12437500Y-20300000I-237500J0D01*
G01*
G37*
%TD*%
%TO.C,C5*%
G36*
G01*
X4862500Y-26025000D02*
X5337500Y-26025000D01*
G75*
G02*
X5575000Y-26262500I0J-237500D01*
G01*
X5575000Y-26862500D01*
G75*
G02*
X5337500Y-27100000I-237500J0D01*
G01*
X4862500Y-27100000D01*
G75*
G02*
X4625000Y-26862500I0J237500D01*
G01*
X4625000Y-26262500D01*
G75*
G02*
X4862500Y-26025000I237500J0D01*
G01*
G37*
G36*
G01*
X4862500Y-24300000D02*
X5337500Y-24300000D01*
G75*
G02*
X5575000Y-24537500I0J-237500D01*
G01*
X5575000Y-25137500D01*
G75*
G02*
X5337500Y-25375000I-237500J0D01*
G01*
X4862500Y-25375000D01*
G75*
G02*
X4625000Y-25137500I0J237500D01*
G01*
X4625000Y-24537500D01*
G75*
G02*
X4862500Y-24300000I237500J0D01*
G01*
G37*
%TD*%
%TO.C,C6*%
G36*
G01*
X-27700000Y18937500D02*
X-27700000Y18462500D01*
G75*
G02*
X-27937500Y18225000I-237500J0D01*
G01*
X-28537500Y18225000D01*
G75*
G02*
X-28775000Y18462500I0J237500D01*
G01*
X-28775000Y18937500D01*
G75*
G02*
X-28537500Y19175000I237500J0D01*
G01*
X-27937500Y19175000D01*
G75*
G02*
X-27700000Y18937500I0J-237500D01*
G01*
G37*
G36*
G01*
X-29425000Y18937500D02*
X-29425000Y18462500D01*
G75*
G02*
X-29662500Y18225000I-237500J0D01*
G01*
X-30262500Y18225000D01*
G75*
G02*
X-30500000Y18462500I0J237500D01*
G01*
X-30500000Y18937500D01*
G75*
G02*
X-30262500Y19175000I237500J0D01*
G01*
X-29662500Y19175000D01*
G75*
G02*
X-29425000Y18937500I0J-237500D01*
G01*
G37*
%TD*%
%TO.C,C7*%
G36*
G01*
X-29425000Y16837500D02*
X-29425000Y16362500D01*
G75*
G02*
X-29662500Y16125000I-237500J0D01*
G01*
X-30262500Y16125000D01*
G75*
G02*
X-30500000Y16362500I0J237500D01*
G01*
X-30500000Y16837500D01*
G75*
G02*
X-30262500Y17075000I237500J0D01*
G01*
X-29662500Y17075000D01*
G75*
G02*
X-29425000Y16837500I0J-237500D01*
G01*
G37*
G36*
G01*
X-27700000Y16837500D02*
X-27700000Y16362500D01*
G75*
G02*
X-27937500Y16125000I-237500J0D01*
G01*
X-28537500Y16125000D01*
G75*
G02*
X-28775000Y16362500I0J237500D01*
G01*
X-28775000Y16837500D01*
G75*
G02*
X-28537500Y17075000I237500J0D01*
G01*
X-27937500Y17075000D01*
G75*
G02*
X-27700000Y16837500I0J-237500D01*
G01*
G37*
%TD*%
%TO.C,C8*%
G36*
G01*
X-17862500Y19800000D02*
X-18337500Y19800000D01*
G75*
G02*
X-18575000Y20037500I0J237500D01*
G01*
X-18575000Y20637500D01*
G75*
G02*
X-18337500Y20875000I237500J0D01*
G01*
X-17862500Y20875000D01*
G75*
G02*
X-17625000Y20637500I0J-237500D01*
G01*
X-17625000Y20037500D01*
G75*
G02*
X-17862500Y19800000I-237500J0D01*
G01*
G37*
G36*
G01*
X-17862500Y21525000D02*
X-18337500Y21525000D01*
G75*
G02*
X-18575000Y21762500I0J237500D01*
G01*
X-18575000Y22362500D01*
G75*
G02*
X-18337500Y22600000I237500J0D01*
G01*
X-17862500Y22600000D01*
G75*
G02*
X-17625000Y22362500I0J-237500D01*
G01*
X-17625000Y21762500D01*
G75*
G02*
X-17862500Y21525000I-237500J0D01*
G01*
G37*
%TD*%
%TO.C,C9*%
G36*
G01*
X-9200000Y-27062500D02*
X-9200000Y-27537500D01*
G75*
G02*
X-9437500Y-27775000I-237500J0D01*
G01*
X-10037500Y-27775000D01*
G75*
G02*
X-10275000Y-27537500I0J237500D01*
G01*
X-10275000Y-27062500D01*
G75*
G02*
X-10037500Y-26825000I237500J0D01*
G01*
X-9437500Y-26825000D01*
G75*
G02*
X-9200000Y-27062500I0J-237500D01*
G01*
G37*
G36*
G01*
X-10925000Y-27062500D02*
X-10925000Y-27537500D01*
G75*
G02*
X-11162500Y-27775000I-237500J0D01*
G01*
X-11762500Y-27775000D01*
G75*
G02*
X-12000000Y-27537500I0J237500D01*
G01*
X-12000000Y-27062500D01*
G75*
G02*
X-11762500Y-26825000I237500J0D01*
G01*
X-11162500Y-26825000D01*
G75*
G02*
X-10925000Y-27062500I0J-237500D01*
G01*
G37*
%TD*%
%TO.C,C10*%
G36*
G01*
X4725000Y-29537500D02*
X4725000Y-29062500D01*
G75*
G02*
X4962500Y-28825000I237500J0D01*
G01*
X5562500Y-28825000D01*
G75*
G02*
X5800000Y-29062500I0J-237500D01*
G01*
X5800000Y-29537500D01*
G75*
G02*
X5562500Y-29775000I-237500J0D01*
G01*
X4962500Y-29775000D01*
G75*
G02*
X4725000Y-29537500I0J237500D01*
G01*
G37*
G36*
G01*
X3000000Y-29537500D02*
X3000000Y-29062500D01*
G75*
G02*
X3237500Y-28825000I237500J0D01*
G01*
X3837500Y-28825000D01*
G75*
G02*
X4075000Y-29062500I0J-237500D01*
G01*
X4075000Y-29537500D01*
G75*
G02*
X3837500Y-29775000I-237500J0D01*
G01*
X3237500Y-29775000D01*
G75*
G02*
X3000000Y-29537500I0J237500D01*
G01*
G37*
%TD*%
%TO.C,C11*%
G36*
G01*
X13100000Y-22237500D02*
X13100000Y-21762500D01*
G75*
G02*
X13337500Y-21525000I237500J0D01*
G01*
X13937500Y-21525000D01*
G75*
G02*
X14175000Y-21762500I0J-237500D01*
G01*
X14175000Y-22237500D01*
G75*
G02*
X13937500Y-22475000I-237500J0D01*
G01*
X13337500Y-22475000D01*
G75*
G02*
X13100000Y-22237500I0J237500D01*
G01*
G37*
G36*
G01*
X14825000Y-22237500D02*
X14825000Y-21762500D01*
G75*
G02*
X15062500Y-21525000I237500J0D01*
G01*
X15662500Y-21525000D01*
G75*
G02*
X15900000Y-21762500I0J-237500D01*
G01*
X15900000Y-22237500D01*
G75*
G02*
X15662500Y-22475000I-237500J0D01*
G01*
X15062500Y-22475000D01*
G75*
G02*
X14825000Y-22237500I0J237500D01*
G01*
G37*
%TD*%
D19*
%TO.C,D1*%
X-11350000Y28000000D03*
X-14650000Y28000000D03*
%TD*%
%TO.C,J1*%
G36*
G01*
X-34955742Y29553446D02*
X-34531478Y29129182D01*
G75*
G02*
X-34531478Y28422076I-353553J-353553D01*
G01*
X-34531478Y28422076D01*
G75*
G02*
X-35238584Y28422076I-353553J353553D01*
G01*
X-35662848Y28846340D01*
G75*
G02*
X-35662848Y29553446I353553J353553D01*
G01*
X-35662848Y29553446D01*
G75*
G02*
X-34955742Y29553446I353553J-353553D01*
G01*
G37*
D20*
X-31505061Y27417984D03*
G36*
G01*
X-28846340Y35662848D02*
X-28422076Y35238584D01*
G75*
G02*
X-28422076Y34531478I-353553J-353553D01*
G01*
X-28422076Y34531478D01*
G75*
G02*
X-29129182Y34531478I-353553J353553D01*
G01*
X-29553446Y34955742D01*
G75*
G02*
X-29553446Y35662848I353553J353553D01*
G01*
X-29553446Y35662848D01*
G75*
G02*
X-28846340Y35662848I353553J-353553D01*
G01*
G37*
X-27417984Y31505061D03*
G36*
G01*
X-26067410Y32883919D02*
X-25289592Y32106101D01*
G75*
G02*
X-25289592Y31398995I-353553J-353553D01*
G01*
X-25289592Y31398995D01*
G75*
G02*
X-25996698Y31398995I-353553J353553D01*
G01*
X-26774516Y32176813D01*
G75*
G02*
X-26774516Y32883919I353553J353553D01*
G01*
X-26774516Y32883919D01*
G75*
G02*
X-26067410Y32883919I353553J-353553D01*
G01*
G37*
G36*
G01*
X-32176813Y26774516D02*
X-31398995Y25996698D01*
G75*
G02*
X-31398995Y25289592I-353553J-353553D01*
G01*
X-31398995Y25289592D01*
G75*
G02*
X-32106101Y25289592I-353553J353553D01*
G01*
X-32883919Y26067410D01*
G75*
G02*
X-32883919Y26774516I353553J353553D01*
G01*
X-32883919Y26774516D01*
G75*
G02*
X-32176813Y26774516I353553J-353553D01*
G01*
G37*
D21*
G36*
X-28669562Y29235248D02*
G01*
X-27644258Y28209944D01*
X-27856390Y27997812D01*
X-28881694Y29023116D01*
X-28669562Y29235248D01*
G37*
G36*
X-30083776Y27821034D02*
G01*
X-29058472Y26795730D01*
X-29270604Y26583598D01*
X-30295908Y27608902D01*
X-30083776Y27821034D01*
G37*
G36*
X-29730223Y28174588D02*
G01*
X-28704919Y27149284D01*
X-28917051Y26937152D01*
X-29942355Y27962456D01*
X-29730223Y28174588D01*
G37*
G36*
X-29376669Y28528141D02*
G01*
X-28351365Y27502837D01*
X-28563497Y27290705D01*
X-29588801Y28316009D01*
X-29376669Y28528141D01*
G37*
G36*
X-29023116Y28881694D02*
G01*
X-27997812Y27856390D01*
X-28209944Y27644258D01*
X-29235248Y28669562D01*
X-29023116Y28881694D01*
G37*
G36*
X-28316009Y29588801D02*
G01*
X-27290705Y28563497D01*
X-27502837Y28351365D01*
X-28528141Y29376669D01*
X-28316009Y29588801D01*
G37*
G36*
X-27962456Y29942355D02*
G01*
X-26937152Y28917051D01*
X-27149284Y28704919D01*
X-28174588Y29730223D01*
X-27962456Y29942355D01*
G37*
G36*
X-27608902Y30295908D02*
G01*
X-26583598Y29270604D01*
X-26795730Y29058472D01*
X-27821034Y30083776D01*
X-27608902Y30295908D01*
G37*
G36*
X-31038370Y26866440D02*
G01*
X-30013066Y25841136D01*
X-30437330Y25416872D01*
X-31462634Y26442176D01*
X-31038370Y26866440D01*
G37*
G36*
X-30472685Y27432125D02*
G01*
X-29447381Y26406821D01*
X-29871645Y25982557D01*
X-30896949Y27007861D01*
X-30472685Y27432125D01*
G37*
G36*
X-27007861Y30896949D02*
G01*
X-25982557Y29871645D01*
X-26406821Y29447381D01*
X-27432125Y30472685D01*
X-27007861Y30896949D01*
G37*
G36*
X-26442176Y31462634D02*
G01*
X-25416872Y30437330D01*
X-25841136Y30013066D01*
X-26866440Y31038370D01*
X-26442176Y31462634D01*
G37*
G36*
X-26442176Y31462634D02*
G01*
X-25416872Y30437330D01*
X-25841136Y30013066D01*
X-26866440Y31038370D01*
X-26442176Y31462634D01*
G37*
G36*
X-27007861Y30896949D02*
G01*
X-25982557Y29871645D01*
X-26406821Y29447381D01*
X-27432125Y30472685D01*
X-27007861Y30896949D01*
G37*
G36*
X-30472685Y27432125D02*
G01*
X-29447381Y26406821D01*
X-29871645Y25982557D01*
X-30896949Y27007861D01*
X-30472685Y27432125D01*
G37*
G36*
X-31038370Y26866440D02*
G01*
X-30013066Y25841136D01*
X-30437330Y25416872D01*
X-31462634Y26442176D01*
X-31038370Y26866440D01*
G37*
%TD*%
%TO.C,R1*%
G36*
G01*
X-11025000Y-25362500D02*
X-11025000Y-25837500D01*
G75*
G02*
X-11262500Y-26075000I-237500J0D01*
G01*
X-11762500Y-26075000D01*
G75*
G02*
X-12000000Y-25837500I0J237500D01*
G01*
X-12000000Y-25362500D01*
G75*
G02*
X-11762500Y-25125000I237500J0D01*
G01*
X-11262500Y-25125000D01*
G75*
G02*
X-11025000Y-25362500I0J-237500D01*
G01*
G37*
G36*
G01*
X-9200000Y-25362500D02*
X-9200000Y-25837500D01*
G75*
G02*
X-9437500Y-26075000I-237500J0D01*
G01*
X-9937500Y-26075000D01*
G75*
G02*
X-10175000Y-25837500I0J237500D01*
G01*
X-10175000Y-25362500D01*
G75*
G02*
X-9937500Y-25125000I237500J0D01*
G01*
X-9437500Y-25125000D01*
G75*
G02*
X-9200000Y-25362500I0J-237500D01*
G01*
G37*
%TD*%
%TO.C,R2*%
G36*
G01*
X2300000Y-29062500D02*
X2300000Y-29537500D01*
G75*
G02*
X2062500Y-29775000I-237500J0D01*
G01*
X1562500Y-29775000D01*
G75*
G02*
X1325000Y-29537500I0J237500D01*
G01*
X1325000Y-29062500D01*
G75*
G02*
X1562500Y-28825000I237500J0D01*
G01*
X2062500Y-28825000D01*
G75*
G02*
X2300000Y-29062500I0J-237500D01*
G01*
G37*
G36*
G01*
X475000Y-29062500D02*
X475000Y-29537500D01*
G75*
G02*
X237500Y-29775000I-237500J0D01*
G01*
X-262500Y-29775000D01*
G75*
G02*
X-500000Y-29537500I0J237500D01*
G01*
X-500000Y-29062500D01*
G75*
G02*
X-262500Y-28825000I237500J0D01*
G01*
X237500Y-28825000D01*
G75*
G02*
X475000Y-29062500I0J-237500D01*
G01*
G37*
%TD*%
%TO.C,R3*%
G36*
G01*
X14925000Y-23837500D02*
X14925000Y-23362500D01*
G75*
G02*
X15162500Y-23125000I237500J0D01*
G01*
X15662500Y-23125000D01*
G75*
G02*
X15900000Y-23362500I0J-237500D01*
G01*
X15900000Y-23837500D01*
G75*
G02*
X15662500Y-24075000I-237500J0D01*
G01*
X15162500Y-24075000D01*
G75*
G02*
X14925000Y-23837500I0J237500D01*
G01*
G37*
G36*
G01*
X13100000Y-23837500D02*
X13100000Y-23362500D01*
G75*
G02*
X13337500Y-23125000I237500J0D01*
G01*
X13837500Y-23125000D01*
G75*
G02*
X14075000Y-23362500I0J-237500D01*
G01*
X14075000Y-23837500D01*
G75*
G02*
X13837500Y-24075000I-237500J0D01*
G01*
X13337500Y-24075000D01*
G75*
G02*
X13100000Y-23837500I0J237500D01*
G01*
G37*
%TD*%
%TO.C,R5*%
G36*
G01*
X-36575000Y24762500D02*
X-36575000Y25237500D01*
G75*
G02*
X-36337500Y25475000I237500J0D01*
G01*
X-35837500Y25475000D01*
G75*
G02*
X-35600000Y25237500I0J-237500D01*
G01*
X-35600000Y24762500D01*
G75*
G02*
X-35837500Y24525000I-237500J0D01*
G01*
X-36337500Y24525000D01*
G75*
G02*
X-36575000Y24762500I0J237500D01*
G01*
G37*
G36*
G01*
X-38400000Y24762500D02*
X-38400000Y25237500D01*
G75*
G02*
X-38162500Y25475000I237500J0D01*
G01*
X-37662500Y25475000D01*
G75*
G02*
X-37425000Y25237500I0J-237500D01*
G01*
X-37425000Y24762500D01*
G75*
G02*
X-37662500Y24525000I-237500J0D01*
G01*
X-38162500Y24525000D01*
G75*
G02*
X-38400000Y24762500I0J237500D01*
G01*
G37*
%TD*%
%TO.C,R6*%
G36*
G01*
X-38400000Y22862500D02*
X-38400000Y23337500D01*
G75*
G02*
X-38162500Y23575000I237500J0D01*
G01*
X-37662500Y23575000D01*
G75*
G02*
X-37425000Y23337500I0J-237500D01*
G01*
X-37425000Y22862500D01*
G75*
G02*
X-37662500Y22625000I-237500J0D01*
G01*
X-38162500Y22625000D01*
G75*
G02*
X-38400000Y22862500I0J237500D01*
G01*
G37*
G36*
G01*
X-36575000Y22862500D02*
X-36575000Y23337500D01*
G75*
G02*
X-36337500Y23575000I237500J0D01*
G01*
X-35837500Y23575000D01*
G75*
G02*
X-35600000Y23337500I0J-237500D01*
G01*
X-35600000Y22862500D01*
G75*
G02*
X-35837500Y22625000I-237500J0D01*
G01*
X-36337500Y22625000D01*
G75*
G02*
X-36575000Y22862500I0J237500D01*
G01*
G37*
%TD*%
%TO.C,R7*%
G36*
G01*
X3825000Y-14937500D02*
X3825000Y-14462500D01*
G75*
G02*
X4062500Y-14225000I237500J0D01*
G01*
X4562500Y-14225000D01*
G75*
G02*
X4800000Y-14462500I0J-237500D01*
G01*
X4800000Y-14937500D01*
G75*
G02*
X4562500Y-15175000I-237500J0D01*
G01*
X4062500Y-15175000D01*
G75*
G02*
X3825000Y-14937500I0J237500D01*
G01*
G37*
G36*
G01*
X2000000Y-14937500D02*
X2000000Y-14462500D01*
G75*
G02*
X2237500Y-14225000I237500J0D01*
G01*
X2737500Y-14225000D01*
G75*
G02*
X2975000Y-14462500I0J-237500D01*
G01*
X2975000Y-14937500D01*
G75*
G02*
X2737500Y-15175000I-237500J0D01*
G01*
X2237500Y-15175000D01*
G75*
G02*
X2000000Y-14937500I0J237500D01*
G01*
G37*
%TD*%
%TO.C,R8*%
G36*
G01*
X-28937500Y-2500000D02*
X-28462500Y-2500000D01*
G75*
G02*
X-28225000Y-2737500I0J-237500D01*
G01*
X-28225000Y-3237500D01*
G75*
G02*
X-28462500Y-3475000I-237500J0D01*
G01*
X-28937500Y-3475000D01*
G75*
G02*
X-29175000Y-3237500I0J237500D01*
G01*
X-29175000Y-2737500D01*
G75*
G02*
X-28937500Y-2500000I237500J0D01*
G01*
G37*
G36*
G01*
X-28937500Y-4325000D02*
X-28462500Y-4325000D01*
G75*
G02*
X-28225000Y-4562500I0J-237500D01*
G01*
X-28225000Y-5062500D01*
G75*
G02*
X-28462500Y-5300000I-237500J0D01*
G01*
X-28937500Y-5300000D01*
G75*
G02*
X-29175000Y-5062500I0J237500D01*
G01*
X-29175000Y-4562500D01*
G75*
G02*
X-28937500Y-4325000I237500J0D01*
G01*
G37*
%TD*%
D22*
%TO.C,U1*%
X9950000Y-17900000D03*
X9000000Y-17900000D03*
X8050000Y-17900000D03*
X8050000Y-20100000D03*
X9950000Y-20100000D03*
%TD*%
%TO.C,U2*%
G36*
G01*
X3450000Y-24660000D02*
X3450000Y-24960000D01*
G75*
G02*
X3300000Y-25110000I-150000J0D01*
G01*
X1650000Y-25110000D01*
G75*
G02*
X1500000Y-24960000I0J150000D01*
G01*
X1500000Y-24660000D01*
G75*
G02*
X1650000Y-24510000I150000J0D01*
G01*
X3300000Y-24510000D01*
G75*
G02*
X3450000Y-24660000I0J-150000D01*
G01*
G37*
G36*
G01*
X3450000Y-23390000D02*
X3450000Y-23690000D01*
G75*
G02*
X3300000Y-23840000I-150000J0D01*
G01*
X1650000Y-23840000D01*
G75*
G02*
X1500000Y-23690000I0J150000D01*
G01*
X1500000Y-23390000D01*
G75*
G02*
X1650000Y-23240000I150000J0D01*
G01*
X3300000Y-23240000D01*
G75*
G02*
X3450000Y-23390000I0J-150000D01*
G01*
G37*
G36*
G01*
X3450000Y-22120000D02*
X3450000Y-22420000D01*
G75*
G02*
X3300000Y-22570000I-150000J0D01*
G01*
X1650000Y-22570000D01*
G75*
G02*
X1500000Y-22420000I0J150000D01*
G01*
X1500000Y-22120000D01*
G75*
G02*
X1650000Y-21970000I150000J0D01*
G01*
X3300000Y-21970000D01*
G75*
G02*
X3450000Y-22120000I0J-150000D01*
G01*
G37*
G36*
G01*
X3450000Y-20850000D02*
X3450000Y-21150000D01*
G75*
G02*
X3300000Y-21300000I-150000J0D01*
G01*
X1650000Y-21300000D01*
G75*
G02*
X1500000Y-21150000I0J150000D01*
G01*
X1500000Y-20850000D01*
G75*
G02*
X1650000Y-20700000I150000J0D01*
G01*
X3300000Y-20700000D01*
G75*
G02*
X3450000Y-20850000I0J-150000D01*
G01*
G37*
G36*
G01*
X3450000Y-19580000D02*
X3450000Y-19880000D01*
G75*
G02*
X3300000Y-20030000I-150000J0D01*
G01*
X1650000Y-20030000D01*
G75*
G02*
X1500000Y-19880000I0J150000D01*
G01*
X1500000Y-19580000D01*
G75*
G02*
X1650000Y-19430000I150000J0D01*
G01*
X3300000Y-19430000D01*
G75*
G02*
X3450000Y-19580000I0J-150000D01*
G01*
G37*
G36*
G01*
X3450000Y-18310000D02*
X3450000Y-18610000D01*
G75*
G02*
X3300000Y-18760000I-150000J0D01*
G01*
X1650000Y-18760000D01*
G75*
G02*
X1500000Y-18610000I0J150000D01*
G01*
X1500000Y-18310000D01*
G75*
G02*
X1650000Y-18160000I150000J0D01*
G01*
X3300000Y-18160000D01*
G75*
G02*
X3450000Y-18310000I0J-150000D01*
G01*
G37*
G36*
G01*
X3450000Y-17040000D02*
X3450000Y-17340000D01*
G75*
G02*
X3300000Y-17490000I-150000J0D01*
G01*
X1650000Y-17490000D01*
G75*
G02*
X1500000Y-17340000I0J150000D01*
G01*
X1500000Y-17040000D01*
G75*
G02*
X1650000Y-16890000I150000J0D01*
G01*
X3300000Y-16890000D01*
G75*
G02*
X3450000Y-17040000I0J-150000D01*
G01*
G37*
G36*
G01*
X-1500000Y-17040000D02*
X-1500000Y-17340000D01*
G75*
G02*
X-1650000Y-17490000I-150000J0D01*
G01*
X-3300000Y-17490000D01*
G75*
G02*
X-3450000Y-17340000I0J150000D01*
G01*
X-3450000Y-17040000D01*
G75*
G02*
X-3300000Y-16890000I150000J0D01*
G01*
X-1650000Y-16890000D01*
G75*
G02*
X-1500000Y-17040000I0J-150000D01*
G01*
G37*
G36*
G01*
X-1500000Y-18310000D02*
X-1500000Y-18610000D01*
G75*
G02*
X-1650000Y-18760000I-150000J0D01*
G01*
X-3300000Y-18760000D01*
G75*
G02*
X-3450000Y-18610000I0J150000D01*
G01*
X-3450000Y-18310000D01*
G75*
G02*
X-3300000Y-18160000I150000J0D01*
G01*
X-1650000Y-18160000D01*
G75*
G02*
X-1500000Y-18310000I0J-150000D01*
G01*
G37*
G36*
G01*
X-1500000Y-19580000D02*
X-1500000Y-19880000D01*
G75*
G02*
X-1650000Y-20030000I-150000J0D01*
G01*
X-3300000Y-20030000D01*
G75*
G02*
X-3450000Y-19880000I0J150000D01*
G01*
X-3450000Y-19580000D01*
G75*
G02*
X-3300000Y-19430000I150000J0D01*
G01*
X-1650000Y-19430000D01*
G75*
G02*
X-1500000Y-19580000I0J-150000D01*
G01*
G37*
G36*
G01*
X-1500000Y-20850000D02*
X-1500000Y-21150000D01*
G75*
G02*
X-1650000Y-21300000I-150000J0D01*
G01*
X-3300000Y-21300000D01*
G75*
G02*
X-3450000Y-21150000I0J150000D01*
G01*
X-3450000Y-20850000D01*
G75*
G02*
X-3300000Y-20700000I150000J0D01*
G01*
X-1650000Y-20700000D01*
G75*
G02*
X-1500000Y-20850000I0J-150000D01*
G01*
G37*
G36*
G01*
X-1500000Y-22120000D02*
X-1500000Y-22420000D01*
G75*
G02*
X-1650000Y-22570000I-150000J0D01*
G01*
X-3300000Y-22570000D01*
G75*
G02*
X-3450000Y-22420000I0J150000D01*
G01*
X-3450000Y-22120000D01*
G75*
G02*
X-3300000Y-21970000I150000J0D01*
G01*
X-1650000Y-21970000D01*
G75*
G02*
X-1500000Y-22120000I0J-150000D01*
G01*
G37*
G36*
G01*
X-1500000Y-23390000D02*
X-1500000Y-23690000D01*
G75*
G02*
X-1650000Y-23840000I-150000J0D01*
G01*
X-3300000Y-23840000D01*
G75*
G02*
X-3450000Y-23690000I0J150000D01*
G01*
X-3450000Y-23390000D01*
G75*
G02*
X-3300000Y-23240000I150000J0D01*
G01*
X-1650000Y-23240000D01*
G75*
G02*
X-1500000Y-23390000I0J-150000D01*
G01*
G37*
G36*
G01*
X-1500000Y-24660000D02*
X-1500000Y-24960000D01*
G75*
G02*
X-1650000Y-25110000I-150000J0D01*
G01*
X-3300000Y-25110000D01*
G75*
G02*
X-3450000Y-24960000I0J150000D01*
G01*
X-3450000Y-24660000D01*
G75*
G02*
X-3300000Y-24510000I150000J0D01*
G01*
X-1650000Y-24510000D01*
G75*
G02*
X-1500000Y-24660000I0J-150000D01*
G01*
G37*
%TD*%
%TO.C,U3*%
G36*
G01*
X-19850000Y16705000D02*
X-19850000Y16405000D01*
G75*
G02*
X-20000000Y16255000I-150000J0D01*
G01*
X-21650000Y16255000D01*
G75*
G02*
X-21800000Y16405000I0J150000D01*
G01*
X-21800000Y16705000D01*
G75*
G02*
X-21650000Y16855000I150000J0D01*
G01*
X-20000000Y16855000D01*
G75*
G02*
X-19850000Y16705000I0J-150000D01*
G01*
G37*
G36*
G01*
X-19850000Y17975000D02*
X-19850000Y17675000D01*
G75*
G02*
X-20000000Y17525000I-150000J0D01*
G01*
X-21650000Y17525000D01*
G75*
G02*
X-21800000Y17675000I0J150000D01*
G01*
X-21800000Y17975000D01*
G75*
G02*
X-21650000Y18125000I150000J0D01*
G01*
X-20000000Y18125000D01*
G75*
G02*
X-19850000Y17975000I0J-150000D01*
G01*
G37*
G36*
G01*
X-19850000Y19245000D02*
X-19850000Y18945000D01*
G75*
G02*
X-20000000Y18795000I-150000J0D01*
G01*
X-21650000Y18795000D01*
G75*
G02*
X-21800000Y18945000I0J150000D01*
G01*
X-21800000Y19245000D01*
G75*
G02*
X-21650000Y19395000I150000J0D01*
G01*
X-20000000Y19395000D01*
G75*
G02*
X-19850000Y19245000I0J-150000D01*
G01*
G37*
G36*
G01*
X-19850000Y20515000D02*
X-19850000Y20215000D01*
G75*
G02*
X-20000000Y20065000I-150000J0D01*
G01*
X-21650000Y20065000D01*
G75*
G02*
X-21800000Y20215000I0J150000D01*
G01*
X-21800000Y20515000D01*
G75*
G02*
X-21650000Y20665000I150000J0D01*
G01*
X-20000000Y20665000D01*
G75*
G02*
X-19850000Y20515000I0J-150000D01*
G01*
G37*
G36*
G01*
X-19850000Y21785000D02*
X-19850000Y21485000D01*
G75*
G02*
X-20000000Y21335000I-150000J0D01*
G01*
X-21650000Y21335000D01*
G75*
G02*
X-21800000Y21485000I0J150000D01*
G01*
X-21800000Y21785000D01*
G75*
G02*
X-21650000Y21935000I150000J0D01*
G01*
X-20000000Y21935000D01*
G75*
G02*
X-19850000Y21785000I0J-150000D01*
G01*
G37*
G36*
G01*
X-19850000Y23055000D02*
X-19850000Y22755000D01*
G75*
G02*
X-20000000Y22605000I-150000J0D01*
G01*
X-21650000Y22605000D01*
G75*
G02*
X-21800000Y22755000I0J150000D01*
G01*
X-21800000Y23055000D01*
G75*
G02*
X-21650000Y23205000I150000J0D01*
G01*
X-20000000Y23205000D01*
G75*
G02*
X-19850000Y23055000I0J-150000D01*
G01*
G37*
G36*
G01*
X-19850000Y24325000D02*
X-19850000Y24025000D01*
G75*
G02*
X-20000000Y23875000I-150000J0D01*
G01*
X-21650000Y23875000D01*
G75*
G02*
X-21800000Y24025000I0J150000D01*
G01*
X-21800000Y24325000D01*
G75*
G02*
X-21650000Y24475000I150000J0D01*
G01*
X-20000000Y24475000D01*
G75*
G02*
X-19850000Y24325000I0J-150000D01*
G01*
G37*
G36*
G01*
X-19850000Y25595000D02*
X-19850000Y25295000D01*
G75*
G02*
X-20000000Y25145000I-150000J0D01*
G01*
X-21650000Y25145000D01*
G75*
G02*
X-21800000Y25295000I0J150000D01*
G01*
X-21800000Y25595000D01*
G75*
G02*
X-21650000Y25745000I150000J0D01*
G01*
X-20000000Y25745000D01*
G75*
G02*
X-19850000Y25595000I0J-150000D01*
G01*
G37*
G36*
G01*
X-24800000Y25595000D02*
X-24800000Y25295000D01*
G75*
G02*
X-24950000Y25145000I-150000J0D01*
G01*
X-26600000Y25145000D01*
G75*
G02*
X-26750000Y25295000I0J150000D01*
G01*
X-26750000Y25595000D01*
G75*
G02*
X-26600000Y25745000I150000J0D01*
G01*
X-24950000Y25745000D01*
G75*
G02*
X-24800000Y25595000I0J-150000D01*
G01*
G37*
G36*
G01*
X-24800000Y24325000D02*
X-24800000Y24025000D01*
G75*
G02*
X-24950000Y23875000I-150000J0D01*
G01*
X-26600000Y23875000D01*
G75*
G02*
X-26750000Y24025000I0J150000D01*
G01*
X-26750000Y24325000D01*
G75*
G02*
X-26600000Y24475000I150000J0D01*
G01*
X-24950000Y24475000D01*
G75*
G02*
X-24800000Y24325000I0J-150000D01*
G01*
G37*
G36*
G01*
X-24800000Y23055000D02*
X-24800000Y22755000D01*
G75*
G02*
X-24950000Y22605000I-150000J0D01*
G01*
X-26600000Y22605000D01*
G75*
G02*
X-26750000Y22755000I0J150000D01*
G01*
X-26750000Y23055000D01*
G75*
G02*
X-26600000Y23205000I150000J0D01*
G01*
X-24950000Y23205000D01*
G75*
G02*
X-24800000Y23055000I0J-150000D01*
G01*
G37*
G36*
G01*
X-24800000Y21785000D02*
X-24800000Y21485000D01*
G75*
G02*
X-24950000Y21335000I-150000J0D01*
G01*
X-26600000Y21335000D01*
G75*
G02*
X-26750000Y21485000I0J150000D01*
G01*
X-26750000Y21785000D01*
G75*
G02*
X-26600000Y21935000I150000J0D01*
G01*
X-24950000Y21935000D01*
G75*
G02*
X-24800000Y21785000I0J-150000D01*
G01*
G37*
G36*
G01*
X-24800000Y20515000D02*
X-24800000Y20215000D01*
G75*
G02*
X-24950000Y20065000I-150000J0D01*
G01*
X-26600000Y20065000D01*
G75*
G02*
X-26750000Y20215000I0J150000D01*
G01*
X-26750000Y20515000D01*
G75*
G02*
X-26600000Y20665000I150000J0D01*
G01*
X-24950000Y20665000D01*
G75*
G02*
X-24800000Y20515000I0J-150000D01*
G01*
G37*
G36*
G01*
X-24800000Y19245000D02*
X-24800000Y18945000D01*
G75*
G02*
X-24950000Y18795000I-150000J0D01*
G01*
X-26600000Y18795000D01*
G75*
G02*
X-26750000Y18945000I0J150000D01*
G01*
X-26750000Y19245000D01*
G75*
G02*
X-26600000Y19395000I150000J0D01*
G01*
X-24950000Y19395000D01*
G75*
G02*
X-24800000Y19245000I0J-150000D01*
G01*
G37*
G36*
G01*
X-24800000Y17975000D02*
X-24800000Y17675000D01*
G75*
G02*
X-24950000Y17525000I-150000J0D01*
G01*
X-26600000Y17525000D01*
G75*
G02*
X-26750000Y17675000I0J150000D01*
G01*
X-26750000Y17975000D01*
G75*
G02*
X-26600000Y18125000I150000J0D01*
G01*
X-24950000Y18125000D01*
G75*
G02*
X-24800000Y17975000I0J-150000D01*
G01*
G37*
G36*
G01*
X-24800000Y16705000D02*
X-24800000Y16405000D01*
G75*
G02*
X-24950000Y16255000I-150000J0D01*
G01*
X-26600000Y16255000D01*
G75*
G02*
X-26750000Y16405000I0J150000D01*
G01*
X-26750000Y16705000D01*
G75*
G02*
X-26600000Y16855000I150000J0D01*
G01*
X-24950000Y16855000D01*
G75*
G02*
X-24800000Y16705000I0J-150000D01*
G01*
G37*
%TD*%
%TO.C,SW1*%
G36*
G01*
X38900000Y-3200000D02*
X40900000Y-3200000D01*
G75*
G02*
X41650000Y-3950000I0J-750000D01*
G01*
X41650000Y-5450000D01*
G75*
G02*
X40900000Y-6200000I-750000J0D01*
G01*
X38900000Y-6200000D01*
G75*
G02*
X38150000Y-5450000I0J750000D01*
G01*
X38150000Y-3950000D01*
G75*
G02*
X38900000Y-3200000I750000J0D01*
G01*
G37*
G36*
G01*
X38900000Y1500000D02*
X40900000Y1500000D01*
G75*
G02*
X41650000Y750000I0J-750000D01*
G01*
X41650000Y-750000D01*
G75*
G02*
X40900000Y-1500000I-750000J0D01*
G01*
X38900000Y-1500000D01*
G75*
G02*
X38150000Y-750000I0J750000D01*
G01*
X38150000Y750000D01*
G75*
G02*
X38900000Y1500000I750000J0D01*
G01*
G37*
G36*
G01*
X38900000Y6200000D02*
X40900000Y6200000D01*
G75*
G02*
X41650000Y5450000I0J-750000D01*
G01*
X41650000Y3950000D01*
G75*
G02*
X40900000Y3200000I-750000J0D01*
G01*
X38900000Y3200000D01*
G75*
G02*
X38150000Y3950000I0J750000D01*
G01*
X38150000Y5450000D01*
G75*
G02*
X38900000Y6200000I750000J0D01*
G01*
G37*
G36*
G01*
X34100000Y-3200000D02*
X36100000Y-3200000D01*
G75*
G02*
X36850000Y-3950000I0J-750000D01*
G01*
X36850000Y-5450000D01*
G75*
G02*
X36100000Y-6200000I-750000J0D01*
G01*
X34100000Y-6200000D01*
G75*
G02*
X33350000Y-5450000I0J750000D01*
G01*
X33350000Y-3950000D01*
G75*
G02*
X34100000Y-3200000I750000J0D01*
G01*
G37*
G36*
G01*
X34100000Y1500000D02*
X36100000Y1500000D01*
G75*
G02*
X36850000Y750000I0J-750000D01*
G01*
X36850000Y-750000D01*
G75*
G02*
X36100000Y-1500000I-750000J0D01*
G01*
X34100000Y-1500000D01*
G75*
G02*
X33350000Y-750000I0J750000D01*
G01*
X33350000Y750000D01*
G75*
G02*
X34100000Y1500000I750000J0D01*
G01*
G37*
G36*
G01*
X34100000Y6200000D02*
X36100000Y6200000D01*
G75*
G02*
X36850000Y5450000I0J-750000D01*
G01*
X36850000Y3950000D01*
G75*
G02*
X36100000Y3200000I-750000J0D01*
G01*
X34100000Y3200000D01*
G75*
G02*
X33350000Y3950000I0J750000D01*
G01*
X33350000Y5450000D01*
G75*
G02*
X34100000Y6200000I750000J0D01*
G01*
G37*
%TD*%
%TO.C,C1*%
G36*
G01*
X5562500Y-17500000D02*
X6037500Y-17500000D01*
G75*
G02*
X6275000Y-17737500I0J-237500D01*
G01*
X6275000Y-18337500D01*
G75*
G02*
X6037500Y-18575000I-237500J0D01*
G01*
X5562500Y-18575000D01*
G75*
G02*
X5325000Y-18337500I0J237500D01*
G01*
X5325000Y-17737500D01*
G75*
G02*
X5562500Y-17500000I237500J0D01*
G01*
G37*
G36*
G01*
X5562500Y-19225000D02*
X6037500Y-19225000D01*
G75*
G02*
X6275000Y-19462500I0J-237500D01*
G01*
X6275000Y-20062500D01*
G75*
G02*
X6037500Y-20300000I-237500J0D01*
G01*
X5562500Y-20300000D01*
G75*
G02*
X5325000Y-20062500I0J237500D01*
G01*
X5325000Y-19462500D01*
G75*
G02*
X5562500Y-19225000I237500J0D01*
G01*
G37*
%TD*%
%TO.C,C2*%
G36*
G01*
X26000000Y21000000D02*
X26000000Y23000000D01*
G75*
G02*
X26250000Y23250000I250000J0D01*
G01*
X29750000Y23250000D01*
G75*
G02*
X30000000Y23000000I0J-250000D01*
G01*
X30000000Y21000000D01*
G75*
G02*
X29750000Y20750000I-250000J0D01*
G01*
X26250000Y20750000D01*
G75*
G02*
X26000000Y21000000I0J250000D01*
G01*
G37*
G36*
G01*
X34000000Y21000000D02*
X34000000Y23000000D01*
G75*
G02*
X34250000Y23250000I250000J0D01*
G01*
X37750000Y23250000D01*
G75*
G02*
X38000000Y23000000I0J-250000D01*
G01*
X38000000Y21000000D01*
G75*
G02*
X37750000Y20750000I-250000J0D01*
G01*
X34250000Y20750000D01*
G75*
G02*
X34000000Y21000000I0J250000D01*
G01*
G37*
%TD*%
%TO.C,C3*%
G36*
G01*
X25000000Y17000000D02*
X25000000Y15000000D01*
G75*
G02*
X24750000Y14750000I-250000J0D01*
G01*
X21250000Y14750000D01*
G75*
G02*
X21000000Y15000000I0J250000D01*
G01*
X21000000Y17000000D01*
G75*
G02*
X21250000Y17250000I250000J0D01*
G01*
X24750000Y17250000D01*
G75*
G02*
X25000000Y17000000I0J-250000D01*
G01*
G37*
G36*
G01*
X17000000Y17000000D02*
X17000000Y15000000D01*
G75*
G02*
X16750000Y14750000I-250000J0D01*
G01*
X13250000Y14750000D01*
G75*
G02*
X13000000Y15000000I0J250000D01*
G01*
X13000000Y17000000D01*
G75*
G02*
X13250000Y17250000I250000J0D01*
G01*
X16750000Y17250000D01*
G75*
G02*
X17000000Y17000000I0J-250000D01*
G01*
G37*
%TD*%
%TO.C,C12*%
G36*
G01*
X-36900000Y-8037500D02*
X-36900000Y-7562500D01*
G75*
G02*
X-36662500Y-7325000I237500J0D01*
G01*
X-36062500Y-7325000D01*
G75*
G02*
X-35825000Y-7562500I0J-237500D01*
G01*
X-35825000Y-8037500D01*
G75*
G02*
X-36062500Y-8275000I-237500J0D01*
G01*
X-36662500Y-8275000D01*
G75*
G02*
X-36900000Y-8037500I0J237500D01*
G01*
G37*
G36*
G01*
X-35175000Y-8037500D02*
X-35175000Y-7562500D01*
G75*
G02*
X-34937500Y-7325000I237500J0D01*
G01*
X-34337500Y-7325000D01*
G75*
G02*
X-34100000Y-7562500I0J-237500D01*
G01*
X-34100000Y-8037500D01*
G75*
G02*
X-34337500Y-8275000I-237500J0D01*
G01*
X-34937500Y-8275000D01*
G75*
G02*
X-35175000Y-8037500I0J237500D01*
G01*
G37*
%TD*%
%TO.C,C13*%
G36*
G01*
X-35175000Y-6437500D02*
X-35175000Y-5962500D01*
G75*
G02*
X-34937500Y-5725000I237500J0D01*
G01*
X-34337500Y-5725000D01*
G75*
G02*
X-34100000Y-5962500I0J-237500D01*
G01*
X-34100000Y-6437500D01*
G75*
G02*
X-34337500Y-6675000I-237500J0D01*
G01*
X-34937500Y-6675000D01*
G75*
G02*
X-35175000Y-6437500I0J237500D01*
G01*
G37*
G36*
G01*
X-36900000Y-6437500D02*
X-36900000Y-5962500D01*
G75*
G02*
X-36662500Y-5725000I237500J0D01*
G01*
X-36062500Y-5725000D01*
G75*
G02*
X-35825000Y-5962500I0J-237500D01*
G01*
X-35825000Y-6437500D01*
G75*
G02*
X-36062500Y-6675000I-237500J0D01*
G01*
X-36662500Y-6675000D01*
G75*
G02*
X-36900000Y-6437500I0J237500D01*
G01*
G37*
%TD*%
%TO.C,C14*%
G36*
G01*
X-28562500Y-1000000D02*
X-29037500Y-1000000D01*
G75*
G02*
X-29275000Y-762500I0J237500D01*
G01*
X-29275000Y-162500D01*
G75*
G02*
X-29037500Y75000I237500J0D01*
G01*
X-28562500Y75000D01*
G75*
G02*
X-28325000Y-162500I0J-237500D01*
G01*
X-28325000Y-762500D01*
G75*
G02*
X-28562500Y-1000000I-237500J0D01*
G01*
G37*
G36*
G01*
X-28562500Y725000D02*
X-29037500Y725000D01*
G75*
G02*
X-29275000Y962500I0J237500D01*
G01*
X-29275000Y1562500D01*
G75*
G02*
X-29037500Y1800000I237500J0D01*
G01*
X-28562500Y1800000D01*
G75*
G02*
X-28325000Y1562500I0J-237500D01*
G01*
X-28325000Y962500D01*
G75*
G02*
X-28562500Y725000I-237500J0D01*
G01*
G37*
%TD*%
D23*
%TO.C,J4*%
X-45450000Y-4220000D03*
D20*
X-41800000Y-2790000D03*
D23*
X-45450000Y4420000D03*
D20*
X-41800000Y2990000D03*
D24*
X-41270000Y4420000D03*
X-41270000Y-4220000D03*
D25*
X-40355000Y350000D03*
X-40355000Y-1650000D03*
X-40355000Y-1150000D03*
X-40355000Y-650000D03*
X-40355000Y-150000D03*
X-40355000Y850000D03*
X-40355000Y1350000D03*
X-40355000Y1850000D03*
D26*
X-40355000Y-3150000D03*
X-40355000Y-2350000D03*
X-40355000Y2550000D03*
X-40355000Y3350000D03*
X-40355000Y3350000D03*
X-40355000Y2550000D03*
X-40355000Y-2350000D03*
X-40355000Y-3150000D03*
%TD*%
%TO.C,R9*%
G36*
G01*
X-41500000Y-6262500D02*
X-41500000Y-6737500D01*
G75*
G02*
X-41737500Y-6975000I-237500J0D01*
G01*
X-42237500Y-6975000D01*
G75*
G02*
X-42475000Y-6737500I0J237500D01*
G01*
X-42475000Y-6262500D01*
G75*
G02*
X-42237500Y-6025000I237500J0D01*
G01*
X-41737500Y-6025000D01*
G75*
G02*
X-41500000Y-6262500I0J-237500D01*
G01*
G37*
G36*
G01*
X-43325000Y-6262500D02*
X-43325000Y-6737500D01*
G75*
G02*
X-43562500Y-6975000I-237500J0D01*
G01*
X-44062500Y-6975000D01*
G75*
G02*
X-44300000Y-6737500I0J237500D01*
G01*
X-44300000Y-6262500D01*
G75*
G02*
X-44062500Y-6025000I237500J0D01*
G01*
X-43562500Y-6025000D01*
G75*
G02*
X-43325000Y-6262500I0J-237500D01*
G01*
G37*
%TD*%
%TO.C,R10*%
G36*
G01*
X-43325000Y-7962500D02*
X-43325000Y-8437500D01*
G75*
G02*
X-43562500Y-8675000I-237500J0D01*
G01*
X-44062500Y-8675000D01*
G75*
G02*
X-44300000Y-8437500I0J237500D01*
G01*
X-44300000Y-7962500D01*
G75*
G02*
X-44062500Y-7725000I237500J0D01*
G01*
X-43562500Y-7725000D01*
G75*
G02*
X-43325000Y-7962500I0J-237500D01*
G01*
G37*
G36*
G01*
X-41500000Y-7962500D02*
X-41500000Y-8437500D01*
G75*
G02*
X-41737500Y-8675000I-237500J0D01*
G01*
X-42237500Y-8675000D01*
G75*
G02*
X-42475000Y-8437500I0J237500D01*
G01*
X-42475000Y-7962500D01*
G75*
G02*
X-42237500Y-7725000I237500J0D01*
G01*
X-41737500Y-7725000D01*
G75*
G02*
X-41500000Y-7962500I0J-237500D01*
G01*
G37*
%TD*%
%TO.C,U4*%
G36*
G01*
X-30175000Y-4070000D02*
X-30175000Y-4370000D01*
G75*
G02*
X-30325000Y-4520000I-150000J0D01*
G01*
X-31975000Y-4520000D01*
G75*
G02*
X-32125000Y-4370000I0J150000D01*
G01*
X-32125000Y-4070000D01*
G75*
G02*
X-31975000Y-3920000I150000J0D01*
G01*
X-30325000Y-3920000D01*
G75*
G02*
X-30175000Y-4070000I0J-150000D01*
G01*
G37*
G36*
G01*
X-30175000Y-2800000D02*
X-30175000Y-3100000D01*
G75*
G02*
X-30325000Y-3250000I-150000J0D01*
G01*
X-31975000Y-3250000D01*
G75*
G02*
X-32125000Y-3100000I0J150000D01*
G01*
X-32125000Y-2800000D01*
G75*
G02*
X-31975000Y-2650000I150000J0D01*
G01*
X-30325000Y-2650000D01*
G75*
G02*
X-30175000Y-2800000I0J-150000D01*
G01*
G37*
G36*
G01*
X-30175000Y-1530000D02*
X-30175000Y-1830000D01*
G75*
G02*
X-30325000Y-1980000I-150000J0D01*
G01*
X-31975000Y-1980000D01*
G75*
G02*
X-32125000Y-1830000I0J150000D01*
G01*
X-32125000Y-1530000D01*
G75*
G02*
X-31975000Y-1380000I150000J0D01*
G01*
X-30325000Y-1380000D01*
G75*
G02*
X-30175000Y-1530000I0J-150000D01*
G01*
G37*
G36*
G01*
X-30175000Y-260000D02*
X-30175000Y-560000D01*
G75*
G02*
X-30325000Y-710000I-150000J0D01*
G01*
X-31975000Y-710000D01*
G75*
G02*
X-32125000Y-560000I0J150000D01*
G01*
X-32125000Y-260000D01*
G75*
G02*
X-31975000Y-110000I150000J0D01*
G01*
X-30325000Y-110000D01*
G75*
G02*
X-30175000Y-260000I0J-150000D01*
G01*
G37*
G36*
G01*
X-30175000Y1010000D02*
X-30175000Y710000D01*
G75*
G02*
X-30325000Y560000I-150000J0D01*
G01*
X-31975000Y560000D01*
G75*
G02*
X-32125000Y710000I0J150000D01*
G01*
X-32125000Y1010000D01*
G75*
G02*
X-31975000Y1160000I150000J0D01*
G01*
X-30325000Y1160000D01*
G75*
G02*
X-30175000Y1010000I0J-150000D01*
G01*
G37*
G36*
G01*
X-30175000Y2280000D02*
X-30175000Y1980000D01*
G75*
G02*
X-30325000Y1830000I-150000J0D01*
G01*
X-31975000Y1830000D01*
G75*
G02*
X-32125000Y1980000I0J150000D01*
G01*
X-32125000Y2280000D01*
G75*
G02*
X-31975000Y2430000I150000J0D01*
G01*
X-30325000Y2430000D01*
G75*
G02*
X-30175000Y2280000I0J-150000D01*
G01*
G37*
G36*
G01*
X-30175000Y3550000D02*
X-30175000Y3250000D01*
G75*
G02*
X-30325000Y3100000I-150000J0D01*
G01*
X-31975000Y3100000D01*
G75*
G02*
X-32125000Y3250000I0J150000D01*
G01*
X-32125000Y3550000D01*
G75*
G02*
X-31975000Y3700000I150000J0D01*
G01*
X-30325000Y3700000D01*
G75*
G02*
X-30175000Y3550000I0J-150000D01*
G01*
G37*
G36*
G01*
X-30175000Y4820000D02*
X-30175000Y4520000D01*
G75*
G02*
X-30325000Y4370000I-150000J0D01*
G01*
X-31975000Y4370000D01*
G75*
G02*
X-32125000Y4520000I0J150000D01*
G01*
X-32125000Y4820000D01*
G75*
G02*
X-31975000Y4970000I150000J0D01*
G01*
X-30325000Y4970000D01*
G75*
G02*
X-30175000Y4820000I0J-150000D01*
G01*
G37*
G36*
G01*
X-35125000Y4820000D02*
X-35125000Y4520000D01*
G75*
G02*
X-35275000Y4370000I-150000J0D01*
G01*
X-36925000Y4370000D01*
G75*
G02*
X-37075000Y4520000I0J150000D01*
G01*
X-37075000Y4820000D01*
G75*
G02*
X-36925000Y4970000I150000J0D01*
G01*
X-35275000Y4970000D01*
G75*
G02*
X-35125000Y4820000I0J-150000D01*
G01*
G37*
G36*
G01*
X-35125000Y3550000D02*
X-35125000Y3250000D01*
G75*
G02*
X-35275000Y3100000I-150000J0D01*
G01*
X-36925000Y3100000D01*
G75*
G02*
X-37075000Y3250000I0J150000D01*
G01*
X-37075000Y3550000D01*
G75*
G02*
X-36925000Y3700000I150000J0D01*
G01*
X-35275000Y3700000D01*
G75*
G02*
X-35125000Y3550000I0J-150000D01*
G01*
G37*
G36*
G01*
X-35125000Y2280000D02*
X-35125000Y1980000D01*
G75*
G02*
X-35275000Y1830000I-150000J0D01*
G01*
X-36925000Y1830000D01*
G75*
G02*
X-37075000Y1980000I0J150000D01*
G01*
X-37075000Y2280000D01*
G75*
G02*
X-36925000Y2430000I150000J0D01*
G01*
X-35275000Y2430000D01*
G75*
G02*
X-35125000Y2280000I0J-150000D01*
G01*
G37*
G36*
G01*
X-35125000Y1010000D02*
X-35125000Y710000D01*
G75*
G02*
X-35275000Y560000I-150000J0D01*
G01*
X-36925000Y560000D01*
G75*
G02*
X-37075000Y710000I0J150000D01*
G01*
X-37075000Y1010000D01*
G75*
G02*
X-36925000Y1160000I150000J0D01*
G01*
X-35275000Y1160000D01*
G75*
G02*
X-35125000Y1010000I0J-150000D01*
G01*
G37*
G36*
G01*
X-35125000Y-260000D02*
X-35125000Y-560000D01*
G75*
G02*
X-35275000Y-710000I-150000J0D01*
G01*
X-36925000Y-710000D01*
G75*
G02*
X-37075000Y-560000I0J150000D01*
G01*
X-37075000Y-260000D01*
G75*
G02*
X-36925000Y-110000I150000J0D01*
G01*
X-35275000Y-110000D01*
G75*
G02*
X-35125000Y-260000I0J-150000D01*
G01*
G37*
G36*
G01*
X-35125000Y-1530000D02*
X-35125000Y-1830000D01*
G75*
G02*
X-35275000Y-1980000I-150000J0D01*
G01*
X-36925000Y-1980000D01*
G75*
G02*
X-37075000Y-1830000I0J150000D01*
G01*
X-37075000Y-1530000D01*
G75*
G02*
X-36925000Y-1380000I150000J0D01*
G01*
X-35275000Y-1380000D01*
G75*
G02*
X-35125000Y-1530000I0J-150000D01*
G01*
G37*
G36*
G01*
X-35125000Y-2800000D02*
X-35125000Y-3100000D01*
G75*
G02*
X-35275000Y-3250000I-150000J0D01*
G01*
X-36925000Y-3250000D01*
G75*
G02*
X-37075000Y-3100000I0J150000D01*
G01*
X-37075000Y-2800000D01*
G75*
G02*
X-36925000Y-2650000I150000J0D01*
G01*
X-35275000Y-2650000D01*
G75*
G02*
X-35125000Y-2800000I0J-150000D01*
G01*
G37*
G36*
G01*
X-35125000Y-4070000D02*
X-35125000Y-4370000D01*
G75*
G02*
X-35275000Y-4520000I-150000J0D01*
G01*
X-36925000Y-4520000D01*
G75*
G02*
X-37075000Y-4370000I0J150000D01*
G01*
X-37075000Y-4070000D01*
G75*
G02*
X-36925000Y-3920000I150000J0D01*
G01*
X-35275000Y-3920000D01*
G75*
G02*
X-35125000Y-4070000I0J-150000D01*
G01*
G37*
%TD*%
%TO.C,R11*%
G36*
G01*
X31549999Y-9400000D02*
X32450001Y-9400000D01*
G75*
G02*
X32700000Y-9649999I0J-249999D01*
G01*
X32700000Y-10350001D01*
G75*
G02*
X32450001Y-10600000I-249999J0D01*
G01*
X31549999Y-10600000D01*
G75*
G02*
X31300000Y-10350001I0J249999D01*
G01*
X31300000Y-9649999D01*
G75*
G02*
X31549999Y-9400000I249999J0D01*
G01*
G37*
G36*
G01*
X31549999Y-11400000D02*
X32450001Y-11400000D01*
G75*
G02*
X32700000Y-11649999I0J-249999D01*
G01*
X32700000Y-12350001D01*
G75*
G02*
X32450001Y-12600000I-249999J0D01*
G01*
X31549999Y-12600000D01*
G75*
G02*
X31300000Y-12350001I0J249999D01*
G01*
X31300000Y-11649999D01*
G75*
G02*
X31549999Y-11400000I249999J0D01*
G01*
G37*
%TD*%
M02*
