%TF.GenerationSoftware,KiCad,Pcbnew,5.1.9+dfsg1-1+deb11u1*%
%TF.CreationDate,2023-04-08T12:53:26+02:00*%
%TF.ProjectId,base,62617365-2e6b-4696-9361-645f70636258,rev?*%
%TF.SameCoordinates,Original*%
%TF.FileFunction,Legend,Top*%
%TF.FilePolarity,Positive*%
%FSLAX46Y46*%
G04 Gerber Fmt 4.6, Leading zero omitted, Abs format (unit mm)*
G04 Created by KiCad (PCBNEW 5.1.9+dfsg1-1+deb11u1) date 2023-04-08 12:53:26*
%MOMM*%
%LPD*%
G01*
G04 APERTURE LIST*
%ADD10C,0.150000*%
%ADD11C,0.000001*%
%ADD12C,0.120000*%
G04 APERTURE END LIST*
D10*
X-24000000Y8838095D02*
X-24047619Y8742857D01*
X-24047619Y8600000D01*
X-24000000Y8457142D01*
X-23904761Y8361904D01*
X-23809523Y8314285D01*
X-23619047Y8266666D01*
X-23476190Y8266666D01*
X-23285714Y8314285D01*
X-23190476Y8361904D01*
X-23095238Y8457142D01*
X-23047619Y8600000D01*
X-23047619Y8695238D01*
X-23095238Y8838095D01*
X-23142857Y8885714D01*
X-23476190Y8885714D01*
X-23476190Y8695238D01*
X-23047619Y9314285D02*
X-24047619Y9314285D01*
X-23047619Y9885714D01*
X-24047619Y9885714D01*
X-23047619Y10361904D02*
X-24047619Y10361904D01*
X-24047619Y10600000D01*
X-24000000Y10742857D01*
X-23904761Y10838095D01*
X-23809523Y10885714D01*
X-23619047Y10933333D01*
X-23476190Y10933333D01*
X-23285714Y10885714D01*
X-23190476Y10838095D01*
X-23095238Y10742857D01*
X-23047619Y10600000D01*
X-23047619Y10361904D01*
X-26547619Y5519047D02*
X-25738095Y5519047D01*
X-25642857Y5566666D01*
X-25595238Y5614285D01*
X-25547619Y5709523D01*
X-25547619Y5900000D01*
X-25595238Y5995238D01*
X-25642857Y6042857D01*
X-25738095Y6090476D01*
X-26547619Y6090476D01*
X-25547619Y6566666D02*
X-26547619Y6566666D01*
X-26547619Y6947619D01*
X-26500000Y7042857D01*
X-26452380Y7090476D01*
X-26357142Y7138095D01*
X-26214285Y7138095D01*
X-26119047Y7090476D01*
X-26071428Y7042857D01*
X-26023809Y6947619D01*
X-26023809Y6566666D01*
X-25547619Y7566666D02*
X-26547619Y7566666D01*
X-26547619Y7804761D01*
X-26500000Y7947619D01*
X-26404761Y8042857D01*
X-26309523Y8090476D01*
X-26119047Y8138095D01*
X-25976190Y8138095D01*
X-25785714Y8090476D01*
X-25690476Y8042857D01*
X-25595238Y7947619D01*
X-25547619Y7804761D01*
X-25547619Y7566666D01*
X-25547619Y8566666D02*
X-26547619Y8566666D01*
X-25547619Y10376190D02*
X-26023809Y10042857D01*
X-25547619Y9804761D02*
X-26547619Y9804761D01*
X-26547619Y10185714D01*
X-26500000Y10280952D01*
X-26452380Y10328571D01*
X-26357142Y10376190D01*
X-26214285Y10376190D01*
X-26119047Y10328571D01*
X-26071428Y10280952D01*
X-26023809Y10185714D01*
X-26023809Y9804761D01*
X-26547619Y10709523D02*
X-25547619Y11376190D01*
X-26547619Y11376190D02*
X-25547619Y10709523D01*
X-29147619Y5638095D02*
X-28338095Y5638095D01*
X-28242857Y5685714D01*
X-28195238Y5733333D01*
X-28147619Y5828571D01*
X-28147619Y6019047D01*
X-28195238Y6114285D01*
X-28242857Y6161904D01*
X-28338095Y6209523D01*
X-29147619Y6209523D01*
X-28147619Y6685714D02*
X-29147619Y6685714D01*
X-29147619Y7066666D01*
X-29100000Y7161904D01*
X-29052380Y7209523D01*
X-28957142Y7257142D01*
X-28814285Y7257142D01*
X-28719047Y7209523D01*
X-28671428Y7161904D01*
X-28623809Y7066666D01*
X-28623809Y6685714D01*
X-28147619Y7685714D02*
X-29147619Y7685714D01*
X-29147619Y7923809D01*
X-29100000Y8066666D01*
X-29004761Y8161904D01*
X-28909523Y8209523D01*
X-28719047Y8257142D01*
X-28576190Y8257142D01*
X-28385714Y8209523D01*
X-28290476Y8161904D01*
X-28195238Y8066666D01*
X-28147619Y7923809D01*
X-28147619Y7685714D01*
X-28147619Y8685714D02*
X-29147619Y8685714D01*
X-29147619Y9780952D02*
X-29147619Y10352380D01*
X-28147619Y10066666D02*
X-29147619Y10066666D01*
X-29147619Y10590476D02*
X-28147619Y11257142D01*
X-29147619Y11257142D02*
X-28147619Y10590476D01*
X-31747619Y7766666D02*
X-30747619Y8100000D01*
X-31747619Y8433333D01*
X-31747619Y8766666D02*
X-30938095Y8766666D01*
X-30842857Y8814285D01*
X-30795238Y8861904D01*
X-30747619Y8957142D01*
X-30747619Y9147619D01*
X-30795238Y9242857D01*
X-30842857Y9290476D01*
X-30938095Y9338095D01*
X-31747619Y9338095D01*
X-30795238Y9766666D02*
X-30747619Y9909523D01*
X-30747619Y10147619D01*
X-30795238Y10242857D01*
X-30842857Y10290476D01*
X-30938095Y10338095D01*
X-31033333Y10338095D01*
X-31128571Y10290476D01*
X-31176190Y10242857D01*
X-31223809Y10147619D01*
X-31271428Y9957142D01*
X-31319047Y9861904D01*
X-31366666Y9814285D01*
X-31461904Y9766666D01*
X-31557142Y9766666D01*
X-31652380Y9814285D01*
X-31700000Y9861904D01*
X-31747619Y9957142D01*
X-31747619Y10195238D01*
X-31700000Y10338095D01*
X-31271428Y11100000D02*
X-31223809Y11242857D01*
X-31176190Y11290476D01*
X-31080952Y11338095D01*
X-30938095Y11338095D01*
X-30842857Y11290476D01*
X-30795238Y11242857D01*
X-30747619Y11147619D01*
X-30747619Y10766666D01*
X-31747619Y10766666D01*
X-31747619Y11100000D01*
X-31700000Y11195238D01*
X-31652380Y11242857D01*
X-31557142Y11290476D01*
X-31461904Y11290476D01*
X-31366666Y11242857D01*
X-31319047Y11195238D01*
X-31271428Y11100000D01*
X-31271428Y10766666D01*
X18500000Y39047619D02*
X18500000Y40047619D01*
X18738095Y40047619D01*
X18880952Y40000000D01*
X18976190Y39904761D01*
X19023809Y39809523D01*
X19071428Y39619047D01*
X19071428Y39476190D01*
X19023809Y39285714D01*
X18976190Y39190476D01*
X18880952Y39095238D01*
X18738095Y39047619D01*
X18500000Y39047619D01*
X19452380Y39333333D02*
X19928571Y39333333D01*
X19357142Y39047619D02*
X19690476Y40047619D01*
X20023809Y39047619D01*
X20214285Y40047619D02*
X20785714Y40047619D01*
X20500000Y39047619D02*
X20500000Y40047619D01*
X21071428Y39333333D02*
X21547619Y39333333D01*
X20976190Y39047619D02*
X21309523Y40047619D01*
X21642857Y39047619D01*
X12238095Y25500000D02*
X12142857Y25547619D01*
X12000000Y25547619D01*
X11857142Y25500000D01*
X11761904Y25404761D01*
X11714285Y25309523D01*
X11666666Y25119047D01*
X11666666Y24976190D01*
X11714285Y24785714D01*
X11761904Y24690476D01*
X11857142Y24595238D01*
X12000000Y24547619D01*
X12095238Y24547619D01*
X12238095Y24595238D01*
X12285714Y24642857D01*
X12285714Y24976190D01*
X12095238Y24976190D01*
X12714285Y24547619D02*
X12714285Y25547619D01*
X13285714Y24547619D01*
X13285714Y25547619D01*
X13761904Y24547619D02*
X13761904Y25547619D01*
X14000000Y25547619D01*
X14142857Y25500000D01*
X14238095Y25404761D01*
X14285714Y25309523D01*
X14333333Y25119047D01*
X14333333Y24976190D01*
X14285714Y24785714D01*
X14238095Y24690476D01*
X14142857Y24595238D01*
X14000000Y24547619D01*
X13761904Y24547619D01*
X11309523Y30547619D02*
X11642857Y29547619D01*
X11976190Y30547619D01*
X12785714Y29547619D02*
X12309523Y29547619D01*
X12309523Y30547619D01*
X13119047Y30071428D02*
X13452380Y30071428D01*
X13595238Y29547619D02*
X13119047Y29547619D01*
X13119047Y30547619D01*
X13595238Y30547619D01*
X14023809Y29547619D02*
X14023809Y30547619D01*
X14261904Y30547619D01*
X14404761Y30500000D01*
X14500000Y30404761D01*
X14547619Y30309523D01*
X14595238Y30119047D01*
X14595238Y29976190D01*
X14547619Y29785714D01*
X14500000Y29690476D01*
X14404761Y29595238D01*
X14261904Y29547619D01*
X14023809Y29547619D01*
D11*
%TO.C,*%
G36*
X-37808802Y6604702D02*
G01*
X-37808802Y8328606D01*
X-38216523Y8328606D01*
X-38216523Y6269842D01*
X-37094126Y6269842D01*
X-37094126Y6604702D01*
X-37808802Y6604702D01*
G37*
X-37808802Y6604702D02*
X-37808802Y8328606D01*
X-38216523Y8328606D01*
X-38216523Y6269842D01*
X-37094126Y6269842D01*
X-37094126Y6604702D01*
X-37808802Y6604702D01*
G36*
X-38385503Y6269842D02*
G01*
X-39135836Y8328606D01*
X-39551310Y8328606D01*
X-40301642Y6269843D01*
X-39983836Y6269843D01*
X-39951623Y6272943D01*
X-39923200Y6282245D01*
X-39898571Y6297748D01*
X-39868730Y6328365D01*
X-39850512Y6361309D01*
X-39721839Y6764380D01*
X-39630373Y7049630D01*
X-39421089Y7699195D01*
X-39409374Y7733129D01*
X-39396971Y7770852D01*
X-39383882Y7812365D01*
X-39373903Y7845599D01*
X-39364116Y7880189D01*
X-39354522Y7916136D01*
X-39345122Y7953440D01*
X-39335047Y7916136D01*
X-39324970Y7880189D01*
X-39314893Y7845598D01*
X-39304818Y7812365D01*
X-39291551Y7771713D01*
X-39278631Y7734507D01*
X-39266059Y7700745D01*
X-39056772Y7049630D01*
X-39630373Y7049630D01*
X-39721839Y6764380D01*
X-38963755Y6764380D01*
X-38833534Y6359759D01*
X-38821304Y6335299D01*
X-38805284Y6313595D01*
X-38785474Y6294647D01*
X-38761360Y6280868D01*
X-38732421Y6272599D01*
X-38698659Y6269842D01*
X-38385503Y6269842D01*
G37*
X-38385503Y6269842D02*
X-39135836Y8328606D01*
X-39551310Y8328606D01*
X-40301642Y6269843D01*
X-39983836Y6269843D01*
X-39951623Y6272943D01*
X-39923200Y6282245D01*
X-39898571Y6297748D01*
X-39868730Y6328365D01*
X-39850512Y6361309D01*
X-39721839Y6764380D01*
X-39630373Y7049630D01*
X-39421089Y7699195D01*
X-39409374Y7733129D01*
X-39396971Y7770852D01*
X-39383882Y7812365D01*
X-39373903Y7845599D01*
X-39364116Y7880189D01*
X-39354522Y7916136D01*
X-39345122Y7953440D01*
X-39335047Y7916136D01*
X-39324970Y7880189D01*
X-39314893Y7845598D01*
X-39304818Y7812365D01*
X-39291551Y7771713D01*
X-39278631Y7734507D01*
X-39266059Y7700745D01*
X-39056772Y7049630D01*
X-39630373Y7049630D01*
X-39721839Y6764380D01*
X-38963755Y6764380D01*
X-38833534Y6359759D01*
X-38821304Y6335299D01*
X-38805284Y6313595D01*
X-38785474Y6294647D01*
X-38761360Y6280868D01*
X-38732421Y6272599D01*
X-38698659Y6269842D01*
X-38385503Y6269842D01*
G36*
X-40526431Y6269842D02*
G01*
X-40526431Y8328606D01*
X-40935703Y8328606D01*
X-40935703Y6269842D01*
X-40526431Y6269842D01*
G37*
X-40526431Y6269842D02*
X-40526431Y8328606D01*
X-40935703Y8328606D01*
X-40935703Y6269842D01*
X-40526431Y6269842D01*
G36*
X-42349553Y7062032D02*
G01*
X-42211578Y7062032D01*
X-42179195Y7060309D01*
X-42152324Y7055142D01*
X-42130964Y7046530D01*
X-42103059Y7025601D01*
X-42078255Y6993820D01*
X-41703088Y6352007D01*
X-41680206Y6322428D01*
X-41653728Y6299422D01*
X-41623652Y6282989D01*
X-41589980Y6273129D01*
X-41552712Y6269843D01*
X-41185297Y6269843D01*
X-41645728Y7020174D01*
X-41665881Y7047563D01*
X-41687068Y7071850D01*
X-41709289Y7093038D01*
X-41732543Y7112674D01*
X-41756831Y7130244D01*
X-41782152Y7145747D01*
X-41905012Y7409681D01*
X-41936502Y7392725D01*
X-41971286Y7378288D01*
X-42000927Y7368800D01*
X-42032801Y7361421D01*
X-42066907Y7356150D01*
X-42103245Y7352988D01*
X-42141816Y7351933D01*
X-42349553Y7351933D01*
X-42349553Y8015450D01*
X-42138715Y8015450D01*
X-42092207Y8014167D01*
X-42048799Y8010315D01*
X-42008492Y8003896D01*
X-41971286Y7994909D01*
X-41937180Y7983355D01*
X-41906174Y7969233D01*
X-41878269Y7952543D01*
X-41853465Y7933286D01*
X-41828787Y7908830D01*
X-41807906Y7881526D01*
X-41790822Y7851375D01*
X-41777534Y7818376D01*
X-41768042Y7782530D01*
X-41762347Y7743837D01*
X-41760449Y7702296D01*
X-41761902Y7664992D01*
X-41766262Y7629045D01*
X-41773529Y7594454D01*
X-41783703Y7561221D01*
X-41796105Y7530506D01*
X-41811608Y7501923D01*
X-41830211Y7475471D01*
X-41851915Y7451151D01*
X-41876816Y7429157D01*
X-41905012Y7409681D01*
X-41782152Y7145747D01*
X-41749209Y7158235D01*
X-41717557Y7171929D01*
X-41687198Y7186829D01*
X-41658130Y7202935D01*
X-41630354Y7220246D01*
X-41603870Y7238763D01*
X-41573857Y7262948D01*
X-41545828Y7288372D01*
X-41519783Y7315037D01*
X-41495723Y7342942D01*
X-41473647Y7372087D01*
X-41452998Y7403030D01*
X-41434457Y7435090D01*
X-41418024Y7468266D01*
X-41403700Y7502558D01*
X-41391483Y7537966D01*
X-41381437Y7574925D01*
X-41373624Y7612628D01*
X-41368043Y7651074D01*
X-41364695Y7690265D01*
X-41363578Y7730200D01*
X-41364464Y7767407D01*
X-41367122Y7803727D01*
X-41371552Y7839162D01*
X-41377753Y7873711D01*
X-41385726Y7907374D01*
X-41395470Y7940151D01*
X-41406986Y7972043D01*
X-41422877Y8007871D01*
X-41441609Y8041977D01*
X-41463184Y8074361D01*
X-41487601Y8105022D01*
X-41514860Y8133960D01*
X-41544961Y8161176D01*
X-41572644Y8183038D01*
X-41602542Y8203445D01*
X-41634655Y8222396D01*
X-41668983Y8239892D01*
X-41705525Y8255933D01*
X-41744282Y8270518D01*
X-41785253Y8283648D01*
X-41818709Y8293083D01*
X-41853618Y8301409D01*
X-41889983Y8308624D01*
X-41927802Y8314730D01*
X-41967075Y8319725D01*
X-42007804Y8323610D01*
X-42049986Y8326386D01*
X-42093624Y8328051D01*
X-42138716Y8328606D01*
X-42758825Y8328606D01*
X-42758825Y6269842D01*
X-42349553Y6269842D01*
X-42349553Y7062032D01*
G37*
X-42349553Y7062032D02*
X-42211578Y7062032D01*
X-42179195Y7060309D01*
X-42152324Y7055142D01*
X-42130964Y7046530D01*
X-42103059Y7025601D01*
X-42078255Y6993820D01*
X-41703088Y6352007D01*
X-41680206Y6322428D01*
X-41653728Y6299422D01*
X-41623652Y6282989D01*
X-41589980Y6273129D01*
X-41552712Y6269843D01*
X-41185297Y6269843D01*
X-41645728Y7020174D01*
X-41665881Y7047563D01*
X-41687068Y7071850D01*
X-41709289Y7093038D01*
X-41732543Y7112674D01*
X-41756831Y7130244D01*
X-41782152Y7145747D01*
X-41905012Y7409681D01*
X-41936502Y7392725D01*
X-41971286Y7378288D01*
X-42000927Y7368800D01*
X-42032801Y7361421D01*
X-42066907Y7356150D01*
X-42103245Y7352988D01*
X-42141816Y7351933D01*
X-42349553Y7351933D01*
X-42349553Y8015450D01*
X-42138715Y8015450D01*
X-42092207Y8014167D01*
X-42048799Y8010315D01*
X-42008492Y8003896D01*
X-41971286Y7994909D01*
X-41937180Y7983355D01*
X-41906174Y7969233D01*
X-41878269Y7952543D01*
X-41853465Y7933286D01*
X-41828787Y7908830D01*
X-41807906Y7881526D01*
X-41790822Y7851375D01*
X-41777534Y7818376D01*
X-41768042Y7782530D01*
X-41762347Y7743837D01*
X-41760449Y7702296D01*
X-41761902Y7664992D01*
X-41766262Y7629045D01*
X-41773529Y7594454D01*
X-41783703Y7561221D01*
X-41796105Y7530506D01*
X-41811608Y7501923D01*
X-41830211Y7475471D01*
X-41851915Y7451151D01*
X-41876816Y7429157D01*
X-41905012Y7409681D01*
X-41782152Y7145747D01*
X-41749209Y7158235D01*
X-41717557Y7171929D01*
X-41687198Y7186829D01*
X-41658130Y7202935D01*
X-41630354Y7220246D01*
X-41603870Y7238763D01*
X-41573857Y7262948D01*
X-41545828Y7288372D01*
X-41519783Y7315037D01*
X-41495723Y7342942D01*
X-41473647Y7372087D01*
X-41452998Y7403030D01*
X-41434457Y7435090D01*
X-41418024Y7468266D01*
X-41403700Y7502558D01*
X-41391483Y7537966D01*
X-41381437Y7574925D01*
X-41373624Y7612628D01*
X-41368043Y7651074D01*
X-41364695Y7690265D01*
X-41363578Y7730200D01*
X-41364464Y7767407D01*
X-41367122Y7803727D01*
X-41371552Y7839162D01*
X-41377753Y7873711D01*
X-41385726Y7907374D01*
X-41395470Y7940151D01*
X-41406986Y7972043D01*
X-41422877Y8007871D01*
X-41441609Y8041977D01*
X-41463184Y8074361D01*
X-41487601Y8105022D01*
X-41514860Y8133960D01*
X-41544961Y8161176D01*
X-41572644Y8183038D01*
X-41602542Y8203445D01*
X-41634655Y8222396D01*
X-41668983Y8239892D01*
X-41705525Y8255933D01*
X-41744282Y8270518D01*
X-41785253Y8283648D01*
X-41818709Y8293083D01*
X-41853618Y8301409D01*
X-41889983Y8308624D01*
X-41927802Y8314730D01*
X-41967075Y8319725D01*
X-42007804Y8323610D01*
X-42049986Y8326386D01*
X-42093624Y8328051D01*
X-42138716Y8328606D01*
X-42758825Y8328606D01*
X-42758825Y6269842D01*
X-42349553Y6269842D01*
X-42349553Y7062032D01*
G36*
X-43051827Y8328606D02*
G01*
X-44307548Y8328606D01*
X-44307548Y6269842D01*
X-43051827Y6269842D01*
X-43050277Y6593850D01*
X-43898276Y6593850D01*
X-43898276Y7148848D01*
X-43239410Y7148848D01*
X-43239410Y7460453D01*
X-43898276Y7460453D01*
X-43898276Y8004599D01*
X-43051827Y8004599D01*
X-43051827Y8328606D01*
G37*
X-43051827Y8328606D02*
X-44307548Y8328606D01*
X-44307548Y6269842D01*
X-43051827Y6269842D01*
X-43050277Y6593850D01*
X-43898276Y6593850D01*
X-43898276Y7148848D01*
X-43239410Y7148848D01*
X-43239410Y7460453D01*
X-43898276Y7460453D01*
X-43898276Y8004599D01*
X-43051827Y8004599D01*
X-43051827Y8328606D01*
G36*
X-44718371Y7941037D02*
G01*
X-44614501Y8133271D01*
X-44641945Y8158512D01*
X-44670795Y8182299D01*
X-44701050Y8204633D01*
X-44732709Y8225513D01*
X-44765773Y8244940D01*
X-44800243Y8262913D01*
X-44836117Y8279433D01*
X-44873396Y8294500D01*
X-44907139Y8306539D01*
X-44941532Y8317161D01*
X-44976576Y8326367D01*
X-45012270Y8334156D01*
X-45048616Y8340530D01*
X-45085612Y8345487D01*
X-45123258Y8349027D01*
X-45161556Y8351152D01*
X-45200504Y8351860D01*
X-45239116Y8351061D01*
X-45276661Y8348663D01*
X-45313141Y8344666D01*
X-45348555Y8339070D01*
X-45382903Y8331876D01*
X-45416186Y8323083D01*
X-45448402Y8312691D01*
X-45479553Y8300701D01*
X-45513343Y8285831D01*
X-45545614Y8269569D01*
X-45576366Y8251915D01*
X-45605600Y8232869D01*
X-45633315Y8212430D01*
X-45659512Y8190600D01*
X-45684189Y8167378D01*
X-45710975Y8138784D01*
X-45735521Y8108812D01*
X-45757827Y8077462D01*
X-45777895Y8044734D01*
X-45795723Y8010628D01*
X-45811312Y7975144D01*
X-45824575Y7939315D01*
X-45835427Y7903142D01*
X-45843868Y7866624D01*
X-45849897Y7829762D01*
X-45853514Y7792556D01*
X-45854720Y7755005D01*
X-45853961Y7715204D01*
X-45851683Y7677301D01*
X-45847886Y7641297D01*
X-45842571Y7607191D01*
X-45835737Y7574983D01*
X-45827385Y7544674D01*
X-45817514Y7516263D01*
X-45801081Y7479056D01*
X-45782788Y7444330D01*
X-45762634Y7412084D01*
X-45740620Y7382319D01*
X-45716746Y7355034D01*
X-45691259Y7329982D01*
X-45664409Y7306914D01*
X-45636194Y7285830D01*
X-45606614Y7266731D01*
X-45575671Y7249616D01*
X-45543363Y7234547D01*
X-45510932Y7220346D01*
X-45478376Y7207014D01*
X-45445696Y7194550D01*
X-45412892Y7182954D01*
X-45379593Y7171916D01*
X-45346665Y7161126D01*
X-45314109Y7150584D01*
X-45281925Y7140290D01*
X-45250114Y7130245D01*
X-45210969Y7117939D01*
X-45174150Y7104277D01*
X-45139657Y7089259D01*
X-45107489Y7072884D01*
X-45078033Y7055541D01*
X-45051679Y7036066D01*
X-45028424Y7014459D01*
X-45008271Y6990721D01*
X-44991315Y6964076D01*
X-44979204Y6933749D01*
X-44971937Y6899739D01*
X-44969515Y6862048D01*
X-44971668Y6817435D01*
X-44978127Y6776611D01*
X-44988893Y6739577D01*
X-45003965Y6706332D01*
X-45023344Y6676877D01*
X-45047029Y6651211D01*
X-45074589Y6629421D01*
X-45105595Y6611593D01*
X-45140045Y6597726D01*
X-45177941Y6587822D01*
X-45219281Y6581879D01*
X-45264067Y6579898D01*
X-45301459Y6581014D01*
X-45336744Y6584363D01*
X-45369920Y6589944D01*
X-45400987Y6597757D01*
X-45429946Y6607803D01*
X-45463762Y6622821D01*
X-45495446Y6638421D01*
X-45524998Y6654602D01*
X-45552418Y6671364D01*
X-45586179Y6694274D01*
X-45617184Y6715461D01*
X-45645434Y6734925D01*
X-45671099Y6751289D01*
X-45696421Y6761108D01*
X-45721398Y6764380D01*
X-45748527Y6760892D01*
X-45774107Y6750428D01*
X-45795035Y6734150D01*
X-45811313Y6713221D01*
X-45846391Y6658426D01*
X-45875112Y6612940D01*
X-45895423Y6574484D01*
X-45905269Y6540776D01*
X-45902594Y6509537D01*
X-45885346Y6478484D01*
X-45851470Y6445338D01*
X-45798911Y6407817D01*
X-45768153Y6388532D01*
X-45736652Y6370363D01*
X-45704406Y6353310D01*
X-45671416Y6337373D01*
X-45637682Y6322552D01*
X-45603328Y6308972D01*
X-45568478Y6296756D01*
X-45533132Y6285904D01*
X-45497290Y6276417D01*
X-45460952Y6268294D01*
X-45423745Y6261040D01*
X-45386539Y6255396D01*
X-45349332Y6251365D01*
X-45312126Y6248947D01*
X-45274919Y6248140D01*
X-45234418Y6248964D01*
X-45195080Y6251435D01*
X-45156905Y6255553D01*
X-45119892Y6261318D01*
X-45084042Y6268730D01*
X-45049354Y6277789D01*
X-45015830Y6288496D01*
X-44983468Y6300850D01*
X-44947527Y6316669D01*
X-44913231Y6334006D01*
X-44880580Y6352863D01*
X-44849575Y6373238D01*
X-44820214Y6395132D01*
X-44792499Y6418544D01*
X-44766429Y6443475D01*
X-44742068Y6470241D01*
X-44719478Y6498272D01*
X-44698660Y6527569D01*
X-44679614Y6558132D01*
X-44662340Y6589960D01*
X-44646837Y6623053D01*
X-44633106Y6657412D01*
X-44620767Y6692752D01*
X-44610327Y6728788D01*
X-44601784Y6765520D01*
X-44595140Y6802948D01*
X-44590395Y6841072D01*
X-44587547Y6879893D01*
X-44586598Y6919409D01*
X-44587674Y6961223D01*
X-44590904Y7000884D01*
X-44596287Y7038392D01*
X-44603823Y7073747D01*
X-44613512Y7106949D01*
X-44625355Y7137997D01*
X-44641292Y7172847D01*
X-44659337Y7205465D01*
X-44679491Y7235851D01*
X-44701752Y7264004D01*
X-44726123Y7289924D01*
X-44751671Y7313860D01*
X-44778708Y7336060D01*
X-44807233Y7356524D01*
X-44837246Y7375251D01*
X-44868748Y7392242D01*
X-44900559Y7408489D01*
X-44932743Y7423744D01*
X-44965299Y7438006D01*
X-44998227Y7451276D01*
X-45031527Y7463554D01*
X-45064888Y7475771D01*
X-45098002Y7487615D01*
X-45130868Y7499087D01*
X-45163486Y7510186D01*
X-45195856Y7520914D01*
X-45234419Y7534479D01*
X-45271044Y7548819D01*
X-45305731Y7563934D01*
X-45338481Y7579825D01*
X-45368033Y7597556D01*
X-45394678Y7616644D01*
X-45418417Y7637088D01*
X-45439249Y7658889D01*
X-45455526Y7683596D01*
X-45467153Y7711211D01*
X-45474129Y7741732D01*
X-45476455Y7775159D01*
X-45473664Y7817513D01*
X-45465292Y7856518D01*
X-45451340Y7892174D01*
X-45431806Y7924482D01*
X-45406692Y7953441D01*
X-45381026Y7974283D01*
X-45351571Y7991336D01*
X-45318326Y8004599D01*
X-45281291Y8014073D01*
X-45240468Y8019758D01*
X-45195854Y8021653D01*
X-45157485Y8020296D01*
X-45121441Y8016227D01*
X-45087723Y8009444D01*
X-45056330Y7999949D01*
X-45017745Y7984962D01*
X-44982606Y7968943D01*
X-44950911Y7951890D01*
X-44921284Y7935698D01*
X-44894412Y7920195D01*
X-44870297Y7905381D01*
X-44837354Y7889104D01*
X-44806736Y7883677D01*
X-44778444Y7886778D01*
X-44755577Y7896079D01*
X-44735424Y7914295D01*
X-44718371Y7941037D01*
G37*
X-44718371Y7941037D02*
X-44614501Y8133271D01*
X-44641945Y8158512D01*
X-44670795Y8182299D01*
X-44701050Y8204633D01*
X-44732709Y8225513D01*
X-44765773Y8244940D01*
X-44800243Y8262913D01*
X-44836117Y8279433D01*
X-44873396Y8294500D01*
X-44907139Y8306539D01*
X-44941532Y8317161D01*
X-44976576Y8326367D01*
X-45012270Y8334156D01*
X-45048616Y8340530D01*
X-45085612Y8345487D01*
X-45123258Y8349027D01*
X-45161556Y8351152D01*
X-45200504Y8351860D01*
X-45239116Y8351061D01*
X-45276661Y8348663D01*
X-45313141Y8344666D01*
X-45348555Y8339070D01*
X-45382903Y8331876D01*
X-45416186Y8323083D01*
X-45448402Y8312691D01*
X-45479553Y8300701D01*
X-45513343Y8285831D01*
X-45545614Y8269569D01*
X-45576366Y8251915D01*
X-45605600Y8232869D01*
X-45633315Y8212430D01*
X-45659512Y8190600D01*
X-45684189Y8167378D01*
X-45710975Y8138784D01*
X-45735521Y8108812D01*
X-45757827Y8077462D01*
X-45777895Y8044734D01*
X-45795723Y8010628D01*
X-45811312Y7975144D01*
X-45824575Y7939315D01*
X-45835427Y7903142D01*
X-45843868Y7866624D01*
X-45849897Y7829762D01*
X-45853514Y7792556D01*
X-45854720Y7755005D01*
X-45853961Y7715204D01*
X-45851683Y7677301D01*
X-45847886Y7641297D01*
X-45842571Y7607191D01*
X-45835737Y7574983D01*
X-45827385Y7544674D01*
X-45817514Y7516263D01*
X-45801081Y7479056D01*
X-45782788Y7444330D01*
X-45762634Y7412084D01*
X-45740620Y7382319D01*
X-45716746Y7355034D01*
X-45691259Y7329982D01*
X-45664409Y7306914D01*
X-45636194Y7285830D01*
X-45606614Y7266731D01*
X-45575671Y7249616D01*
X-45543363Y7234547D01*
X-45510932Y7220346D01*
X-45478376Y7207014D01*
X-45445696Y7194550D01*
X-45412892Y7182954D01*
X-45379593Y7171916D01*
X-45346665Y7161126D01*
X-45314109Y7150584D01*
X-45281925Y7140290D01*
X-45250114Y7130245D01*
X-45210969Y7117939D01*
X-45174150Y7104277D01*
X-45139657Y7089259D01*
X-45107489Y7072884D01*
X-45078033Y7055541D01*
X-45051679Y7036066D01*
X-45028424Y7014459D01*
X-45008271Y6990721D01*
X-44991315Y6964076D01*
X-44979204Y6933749D01*
X-44971937Y6899739D01*
X-44969515Y6862048D01*
X-44971668Y6817435D01*
X-44978127Y6776611D01*
X-44988893Y6739577D01*
X-45003965Y6706332D01*
X-45023344Y6676877D01*
X-45047029Y6651211D01*
X-45074589Y6629421D01*
X-45105595Y6611593D01*
X-45140045Y6597726D01*
X-45177941Y6587822D01*
X-45219281Y6581879D01*
X-45264067Y6579898D01*
X-45301459Y6581014D01*
X-45336744Y6584363D01*
X-45369920Y6589944D01*
X-45400987Y6597757D01*
X-45429946Y6607803D01*
X-45463762Y6622821D01*
X-45495446Y6638421D01*
X-45524998Y6654602D01*
X-45552418Y6671364D01*
X-45586179Y6694274D01*
X-45617184Y6715461D01*
X-45645434Y6734925D01*
X-45671099Y6751289D01*
X-45696421Y6761108D01*
X-45721398Y6764380D01*
X-45748527Y6760892D01*
X-45774107Y6750428D01*
X-45795035Y6734150D01*
X-45811313Y6713221D01*
X-45846391Y6658426D01*
X-45875112Y6612940D01*
X-45895423Y6574484D01*
X-45905269Y6540776D01*
X-45902594Y6509537D01*
X-45885346Y6478484D01*
X-45851470Y6445338D01*
X-45798911Y6407817D01*
X-45768153Y6388532D01*
X-45736652Y6370363D01*
X-45704406Y6353310D01*
X-45671416Y6337373D01*
X-45637682Y6322552D01*
X-45603328Y6308972D01*
X-45568478Y6296756D01*
X-45533132Y6285904D01*
X-45497290Y6276417D01*
X-45460952Y6268294D01*
X-45423745Y6261040D01*
X-45386539Y6255396D01*
X-45349332Y6251365D01*
X-45312126Y6248947D01*
X-45274919Y6248140D01*
X-45234418Y6248964D01*
X-45195080Y6251435D01*
X-45156905Y6255553D01*
X-45119892Y6261318D01*
X-45084042Y6268730D01*
X-45049354Y6277789D01*
X-45015830Y6288496D01*
X-44983468Y6300850D01*
X-44947527Y6316669D01*
X-44913231Y6334006D01*
X-44880580Y6352863D01*
X-44849575Y6373238D01*
X-44820214Y6395132D01*
X-44792499Y6418544D01*
X-44766429Y6443475D01*
X-44742068Y6470241D01*
X-44719478Y6498272D01*
X-44698660Y6527569D01*
X-44679614Y6558132D01*
X-44662340Y6589960D01*
X-44646837Y6623053D01*
X-44633106Y6657412D01*
X-44620767Y6692752D01*
X-44610327Y6728788D01*
X-44601784Y6765520D01*
X-44595140Y6802948D01*
X-44590395Y6841072D01*
X-44587547Y6879893D01*
X-44586598Y6919409D01*
X-44587674Y6961223D01*
X-44590904Y7000884D01*
X-44596287Y7038392D01*
X-44603823Y7073747D01*
X-44613512Y7106949D01*
X-44625355Y7137997D01*
X-44641292Y7172847D01*
X-44659337Y7205465D01*
X-44679491Y7235851D01*
X-44701752Y7264004D01*
X-44726123Y7289924D01*
X-44751671Y7313860D01*
X-44778708Y7336060D01*
X-44807233Y7356524D01*
X-44837246Y7375251D01*
X-44868748Y7392242D01*
X-44900559Y7408489D01*
X-44932743Y7423744D01*
X-44965299Y7438006D01*
X-44998227Y7451276D01*
X-45031527Y7463554D01*
X-45064888Y7475771D01*
X-45098002Y7487615D01*
X-45130868Y7499087D01*
X-45163486Y7510186D01*
X-45195856Y7520914D01*
X-45234419Y7534479D01*
X-45271044Y7548819D01*
X-45305731Y7563934D01*
X-45338481Y7579825D01*
X-45368033Y7597556D01*
X-45394678Y7616644D01*
X-45418417Y7637088D01*
X-45439249Y7658889D01*
X-45455526Y7683596D01*
X-45467153Y7711211D01*
X-45474129Y7741732D01*
X-45476455Y7775159D01*
X-45473664Y7817513D01*
X-45465292Y7856518D01*
X-45451340Y7892174D01*
X-45431806Y7924482D01*
X-45406692Y7953441D01*
X-45381026Y7974283D01*
X-45351571Y7991336D01*
X-45318326Y8004599D01*
X-45281291Y8014073D01*
X-45240468Y8019758D01*
X-45195854Y8021653D01*
X-45157485Y8020296D01*
X-45121441Y8016227D01*
X-45087723Y8009444D01*
X-45056330Y7999949D01*
X-45017745Y7984962D01*
X-44982606Y7968943D01*
X-44950911Y7951890D01*
X-44921284Y7935698D01*
X-44894412Y7920195D01*
X-44870297Y7905381D01*
X-44837354Y7889104D01*
X-44806736Y7883677D01*
X-44778444Y7886778D01*
X-44755577Y7896079D01*
X-44735424Y7914295D01*
X-44718371Y7941037D01*
G36*
X-22441292Y31484409D02*
G01*
X-20985507Y32940194D01*
X-21274909Y33229596D01*
X-21896468Y32608037D01*
X-22486237Y33197806D01*
X-21864678Y33819365D01*
X-22154081Y34108768D01*
X-23609866Y32652983D01*
X-23320463Y32363580D01*
X-22690135Y32993908D01*
X-22100366Y32404140D01*
X-22730694Y31773811D01*
X-22441292Y31484409D01*
G37*
X-22441292Y31484409D02*
X-20985507Y32940194D01*
X-21274909Y33229596D01*
X-21896468Y32608037D01*
X-22486237Y33197806D01*
X-21864678Y33819365D01*
X-22154081Y34108768D01*
X-23609866Y32652983D01*
X-23320463Y32363580D01*
X-22690135Y32993908D01*
X-22100366Y32404140D01*
X-22730694Y31773811D01*
X-22441292Y31484409D01*
G36*
X-22713155Y34119731D02*
G01*
X-22503775Y34182216D01*
X-22505333Y34219471D01*
X-22508913Y34256691D01*
X-22514514Y34293877D01*
X-22522136Y34331029D01*
X-22531780Y34368146D01*
X-22543444Y34405230D01*
X-22557129Y34442278D01*
X-22572836Y34479293D01*
X-22588183Y34511665D01*
X-22604992Y34543496D01*
X-22623262Y34574786D01*
X-22642994Y34605534D01*
X-22664188Y34635741D01*
X-22686844Y34665407D01*
X-22710960Y34694531D01*
X-22736539Y34723115D01*
X-22763579Y34751156D01*
X-22791448Y34777894D01*
X-22819692Y34802747D01*
X-22848315Y34825717D01*
X-22877313Y34846801D01*
X-22906688Y34866003D01*
X-22936441Y34883320D01*
X-22966570Y34898752D01*
X-22997075Y34912301D01*
X-23031483Y34925680D01*
X-23065802Y34937000D01*
X-23100031Y34946262D01*
X-23134170Y34953466D01*
X-23168220Y34958611D01*
X-23202181Y34961698D01*
X-23236052Y34962727D01*
X-23275212Y34961449D01*
X-23313762Y34957612D01*
X-23351704Y34951217D01*
X-23389036Y34942265D01*
X-23425761Y34930754D01*
X-23461875Y34916687D01*
X-23496588Y34900730D01*
X-23529840Y34882825D01*
X-23561631Y34862971D01*
X-23591960Y34841169D01*
X-23620827Y34817417D01*
X-23648233Y34791717D01*
X-23675840Y34763036D01*
X-23701031Y34734624D01*
X-23723805Y34706479D01*
X-23744164Y34678604D01*
X-23762106Y34650998D01*
X-23777632Y34623659D01*
X-23790742Y34596589D01*
X-23805432Y34558659D01*
X-23817051Y34521169D01*
X-23825603Y34484116D01*
X-23831083Y34447503D01*
X-23833495Y34411327D01*
X-23833188Y34375590D01*
X-23830513Y34340291D01*
X-23825471Y34305432D01*
X-23818060Y34271010D01*
X-23808281Y34237028D01*
X-23796091Y34203527D01*
X-23783200Y34170552D01*
X-23769607Y34138105D01*
X-23755312Y34106183D01*
X-23740316Y34074786D01*
X-23724574Y34043434D01*
X-23708919Y34012520D01*
X-23693353Y33982046D01*
X-23677875Y33952009D01*
X-23662484Y33922411D01*
X-23643505Y33886030D01*
X-23627130Y33850334D01*
X-23613359Y33815323D01*
X-23602191Y33780998D01*
X-23593627Y33747906D01*
X-23588762Y33715499D01*
X-23587597Y33683776D01*
X-23590132Y33652740D01*
X-23596984Y33621908D01*
X-23609864Y33591899D01*
X-23628773Y33562711D01*
X-23653712Y33534346D01*
X-23686781Y33504321D01*
X-23720216Y33480022D01*
X-23754016Y33461447D01*
X-23788182Y33448598D01*
X-23822713Y33441472D01*
X-23857610Y33440071D01*
X-23892506Y33444152D01*
X-23927038Y33453469D01*
X-23961203Y33468025D01*
X-23995003Y33487818D01*
X-24028438Y33512848D01*
X-24061508Y33543115D01*
X-24087159Y33570345D01*
X-24109741Y33597664D01*
X-24129255Y33625070D01*
X-24145698Y33652563D01*
X-24159072Y33680143D01*
X-24172363Y33714675D01*
X-24183737Y33748110D01*
X-24193192Y33780449D01*
X-24200728Y33811690D01*
X-24208402Y33851763D01*
X-24215345Y33888669D01*
X-24221557Y33922409D01*
X-24228134Y33952129D01*
X-24239097Y33976977D01*
X-24254443Y33996952D01*
X-24276094Y34013670D01*
X-24301582Y34024358D01*
X-24327890Y34027646D01*
X-24354200Y34024357D01*
X-24576733Y33972835D01*
X-24577172Y33938896D01*
X-24575856Y33904606D01*
X-24572787Y33869966D01*
X-24567964Y33834974D01*
X-24561386Y33799632D01*
X-24553274Y33764245D01*
X-24543846Y33729123D01*
X-24533103Y33694263D01*
X-24521046Y33659666D01*
X-24507671Y33625332D01*
X-24492981Y33591436D01*
X-24476976Y33558155D01*
X-24459655Y33525487D01*
X-24441020Y33493433D01*
X-24421070Y33461995D01*
X-24399890Y33430556D01*
X-24377570Y33400256D01*
X-24354111Y33371096D01*
X-24329512Y33343076D01*
X-24303774Y33316196D01*
X-24274552Y33288140D01*
X-24244988Y33262071D01*
X-24215082Y33237988D01*
X-24184833Y33215893D01*
X-24154242Y33195783D01*
X-24123307Y33177661D01*
X-24092030Y33161527D01*
X-24060412Y33147378D01*
X-24023811Y33133150D01*
X-23987300Y33121159D01*
X-23950879Y33111404D01*
X-23914547Y33103888D01*
X-23878305Y33098608D01*
X-23842152Y33095566D01*
X-23806088Y33094760D01*
X-23769936Y33096461D01*
X-23734140Y33100308D01*
X-23698703Y33106304D01*
X-23663623Y33114447D01*
X-23628902Y33124737D01*
X-23594539Y33137176D01*
X-23560534Y33151762D01*
X-23526820Y33168028D01*
X-23493956Y33186126D01*
X-23461942Y33206060D01*
X-23430778Y33227828D01*
X-23400464Y33251430D01*
X-23371001Y33276867D01*
X-23342387Y33304139D01*
X-23313580Y33334467D01*
X-23287820Y33364797D01*
X-23265104Y33395126D01*
X-23245433Y33425456D01*
X-23228807Y33455785D01*
X-23215227Y33486114D01*
X-23201852Y33522026D01*
X-23191548Y33557851D01*
X-23184313Y33593588D01*
X-23180147Y33629237D01*
X-23179051Y33664799D01*
X-23180192Y33699790D01*
X-23183610Y33734606D01*
X-23189312Y33769246D01*
X-23197292Y33803711D01*
X-23207553Y33838002D01*
X-23218559Y33871984D01*
X-23230530Y33905530D01*
X-23243466Y33938636D01*
X-23257366Y33971304D01*
X-23272230Y34003532D01*
X-23287182Y34035760D01*
X-23302222Y34067551D01*
X-23317350Y34098903D01*
X-23332566Y34129817D01*
X-23347870Y34160292D01*
X-23365546Y34197152D01*
X-23381304Y34233190D01*
X-23395144Y34268407D01*
X-23407066Y34302801D01*
X-23415423Y34336235D01*
X-23420768Y34368574D01*
X-23423098Y34399816D01*
X-23422412Y34429962D01*
X-23416451Y34458944D01*
X-23405147Y34486691D01*
X-23388498Y34513207D01*
X-23366506Y34538489D01*
X-23334584Y34566465D01*
X-23301082Y34588126D01*
X-23266003Y34603473D01*
X-23229345Y34612505D01*
X-23191109Y34615224D01*
X-23158222Y34611813D01*
X-23125336Y34603044D01*
X-23092449Y34588915D01*
X-23059562Y34569426D01*
X-23026675Y34544578D01*
X-22993789Y34514372D01*
X-22967615Y34486280D01*
X-22945005Y34457914D01*
X-22925958Y34429276D01*
X-22910476Y34400364D01*
X-22893786Y34362482D01*
X-22880267Y34326307D01*
X-22869915Y34291838D01*
X-22860412Y34259436D01*
X-22852373Y34229473D01*
X-22845799Y34201948D01*
X-22834012Y34167142D01*
X-22816200Y34141655D01*
X-22794002Y34123841D01*
X-22771256Y34114250D01*
X-22744124Y34112880D01*
X-22713155Y34119731D01*
G37*
X-22713155Y34119731D02*
X-22503775Y34182216D01*
X-22505333Y34219471D01*
X-22508913Y34256691D01*
X-22514514Y34293877D01*
X-22522136Y34331029D01*
X-22531780Y34368146D01*
X-22543444Y34405230D01*
X-22557129Y34442278D01*
X-22572836Y34479293D01*
X-22588183Y34511665D01*
X-22604992Y34543496D01*
X-22623262Y34574786D01*
X-22642994Y34605534D01*
X-22664188Y34635741D01*
X-22686844Y34665407D01*
X-22710960Y34694531D01*
X-22736539Y34723115D01*
X-22763579Y34751156D01*
X-22791448Y34777894D01*
X-22819692Y34802747D01*
X-22848315Y34825717D01*
X-22877313Y34846801D01*
X-22906688Y34866003D01*
X-22936441Y34883320D01*
X-22966570Y34898752D01*
X-22997075Y34912301D01*
X-23031483Y34925680D01*
X-23065802Y34937000D01*
X-23100031Y34946262D01*
X-23134170Y34953466D01*
X-23168220Y34958611D01*
X-23202181Y34961698D01*
X-23236052Y34962727D01*
X-23275212Y34961449D01*
X-23313762Y34957612D01*
X-23351704Y34951217D01*
X-23389036Y34942265D01*
X-23425761Y34930754D01*
X-23461875Y34916687D01*
X-23496588Y34900730D01*
X-23529840Y34882825D01*
X-23561631Y34862971D01*
X-23591960Y34841169D01*
X-23620827Y34817417D01*
X-23648233Y34791717D01*
X-23675840Y34763036D01*
X-23701031Y34734624D01*
X-23723805Y34706479D01*
X-23744164Y34678604D01*
X-23762106Y34650998D01*
X-23777632Y34623659D01*
X-23790742Y34596589D01*
X-23805432Y34558659D01*
X-23817051Y34521169D01*
X-23825603Y34484116D01*
X-23831083Y34447503D01*
X-23833495Y34411327D01*
X-23833188Y34375590D01*
X-23830513Y34340291D01*
X-23825471Y34305432D01*
X-23818060Y34271010D01*
X-23808281Y34237028D01*
X-23796091Y34203527D01*
X-23783200Y34170552D01*
X-23769607Y34138105D01*
X-23755312Y34106183D01*
X-23740316Y34074786D01*
X-23724574Y34043434D01*
X-23708919Y34012520D01*
X-23693353Y33982046D01*
X-23677875Y33952009D01*
X-23662484Y33922411D01*
X-23643505Y33886030D01*
X-23627130Y33850334D01*
X-23613359Y33815323D01*
X-23602191Y33780998D01*
X-23593627Y33747906D01*
X-23588762Y33715499D01*
X-23587597Y33683776D01*
X-23590132Y33652740D01*
X-23596984Y33621908D01*
X-23609864Y33591899D01*
X-23628773Y33562711D01*
X-23653712Y33534346D01*
X-23686781Y33504321D01*
X-23720216Y33480022D01*
X-23754016Y33461447D01*
X-23788182Y33448598D01*
X-23822713Y33441472D01*
X-23857610Y33440071D01*
X-23892506Y33444152D01*
X-23927038Y33453469D01*
X-23961203Y33468025D01*
X-23995003Y33487818D01*
X-24028438Y33512848D01*
X-24061508Y33543115D01*
X-24087159Y33570345D01*
X-24109741Y33597664D01*
X-24129255Y33625070D01*
X-24145698Y33652563D01*
X-24159072Y33680143D01*
X-24172363Y33714675D01*
X-24183737Y33748110D01*
X-24193192Y33780449D01*
X-24200728Y33811690D01*
X-24208402Y33851763D01*
X-24215345Y33888669D01*
X-24221557Y33922409D01*
X-24228134Y33952129D01*
X-24239097Y33976977D01*
X-24254443Y33996952D01*
X-24276094Y34013670D01*
X-24301582Y34024358D01*
X-24327890Y34027646D01*
X-24354200Y34024357D01*
X-24576733Y33972835D01*
X-24577172Y33938896D01*
X-24575856Y33904606D01*
X-24572787Y33869966D01*
X-24567964Y33834974D01*
X-24561386Y33799632D01*
X-24553274Y33764245D01*
X-24543846Y33729123D01*
X-24533103Y33694263D01*
X-24521046Y33659666D01*
X-24507671Y33625332D01*
X-24492981Y33591436D01*
X-24476976Y33558155D01*
X-24459655Y33525487D01*
X-24441020Y33493433D01*
X-24421070Y33461995D01*
X-24399890Y33430556D01*
X-24377570Y33400256D01*
X-24354111Y33371096D01*
X-24329512Y33343076D01*
X-24303774Y33316196D01*
X-24274552Y33288140D01*
X-24244988Y33262071D01*
X-24215082Y33237988D01*
X-24184833Y33215893D01*
X-24154242Y33195783D01*
X-24123307Y33177661D01*
X-24092030Y33161527D01*
X-24060412Y33147378D01*
X-24023811Y33133150D01*
X-23987300Y33121159D01*
X-23950879Y33111404D01*
X-23914547Y33103888D01*
X-23878305Y33098608D01*
X-23842152Y33095566D01*
X-23806088Y33094760D01*
X-23769936Y33096461D01*
X-23734140Y33100308D01*
X-23698703Y33106304D01*
X-23663623Y33114447D01*
X-23628902Y33124737D01*
X-23594539Y33137176D01*
X-23560534Y33151762D01*
X-23526820Y33168028D01*
X-23493956Y33186126D01*
X-23461942Y33206060D01*
X-23430778Y33227828D01*
X-23400464Y33251430D01*
X-23371001Y33276867D01*
X-23342387Y33304139D01*
X-23313580Y33334467D01*
X-23287820Y33364797D01*
X-23265104Y33395126D01*
X-23245433Y33425456D01*
X-23228807Y33455785D01*
X-23215227Y33486114D01*
X-23201852Y33522026D01*
X-23191548Y33557851D01*
X-23184313Y33593588D01*
X-23180147Y33629237D01*
X-23179051Y33664799D01*
X-23180192Y33699790D01*
X-23183610Y33734606D01*
X-23189312Y33769246D01*
X-23197292Y33803711D01*
X-23207553Y33838002D01*
X-23218559Y33871984D01*
X-23230530Y33905530D01*
X-23243466Y33938636D01*
X-23257366Y33971304D01*
X-23272230Y34003532D01*
X-23287182Y34035760D01*
X-23302222Y34067551D01*
X-23317350Y34098903D01*
X-23332566Y34129817D01*
X-23347870Y34160292D01*
X-23365546Y34197152D01*
X-23381304Y34233190D01*
X-23395144Y34268407D01*
X-23407066Y34302801D01*
X-23415423Y34336235D01*
X-23420768Y34368574D01*
X-23423098Y34399816D01*
X-23422412Y34429962D01*
X-23416451Y34458944D01*
X-23405147Y34486691D01*
X-23388498Y34513207D01*
X-23366506Y34538489D01*
X-23334584Y34566465D01*
X-23301082Y34588126D01*
X-23266003Y34603473D01*
X-23229345Y34612505D01*
X-23191109Y34615224D01*
X-23158222Y34611813D01*
X-23125336Y34603044D01*
X-23092449Y34588915D01*
X-23059562Y34569426D01*
X-23026675Y34544578D01*
X-22993789Y34514372D01*
X-22967615Y34486280D01*
X-22945005Y34457914D01*
X-22925958Y34429276D01*
X-22910476Y34400364D01*
X-22893786Y34362482D01*
X-22880267Y34326307D01*
X-22869915Y34291838D01*
X-22860412Y34259436D01*
X-22852373Y34229473D01*
X-22845799Y34201948D01*
X-22834012Y34167142D01*
X-22816200Y34141655D01*
X-22794002Y34123841D01*
X-22771256Y34114250D01*
X-22744124Y34112880D01*
X-22713155Y34119731D01*
G36*
X-24795981Y33839098D02*
G01*
X-23870767Y35825455D01*
X-24164556Y36119244D01*
X-26150913Y35194030D01*
X-25926188Y34969304D01*
X-25901219Y34948720D01*
X-25874544Y34935200D01*
X-25846164Y34928744D01*
X-25803412Y34929293D01*
X-25767236Y34939706D01*
X-25391231Y35133739D01*
X-25124848Y35270766D01*
X-24517539Y35582093D01*
X-24485262Y35597806D01*
X-24449817Y35615710D01*
X-24411206Y35635808D01*
X-24380648Y35652252D01*
X-24349270Y35669791D01*
X-24317068Y35688427D01*
X-24284044Y35708159D01*
X-24303297Y35674656D01*
X-24321591Y35642112D01*
X-24338925Y35610527D01*
X-24355299Y35579901D01*
X-24374666Y35541777D01*
X-24391840Y35506333D01*
X-24406822Y35473568D01*
X-24719246Y34865163D01*
X-25124848Y35270766D01*
X-25391231Y35133739D01*
X-24855177Y34597685D01*
X-25049210Y34219487D01*
X-25057858Y34193543D01*
X-25061877Y34166868D01*
X-25061268Y34139463D01*
X-25053959Y34112667D01*
X-25039343Y34086357D01*
X-25017418Y34060535D01*
X-24795981Y33839098D01*
G37*
X-24795981Y33839098D02*
X-23870767Y35825455D01*
X-24164556Y36119244D01*
X-26150913Y35194030D01*
X-25926188Y34969304D01*
X-25901219Y34948720D01*
X-25874544Y34935200D01*
X-25846164Y34928744D01*
X-25803412Y34929293D01*
X-25767236Y34939706D01*
X-25391231Y35133739D01*
X-25124848Y35270766D01*
X-24517539Y35582093D01*
X-24485262Y35597806D01*
X-24449817Y35615710D01*
X-24411206Y35635808D01*
X-24380648Y35652252D01*
X-24349270Y35669791D01*
X-24317068Y35688427D01*
X-24284044Y35708159D01*
X-24303297Y35674656D01*
X-24321591Y35642112D01*
X-24338925Y35610527D01*
X-24355299Y35579901D01*
X-24374666Y35541777D01*
X-24391840Y35506333D01*
X-24406822Y35473568D01*
X-24719246Y34865163D01*
X-25124848Y35270766D01*
X-25391231Y35133739D01*
X-24855177Y34597685D01*
X-25049210Y34219487D01*
X-25057858Y34193543D01*
X-25061877Y34166868D01*
X-25061268Y34139463D01*
X-25053959Y34112667D01*
X-25039343Y34086357D01*
X-25017418Y34060535D01*
X-24795981Y33839098D01*
G36*
X-26461146Y35977830D02*
G01*
X-25242145Y37196832D01*
X-25530452Y37485139D01*
X-26986237Y36029354D01*
X-26192570Y35235687D01*
X-25955786Y35472471D01*
X-26461146Y35977830D01*
G37*
X-26461146Y35977830D02*
X-25242145Y37196832D01*
X-25530452Y37485139D01*
X-26986237Y36029354D01*
X-26192570Y35235687D01*
X-25955786Y35472471D01*
X-26461146Y35977830D01*
G36*
X-25703656Y37658342D02*
G01*
X-26559806Y38514493D01*
X-28015591Y37058708D01*
X-27726188Y36769305D01*
X-27140805Y37354688D01*
X-26666140Y36880023D01*
X-26437029Y37109134D01*
X-26911694Y37583799D01*
X-26499513Y37995980D01*
X-25932766Y37429232D01*
X-25703656Y37658342D01*
G37*
X-25703656Y37658342D02*
X-26559806Y38514493D01*
X-28015591Y37058708D01*
X-27726188Y36769305D01*
X-27140805Y37354688D01*
X-26666140Y36880023D01*
X-26437029Y37109134D01*
X-26911694Y37583799D01*
X-26499513Y37995980D01*
X-25932766Y37429232D01*
X-25703656Y37658342D01*
D12*
%TO.C,R4*%
X-17577500Y17245276D02*
X-17577500Y17754724D01*
X-18622500Y17245276D02*
X-18622500Y17754724D01*
D11*
%TO.C,*%
G36*
X32150732Y-16069708D02*
G01*
X30785598Y-18586592D01*
X31132004Y-18932998D01*
X32743496Y-17963300D01*
X32765740Y-17951115D01*
X32789608Y-17937958D01*
X32815119Y-17923836D01*
X32841586Y-17908736D01*
X32868380Y-17892659D01*
X32895503Y-17875611D01*
X32878292Y-17902563D01*
X32861725Y-17928871D01*
X32845814Y-17954532D01*
X32831844Y-17980187D01*
X32819173Y-18004545D01*
X32807814Y-18027618D01*
X31830840Y-19631833D01*
X32178709Y-19979702D01*
X34695648Y-18614624D01*
X34394552Y-18313528D01*
X34370253Y-18292517D01*
X34344126Y-18276256D01*
X34316171Y-18264746D01*
X34286389Y-18257989D01*
X34249028Y-18255712D01*
X34214915Y-18260578D01*
X34184078Y-18272604D01*
X32775039Y-19108587D01*
X32747545Y-19124393D01*
X32719136Y-19141112D01*
X32689813Y-19158742D01*
X32659574Y-19177284D01*
X32629240Y-19197375D01*
X32598173Y-19218195D01*
X32566382Y-19239753D01*
X32533875Y-19262056D01*
X32555340Y-19228711D01*
X32575894Y-19195916D01*
X32595535Y-19163670D01*
X32614263Y-19131973D01*
X32633262Y-19100911D01*
X32650800Y-19070582D01*
X32666877Y-19040985D01*
X32681494Y-19012119D01*
X33534234Y-17622760D01*
X33547715Y-17587518D01*
X33553075Y-17551950D01*
X33550313Y-17516057D01*
X33543920Y-17489200D01*
X33532042Y-17462708D01*
X33514684Y-17436582D01*
X33491845Y-17410822D01*
X33379300Y-17298276D01*
X33346656Y-17271478D01*
X33311090Y-17253451D01*
X33272599Y-17244198D01*
X33235083Y-17241767D01*
X33200490Y-17246153D01*
X33168824Y-17257350D01*
X31780958Y-18108660D01*
X31750724Y-18123371D01*
X31719940Y-18139724D01*
X31688608Y-18157719D01*
X31656724Y-18177357D01*
X31624936Y-18197457D01*
X31592417Y-18218286D01*
X31559166Y-18239845D01*
X31525181Y-18262132D01*
X31548087Y-18228173D01*
X31570035Y-18194990D01*
X31591021Y-18162583D01*
X31611050Y-18130953D01*
X31630119Y-18100099D01*
X31648229Y-18070020D01*
X31665379Y-18040719D01*
X31681569Y-18012194D01*
X32516139Y-16604665D01*
X32529617Y-16570720D01*
X32534976Y-16535153D01*
X32532219Y-16497963D01*
X32525187Y-16470467D01*
X32512853Y-16443519D01*
X32495220Y-16417118D01*
X32472290Y-16391266D01*
X32150732Y-16069708D01*
G37*
X32150732Y-16069708D02*
X30785598Y-18586592D01*
X31132004Y-18932998D01*
X32743496Y-17963300D01*
X32765740Y-17951115D01*
X32789608Y-17937958D01*
X32815119Y-17923836D01*
X32841586Y-17908736D01*
X32868380Y-17892659D01*
X32895503Y-17875611D01*
X32878292Y-17902563D01*
X32861725Y-17928871D01*
X32845814Y-17954532D01*
X32831844Y-17980187D01*
X32819173Y-18004545D01*
X32807814Y-18027618D01*
X31830840Y-19631833D01*
X32178709Y-19979702D01*
X34695648Y-18614624D01*
X34394552Y-18313528D01*
X34370253Y-18292517D01*
X34344126Y-18276256D01*
X34316171Y-18264746D01*
X34286389Y-18257989D01*
X34249028Y-18255712D01*
X34214915Y-18260578D01*
X34184078Y-18272604D01*
X32775039Y-19108587D01*
X32747545Y-19124393D01*
X32719136Y-19141112D01*
X32689813Y-19158742D01*
X32659574Y-19177284D01*
X32629240Y-19197375D01*
X32598173Y-19218195D01*
X32566382Y-19239753D01*
X32533875Y-19262056D01*
X32555340Y-19228711D01*
X32575894Y-19195916D01*
X32595535Y-19163670D01*
X32614263Y-19131973D01*
X32633262Y-19100911D01*
X32650800Y-19070582D01*
X32666877Y-19040985D01*
X32681494Y-19012119D01*
X33534234Y-17622760D01*
X33547715Y-17587518D01*
X33553075Y-17551950D01*
X33550313Y-17516057D01*
X33543920Y-17489200D01*
X33532042Y-17462708D01*
X33514684Y-17436582D01*
X33491845Y-17410822D01*
X33379300Y-17298276D01*
X33346656Y-17271478D01*
X33311090Y-17253451D01*
X33272599Y-17244198D01*
X33235083Y-17241767D01*
X33200490Y-17246153D01*
X33168824Y-17257350D01*
X31780958Y-18108660D01*
X31750724Y-18123371D01*
X31719940Y-18139724D01*
X31688608Y-18157719D01*
X31656724Y-18177357D01*
X31624936Y-18197457D01*
X31592417Y-18218286D01*
X31559166Y-18239845D01*
X31525181Y-18262132D01*
X31548087Y-18228173D01*
X31570035Y-18194990D01*
X31591021Y-18162583D01*
X31611050Y-18130953D01*
X31630119Y-18100099D01*
X31648229Y-18070020D01*
X31665379Y-18040719D01*
X31681569Y-18012194D01*
X32516139Y-16604665D01*
X32529617Y-16570720D01*
X32534976Y-16535153D01*
X32532219Y-16497963D01*
X32525187Y-16470467D01*
X32512853Y-16443519D01*
X32495220Y-16417118D01*
X32472290Y-16391266D01*
X32150732Y-16069708D01*
G36*
X34178666Y-21979660D02*
G01*
X35412280Y-19331186D01*
X35020563Y-18939470D01*
X32372091Y-20173085D01*
X32671725Y-20472718D01*
X32705019Y-20500165D01*
X32740585Y-20518192D01*
X32778424Y-20526798D01*
X32817400Y-20527772D01*
X32852479Y-20522900D01*
X32883661Y-20512183D01*
X33385001Y-20253475D01*
X33740177Y-20070772D01*
X34549917Y-19655666D01*
X34581798Y-19640229D01*
X34616055Y-19623147D01*
X34652688Y-19604419D01*
X34691695Y-19584046D01*
X34724202Y-19566624D01*
X34757410Y-19548265D01*
X34791320Y-19528973D01*
X34825932Y-19508745D01*
X34861247Y-19487581D01*
X34840609Y-19523419D01*
X34820789Y-19558439D01*
X34801788Y-19592641D01*
X34783604Y-19626024D01*
X34766239Y-19658590D01*
X34746598Y-19697048D01*
X34728602Y-19733498D01*
X34712251Y-19767938D01*
X34697544Y-19800370D01*
X34280979Y-20611574D01*
X33740177Y-20070772D01*
X33385001Y-20253475D01*
X34099737Y-20968211D01*
X33841028Y-21472473D01*
X33829498Y-21507065D01*
X33824139Y-21542632D01*
X33824951Y-21579173D01*
X33831346Y-21606030D01*
X33843221Y-21632521D01*
X33860578Y-21658648D01*
X33883416Y-21684410D01*
X34178666Y-21979660D01*
G37*
X34178666Y-21979660D02*
X35412280Y-19331186D01*
X35020563Y-18939470D01*
X32372091Y-20173085D01*
X32671725Y-20472718D01*
X32705019Y-20500165D01*
X32740585Y-20518192D01*
X32778424Y-20526798D01*
X32817400Y-20527772D01*
X32852479Y-20522900D01*
X32883661Y-20512183D01*
X33385001Y-20253475D01*
X33740177Y-20070772D01*
X34549917Y-19655666D01*
X34581798Y-19640229D01*
X34616055Y-19623147D01*
X34652688Y-19604419D01*
X34691695Y-19584046D01*
X34724202Y-19566624D01*
X34757410Y-19548265D01*
X34791320Y-19528973D01*
X34825932Y-19508745D01*
X34861247Y-19487581D01*
X34840609Y-19523419D01*
X34820789Y-19558439D01*
X34801788Y-19592641D01*
X34783604Y-19626024D01*
X34766239Y-19658590D01*
X34746598Y-19697048D01*
X34728602Y-19733498D01*
X34712251Y-19767938D01*
X34697544Y-19800370D01*
X34280979Y-20611574D01*
X33740177Y-20070772D01*
X33385001Y-20253475D01*
X34099737Y-20968211D01*
X33841028Y-21472473D01*
X33829498Y-21507065D01*
X33824139Y-21542632D01*
X33824951Y-21579173D01*
X33831346Y-21606030D01*
X33843221Y-21632521D01*
X33860578Y-21658648D01*
X33883416Y-21684410D01*
X34178666Y-21979660D01*
G36*
X35391380Y-21698588D02*
G01*
X35521467Y-21828669D01*
X35550373Y-21860824D01*
X35570836Y-21891031D01*
X35582855Y-21919291D01*
X35588700Y-21949171D01*
X35588700Y-21982302D01*
X35582855Y-22018681D01*
X35331454Y-22977510D01*
X35325527Y-23018923D01*
X35326258Y-23058387D01*
X35333646Y-23095902D01*
X35347695Y-23131467D01*
X35368401Y-23165085D01*
X35395766Y-23196754D01*
X35742172Y-23543161D01*
X36015497Y-22401628D01*
X36020976Y-22367826D01*
X36024264Y-22335121D01*
X36025361Y-22303514D01*
X36024266Y-22273004D01*
X36020857Y-22232568D01*
X36014524Y-22193104D01*
X36005266Y-22154613D01*
X36120088Y-21785116D01*
X36083373Y-21772838D01*
X36046189Y-21757053D01*
X36015454Y-21741503D01*
X35984638Y-21723110D01*
X35953741Y-21701876D01*
X35922762Y-21677800D01*
X35891703Y-21650882D01*
X35860562Y-21621121D01*
X35664704Y-21425263D01*
X36290283Y-20799690D01*
X36489064Y-20998471D01*
X36523602Y-21034559D01*
X36554720Y-21070325D01*
X36582418Y-21105770D01*
X36606695Y-21140893D01*
X36627553Y-21175694D01*
X36644991Y-21210173D01*
X36659008Y-21244332D01*
X36669604Y-21278170D01*
X36676781Y-21311684D01*
X36680538Y-21344878D01*
X36681242Y-21380986D01*
X36678156Y-21416552D01*
X36671281Y-21451577D01*
X36660616Y-21486060D01*
X36646162Y-21520003D01*
X36627919Y-21553404D01*
X36605886Y-21586263D01*
X36580064Y-21618581D01*
X36550453Y-21650358D01*
X36521338Y-21677719D01*
X36491286Y-21702507D01*
X36460299Y-21724723D01*
X36428376Y-21744368D01*
X36395517Y-21761439D01*
X36363068Y-21775646D01*
X36330036Y-21786696D01*
X36296418Y-21794589D01*
X36262216Y-21799324D01*
X36227430Y-21800903D01*
X36192117Y-21799148D01*
X36156336Y-21793886D01*
X36120088Y-21785116D01*
X36005266Y-22154613D01*
X36041986Y-22171288D01*
X36078646Y-22186232D01*
X36115247Y-22199446D01*
X36151787Y-22210931D01*
X36188268Y-22220685D01*
X36224690Y-22228709D01*
X36261052Y-22235003D01*
X36297622Y-22239239D01*
X36333835Y-22241924D01*
X36369689Y-22243056D01*
X36405186Y-22242639D01*
X36440324Y-22240670D01*
X36475106Y-22237150D01*
X36509528Y-22232079D01*
X36544369Y-22225456D01*
X36578731Y-22217283D01*
X36612617Y-22207559D01*
X36646026Y-22196283D01*
X36678957Y-22183456D01*
X36711412Y-22169080D01*
X36743389Y-22153151D01*
X36775188Y-22135314D01*
X36806270Y-22116044D01*
X36836637Y-22095344D01*
X36866287Y-22073211D01*
X36895221Y-22049646D01*
X36923440Y-22024649D01*
X36950942Y-21998221D01*
X36977793Y-21970359D01*
X37003128Y-21941994D01*
X37026947Y-21913122D01*
X37049250Y-21883744D01*
X37070038Y-21853862D01*
X37089309Y-21823475D01*
X37107065Y-21792581D01*
X37123305Y-21761184D01*
X37138029Y-21729280D01*
X37152531Y-21692808D01*
X37164612Y-21655741D01*
X37174272Y-21618081D01*
X37181512Y-21579828D01*
X37186331Y-21540981D01*
X37188729Y-21501540D01*
X37188706Y-21461505D01*
X37186263Y-21420876D01*
X37182292Y-21384606D01*
X37176230Y-21347903D01*
X37168073Y-21310766D01*
X37157824Y-21273197D01*
X37145481Y-21235195D01*
X37131045Y-21196760D01*
X37114516Y-21157891D01*
X37095894Y-21118589D01*
X37075179Y-21078854D01*
X37058421Y-21048556D01*
X37040302Y-21018075D01*
X37020824Y-20987412D01*
X36999985Y-20956566D01*
X36977786Y-20925537D01*
X36954227Y-20894326D01*
X36929308Y-20862931D01*
X36903029Y-20831354D01*
X36875390Y-20799594D01*
X36846390Y-20767652D01*
X36816031Y-20735526D01*
X36784311Y-20703218D01*
X36199660Y-20118567D01*
X34258616Y-22059610D01*
X34644487Y-22445481D01*
X35391380Y-21698588D01*
G37*
X35391380Y-21698588D02*
X35521467Y-21828669D01*
X35550373Y-21860824D01*
X35570836Y-21891031D01*
X35582855Y-21919291D01*
X35588700Y-21949171D01*
X35588700Y-21982302D01*
X35582855Y-22018681D01*
X35331454Y-22977510D01*
X35325527Y-23018923D01*
X35326258Y-23058387D01*
X35333646Y-23095902D01*
X35347695Y-23131467D01*
X35368401Y-23165085D01*
X35395766Y-23196754D01*
X35742172Y-23543161D01*
X36015497Y-22401628D01*
X36020976Y-22367826D01*
X36024264Y-22335121D01*
X36025361Y-22303514D01*
X36024266Y-22273004D01*
X36020857Y-22232568D01*
X36014524Y-22193104D01*
X36005266Y-22154613D01*
X36120088Y-21785116D01*
X36083373Y-21772838D01*
X36046189Y-21757053D01*
X36015454Y-21741503D01*
X35984638Y-21723110D01*
X35953741Y-21701876D01*
X35922762Y-21677800D01*
X35891703Y-21650882D01*
X35860562Y-21621121D01*
X35664704Y-21425263D01*
X36290283Y-20799690D01*
X36489064Y-20998471D01*
X36523602Y-21034559D01*
X36554720Y-21070325D01*
X36582418Y-21105770D01*
X36606695Y-21140893D01*
X36627553Y-21175694D01*
X36644991Y-21210173D01*
X36659008Y-21244332D01*
X36669604Y-21278170D01*
X36676781Y-21311684D01*
X36680538Y-21344878D01*
X36681242Y-21380986D01*
X36678156Y-21416552D01*
X36671281Y-21451577D01*
X36660616Y-21486060D01*
X36646162Y-21520003D01*
X36627919Y-21553404D01*
X36605886Y-21586263D01*
X36580064Y-21618581D01*
X36550453Y-21650358D01*
X36521338Y-21677719D01*
X36491286Y-21702507D01*
X36460299Y-21724723D01*
X36428376Y-21744368D01*
X36395517Y-21761439D01*
X36363068Y-21775646D01*
X36330036Y-21786696D01*
X36296418Y-21794589D01*
X36262216Y-21799324D01*
X36227430Y-21800903D01*
X36192117Y-21799148D01*
X36156336Y-21793886D01*
X36120088Y-21785116D01*
X36005266Y-22154613D01*
X36041986Y-22171288D01*
X36078646Y-22186232D01*
X36115247Y-22199446D01*
X36151787Y-22210931D01*
X36188268Y-22220685D01*
X36224690Y-22228709D01*
X36261052Y-22235003D01*
X36297622Y-22239239D01*
X36333835Y-22241924D01*
X36369689Y-22243056D01*
X36405186Y-22242639D01*
X36440324Y-22240670D01*
X36475106Y-22237150D01*
X36509528Y-22232079D01*
X36544369Y-22225456D01*
X36578731Y-22217283D01*
X36612617Y-22207559D01*
X36646026Y-22196283D01*
X36678957Y-22183456D01*
X36711412Y-22169080D01*
X36743389Y-22153151D01*
X36775188Y-22135314D01*
X36806270Y-22116044D01*
X36836637Y-22095344D01*
X36866287Y-22073211D01*
X36895221Y-22049646D01*
X36923440Y-22024649D01*
X36950942Y-21998221D01*
X36977793Y-21970359D01*
X37003128Y-21941994D01*
X37026947Y-21913122D01*
X37049250Y-21883744D01*
X37070038Y-21853862D01*
X37089309Y-21823475D01*
X37107065Y-21792581D01*
X37123305Y-21761184D01*
X37138029Y-21729280D01*
X37152531Y-21692808D01*
X37164612Y-21655741D01*
X37174272Y-21618081D01*
X37181512Y-21579828D01*
X37186331Y-21540981D01*
X37188729Y-21501540D01*
X37188706Y-21461505D01*
X37186263Y-21420876D01*
X37182292Y-21384606D01*
X37176230Y-21347903D01*
X37168073Y-21310766D01*
X37157824Y-21273197D01*
X37145481Y-21235195D01*
X37131045Y-21196760D01*
X37114516Y-21157891D01*
X37095894Y-21118589D01*
X37075179Y-21078854D01*
X37058421Y-21048556D01*
X37040302Y-21018075D01*
X37020824Y-20987412D01*
X36999985Y-20956566D01*
X36977786Y-20925537D01*
X36954227Y-20894326D01*
X36929308Y-20862931D01*
X36903029Y-20831354D01*
X36875390Y-20799594D01*
X36846390Y-20767652D01*
X36816031Y-20735526D01*
X36784311Y-20703218D01*
X36199660Y-20118567D01*
X34258616Y-22059610D01*
X34644487Y-22445481D01*
X35391380Y-21698588D01*
G36*
X37612017Y-23755573D02*
G01*
X37611986Y-23755588D01*
X38203864Y-22242783D01*
X38211168Y-22211358D01*
X38212632Y-22184319D01*
X38210078Y-22161300D01*
X38202408Y-22139008D01*
X38191443Y-22118548D01*
X38176096Y-22098087D01*
X38157848Y-22077612D01*
X38135197Y-22054219D01*
X37844333Y-21763354D01*
X35903347Y-23704341D01*
X36242419Y-24043412D01*
X37456998Y-22828833D01*
X37477639Y-22807823D01*
X37498648Y-22785716D01*
X37520031Y-22762519D01*
X37541794Y-22738239D01*
X37564372Y-22712404D01*
X37586750Y-22686000D01*
X37608939Y-22659042D01*
X37630952Y-22631544D01*
X37018656Y-24199891D01*
X37009075Y-24242115D01*
X37006641Y-24282066D01*
X37011351Y-24319743D01*
X37023207Y-24355147D01*
X37042207Y-24388277D01*
X37068355Y-24419134D01*
X37122434Y-24473213D01*
X37152845Y-24498913D01*
X37185609Y-24517549D01*
X37220728Y-24529121D01*
X37258202Y-24533628D01*
X37298031Y-24531071D01*
X37340215Y-24521449D01*
X38895454Y-23907697D01*
X38869320Y-23929612D01*
X38843551Y-23951525D01*
X38818154Y-23973446D01*
X38793140Y-23995388D01*
X38762760Y-24024118D01*
X38734008Y-24051879D01*
X38706884Y-24078674D01*
X37492306Y-25293253D01*
X37829942Y-25630889D01*
X39770928Y-23689903D01*
X39481526Y-23400500D01*
X39457767Y-23377484D01*
X39436193Y-23358138D01*
X39415743Y-23342781D01*
X39395273Y-23331826D01*
X39374441Y-23324158D01*
X39349961Y-23321601D01*
X39324023Y-23324161D01*
X39292961Y-23331833D01*
X37787415Y-23925124D01*
X37752336Y-23935902D01*
X37717256Y-23947776D01*
X37682178Y-23960748D01*
X37647100Y-23974816D01*
X37612571Y-23988883D01*
X37577674Y-24003315D01*
X37542412Y-24018112D01*
X37506786Y-24033276D01*
X37522179Y-23999204D01*
X37536932Y-23964948D01*
X37551044Y-23930509D01*
X37564517Y-23895886D01*
X37577351Y-23861082D01*
X37589546Y-23826095D01*
X37601101Y-23790925D01*
X37612017Y-23755573D01*
G37*
X37612017Y-23755573D02*
X37611986Y-23755588D01*
X38203864Y-22242783D01*
X38211168Y-22211358D01*
X38212632Y-22184319D01*
X38210078Y-22161300D01*
X38202408Y-22139008D01*
X38191443Y-22118548D01*
X38176096Y-22098087D01*
X38157848Y-22077612D01*
X38135197Y-22054219D01*
X37844333Y-21763354D01*
X35903347Y-23704341D01*
X36242419Y-24043412D01*
X37456998Y-22828833D01*
X37477639Y-22807823D01*
X37498648Y-22785716D01*
X37520031Y-22762519D01*
X37541794Y-22738239D01*
X37564372Y-22712404D01*
X37586750Y-22686000D01*
X37608939Y-22659042D01*
X37630952Y-22631544D01*
X37018656Y-24199891D01*
X37009075Y-24242115D01*
X37006641Y-24282066D01*
X37011351Y-24319743D01*
X37023207Y-24355147D01*
X37042207Y-24388277D01*
X37068355Y-24419134D01*
X37122434Y-24473213D01*
X37152845Y-24498913D01*
X37185609Y-24517549D01*
X37220728Y-24529121D01*
X37258202Y-24533628D01*
X37298031Y-24531071D01*
X37340215Y-24521449D01*
X38895454Y-23907697D01*
X38869320Y-23929612D01*
X38843551Y-23951525D01*
X38818154Y-23973446D01*
X38793140Y-23995388D01*
X38762760Y-24024118D01*
X38734008Y-24051879D01*
X38706884Y-24078674D01*
X37492306Y-25293253D01*
X37829942Y-25630889D01*
X39770928Y-23689903D01*
X39481526Y-23400500D01*
X39457767Y-23377484D01*
X39436193Y-23358138D01*
X39415743Y-23342781D01*
X39395273Y-23331826D01*
X39374441Y-23324158D01*
X39349961Y-23321601D01*
X39324023Y-23324161D01*
X39292961Y-23331833D01*
X37787415Y-23925124D01*
X37752336Y-23935902D01*
X37717256Y-23947776D01*
X37682178Y-23960748D01*
X37647100Y-23974816D01*
X37612571Y-23988883D01*
X37577674Y-24003315D01*
X37542412Y-24018112D01*
X37506786Y-24033276D01*
X37522179Y-23999204D01*
X37536932Y-23964948D01*
X37551044Y-23930509D01*
X37564517Y-23895886D01*
X37577351Y-23861082D01*
X37589546Y-23826095D01*
X37601101Y-23790925D01*
X37612017Y-23755573D01*
G36*
X-36873944Y-23732318D02*
G01*
X-36873975Y-23732302D01*
X-36887863Y-23750574D01*
X-36897366Y-23773230D01*
X-36903580Y-23796248D01*
X-36907598Y-23821462D01*
X-36906958Y-23858641D01*
X-36907962Y-23894177D01*
X-36910611Y-23928069D01*
X-36914905Y-23960318D01*
X-36920937Y-23991560D01*
X-36928795Y-24022436D01*
X-36938477Y-24052948D01*
X-36949985Y-24083094D01*
X-36963417Y-24111503D01*
X-36978856Y-24139730D01*
X-36996304Y-24167775D01*
X-37015760Y-24195637D01*
X-37038040Y-24223052D01*
X-37062515Y-24251195D01*
X-37089186Y-24280067D01*
X-37118052Y-24309666D01*
X-37147493Y-24337318D01*
X-37178188Y-24362644D01*
X-37210135Y-24385642D01*
X-37243334Y-24406314D01*
X-37277787Y-24424659D01*
X-37313492Y-24440678D01*
X-37350450Y-24454369D01*
X-37383976Y-24464007D01*
X-37418049Y-24471725D01*
X-37452672Y-24477526D01*
X-37487842Y-24481409D01*
X-37523561Y-24483372D01*
X-37559827Y-24483417D01*
X-37596643Y-24481546D01*
X-37634006Y-24477755D01*
X-37667606Y-24472090D01*
X-37701494Y-24464835D01*
X-37735671Y-24455994D01*
X-37770136Y-24445565D01*
X-37804891Y-24433547D01*
X-37839933Y-24419940D01*
X-37875265Y-24404747D01*
X-37910885Y-24387964D01*
X-37946794Y-24369594D01*
X-37976268Y-24353311D01*
X-38005693Y-24335819D01*
X-38035071Y-24317120D01*
X-38064400Y-24297212D01*
X-38093680Y-24276097D01*
X-38122913Y-24253774D01*
X-38152097Y-24230242D01*
X-38181233Y-24205503D01*
X-38210319Y-24179556D01*
X-38239360Y-24152401D01*
X-38268350Y-24124038D01*
X-38299235Y-24092482D01*
X-38328744Y-24060954D01*
X-38356881Y-24029456D01*
X-38383644Y-23997988D01*
X-38409033Y-23966548D01*
X-38433047Y-23935138D01*
X-38455688Y-23903757D01*
X-38476955Y-23872405D01*
X-38496848Y-23841083D01*
X-38515367Y-23809789D01*
X-38534350Y-23774529D01*
X-38551672Y-23739559D01*
X-38567336Y-23704876D01*
X-38581338Y-23670482D01*
X-38593680Y-23636378D01*
X-38604362Y-23602562D01*
X-38613386Y-23569034D01*
X-38620748Y-23535796D01*
X-38626451Y-23502847D01*
X-38631247Y-23465849D01*
X-38633942Y-23429400D01*
X-38634536Y-23393499D01*
X-38633029Y-23358146D01*
X-38629420Y-23323342D01*
X-38623710Y-23289084D01*
X-38615900Y-23255376D01*
X-38605988Y-23222215D01*
X-38594387Y-23189374D01*
X-38580776Y-23157355D01*
X-38565154Y-23126158D01*
X-38547523Y-23095783D01*
X-38527883Y-23066231D01*
X-38506232Y-23037501D01*
X-38482573Y-23009593D01*
X-38456902Y-22982507D01*
X-38424583Y-22951488D01*
X-38392915Y-22923715D01*
X-38361896Y-22899193D01*
X-38331527Y-22877917D01*
X-38301808Y-22859890D01*
X-38272739Y-22845112D01*
X-38238945Y-22830381D01*
X-38206555Y-22817753D01*
X-38175568Y-22807230D01*
X-38145984Y-22798811D01*
X-38117804Y-22792495D01*
X-38083910Y-22785827D01*
X-38052391Y-22780438D01*
X-38023251Y-22776327D01*
X-37996486Y-22773495D01*
X-37963845Y-22766836D01*
X-37936074Y-22754655D01*
X-37913175Y-22736952D01*
X-37889422Y-22706623D01*
X-37879552Y-22677025D01*
X-37876990Y-22646695D01*
X-37878088Y-22617097D01*
X-37929245Y-22308694D01*
X-37968347Y-22307087D01*
X-38007521Y-22307051D01*
X-38046768Y-22308585D01*
X-38086087Y-22311689D01*
X-38125479Y-22316364D01*
X-38164943Y-22322609D01*
X-38204479Y-22330424D01*
X-38244088Y-22339810D01*
X-38283769Y-22350767D01*
X-38323523Y-22363293D01*
X-38363349Y-22377390D01*
X-38397158Y-22390441D01*
X-38430671Y-22404858D01*
X-38463891Y-22420642D01*
X-38496816Y-22437792D01*
X-38529449Y-22456309D01*
X-38561785Y-22476192D01*
X-38593829Y-22497442D01*
X-38625579Y-22520059D01*
X-38657033Y-22544041D01*
X-38688195Y-22569390D01*
X-38719062Y-22596106D01*
X-38749635Y-22624188D01*
X-38779914Y-22653637D01*
X-38808974Y-22683562D01*
X-38836788Y-22713970D01*
X-38863357Y-22744864D01*
X-38888681Y-22776242D01*
X-38912759Y-22808103D01*
X-38935591Y-22840449D01*
X-38957178Y-22873279D01*
X-38977520Y-22906595D01*
X-38996617Y-22940394D01*
X-39014467Y-22974677D01*
X-39031073Y-23009445D01*
X-39046433Y-23044697D01*
X-39060547Y-23080433D01*
X-39073425Y-23116490D01*
X-39085075Y-23152702D01*
X-39095496Y-23189070D01*
X-39104690Y-23225593D01*
X-39112656Y-23262272D01*
X-39119393Y-23299108D01*
X-39124902Y-23336097D01*
X-39129184Y-23373244D01*
X-39132236Y-23410546D01*
X-39134061Y-23448003D01*
X-39134658Y-23485616D01*
X-39134026Y-23523384D01*
X-39132167Y-23561309D01*
X-39129088Y-23599312D01*
X-39124798Y-23637314D01*
X-39119297Y-23675316D01*
X-39112587Y-23713319D01*
X-39104664Y-23751321D01*
X-39095531Y-23789324D01*
X-39085187Y-23827326D01*
X-39073632Y-23865328D01*
X-39060867Y-23903330D01*
X-39046890Y-23941333D01*
X-39031704Y-23979335D01*
X-39015306Y-24017338D01*
X-38997697Y-24055340D01*
X-38981470Y-24087769D01*
X-38964358Y-24119962D01*
X-38946364Y-24151924D01*
X-38927486Y-24183650D01*
X-38907725Y-24215143D01*
X-38887079Y-24246402D01*
X-38865551Y-24277428D01*
X-38843140Y-24308219D01*
X-38819844Y-24338777D01*
X-38795665Y-24369100D01*
X-38770604Y-24399190D01*
X-38744658Y-24429047D01*
X-38717828Y-24458669D01*
X-38690116Y-24488057D01*
X-38661520Y-24517212D01*
X-38632567Y-24545646D01*
X-38603392Y-24573261D01*
X-38573998Y-24600058D01*
X-38544382Y-24626036D01*
X-38514545Y-24651195D01*
X-38484488Y-24675536D01*
X-38454210Y-24699058D01*
X-38423710Y-24721763D01*
X-38392990Y-24743648D01*
X-38362049Y-24764715D01*
X-38330888Y-24784965D01*
X-38299505Y-24804394D01*
X-38267901Y-24823005D01*
X-38236077Y-24840799D01*
X-38204032Y-24857773D01*
X-38166921Y-24875857D01*
X-38129791Y-24892783D01*
X-38092645Y-24908550D01*
X-38055482Y-24923157D01*
X-38018301Y-24936606D01*
X-37981103Y-24948896D01*
X-37943888Y-24960027D01*
X-37906655Y-24969998D01*
X-37869405Y-24978812D01*
X-37832138Y-24986466D01*
X-37794853Y-24992961D01*
X-37757551Y-24998297D01*
X-37720232Y-25002474D01*
X-37679865Y-25005164D01*
X-37639640Y-25006412D01*
X-37599557Y-25006220D01*
X-37559616Y-25004586D01*
X-37519816Y-25001510D01*
X-37480160Y-24996993D01*
X-37440645Y-24991035D01*
X-37401272Y-24983635D01*
X-37362042Y-24974795D01*
X-37322953Y-24964513D01*
X-37284007Y-24952789D01*
X-37245203Y-24939624D01*
X-37209873Y-24925916D01*
X-37174941Y-24910876D01*
X-37140407Y-24894504D01*
X-37106271Y-24876800D01*
X-37072532Y-24857764D01*
X-37039192Y-24837397D01*
X-37006249Y-24815697D01*
X-36973704Y-24792665D01*
X-36941557Y-24768302D01*
X-36909807Y-24742607D01*
X-36878456Y-24715580D01*
X-36847503Y-24687220D01*
X-36816946Y-24657530D01*
X-36786536Y-24626329D01*
X-36757527Y-24594948D01*
X-36729920Y-24563388D01*
X-36703715Y-24531651D01*
X-36678912Y-24499733D01*
X-36655510Y-24467637D01*
X-36633511Y-24435362D01*
X-36612915Y-24402908D01*
X-36593720Y-24370275D01*
X-36575926Y-24337462D01*
X-36559536Y-24304471D01*
X-36544546Y-24271301D01*
X-36530959Y-24237952D01*
X-36518774Y-24204424D01*
X-36506916Y-24167901D01*
X-36496529Y-24131187D01*
X-36487612Y-24094283D01*
X-36480166Y-24057189D01*
X-36474189Y-24019905D01*
X-36469683Y-23982430D01*
X-36466648Y-23944765D01*
X-36465082Y-23906910D01*
X-36464987Y-23868864D01*
X-36466362Y-23830628D01*
X-36469208Y-23792201D01*
X-36473523Y-23753586D01*
X-36479309Y-23714779D01*
X-36797944Y-23703086D01*
X-36826524Y-23705684D01*
X-36851858Y-23715427D01*
X-36873944Y-23732318D01*
G37*
X-36873944Y-23732318D02*
X-36873975Y-23732302D01*
X-36887863Y-23750574D01*
X-36897366Y-23773230D01*
X-36903580Y-23796248D01*
X-36907598Y-23821462D01*
X-36906958Y-23858641D01*
X-36907962Y-23894177D01*
X-36910611Y-23928069D01*
X-36914905Y-23960318D01*
X-36920937Y-23991560D01*
X-36928795Y-24022436D01*
X-36938477Y-24052948D01*
X-36949985Y-24083094D01*
X-36963417Y-24111503D01*
X-36978856Y-24139730D01*
X-36996304Y-24167775D01*
X-37015760Y-24195637D01*
X-37038040Y-24223052D01*
X-37062515Y-24251195D01*
X-37089186Y-24280067D01*
X-37118052Y-24309666D01*
X-37147493Y-24337318D01*
X-37178188Y-24362644D01*
X-37210135Y-24385642D01*
X-37243334Y-24406314D01*
X-37277787Y-24424659D01*
X-37313492Y-24440678D01*
X-37350450Y-24454369D01*
X-37383976Y-24464007D01*
X-37418049Y-24471725D01*
X-37452672Y-24477526D01*
X-37487842Y-24481409D01*
X-37523561Y-24483372D01*
X-37559827Y-24483417D01*
X-37596643Y-24481546D01*
X-37634006Y-24477755D01*
X-37667606Y-24472090D01*
X-37701494Y-24464835D01*
X-37735671Y-24455994D01*
X-37770136Y-24445565D01*
X-37804891Y-24433547D01*
X-37839933Y-24419940D01*
X-37875265Y-24404747D01*
X-37910885Y-24387964D01*
X-37946794Y-24369594D01*
X-37976268Y-24353311D01*
X-38005693Y-24335819D01*
X-38035071Y-24317120D01*
X-38064400Y-24297212D01*
X-38093680Y-24276097D01*
X-38122913Y-24253774D01*
X-38152097Y-24230242D01*
X-38181233Y-24205503D01*
X-38210319Y-24179556D01*
X-38239360Y-24152401D01*
X-38268350Y-24124038D01*
X-38299235Y-24092482D01*
X-38328744Y-24060954D01*
X-38356881Y-24029456D01*
X-38383644Y-23997988D01*
X-38409033Y-23966548D01*
X-38433047Y-23935138D01*
X-38455688Y-23903757D01*
X-38476955Y-23872405D01*
X-38496848Y-23841083D01*
X-38515367Y-23809789D01*
X-38534350Y-23774529D01*
X-38551672Y-23739559D01*
X-38567336Y-23704876D01*
X-38581338Y-23670482D01*
X-38593680Y-23636378D01*
X-38604362Y-23602562D01*
X-38613386Y-23569034D01*
X-38620748Y-23535796D01*
X-38626451Y-23502847D01*
X-38631247Y-23465849D01*
X-38633942Y-23429400D01*
X-38634536Y-23393499D01*
X-38633029Y-23358146D01*
X-38629420Y-23323342D01*
X-38623710Y-23289084D01*
X-38615900Y-23255376D01*
X-38605988Y-23222215D01*
X-38594387Y-23189374D01*
X-38580776Y-23157355D01*
X-38565154Y-23126158D01*
X-38547523Y-23095783D01*
X-38527883Y-23066231D01*
X-38506232Y-23037501D01*
X-38482573Y-23009593D01*
X-38456902Y-22982507D01*
X-38424583Y-22951488D01*
X-38392915Y-22923715D01*
X-38361896Y-22899193D01*
X-38331527Y-22877917D01*
X-38301808Y-22859890D01*
X-38272739Y-22845112D01*
X-38238945Y-22830381D01*
X-38206555Y-22817753D01*
X-38175568Y-22807230D01*
X-38145984Y-22798811D01*
X-38117804Y-22792495D01*
X-38083910Y-22785827D01*
X-38052391Y-22780438D01*
X-38023251Y-22776327D01*
X-37996486Y-22773495D01*
X-37963845Y-22766836D01*
X-37936074Y-22754655D01*
X-37913175Y-22736952D01*
X-37889422Y-22706623D01*
X-37879552Y-22677025D01*
X-37876990Y-22646695D01*
X-37878088Y-22617097D01*
X-37929245Y-22308694D01*
X-37968347Y-22307087D01*
X-38007521Y-22307051D01*
X-38046768Y-22308585D01*
X-38086087Y-22311689D01*
X-38125479Y-22316364D01*
X-38164943Y-22322609D01*
X-38204479Y-22330424D01*
X-38244088Y-22339810D01*
X-38283769Y-22350767D01*
X-38323523Y-22363293D01*
X-38363349Y-22377390D01*
X-38397158Y-22390441D01*
X-38430671Y-22404858D01*
X-38463891Y-22420642D01*
X-38496816Y-22437792D01*
X-38529449Y-22456309D01*
X-38561785Y-22476192D01*
X-38593829Y-22497442D01*
X-38625579Y-22520059D01*
X-38657033Y-22544041D01*
X-38688195Y-22569390D01*
X-38719062Y-22596106D01*
X-38749635Y-22624188D01*
X-38779914Y-22653637D01*
X-38808974Y-22683562D01*
X-38836788Y-22713970D01*
X-38863357Y-22744864D01*
X-38888681Y-22776242D01*
X-38912759Y-22808103D01*
X-38935591Y-22840449D01*
X-38957178Y-22873279D01*
X-38977520Y-22906595D01*
X-38996617Y-22940394D01*
X-39014467Y-22974677D01*
X-39031073Y-23009445D01*
X-39046433Y-23044697D01*
X-39060547Y-23080433D01*
X-39073425Y-23116490D01*
X-39085075Y-23152702D01*
X-39095496Y-23189070D01*
X-39104690Y-23225593D01*
X-39112656Y-23262272D01*
X-39119393Y-23299108D01*
X-39124902Y-23336097D01*
X-39129184Y-23373244D01*
X-39132236Y-23410546D01*
X-39134061Y-23448003D01*
X-39134658Y-23485616D01*
X-39134026Y-23523384D01*
X-39132167Y-23561309D01*
X-39129088Y-23599312D01*
X-39124798Y-23637314D01*
X-39119297Y-23675316D01*
X-39112587Y-23713319D01*
X-39104664Y-23751321D01*
X-39095531Y-23789324D01*
X-39085187Y-23827326D01*
X-39073632Y-23865328D01*
X-39060867Y-23903330D01*
X-39046890Y-23941333D01*
X-39031704Y-23979335D01*
X-39015306Y-24017338D01*
X-38997697Y-24055340D01*
X-38981470Y-24087769D01*
X-38964358Y-24119962D01*
X-38946364Y-24151924D01*
X-38927486Y-24183650D01*
X-38907725Y-24215143D01*
X-38887079Y-24246402D01*
X-38865551Y-24277428D01*
X-38843140Y-24308219D01*
X-38819844Y-24338777D01*
X-38795665Y-24369100D01*
X-38770604Y-24399190D01*
X-38744658Y-24429047D01*
X-38717828Y-24458669D01*
X-38690116Y-24488057D01*
X-38661520Y-24517212D01*
X-38632567Y-24545646D01*
X-38603392Y-24573261D01*
X-38573998Y-24600058D01*
X-38544382Y-24626036D01*
X-38514545Y-24651195D01*
X-38484488Y-24675536D01*
X-38454210Y-24699058D01*
X-38423710Y-24721763D01*
X-38392990Y-24743648D01*
X-38362049Y-24764715D01*
X-38330888Y-24784965D01*
X-38299505Y-24804394D01*
X-38267901Y-24823005D01*
X-38236077Y-24840799D01*
X-38204032Y-24857773D01*
X-38166921Y-24875857D01*
X-38129791Y-24892783D01*
X-38092645Y-24908550D01*
X-38055482Y-24923157D01*
X-38018301Y-24936606D01*
X-37981103Y-24948896D01*
X-37943888Y-24960027D01*
X-37906655Y-24969998D01*
X-37869405Y-24978812D01*
X-37832138Y-24986466D01*
X-37794853Y-24992961D01*
X-37757551Y-24998297D01*
X-37720232Y-25002474D01*
X-37679865Y-25005164D01*
X-37639640Y-25006412D01*
X-37599557Y-25006220D01*
X-37559616Y-25004586D01*
X-37519816Y-25001510D01*
X-37480160Y-24996993D01*
X-37440645Y-24991035D01*
X-37401272Y-24983635D01*
X-37362042Y-24974795D01*
X-37322953Y-24964513D01*
X-37284007Y-24952789D01*
X-37245203Y-24939624D01*
X-37209873Y-24925916D01*
X-37174941Y-24910876D01*
X-37140407Y-24894504D01*
X-37106271Y-24876800D01*
X-37072532Y-24857764D01*
X-37039192Y-24837397D01*
X-37006249Y-24815697D01*
X-36973704Y-24792665D01*
X-36941557Y-24768302D01*
X-36909807Y-24742607D01*
X-36878456Y-24715580D01*
X-36847503Y-24687220D01*
X-36816946Y-24657530D01*
X-36786536Y-24626329D01*
X-36757527Y-24594948D01*
X-36729920Y-24563388D01*
X-36703715Y-24531651D01*
X-36678912Y-24499733D01*
X-36655510Y-24467637D01*
X-36633511Y-24435362D01*
X-36612915Y-24402908D01*
X-36593720Y-24370275D01*
X-36575926Y-24337462D01*
X-36559536Y-24304471D01*
X-36544546Y-24271301D01*
X-36530959Y-24237952D01*
X-36518774Y-24204424D01*
X-36506916Y-24167901D01*
X-36496529Y-24131187D01*
X-36487612Y-24094283D01*
X-36480166Y-24057189D01*
X-36474189Y-24019905D01*
X-36469683Y-23982430D01*
X-36466648Y-23944765D01*
X-36465082Y-23906910D01*
X-36464987Y-23868864D01*
X-36466362Y-23830628D01*
X-36469208Y-23792201D01*
X-36473523Y-23753586D01*
X-36479309Y-23714779D01*
X-36797944Y-23703086D01*
X-36826524Y-23705684D01*
X-36851858Y-23715427D01*
X-36873944Y-23732318D01*
G36*
X-35204764Y-21060461D02*
G01*
X-35233185Y-21032638D01*
X-35261930Y-21005685D01*
X-35291000Y-20979603D01*
X-35320395Y-20954392D01*
X-35350114Y-20930050D01*
X-35380159Y-20906580D01*
X-35410528Y-20883979D01*
X-35441222Y-20862250D01*
X-35472241Y-20841390D01*
X-35503585Y-20821402D01*
X-35535253Y-20802283D01*
X-35567246Y-20784035D01*
X-35599565Y-20766658D01*
X-35632207Y-20750150D01*
X-35665174Y-20734514D01*
X-35700715Y-20718765D01*
X-35736347Y-20704088D01*
X-35772067Y-20690486D01*
X-35807877Y-20677958D01*
X-35843777Y-20666503D01*
X-35879766Y-20656123D01*
X-35915844Y-20646816D01*
X-35952012Y-20638584D01*
X-35988269Y-20631424D01*
X-36024616Y-20625339D01*
X-36061052Y-20620328D01*
X-36097577Y-20616390D01*
X-36134192Y-20613527D01*
X-36170898Y-20611737D01*
X-36210206Y-20610811D01*
X-36249428Y-20611183D01*
X-36288563Y-20612853D01*
X-36327612Y-20615819D01*
X-36366575Y-20620083D01*
X-36405451Y-20625644D01*
X-36444240Y-20632503D01*
X-36482943Y-20640658D01*
X-36521559Y-20650112D01*
X-36560089Y-20660863D01*
X-36598532Y-20672910D01*
X-36636889Y-20686255D01*
X-36675160Y-20700897D01*
X-36710672Y-20715468D01*
X-36745796Y-20731203D01*
X-36780531Y-20748101D01*
X-36814880Y-20766163D01*
X-36848840Y-20785388D01*
X-36882413Y-20805776D01*
X-36915598Y-20827327D01*
X-36948395Y-20850043D01*
X-36980804Y-20873920D01*
X-37012826Y-20898962D01*
X-37044459Y-20925167D01*
X-37075706Y-20952536D01*
X-37106565Y-20981067D01*
X-37137035Y-21010762D01*
X-36811096Y-21336703D01*
X-36782278Y-21309040D01*
X-36752991Y-21283219D01*
X-36723235Y-21259237D01*
X-36693010Y-21237097D01*
X-36662315Y-21216796D01*
X-36631151Y-21198337D01*
X-36599518Y-21181718D01*
X-36567416Y-21166940D01*
X-36534845Y-21154002D01*
X-36497802Y-21140893D01*
X-36460485Y-21130069D01*
X-36422894Y-21121527D01*
X-36385028Y-21115269D01*
X-36346889Y-21111296D01*
X-36308475Y-21109605D01*
X-36269788Y-21110199D01*
X-36230826Y-21113076D01*
X-36195710Y-21117190D01*
X-36160522Y-21123037D01*
X-36125262Y-21130615D01*
X-36089931Y-21139926D01*
X-36054527Y-21150969D01*
X-36019051Y-21163746D01*
X-35983503Y-21178254D01*
X-35947883Y-21194494D01*
X-35912191Y-21212467D01*
X-35880094Y-21230124D01*
X-35848114Y-21249185D01*
X-35816250Y-21269648D01*
X-35784504Y-21291513D01*
X-35752874Y-21314784D01*
X-35721362Y-21339456D01*
X-35689967Y-21365532D01*
X-35658688Y-21393011D01*
X-35627526Y-21421892D01*
X-35596481Y-21452177D01*
X-35568625Y-21480661D01*
X-35541930Y-21509241D01*
X-35516393Y-21537917D01*
X-35492016Y-21566691D01*
X-35468799Y-21595561D01*
X-35446742Y-21624528D01*
X-35425843Y-21653591D01*
X-35406105Y-21682751D01*
X-35387527Y-21712007D01*
X-35370108Y-21741360D01*
X-35353848Y-21770809D01*
X-35335876Y-21806502D01*
X-35319636Y-21842123D01*
X-35305127Y-21877670D01*
X-35292351Y-21913147D01*
X-35281308Y-21948551D01*
X-35271997Y-21983883D01*
X-35264419Y-22019142D01*
X-35258571Y-22054330D01*
X-35254458Y-22089445D01*
X-35251923Y-22128063D01*
X-35251626Y-22166454D01*
X-35253567Y-22204616D01*
X-35257747Y-22242550D01*
X-35264164Y-22280255D01*
X-35272820Y-22317733D01*
X-35283713Y-22354981D01*
X-35296845Y-22392002D01*
X-35310090Y-22424267D01*
X-35325139Y-22456098D01*
X-35341992Y-22487495D01*
X-35360651Y-22518460D01*
X-35381114Y-22548992D01*
X-35403381Y-22579091D01*
X-35427453Y-22608758D01*
X-35453329Y-22637990D01*
X-35481010Y-22666789D01*
X-35509827Y-22694488D01*
X-35539113Y-22720419D01*
X-35568870Y-22744580D01*
X-35599095Y-22766974D01*
X-35629789Y-22787599D01*
X-35660952Y-22806455D01*
X-35692584Y-22823544D01*
X-35724686Y-22838863D01*
X-35757258Y-22852415D01*
X-35794301Y-22865569D01*
X-35831619Y-22876531D01*
X-35869210Y-22885301D01*
X-35907075Y-22891879D01*
X-35945215Y-22896263D01*
X-35983628Y-22898456D01*
X-36022315Y-22898456D01*
X-36061277Y-22896264D01*
X-36096086Y-22891844D01*
X-36131003Y-22885727D01*
X-36166028Y-22877913D01*
X-36201161Y-22868404D01*
X-36236403Y-22857198D01*
X-36271753Y-22844296D01*
X-36307211Y-22829698D01*
X-36342776Y-22813402D01*
X-36378450Y-22795411D01*
X-36407900Y-22779152D01*
X-36437253Y-22761733D01*
X-36466509Y-22743155D01*
X-36495669Y-22723417D01*
X-36524732Y-22702518D01*
X-36553699Y-22680461D01*
X-36582569Y-22657243D01*
X-36611342Y-22632867D01*
X-36640018Y-22607330D01*
X-36668599Y-22580635D01*
X-36697083Y-22552779D01*
X-36727368Y-22521734D01*
X-36756249Y-22490572D01*
X-36783728Y-22459293D01*
X-36809804Y-22427898D01*
X-36834476Y-22396385D01*
X-36857747Y-22364756D01*
X-36879612Y-22333010D01*
X-36900075Y-22301146D01*
X-36919136Y-22269166D01*
X-36936793Y-22237069D01*
X-36954783Y-22201395D01*
X-36971078Y-22165829D01*
X-36985676Y-22130371D01*
X-36998579Y-22095021D01*
X-37009784Y-22059779D01*
X-37019294Y-22024647D01*
X-37027107Y-21989622D01*
X-37033224Y-21954704D01*
X-37037645Y-21919896D01*
X-37040179Y-21880592D01*
X-37040476Y-21841608D01*
X-37038535Y-21802943D01*
X-37034356Y-21764598D01*
X-37027938Y-21726573D01*
X-37019283Y-21688867D01*
X-37008389Y-21651481D01*
X-36995258Y-21614415D01*
X-36982013Y-21581537D01*
X-36966964Y-21549164D01*
X-36950111Y-21517296D01*
X-36931453Y-21485935D01*
X-36910991Y-21455078D01*
X-36888724Y-21424726D01*
X-36864652Y-21394880D01*
X-36838776Y-21365539D01*
X-36811096Y-21336703D01*
X-37137035Y-21010762D01*
X-37166730Y-21041232D01*
X-37195261Y-21072091D01*
X-37222629Y-21103337D01*
X-37248835Y-21134971D01*
X-37273876Y-21166992D01*
X-37297754Y-21199402D01*
X-37320469Y-21232199D01*
X-37342021Y-21265384D01*
X-37362409Y-21298956D01*
X-37381634Y-21332917D01*
X-37399696Y-21367266D01*
X-37416594Y-21402001D01*
X-37432329Y-21437125D01*
X-37446900Y-21472637D01*
X-37461551Y-21510916D01*
X-37474922Y-21549299D01*
X-37487012Y-21587785D01*
X-37497823Y-21626376D01*
X-37507355Y-21665070D01*
X-37515605Y-21703868D01*
X-37522576Y-21742770D01*
X-37528267Y-21781775D01*
X-37532678Y-21820885D01*
X-37535808Y-21860098D01*
X-37537659Y-21899415D01*
X-37538231Y-21938836D01*
X-37537521Y-21978360D01*
X-37535933Y-22014879D01*
X-37533256Y-22051352D01*
X-37529490Y-22087781D01*
X-37524635Y-22124166D01*
X-37518692Y-22160505D01*
X-37511660Y-22196800D01*
X-37503539Y-22233050D01*
X-37494329Y-22269255D01*
X-37484031Y-22305415D01*
X-37472643Y-22341531D01*
X-37460167Y-22377602D01*
X-37446602Y-22413628D01*
X-37431949Y-22449609D01*
X-37416206Y-22485546D01*
X-37400570Y-22518514D01*
X-37384064Y-22551158D01*
X-37366687Y-22583476D01*
X-37348440Y-22615470D01*
X-37329322Y-22647140D01*
X-37309335Y-22678484D01*
X-37288475Y-22709503D01*
X-37266746Y-22740198D01*
X-37244146Y-22770567D01*
X-37220675Y-22800611D01*
X-37196335Y-22830332D01*
X-37171124Y-22859726D01*
X-37145042Y-22888798D01*
X-37118089Y-22917542D01*
X-37090267Y-22945963D01*
X-37061651Y-22973981D01*
X-37032711Y-23001129D01*
X-37003445Y-23027405D01*
X-36973856Y-23052811D01*
X-36943941Y-23077346D01*
X-36913701Y-23101012D01*
X-36883137Y-23123807D01*
X-36852247Y-23145731D01*
X-36821034Y-23166785D01*
X-36789494Y-23186968D01*
X-36757631Y-23206280D01*
X-36725441Y-23224722D01*
X-36692928Y-23242294D01*
X-36660090Y-23258995D01*
X-36626926Y-23274826D01*
X-36591184Y-23290373D01*
X-36555366Y-23304863D01*
X-36519474Y-23318294D01*
X-36483507Y-23330665D01*
X-36447466Y-23341979D01*
X-36411351Y-23352233D01*
X-36375160Y-23361427D01*
X-36338896Y-23369563D01*
X-36302556Y-23376640D01*
X-36266142Y-23382658D01*
X-36229653Y-23387617D01*
X-36193091Y-23391517D01*
X-36156453Y-23394358D01*
X-36119741Y-23396140D01*
X-36080216Y-23396850D01*
X-36040795Y-23396279D01*
X-36001478Y-23394428D01*
X-35962266Y-23391297D01*
X-35923156Y-23386886D01*
X-35884150Y-23381196D01*
X-35845249Y-23374224D01*
X-35806451Y-23365974D01*
X-35767756Y-23356443D01*
X-35729166Y-23345632D01*
X-35690680Y-23333542D01*
X-35652296Y-23320170D01*
X-35614017Y-23305520D01*
X-35578707Y-23290747D01*
X-35543770Y-23274825D01*
X-35509205Y-23257756D01*
X-35475013Y-23239537D01*
X-35441195Y-23220170D01*
X-35407749Y-23199655D01*
X-35374676Y-23177992D01*
X-35341976Y-23155180D01*
X-35309648Y-23131220D01*
X-35277694Y-23106111D01*
X-35246112Y-23079854D01*
X-35214903Y-23052449D01*
X-35184068Y-23023895D01*
X-35153604Y-22994192D01*
X-35123902Y-22963729D01*
X-35095348Y-22932893D01*
X-35067943Y-22901684D01*
X-35041686Y-22870102D01*
X-35016576Y-22838148D01*
X-34992617Y-22805821D01*
X-34969805Y-22773121D01*
X-34948141Y-22740047D01*
X-34927626Y-22706602D01*
X-34908259Y-22672784D01*
X-34890041Y-22638591D01*
X-34872972Y-22604027D01*
X-34857050Y-22569090D01*
X-34842277Y-22533780D01*
X-34827635Y-22495509D01*
X-34814290Y-22457152D01*
X-34802243Y-22418709D01*
X-34791492Y-22380179D01*
X-34782039Y-22341563D01*
X-34773884Y-22302859D01*
X-34767025Y-22264070D01*
X-34761463Y-22225194D01*
X-34757200Y-22186232D01*
X-34754234Y-22147183D01*
X-34752564Y-22108048D01*
X-34752193Y-22068827D01*
X-34753118Y-22029518D01*
X-34754908Y-21992813D01*
X-34757771Y-21956197D01*
X-34761707Y-21919671D01*
X-34766719Y-21883234D01*
X-34772803Y-21846887D01*
X-34779962Y-21810629D01*
X-34788195Y-21774462D01*
X-34797502Y-21738384D01*
X-34807882Y-21702395D01*
X-34819337Y-21666495D01*
X-34831866Y-21630686D01*
X-34845468Y-21594965D01*
X-34860144Y-21559334D01*
X-34875894Y-21523794D01*
X-34891726Y-21490631D01*
X-34908428Y-21457794D01*
X-34926000Y-21425281D01*
X-34944444Y-21393093D01*
X-34963757Y-21361230D01*
X-34983940Y-21329691D01*
X-35004995Y-21298478D01*
X-35026919Y-21267588D01*
X-35049714Y-21237025D01*
X-35073380Y-21206785D01*
X-35097915Y-21176871D01*
X-35123322Y-21147281D01*
X-35149599Y-21118016D01*
X-35176747Y-21089076D01*
X-35204764Y-21060461D01*
G37*
X-35204764Y-21060461D02*
X-35233185Y-21032638D01*
X-35261930Y-21005685D01*
X-35291000Y-20979603D01*
X-35320395Y-20954392D01*
X-35350114Y-20930050D01*
X-35380159Y-20906580D01*
X-35410528Y-20883979D01*
X-35441222Y-20862250D01*
X-35472241Y-20841390D01*
X-35503585Y-20821402D01*
X-35535253Y-20802283D01*
X-35567246Y-20784035D01*
X-35599565Y-20766658D01*
X-35632207Y-20750150D01*
X-35665174Y-20734514D01*
X-35700715Y-20718765D01*
X-35736347Y-20704088D01*
X-35772067Y-20690486D01*
X-35807877Y-20677958D01*
X-35843777Y-20666503D01*
X-35879766Y-20656123D01*
X-35915844Y-20646816D01*
X-35952012Y-20638584D01*
X-35988269Y-20631424D01*
X-36024616Y-20625339D01*
X-36061052Y-20620328D01*
X-36097577Y-20616390D01*
X-36134192Y-20613527D01*
X-36170898Y-20611737D01*
X-36210206Y-20610811D01*
X-36249428Y-20611183D01*
X-36288563Y-20612853D01*
X-36327612Y-20615819D01*
X-36366575Y-20620083D01*
X-36405451Y-20625644D01*
X-36444240Y-20632503D01*
X-36482943Y-20640658D01*
X-36521559Y-20650112D01*
X-36560089Y-20660863D01*
X-36598532Y-20672910D01*
X-36636889Y-20686255D01*
X-36675160Y-20700897D01*
X-36710672Y-20715468D01*
X-36745796Y-20731203D01*
X-36780531Y-20748101D01*
X-36814880Y-20766163D01*
X-36848840Y-20785388D01*
X-36882413Y-20805776D01*
X-36915598Y-20827327D01*
X-36948395Y-20850043D01*
X-36980804Y-20873920D01*
X-37012826Y-20898962D01*
X-37044459Y-20925167D01*
X-37075706Y-20952536D01*
X-37106565Y-20981067D01*
X-37137035Y-21010762D01*
X-36811096Y-21336703D01*
X-36782278Y-21309040D01*
X-36752991Y-21283219D01*
X-36723235Y-21259237D01*
X-36693010Y-21237097D01*
X-36662315Y-21216796D01*
X-36631151Y-21198337D01*
X-36599518Y-21181718D01*
X-36567416Y-21166940D01*
X-36534845Y-21154002D01*
X-36497802Y-21140893D01*
X-36460485Y-21130069D01*
X-36422894Y-21121527D01*
X-36385028Y-21115269D01*
X-36346889Y-21111296D01*
X-36308475Y-21109605D01*
X-36269788Y-21110199D01*
X-36230826Y-21113076D01*
X-36195710Y-21117190D01*
X-36160522Y-21123037D01*
X-36125262Y-21130615D01*
X-36089931Y-21139926D01*
X-36054527Y-21150969D01*
X-36019051Y-21163746D01*
X-35983503Y-21178254D01*
X-35947883Y-21194494D01*
X-35912191Y-21212467D01*
X-35880094Y-21230124D01*
X-35848114Y-21249185D01*
X-35816250Y-21269648D01*
X-35784504Y-21291513D01*
X-35752874Y-21314784D01*
X-35721362Y-21339456D01*
X-35689967Y-21365532D01*
X-35658688Y-21393011D01*
X-35627526Y-21421892D01*
X-35596481Y-21452177D01*
X-35568625Y-21480661D01*
X-35541930Y-21509241D01*
X-35516393Y-21537917D01*
X-35492016Y-21566691D01*
X-35468799Y-21595561D01*
X-35446742Y-21624528D01*
X-35425843Y-21653591D01*
X-35406105Y-21682751D01*
X-35387527Y-21712007D01*
X-35370108Y-21741360D01*
X-35353848Y-21770809D01*
X-35335876Y-21806502D01*
X-35319636Y-21842123D01*
X-35305127Y-21877670D01*
X-35292351Y-21913147D01*
X-35281308Y-21948551D01*
X-35271997Y-21983883D01*
X-35264419Y-22019142D01*
X-35258571Y-22054330D01*
X-35254458Y-22089445D01*
X-35251923Y-22128063D01*
X-35251626Y-22166454D01*
X-35253567Y-22204616D01*
X-35257747Y-22242550D01*
X-35264164Y-22280255D01*
X-35272820Y-22317733D01*
X-35283713Y-22354981D01*
X-35296845Y-22392002D01*
X-35310090Y-22424267D01*
X-35325139Y-22456098D01*
X-35341992Y-22487495D01*
X-35360651Y-22518460D01*
X-35381114Y-22548992D01*
X-35403381Y-22579091D01*
X-35427453Y-22608758D01*
X-35453329Y-22637990D01*
X-35481010Y-22666789D01*
X-35509827Y-22694488D01*
X-35539113Y-22720419D01*
X-35568870Y-22744580D01*
X-35599095Y-22766974D01*
X-35629789Y-22787599D01*
X-35660952Y-22806455D01*
X-35692584Y-22823544D01*
X-35724686Y-22838863D01*
X-35757258Y-22852415D01*
X-35794301Y-22865569D01*
X-35831619Y-22876531D01*
X-35869210Y-22885301D01*
X-35907075Y-22891879D01*
X-35945215Y-22896263D01*
X-35983628Y-22898456D01*
X-36022315Y-22898456D01*
X-36061277Y-22896264D01*
X-36096086Y-22891844D01*
X-36131003Y-22885727D01*
X-36166028Y-22877913D01*
X-36201161Y-22868404D01*
X-36236403Y-22857198D01*
X-36271753Y-22844296D01*
X-36307211Y-22829698D01*
X-36342776Y-22813402D01*
X-36378450Y-22795411D01*
X-36407900Y-22779152D01*
X-36437253Y-22761733D01*
X-36466509Y-22743155D01*
X-36495669Y-22723417D01*
X-36524732Y-22702518D01*
X-36553699Y-22680461D01*
X-36582569Y-22657243D01*
X-36611342Y-22632867D01*
X-36640018Y-22607330D01*
X-36668599Y-22580635D01*
X-36697083Y-22552779D01*
X-36727368Y-22521734D01*
X-36756249Y-22490572D01*
X-36783728Y-22459293D01*
X-36809804Y-22427898D01*
X-36834476Y-22396385D01*
X-36857747Y-22364756D01*
X-36879612Y-22333010D01*
X-36900075Y-22301146D01*
X-36919136Y-22269166D01*
X-36936793Y-22237069D01*
X-36954783Y-22201395D01*
X-36971078Y-22165829D01*
X-36985676Y-22130371D01*
X-36998579Y-22095021D01*
X-37009784Y-22059779D01*
X-37019294Y-22024647D01*
X-37027107Y-21989622D01*
X-37033224Y-21954704D01*
X-37037645Y-21919896D01*
X-37040179Y-21880592D01*
X-37040476Y-21841608D01*
X-37038535Y-21802943D01*
X-37034356Y-21764598D01*
X-37027938Y-21726573D01*
X-37019283Y-21688867D01*
X-37008389Y-21651481D01*
X-36995258Y-21614415D01*
X-36982013Y-21581537D01*
X-36966964Y-21549164D01*
X-36950111Y-21517296D01*
X-36931453Y-21485935D01*
X-36910991Y-21455078D01*
X-36888724Y-21424726D01*
X-36864652Y-21394880D01*
X-36838776Y-21365539D01*
X-36811096Y-21336703D01*
X-37137035Y-21010762D01*
X-37166730Y-21041232D01*
X-37195261Y-21072091D01*
X-37222629Y-21103337D01*
X-37248835Y-21134971D01*
X-37273876Y-21166992D01*
X-37297754Y-21199402D01*
X-37320469Y-21232199D01*
X-37342021Y-21265384D01*
X-37362409Y-21298956D01*
X-37381634Y-21332917D01*
X-37399696Y-21367266D01*
X-37416594Y-21402001D01*
X-37432329Y-21437125D01*
X-37446900Y-21472637D01*
X-37461551Y-21510916D01*
X-37474922Y-21549299D01*
X-37487012Y-21587785D01*
X-37497823Y-21626376D01*
X-37507355Y-21665070D01*
X-37515605Y-21703868D01*
X-37522576Y-21742770D01*
X-37528267Y-21781775D01*
X-37532678Y-21820885D01*
X-37535808Y-21860098D01*
X-37537659Y-21899415D01*
X-37538231Y-21938836D01*
X-37537521Y-21978360D01*
X-37535933Y-22014879D01*
X-37533256Y-22051352D01*
X-37529490Y-22087781D01*
X-37524635Y-22124166D01*
X-37518692Y-22160505D01*
X-37511660Y-22196800D01*
X-37503539Y-22233050D01*
X-37494329Y-22269255D01*
X-37484031Y-22305415D01*
X-37472643Y-22341531D01*
X-37460167Y-22377602D01*
X-37446602Y-22413628D01*
X-37431949Y-22449609D01*
X-37416206Y-22485546D01*
X-37400570Y-22518514D01*
X-37384064Y-22551158D01*
X-37366687Y-22583476D01*
X-37348440Y-22615470D01*
X-37329322Y-22647140D01*
X-37309335Y-22678484D01*
X-37288475Y-22709503D01*
X-37266746Y-22740198D01*
X-37244146Y-22770567D01*
X-37220675Y-22800611D01*
X-37196335Y-22830332D01*
X-37171124Y-22859726D01*
X-37145042Y-22888798D01*
X-37118089Y-22917542D01*
X-37090267Y-22945963D01*
X-37061651Y-22973981D01*
X-37032711Y-23001129D01*
X-37003445Y-23027405D01*
X-36973856Y-23052811D01*
X-36943941Y-23077346D01*
X-36913701Y-23101012D01*
X-36883137Y-23123807D01*
X-36852247Y-23145731D01*
X-36821034Y-23166785D01*
X-36789494Y-23186968D01*
X-36757631Y-23206280D01*
X-36725441Y-23224722D01*
X-36692928Y-23242294D01*
X-36660090Y-23258995D01*
X-36626926Y-23274826D01*
X-36591184Y-23290373D01*
X-36555366Y-23304863D01*
X-36519474Y-23318294D01*
X-36483507Y-23330665D01*
X-36447466Y-23341979D01*
X-36411351Y-23352233D01*
X-36375160Y-23361427D01*
X-36338896Y-23369563D01*
X-36302556Y-23376640D01*
X-36266142Y-23382658D01*
X-36229653Y-23387617D01*
X-36193091Y-23391517D01*
X-36156453Y-23394358D01*
X-36119741Y-23396140D01*
X-36080216Y-23396850D01*
X-36040795Y-23396279D01*
X-36001478Y-23394428D01*
X-35962266Y-23391297D01*
X-35923156Y-23386886D01*
X-35884150Y-23381196D01*
X-35845249Y-23374224D01*
X-35806451Y-23365974D01*
X-35767756Y-23356443D01*
X-35729166Y-23345632D01*
X-35690680Y-23333542D01*
X-35652296Y-23320170D01*
X-35614017Y-23305520D01*
X-35578707Y-23290747D01*
X-35543770Y-23274825D01*
X-35509205Y-23257756D01*
X-35475013Y-23239537D01*
X-35441195Y-23220170D01*
X-35407749Y-23199655D01*
X-35374676Y-23177992D01*
X-35341976Y-23155180D01*
X-35309648Y-23131220D01*
X-35277694Y-23106111D01*
X-35246112Y-23079854D01*
X-35214903Y-23052449D01*
X-35184068Y-23023895D01*
X-35153604Y-22994192D01*
X-35123902Y-22963729D01*
X-35095348Y-22932893D01*
X-35067943Y-22901684D01*
X-35041686Y-22870102D01*
X-35016576Y-22838148D01*
X-34992617Y-22805821D01*
X-34969805Y-22773121D01*
X-34948141Y-22740047D01*
X-34927626Y-22706602D01*
X-34908259Y-22672784D01*
X-34890041Y-22638591D01*
X-34872972Y-22604027D01*
X-34857050Y-22569090D01*
X-34842277Y-22533780D01*
X-34827635Y-22495509D01*
X-34814290Y-22457152D01*
X-34802243Y-22418709D01*
X-34791492Y-22380179D01*
X-34782039Y-22341563D01*
X-34773884Y-22302859D01*
X-34767025Y-22264070D01*
X-34761463Y-22225194D01*
X-34757200Y-22186232D01*
X-34754234Y-22147183D01*
X-34752564Y-22108048D01*
X-34752193Y-22068827D01*
X-34753118Y-22029518D01*
X-34754908Y-21992813D01*
X-34757771Y-21956197D01*
X-34761707Y-21919671D01*
X-34766719Y-21883234D01*
X-34772803Y-21846887D01*
X-34779962Y-21810629D01*
X-34788195Y-21774462D01*
X-34797502Y-21738384D01*
X-34807882Y-21702395D01*
X-34819337Y-21666495D01*
X-34831866Y-21630686D01*
X-34845468Y-21594965D01*
X-34860144Y-21559334D01*
X-34875894Y-21523794D01*
X-34891726Y-21490631D01*
X-34908428Y-21457794D01*
X-34926000Y-21425281D01*
X-34944444Y-21393093D01*
X-34963757Y-21361230D01*
X-34983940Y-21329691D01*
X-35004995Y-21298478D01*
X-35026919Y-21267588D01*
X-35049714Y-21237025D01*
X-35073380Y-21206785D01*
X-35097915Y-21176871D01*
X-35123322Y-21147281D01*
X-35149599Y-21118016D01*
X-35176747Y-21089076D01*
X-35204764Y-21060461D01*
G36*
X-33937531Y-21105771D02*
G01*
X-35562863Y-19480439D01*
X-35947272Y-19864848D01*
X-34006228Y-21805891D01*
X-32948009Y-20747672D01*
X-33263721Y-20431960D01*
X-33937531Y-21105771D01*
G37*
X-33937531Y-21105771D02*
X-35562863Y-19480439D01*
X-35947272Y-19864848D01*
X-34006228Y-21805891D01*
X-32948009Y-20747672D01*
X-33263721Y-20431960D01*
X-33937531Y-21105771D01*
G36*
X-32052030Y-17907727D02*
G01*
X-32080438Y-17879917D01*
X-32109144Y-17853003D01*
X-32138150Y-17826986D01*
X-32167453Y-17801865D01*
X-32197056Y-17777641D01*
X-32226958Y-17754314D01*
X-32257158Y-17731882D01*
X-32287657Y-17710348D01*
X-32318455Y-17689709D01*
X-32349552Y-17669967D01*
X-32380947Y-17651121D01*
X-32412641Y-17633172D01*
X-32444635Y-17616119D01*
X-32476927Y-17599963D01*
X-32509517Y-17584703D01*
X-32547337Y-17568245D01*
X-32585245Y-17553049D01*
X-32623239Y-17539115D01*
X-32661319Y-17526446D01*
X-32699486Y-17515038D01*
X-32737739Y-17504892D01*
X-32776078Y-17496011D01*
X-32814505Y-17488391D01*
X-32853017Y-17482034D01*
X-32891616Y-17476940D01*
X-32930302Y-17473109D01*
X-32969074Y-17470540D01*
X-33007933Y-17469234D01*
X-33046575Y-17468975D01*
X-33085148Y-17469996D01*
X-33123652Y-17472296D01*
X-33162087Y-17475876D01*
X-33200452Y-17480737D01*
X-33238749Y-17486878D01*
X-33276976Y-17494298D01*
X-33315134Y-17502999D01*
X-33353223Y-17512980D01*
X-33391242Y-17524240D01*
X-33429192Y-17536781D01*
X-33467074Y-17550601D01*
X-33504886Y-17565702D01*
X-33539794Y-17580877D01*
X-33574358Y-17597172D01*
X-33608580Y-17614585D01*
X-33642458Y-17633116D01*
X-33675994Y-17652766D01*
X-33709186Y-17673534D01*
X-33742036Y-17695421D01*
X-33774542Y-17718428D01*
X-33806705Y-17742552D01*
X-33838526Y-17767795D01*
X-33870003Y-17794156D01*
X-33901137Y-17821636D01*
X-33931928Y-17850235D01*
X-33962376Y-17879952D01*
X-34669805Y-18587381D01*
X-32728761Y-20528424D01*
X-32021333Y-19820996D01*
X-31991616Y-19790548D01*
X-31963017Y-19759757D01*
X-31935537Y-19728622D01*
X-31909175Y-19697145D01*
X-31883932Y-19665325D01*
X-31859808Y-19633161D01*
X-31836802Y-19600656D01*
X-31814915Y-19567806D01*
X-31794146Y-19534613D01*
X-31774497Y-19501077D01*
X-31755965Y-19467199D01*
X-31738552Y-19432978D01*
X-32154743Y-19271836D01*
X-32170063Y-19303938D01*
X-32187151Y-19335570D01*
X-32206008Y-19366733D01*
X-32226633Y-19397428D01*
X-32249027Y-19427653D01*
X-32273188Y-19457409D01*
X-32299119Y-19486696D01*
X-32326818Y-19515514D01*
X-32648376Y-19837072D01*
X-33979920Y-18505528D01*
X-33658362Y-18183969D01*
X-33629526Y-18156289D01*
X-33600185Y-18130412D01*
X-33570339Y-18106341D01*
X-33539987Y-18084074D01*
X-33509130Y-18063611D01*
X-33477768Y-18044954D01*
X-33445900Y-18028100D01*
X-33413528Y-18013052D01*
X-33380649Y-17999807D01*
X-33343606Y-17986698D01*
X-33306289Y-17975873D01*
X-33268698Y-17967332D01*
X-33230832Y-17961074D01*
X-33192693Y-17957100D01*
X-33154280Y-17955410D01*
X-33115592Y-17956004D01*
X-33076630Y-17958881D01*
X-33041515Y-17962994D01*
X-33006327Y-17968841D01*
X-32971067Y-17976419D01*
X-32935736Y-17985730D01*
X-32900331Y-17996773D01*
X-32864855Y-18009550D01*
X-32829308Y-18024059D01*
X-32793687Y-18040299D01*
X-32757995Y-18058272D01*
X-32725898Y-18075928D01*
X-32693919Y-18094989D01*
X-32662055Y-18115453D01*
X-32630309Y-18137318D01*
X-32598679Y-18160588D01*
X-32567166Y-18185260D01*
X-32535771Y-18211336D01*
X-32504492Y-18238815D01*
X-32473330Y-18267696D01*
X-32442285Y-18297982D01*
X-32442288Y-18297979D01*
X-32414432Y-18326463D01*
X-32387737Y-18355043D01*
X-32362201Y-18383719D01*
X-32337824Y-18412493D01*
X-32314607Y-18441363D01*
X-32292550Y-18470329D01*
X-32271651Y-18499392D01*
X-32251913Y-18528552D01*
X-32233335Y-18557808D01*
X-32215916Y-18587161D01*
X-32199657Y-18616610D01*
X-32181684Y-18652303D01*
X-32165444Y-18687924D01*
X-32150936Y-18723472D01*
X-32138159Y-18758948D01*
X-32127117Y-18794352D01*
X-32117805Y-18829684D01*
X-32110227Y-18864944D01*
X-32104380Y-18900131D01*
X-32100266Y-18935246D01*
X-32097389Y-18974207D01*
X-32096795Y-19012894D01*
X-32098485Y-19051309D01*
X-32102459Y-19089447D01*
X-32108717Y-19127313D01*
X-32117257Y-19164904D01*
X-32128082Y-19202221D01*
X-32141192Y-19239265D01*
X-32154743Y-19271836D01*
X-31738552Y-19432978D01*
X-31722258Y-19398413D01*
X-31707082Y-19363505D01*
X-31691981Y-19325694D01*
X-31678161Y-19287812D01*
X-31665621Y-19249862D01*
X-31654361Y-19211842D01*
X-31644380Y-19173753D01*
X-31635679Y-19135595D01*
X-31628259Y-19097368D01*
X-31622118Y-19059072D01*
X-31617257Y-19020706D01*
X-31613677Y-18982271D01*
X-31611377Y-18943767D01*
X-31610356Y-18905194D01*
X-31610615Y-18866551D01*
X-31611921Y-18827692D01*
X-31614489Y-18788920D01*
X-31618320Y-18750234D01*
X-31623415Y-18711635D01*
X-31629771Y-18673122D01*
X-31637390Y-18634696D01*
X-31646272Y-18596356D01*
X-31656418Y-18558103D01*
X-31667825Y-18519937D01*
X-31680496Y-18481857D01*
X-31694429Y-18443864D01*
X-31709625Y-18405957D01*
X-31726084Y-18368137D01*
X-31741538Y-18335351D01*
X-31757890Y-18302864D01*
X-31775137Y-18270676D01*
X-31793282Y-18238787D01*
X-31812322Y-18207197D01*
X-31832259Y-18175905D01*
X-31853092Y-18144912D01*
X-31874822Y-18114218D01*
X-31897448Y-18083823D01*
X-31920970Y-18053727D01*
X-31945389Y-18023929D01*
X-31970705Y-17994430D01*
X-31996917Y-17965230D01*
X-32024026Y-17936329D01*
X-32052030Y-17907727D01*
G37*
X-32052030Y-17907727D02*
X-32080438Y-17879917D01*
X-32109144Y-17853003D01*
X-32138150Y-17826986D01*
X-32167453Y-17801865D01*
X-32197056Y-17777641D01*
X-32226958Y-17754314D01*
X-32257158Y-17731882D01*
X-32287657Y-17710348D01*
X-32318455Y-17689709D01*
X-32349552Y-17669967D01*
X-32380947Y-17651121D01*
X-32412641Y-17633172D01*
X-32444635Y-17616119D01*
X-32476927Y-17599963D01*
X-32509517Y-17584703D01*
X-32547337Y-17568245D01*
X-32585245Y-17553049D01*
X-32623239Y-17539115D01*
X-32661319Y-17526446D01*
X-32699486Y-17515038D01*
X-32737739Y-17504892D01*
X-32776078Y-17496011D01*
X-32814505Y-17488391D01*
X-32853017Y-17482034D01*
X-32891616Y-17476940D01*
X-32930302Y-17473109D01*
X-32969074Y-17470540D01*
X-33007933Y-17469234D01*
X-33046575Y-17468975D01*
X-33085148Y-17469996D01*
X-33123652Y-17472296D01*
X-33162087Y-17475876D01*
X-33200452Y-17480737D01*
X-33238749Y-17486878D01*
X-33276976Y-17494298D01*
X-33315134Y-17502999D01*
X-33353223Y-17512980D01*
X-33391242Y-17524240D01*
X-33429192Y-17536781D01*
X-33467074Y-17550601D01*
X-33504886Y-17565702D01*
X-33539794Y-17580877D01*
X-33574358Y-17597172D01*
X-33608580Y-17614585D01*
X-33642458Y-17633116D01*
X-33675994Y-17652766D01*
X-33709186Y-17673534D01*
X-33742036Y-17695421D01*
X-33774542Y-17718428D01*
X-33806705Y-17742552D01*
X-33838526Y-17767795D01*
X-33870003Y-17794156D01*
X-33901137Y-17821636D01*
X-33931928Y-17850235D01*
X-33962376Y-17879952D01*
X-34669805Y-18587381D01*
X-32728761Y-20528424D01*
X-32021333Y-19820996D01*
X-31991616Y-19790548D01*
X-31963017Y-19759757D01*
X-31935537Y-19728622D01*
X-31909175Y-19697145D01*
X-31883932Y-19665325D01*
X-31859808Y-19633161D01*
X-31836802Y-19600656D01*
X-31814915Y-19567806D01*
X-31794146Y-19534613D01*
X-31774497Y-19501077D01*
X-31755965Y-19467199D01*
X-31738552Y-19432978D01*
X-32154743Y-19271836D01*
X-32170063Y-19303938D01*
X-32187151Y-19335570D01*
X-32206008Y-19366733D01*
X-32226633Y-19397428D01*
X-32249027Y-19427653D01*
X-32273188Y-19457409D01*
X-32299119Y-19486696D01*
X-32326818Y-19515514D01*
X-32648376Y-19837072D01*
X-33979920Y-18505528D01*
X-33658362Y-18183969D01*
X-33629526Y-18156289D01*
X-33600185Y-18130412D01*
X-33570339Y-18106341D01*
X-33539987Y-18084074D01*
X-33509130Y-18063611D01*
X-33477768Y-18044954D01*
X-33445900Y-18028100D01*
X-33413528Y-18013052D01*
X-33380649Y-17999807D01*
X-33343606Y-17986698D01*
X-33306289Y-17975873D01*
X-33268698Y-17967332D01*
X-33230832Y-17961074D01*
X-33192693Y-17957100D01*
X-33154280Y-17955410D01*
X-33115592Y-17956004D01*
X-33076630Y-17958881D01*
X-33041515Y-17962994D01*
X-33006327Y-17968841D01*
X-32971067Y-17976419D01*
X-32935736Y-17985730D01*
X-32900331Y-17996773D01*
X-32864855Y-18009550D01*
X-32829308Y-18024059D01*
X-32793687Y-18040299D01*
X-32757995Y-18058272D01*
X-32725898Y-18075928D01*
X-32693919Y-18094989D01*
X-32662055Y-18115453D01*
X-32630309Y-18137318D01*
X-32598679Y-18160588D01*
X-32567166Y-18185260D01*
X-32535771Y-18211336D01*
X-32504492Y-18238815D01*
X-32473330Y-18267696D01*
X-32442285Y-18297982D01*
X-32442288Y-18297979D01*
X-32414432Y-18326463D01*
X-32387737Y-18355043D01*
X-32362201Y-18383719D01*
X-32337824Y-18412493D01*
X-32314607Y-18441363D01*
X-32292550Y-18470329D01*
X-32271651Y-18499392D01*
X-32251913Y-18528552D01*
X-32233335Y-18557808D01*
X-32215916Y-18587161D01*
X-32199657Y-18616610D01*
X-32181684Y-18652303D01*
X-32165444Y-18687924D01*
X-32150936Y-18723472D01*
X-32138159Y-18758948D01*
X-32127117Y-18794352D01*
X-32117805Y-18829684D01*
X-32110227Y-18864944D01*
X-32104380Y-18900131D01*
X-32100266Y-18935246D01*
X-32097389Y-18974207D01*
X-32096795Y-19012894D01*
X-32098485Y-19051309D01*
X-32102459Y-19089447D01*
X-32108717Y-19127313D01*
X-32117257Y-19164904D01*
X-32128082Y-19202221D01*
X-32141192Y-19239265D01*
X-32154743Y-19271836D01*
X-31738552Y-19432978D01*
X-31722258Y-19398413D01*
X-31707082Y-19363505D01*
X-31691981Y-19325694D01*
X-31678161Y-19287812D01*
X-31665621Y-19249862D01*
X-31654361Y-19211842D01*
X-31644380Y-19173753D01*
X-31635679Y-19135595D01*
X-31628259Y-19097368D01*
X-31622118Y-19059072D01*
X-31617257Y-19020706D01*
X-31613677Y-18982271D01*
X-31611377Y-18943767D01*
X-31610356Y-18905194D01*
X-31610615Y-18866551D01*
X-31611921Y-18827692D01*
X-31614489Y-18788920D01*
X-31618320Y-18750234D01*
X-31623415Y-18711635D01*
X-31629771Y-18673122D01*
X-31637390Y-18634696D01*
X-31646272Y-18596356D01*
X-31656418Y-18558103D01*
X-31667825Y-18519937D01*
X-31680496Y-18481857D01*
X-31694429Y-18443864D01*
X-31709625Y-18405957D01*
X-31726084Y-18368137D01*
X-31741538Y-18335351D01*
X-31757890Y-18302864D01*
X-31775137Y-18270676D01*
X-31793282Y-18238787D01*
X-31812322Y-18207197D01*
X-31832259Y-18175905D01*
X-31853092Y-18144912D01*
X-31874822Y-18114218D01*
X-31897448Y-18083823D01*
X-31920970Y-18053727D01*
X-31945389Y-18023929D01*
X-31970705Y-17994430D01*
X-31996917Y-17965230D01*
X-32024026Y-17936329D01*
X-32052030Y-17907727D01*
G36*
X16295220Y4658041D02*
G01*
X16294869Y4699947D01*
X16293815Y4741533D01*
X16292059Y4782797D01*
X16289601Y4823742D01*
X16286440Y4864365D01*
X16282577Y4904668D01*
X16278012Y4944650D01*
X16272744Y4984312D01*
X16266774Y5023652D01*
X16260101Y5062673D01*
X16252726Y5101372D01*
X16244649Y5139751D01*
X16235869Y5177809D01*
X16226387Y5215547D01*
X16216202Y5252964D01*
X16205315Y5290060D01*
X16193726Y5326836D01*
X16181435Y5363291D01*
X16168441Y5399425D01*
X16154022Y5437117D01*
X16138940Y5474248D01*
X16123195Y5510817D01*
X16106786Y5546824D01*
X16089714Y5582270D01*
X16071978Y5617155D01*
X16053579Y5651478D01*
X16034516Y5685240D01*
X16014789Y5718441D01*
X15994400Y5751080D01*
X15973346Y5783158D01*
X15951629Y5814674D01*
X15929249Y5845629D01*
X15906205Y5876022D01*
X15882498Y5905854D01*
X15858127Y5935124D01*
X15833093Y5963834D01*
X15807395Y5991981D01*
X15781374Y6019508D01*
X15754757Y6046354D01*
X15727545Y6072520D01*
X15699738Y6098005D01*
X15671335Y6122810D01*
X15642337Y6146934D01*
X15612743Y6170377D01*
X15582554Y6193141D01*
X15551769Y6215223D01*
X15520389Y6236625D01*
X15488413Y6257347D01*
X15455842Y6277388D01*
X15422676Y6296749D01*
X15388914Y6315429D01*
X15354557Y6333428D01*
X15319604Y6350747D01*
X15284055Y6367386D01*
X15247912Y6383344D01*
X15213190Y6398033D01*
X15178071Y6411927D01*
X15142555Y6425028D01*
X15106642Y6437335D01*
X15070332Y6448848D01*
X15033625Y6459567D01*
X14996521Y6469492D01*
X14959020Y6478623D01*
X14921122Y6486960D01*
X14882827Y6494503D01*
X14844135Y6501252D01*
X14805046Y6507207D01*
X14765561Y6512368D01*
X14725678Y6516735D01*
X14685398Y6520308D01*
X14644721Y6523087D01*
X14603647Y6525072D01*
X14562176Y6526263D01*
X14560367Y5911442D01*
X14599698Y5909605D01*
X14638303Y5906543D01*
X14676180Y5902255D01*
X14713329Y5896743D01*
X14749752Y5890006D01*
X14785447Y5882044D01*
X14820414Y5872857D01*
X14854655Y5862446D01*
X14888168Y5850809D01*
X14920954Y5837947D01*
X14953012Y5823861D01*
X14987588Y5807689D01*
X15021162Y5790241D01*
X15053734Y5771518D01*
X15085303Y5751519D01*
X15115871Y5730245D01*
X15145436Y5707696D01*
X15173999Y5683870D01*
X15201560Y5658770D01*
X15228118Y5632393D01*
X15253674Y5604741D01*
X15278228Y5575814D01*
X15300296Y5548234D01*
X15321484Y5519697D01*
X15341790Y5490203D01*
X15361217Y5459753D01*
X15379763Y5428345D01*
X15397429Y5395980D01*
X15414214Y5362658D01*
X15430119Y5328380D01*
X15445143Y5293144D01*
X15459287Y5256951D01*
X15472551Y5219802D01*
X15484934Y5181695D01*
X15494805Y5148313D01*
X15503945Y5114312D01*
X15512354Y5079692D01*
X15520032Y5044454D01*
X15526978Y5008597D01*
X15533194Y4972121D01*
X15538678Y4935027D01*
X15543430Y4897313D01*
X15547452Y4858982D01*
X15550742Y4820031D01*
X15553302Y4780462D01*
X15555130Y4740273D01*
X15556226Y4699467D01*
X15556592Y4658041D01*
X15556226Y4616222D01*
X15555130Y4575022D01*
X15553302Y4534440D01*
X15550742Y4494477D01*
X15547452Y4455132D01*
X15543430Y4416407D01*
X15538678Y4378300D01*
X15533194Y4340811D01*
X15526978Y4303942D01*
X15520032Y4267691D01*
X15512354Y4232059D01*
X15503945Y4197046D01*
X15494805Y4162651D01*
X15484934Y4128875D01*
X15472551Y4090768D01*
X15459287Y4053619D01*
X15445143Y4017426D01*
X15430119Y3982191D01*
X15414214Y3947912D01*
X15397429Y3914590D01*
X15379763Y3882225D01*
X15361217Y3850818D01*
X15341790Y3820367D01*
X15321484Y3790873D01*
X15300296Y3762336D01*
X15278228Y3734756D01*
X15253674Y3706307D01*
X15228118Y3679088D01*
X15201560Y3653099D01*
X15173999Y3628340D01*
X15145436Y3604811D01*
X15115871Y3582512D01*
X15085303Y3561442D01*
X15053734Y3541603D01*
X15021162Y3522994D01*
X14987588Y3505615D01*
X14953012Y3489466D01*
X14920954Y3475819D01*
X14888168Y3463360D01*
X14854655Y3452087D01*
X14820414Y3442000D01*
X14785447Y3433100D01*
X14749752Y3425387D01*
X14713329Y3418861D01*
X14676180Y3413521D01*
X14638303Y3409368D01*
X14599698Y3406401D01*
X14560367Y3404621D01*
X14520308Y3404028D01*
X14480230Y3404621D01*
X14440841Y3406401D01*
X14402142Y3409368D01*
X14364131Y3413521D01*
X14326809Y3418861D01*
X14290176Y3425387D01*
X14254232Y3433100D01*
X14218977Y3442000D01*
X14184412Y3452087D01*
X14150535Y3463360D01*
X14117347Y3475819D01*
X14084848Y3489466D01*
X14050249Y3505615D01*
X14016607Y3522994D01*
X13983921Y3541603D01*
X13952192Y3561443D01*
X13921420Y3582512D01*
X13891604Y3604811D01*
X13862745Y3628340D01*
X13834843Y3653099D01*
X13807897Y3679088D01*
X13781908Y3706307D01*
X13756876Y3734756D01*
X13735249Y3762336D01*
X13714463Y3790873D01*
X13694520Y3820367D01*
X13675419Y3850818D01*
X13657160Y3882225D01*
X13639744Y3914590D01*
X13623169Y3947912D01*
X13607436Y3982191D01*
X13592545Y4017426D01*
X13578497Y4053619D01*
X13565290Y4090768D01*
X13552926Y4128875D01*
X13543054Y4162651D01*
X13533914Y4197046D01*
X13525505Y4232059D01*
X13517827Y4267691D01*
X13510881Y4303942D01*
X13504665Y4340811D01*
X13499181Y4378300D01*
X13494428Y4416407D01*
X13490406Y4455132D01*
X13487116Y4494477D01*
X13484557Y4534440D01*
X13482728Y4575022D01*
X13481632Y4616222D01*
X13481266Y4658041D01*
X13481632Y4699467D01*
X13482728Y4740273D01*
X13484557Y4780462D01*
X13487116Y4820031D01*
X13490406Y4858982D01*
X13494428Y4897313D01*
X13499181Y4935027D01*
X13504665Y4972121D01*
X13510881Y5008597D01*
X13517827Y5044454D01*
X13525505Y5079692D01*
X13533914Y5114312D01*
X13543054Y5148313D01*
X13552926Y5181695D01*
X13565290Y5219802D01*
X13578496Y5256951D01*
X13592545Y5293144D01*
X13607435Y5328380D01*
X13623168Y5362658D01*
X13639742Y5395980D01*
X13657159Y5428345D01*
X13675418Y5459753D01*
X13694520Y5490203D01*
X13714463Y5519697D01*
X13735248Y5548234D01*
X13756876Y5575814D01*
X13781908Y5604741D01*
X13807897Y5632393D01*
X13834843Y5658770D01*
X13862745Y5683870D01*
X13891604Y5707696D01*
X13921420Y5730245D01*
X13952192Y5751520D01*
X13983921Y5771518D01*
X14016607Y5790241D01*
X14050249Y5807689D01*
X14084848Y5823861D01*
X14117347Y5837947D01*
X14150535Y5850809D01*
X14184412Y5862446D01*
X14218977Y5872857D01*
X14254232Y5882044D01*
X14290176Y5890006D01*
X14326809Y5896743D01*
X14364131Y5902255D01*
X14402142Y5906543D01*
X14440841Y5909605D01*
X14480230Y5911442D01*
X14520308Y5912055D01*
X14560367Y5911442D01*
X14562176Y6526263D01*
X14520308Y6526660D01*
X14478440Y6526263D01*
X14436969Y6525072D01*
X14395895Y6523087D01*
X14355218Y6520308D01*
X14314938Y6516735D01*
X14275056Y6512368D01*
X14235570Y6507207D01*
X14196481Y6501252D01*
X14157789Y6494503D01*
X14119494Y6486960D01*
X14081596Y6478623D01*
X14044095Y6469492D01*
X14006991Y6459567D01*
X13970284Y6448848D01*
X13933974Y6437335D01*
X13898062Y6425028D01*
X13862546Y6411927D01*
X13827427Y6398033D01*
X13792705Y6383344D01*
X13756553Y6367386D01*
X13720979Y6350747D01*
X13685984Y6333428D01*
X13651567Y6315429D01*
X13617728Y6296749D01*
X13584468Y6277388D01*
X13551786Y6257347D01*
X13519683Y6236625D01*
X13488158Y6215223D01*
X13457212Y6193141D01*
X13426844Y6170377D01*
X13397055Y6146934D01*
X13367844Y6122810D01*
X13339211Y6098005D01*
X13311157Y6072520D01*
X13283681Y6046354D01*
X13256784Y6019508D01*
X13230465Y5991981D01*
X13204759Y5964123D01*
X13179699Y5935669D01*
X13155286Y5906619D01*
X13131519Y5876975D01*
X13108398Y5846734D01*
X13085924Y5815899D01*
X13064097Y5784468D01*
X13042916Y5752441D01*
X13022382Y5719819D01*
X13002494Y5686601D01*
X12983252Y5652788D01*
X12964657Y5618380D01*
X12946709Y5583376D01*
X12929407Y5547777D01*
X12912752Y5511582D01*
X12896743Y5474792D01*
X12881380Y5437406D01*
X12866664Y5399425D01*
X12853670Y5363291D01*
X12841378Y5326836D01*
X12829789Y5290060D01*
X12818902Y5252964D01*
X12808717Y5215547D01*
X12799235Y5177809D01*
X12790456Y5139751D01*
X12782378Y5101372D01*
X12775003Y5062673D01*
X12768330Y5023652D01*
X12762360Y4984312D01*
X12757092Y4944650D01*
X12752527Y4904668D01*
X12748664Y4864365D01*
X12745503Y4823742D01*
X12743045Y4782797D01*
X12741289Y4741533D01*
X12740235Y4699947D01*
X12739884Y4658041D01*
X12740235Y4615845D01*
X12741289Y4573969D01*
X12743045Y4532415D01*
X12745503Y4491180D01*
X12748664Y4450267D01*
X12752527Y4409674D01*
X12757092Y4369402D01*
X12762360Y4329450D01*
X12768330Y4289819D01*
X12775003Y4250509D01*
X12782378Y4211519D01*
X12790456Y4172850D01*
X12799235Y4134502D01*
X12808717Y4096474D01*
X12818902Y4058767D01*
X12829789Y4021380D01*
X12841378Y3984315D01*
X12853670Y3947570D01*
X12866664Y3911145D01*
X12881380Y3873453D01*
X12896743Y3836323D01*
X12912752Y3799754D01*
X12929407Y3763746D01*
X12946709Y3728300D01*
X12964657Y3693415D01*
X12983252Y3659092D01*
X13002494Y3625330D01*
X13022382Y3592130D01*
X13042916Y3559490D01*
X13064097Y3527413D01*
X13085924Y3495897D01*
X13108398Y3464942D01*
X13131519Y3434548D01*
X13155286Y3404716D01*
X13179699Y3375446D01*
X13204759Y3346737D01*
X13230465Y3318589D01*
X13256784Y3291062D01*
X13283681Y3264216D01*
X13311157Y3238051D01*
X13339211Y3212565D01*
X13367844Y3187761D01*
X13397055Y3163637D01*
X13426844Y3140193D01*
X13457212Y3117430D01*
X13488158Y3095347D01*
X13519683Y3073945D01*
X13551786Y3053223D01*
X13584468Y3033182D01*
X13617728Y3013822D01*
X13651567Y2995142D01*
X13685984Y2977142D01*
X13720979Y2959823D01*
X13756553Y2943185D01*
X13792705Y2927227D01*
X13827427Y2912820D01*
X13862546Y2899193D01*
X13898062Y2886344D01*
X13933974Y2874273D01*
X13970284Y2862982D01*
X14006991Y2852469D01*
X14044095Y2842735D01*
X14081596Y2833780D01*
X14119494Y2825603D01*
X14157789Y2818205D01*
X14196481Y2811586D01*
X14235570Y2805746D01*
X14275056Y2800684D01*
X14314938Y2796401D01*
X14355218Y2792897D01*
X14395895Y2790171D01*
X14436969Y2788224D01*
X14478440Y2787056D01*
X14520308Y2786667D01*
X14562176Y2787056D01*
X14603647Y2788224D01*
X14644721Y2790171D01*
X14685398Y2792897D01*
X14725678Y2796401D01*
X14765561Y2800684D01*
X14805046Y2805746D01*
X14844135Y2811586D01*
X14882827Y2818205D01*
X14921122Y2825603D01*
X14959020Y2833780D01*
X14996521Y2842735D01*
X15033625Y2852469D01*
X15070332Y2862982D01*
X15106642Y2874273D01*
X15142555Y2886344D01*
X15178071Y2899193D01*
X15213190Y2912820D01*
X15247912Y2927227D01*
X15284055Y2943185D01*
X15319604Y2959823D01*
X15354557Y2977142D01*
X15388914Y2995142D01*
X15422676Y3013822D01*
X15455842Y3033182D01*
X15488413Y3053223D01*
X15520389Y3073945D01*
X15551769Y3095347D01*
X15582554Y3117430D01*
X15612743Y3140193D01*
X15642337Y3163637D01*
X15671335Y3187761D01*
X15699738Y3212565D01*
X15727545Y3238051D01*
X15754757Y3264216D01*
X15781374Y3291062D01*
X15807395Y3318589D01*
X15833093Y3346737D01*
X15858127Y3375446D01*
X15882498Y3404716D01*
X15906205Y3434548D01*
X15929249Y3464942D01*
X15951629Y3495897D01*
X15973346Y3527413D01*
X15994400Y3559490D01*
X16014789Y3592130D01*
X16034516Y3625330D01*
X16053579Y3659092D01*
X16071978Y3693415D01*
X16089714Y3728300D01*
X16106786Y3763746D01*
X16123195Y3799754D01*
X16138940Y3836323D01*
X16154022Y3873453D01*
X16168441Y3911145D01*
X16181435Y3947570D01*
X16193726Y3984315D01*
X16205315Y4021380D01*
X16216202Y4058767D01*
X16226387Y4096474D01*
X16235869Y4134502D01*
X16244649Y4172850D01*
X16252726Y4211519D01*
X16260101Y4250509D01*
X16266774Y4289819D01*
X16272744Y4329450D01*
X16278012Y4369402D01*
X16282577Y4409674D01*
X16286440Y4450267D01*
X16289601Y4491180D01*
X16292059Y4532415D01*
X16293815Y4573969D01*
X16294869Y4615845D01*
X16295220Y4658041D01*
G37*
X16295220Y4658041D02*
X16294869Y4699947D01*
X16293815Y4741533D01*
X16292059Y4782797D01*
X16289601Y4823742D01*
X16286440Y4864365D01*
X16282577Y4904668D01*
X16278012Y4944650D01*
X16272744Y4984312D01*
X16266774Y5023652D01*
X16260101Y5062673D01*
X16252726Y5101372D01*
X16244649Y5139751D01*
X16235869Y5177809D01*
X16226387Y5215547D01*
X16216202Y5252964D01*
X16205315Y5290060D01*
X16193726Y5326836D01*
X16181435Y5363291D01*
X16168441Y5399425D01*
X16154022Y5437117D01*
X16138940Y5474248D01*
X16123195Y5510817D01*
X16106786Y5546824D01*
X16089714Y5582270D01*
X16071978Y5617155D01*
X16053579Y5651478D01*
X16034516Y5685240D01*
X16014789Y5718441D01*
X15994400Y5751080D01*
X15973346Y5783158D01*
X15951629Y5814674D01*
X15929249Y5845629D01*
X15906205Y5876022D01*
X15882498Y5905854D01*
X15858127Y5935124D01*
X15833093Y5963834D01*
X15807395Y5991981D01*
X15781374Y6019508D01*
X15754757Y6046354D01*
X15727545Y6072520D01*
X15699738Y6098005D01*
X15671335Y6122810D01*
X15642337Y6146934D01*
X15612743Y6170377D01*
X15582554Y6193141D01*
X15551769Y6215223D01*
X15520389Y6236625D01*
X15488413Y6257347D01*
X15455842Y6277388D01*
X15422676Y6296749D01*
X15388914Y6315429D01*
X15354557Y6333428D01*
X15319604Y6350747D01*
X15284055Y6367386D01*
X15247912Y6383344D01*
X15213190Y6398033D01*
X15178071Y6411927D01*
X15142555Y6425028D01*
X15106642Y6437335D01*
X15070332Y6448848D01*
X15033625Y6459567D01*
X14996521Y6469492D01*
X14959020Y6478623D01*
X14921122Y6486960D01*
X14882827Y6494503D01*
X14844135Y6501252D01*
X14805046Y6507207D01*
X14765561Y6512368D01*
X14725678Y6516735D01*
X14685398Y6520308D01*
X14644721Y6523087D01*
X14603647Y6525072D01*
X14562176Y6526263D01*
X14560367Y5911442D01*
X14599698Y5909605D01*
X14638303Y5906543D01*
X14676180Y5902255D01*
X14713329Y5896743D01*
X14749752Y5890006D01*
X14785447Y5882044D01*
X14820414Y5872857D01*
X14854655Y5862446D01*
X14888168Y5850809D01*
X14920954Y5837947D01*
X14953012Y5823861D01*
X14987588Y5807689D01*
X15021162Y5790241D01*
X15053734Y5771518D01*
X15085303Y5751519D01*
X15115871Y5730245D01*
X15145436Y5707696D01*
X15173999Y5683870D01*
X15201560Y5658770D01*
X15228118Y5632393D01*
X15253674Y5604741D01*
X15278228Y5575814D01*
X15300296Y5548234D01*
X15321484Y5519697D01*
X15341790Y5490203D01*
X15361217Y5459753D01*
X15379763Y5428345D01*
X15397429Y5395980D01*
X15414214Y5362658D01*
X15430119Y5328380D01*
X15445143Y5293144D01*
X15459287Y5256951D01*
X15472551Y5219802D01*
X15484934Y5181695D01*
X15494805Y5148313D01*
X15503945Y5114312D01*
X15512354Y5079692D01*
X15520032Y5044454D01*
X15526978Y5008597D01*
X15533194Y4972121D01*
X15538678Y4935027D01*
X15543430Y4897313D01*
X15547452Y4858982D01*
X15550742Y4820031D01*
X15553302Y4780462D01*
X15555130Y4740273D01*
X15556226Y4699467D01*
X15556592Y4658041D01*
X15556226Y4616222D01*
X15555130Y4575022D01*
X15553302Y4534440D01*
X15550742Y4494477D01*
X15547452Y4455132D01*
X15543430Y4416407D01*
X15538678Y4378300D01*
X15533194Y4340811D01*
X15526978Y4303942D01*
X15520032Y4267691D01*
X15512354Y4232059D01*
X15503945Y4197046D01*
X15494805Y4162651D01*
X15484934Y4128875D01*
X15472551Y4090768D01*
X15459287Y4053619D01*
X15445143Y4017426D01*
X15430119Y3982191D01*
X15414214Y3947912D01*
X15397429Y3914590D01*
X15379763Y3882225D01*
X15361217Y3850818D01*
X15341790Y3820367D01*
X15321484Y3790873D01*
X15300296Y3762336D01*
X15278228Y3734756D01*
X15253674Y3706307D01*
X15228118Y3679088D01*
X15201560Y3653099D01*
X15173999Y3628340D01*
X15145436Y3604811D01*
X15115871Y3582512D01*
X15085303Y3561442D01*
X15053734Y3541603D01*
X15021162Y3522994D01*
X14987588Y3505615D01*
X14953012Y3489466D01*
X14920954Y3475819D01*
X14888168Y3463360D01*
X14854655Y3452087D01*
X14820414Y3442000D01*
X14785447Y3433100D01*
X14749752Y3425387D01*
X14713329Y3418861D01*
X14676180Y3413521D01*
X14638303Y3409368D01*
X14599698Y3406401D01*
X14560367Y3404621D01*
X14520308Y3404028D01*
X14480230Y3404621D01*
X14440841Y3406401D01*
X14402142Y3409368D01*
X14364131Y3413521D01*
X14326809Y3418861D01*
X14290176Y3425387D01*
X14254232Y3433100D01*
X14218977Y3442000D01*
X14184412Y3452087D01*
X14150535Y3463360D01*
X14117347Y3475819D01*
X14084848Y3489466D01*
X14050249Y3505615D01*
X14016607Y3522994D01*
X13983921Y3541603D01*
X13952192Y3561443D01*
X13921420Y3582512D01*
X13891604Y3604811D01*
X13862745Y3628340D01*
X13834843Y3653099D01*
X13807897Y3679088D01*
X13781908Y3706307D01*
X13756876Y3734756D01*
X13735249Y3762336D01*
X13714463Y3790873D01*
X13694520Y3820367D01*
X13675419Y3850818D01*
X13657160Y3882225D01*
X13639744Y3914590D01*
X13623169Y3947912D01*
X13607436Y3982191D01*
X13592545Y4017426D01*
X13578497Y4053619D01*
X13565290Y4090768D01*
X13552926Y4128875D01*
X13543054Y4162651D01*
X13533914Y4197046D01*
X13525505Y4232059D01*
X13517827Y4267691D01*
X13510881Y4303942D01*
X13504665Y4340811D01*
X13499181Y4378300D01*
X13494428Y4416407D01*
X13490406Y4455132D01*
X13487116Y4494477D01*
X13484557Y4534440D01*
X13482728Y4575022D01*
X13481632Y4616222D01*
X13481266Y4658041D01*
X13481632Y4699467D01*
X13482728Y4740273D01*
X13484557Y4780462D01*
X13487116Y4820031D01*
X13490406Y4858982D01*
X13494428Y4897313D01*
X13499181Y4935027D01*
X13504665Y4972121D01*
X13510881Y5008597D01*
X13517827Y5044454D01*
X13525505Y5079692D01*
X13533914Y5114312D01*
X13543054Y5148313D01*
X13552926Y5181695D01*
X13565290Y5219802D01*
X13578496Y5256951D01*
X13592545Y5293144D01*
X13607435Y5328380D01*
X13623168Y5362658D01*
X13639742Y5395980D01*
X13657159Y5428345D01*
X13675418Y5459753D01*
X13694520Y5490203D01*
X13714463Y5519697D01*
X13735248Y5548234D01*
X13756876Y5575814D01*
X13781908Y5604741D01*
X13807897Y5632393D01*
X13834843Y5658770D01*
X13862745Y5683870D01*
X13891604Y5707696D01*
X13921420Y5730245D01*
X13952192Y5751520D01*
X13983921Y5771518D01*
X14016607Y5790241D01*
X14050249Y5807689D01*
X14084848Y5823861D01*
X14117347Y5837947D01*
X14150535Y5850809D01*
X14184412Y5862446D01*
X14218977Y5872857D01*
X14254232Y5882044D01*
X14290176Y5890006D01*
X14326809Y5896743D01*
X14364131Y5902255D01*
X14402142Y5906543D01*
X14440841Y5909605D01*
X14480230Y5911442D01*
X14520308Y5912055D01*
X14560367Y5911442D01*
X14562176Y6526263D01*
X14520308Y6526660D01*
X14478440Y6526263D01*
X14436969Y6525072D01*
X14395895Y6523087D01*
X14355218Y6520308D01*
X14314938Y6516735D01*
X14275056Y6512368D01*
X14235570Y6507207D01*
X14196481Y6501252D01*
X14157789Y6494503D01*
X14119494Y6486960D01*
X14081596Y6478623D01*
X14044095Y6469492D01*
X14006991Y6459567D01*
X13970284Y6448848D01*
X13933974Y6437335D01*
X13898062Y6425028D01*
X13862546Y6411927D01*
X13827427Y6398033D01*
X13792705Y6383344D01*
X13756553Y6367386D01*
X13720979Y6350747D01*
X13685984Y6333428D01*
X13651567Y6315429D01*
X13617728Y6296749D01*
X13584468Y6277388D01*
X13551786Y6257347D01*
X13519683Y6236625D01*
X13488158Y6215223D01*
X13457212Y6193141D01*
X13426844Y6170377D01*
X13397055Y6146934D01*
X13367844Y6122810D01*
X13339211Y6098005D01*
X13311157Y6072520D01*
X13283681Y6046354D01*
X13256784Y6019508D01*
X13230465Y5991981D01*
X13204759Y5964123D01*
X13179699Y5935669D01*
X13155286Y5906619D01*
X13131519Y5876975D01*
X13108398Y5846734D01*
X13085924Y5815899D01*
X13064097Y5784468D01*
X13042916Y5752441D01*
X13022382Y5719819D01*
X13002494Y5686601D01*
X12983252Y5652788D01*
X12964657Y5618380D01*
X12946709Y5583376D01*
X12929407Y5547777D01*
X12912752Y5511582D01*
X12896743Y5474792D01*
X12881380Y5437406D01*
X12866664Y5399425D01*
X12853670Y5363291D01*
X12841378Y5326836D01*
X12829789Y5290060D01*
X12818902Y5252964D01*
X12808717Y5215547D01*
X12799235Y5177809D01*
X12790456Y5139751D01*
X12782378Y5101372D01*
X12775003Y5062673D01*
X12768330Y5023652D01*
X12762360Y4984312D01*
X12757092Y4944650D01*
X12752527Y4904668D01*
X12748664Y4864365D01*
X12745503Y4823742D01*
X12743045Y4782797D01*
X12741289Y4741533D01*
X12740235Y4699947D01*
X12739884Y4658041D01*
X12740235Y4615845D01*
X12741289Y4573969D01*
X12743045Y4532415D01*
X12745503Y4491180D01*
X12748664Y4450267D01*
X12752527Y4409674D01*
X12757092Y4369402D01*
X12762360Y4329450D01*
X12768330Y4289819D01*
X12775003Y4250509D01*
X12782378Y4211519D01*
X12790456Y4172850D01*
X12799235Y4134502D01*
X12808717Y4096474D01*
X12818902Y4058767D01*
X12829789Y4021380D01*
X12841378Y3984315D01*
X12853670Y3947570D01*
X12866664Y3911145D01*
X12881380Y3873453D01*
X12896743Y3836323D01*
X12912752Y3799754D01*
X12929407Y3763746D01*
X12946709Y3728300D01*
X12964657Y3693415D01*
X12983252Y3659092D01*
X13002494Y3625330D01*
X13022382Y3592130D01*
X13042916Y3559490D01*
X13064097Y3527413D01*
X13085924Y3495897D01*
X13108398Y3464942D01*
X13131519Y3434548D01*
X13155286Y3404716D01*
X13179699Y3375446D01*
X13204759Y3346737D01*
X13230465Y3318589D01*
X13256784Y3291062D01*
X13283681Y3264216D01*
X13311157Y3238051D01*
X13339211Y3212565D01*
X13367844Y3187761D01*
X13397055Y3163637D01*
X13426844Y3140193D01*
X13457212Y3117430D01*
X13488158Y3095347D01*
X13519683Y3073945D01*
X13551786Y3053223D01*
X13584468Y3033182D01*
X13617728Y3013822D01*
X13651567Y2995142D01*
X13685984Y2977142D01*
X13720979Y2959823D01*
X13756553Y2943185D01*
X13792705Y2927227D01*
X13827427Y2912820D01*
X13862546Y2899193D01*
X13898062Y2886344D01*
X13933974Y2874273D01*
X13970284Y2862982D01*
X14006991Y2852469D01*
X14044095Y2842735D01*
X14081596Y2833780D01*
X14119494Y2825603D01*
X14157789Y2818205D01*
X14196481Y2811586D01*
X14235570Y2805746D01*
X14275056Y2800684D01*
X14314938Y2796401D01*
X14355218Y2792897D01*
X14395895Y2790171D01*
X14436969Y2788224D01*
X14478440Y2787056D01*
X14520308Y2786667D01*
X14562176Y2787056D01*
X14603647Y2788224D01*
X14644721Y2790171D01*
X14685398Y2792897D01*
X14725678Y2796401D01*
X14765561Y2800684D01*
X14805046Y2805746D01*
X14844135Y2811586D01*
X14882827Y2818205D01*
X14921122Y2825603D01*
X14959020Y2833780D01*
X14996521Y2842735D01*
X15033625Y2852469D01*
X15070332Y2862982D01*
X15106642Y2874273D01*
X15142555Y2886344D01*
X15178071Y2899193D01*
X15213190Y2912820D01*
X15247912Y2927227D01*
X15284055Y2943185D01*
X15319604Y2959823D01*
X15354557Y2977142D01*
X15388914Y2995142D01*
X15422676Y3013822D01*
X15455842Y3033182D01*
X15488413Y3053223D01*
X15520389Y3073945D01*
X15551769Y3095347D01*
X15582554Y3117430D01*
X15612743Y3140193D01*
X15642337Y3163637D01*
X15671335Y3187761D01*
X15699738Y3212565D01*
X15727545Y3238051D01*
X15754757Y3264216D01*
X15781374Y3291062D01*
X15807395Y3318589D01*
X15833093Y3346737D01*
X15858127Y3375446D01*
X15882498Y3404716D01*
X15906205Y3434548D01*
X15929249Y3464942D01*
X15951629Y3495897D01*
X15973346Y3527413D01*
X15994400Y3559490D01*
X16014789Y3592130D01*
X16034516Y3625330D01*
X16053579Y3659092D01*
X16071978Y3693415D01*
X16089714Y3728300D01*
X16106786Y3763746D01*
X16123195Y3799754D01*
X16138940Y3836323D01*
X16154022Y3873453D01*
X16168441Y3911145D01*
X16181435Y3947570D01*
X16193726Y3984315D01*
X16205315Y4021380D01*
X16216202Y4058767D01*
X16226387Y4096474D01*
X16235869Y4134502D01*
X16244649Y4172850D01*
X16252726Y4211519D01*
X16260101Y4250509D01*
X16266774Y4289819D01*
X16272744Y4329450D01*
X16278012Y4369402D01*
X16282577Y4409674D01*
X16286440Y4450267D01*
X16289601Y4491180D01*
X16292059Y4532415D01*
X16293815Y4573969D01*
X16294869Y4615845D01*
X16295220Y4658041D01*
G36*
X18877662Y6485318D02*
G01*
X16725168Y6485318D01*
X16725168Y2825252D01*
X17452771Y2825252D01*
X17452771Y4296995D01*
X18646151Y4296995D01*
X18646151Y4873015D01*
X17452771Y4873015D01*
X17452771Y5909299D01*
X18877662Y5909299D01*
X18877662Y6485318D01*
G37*
X18877662Y6485318D02*
X16725168Y6485318D01*
X16725168Y2825252D01*
X17452771Y2825252D01*
X17452771Y4296995D01*
X18646151Y4296995D01*
X18646151Y4873015D01*
X17452771Y4873015D01*
X17452771Y5909299D01*
X18877662Y5909299D01*
X18877662Y6485318D01*
G36*
X21468372Y6485318D02*
G01*
X19315878Y6485318D01*
X19315878Y2825252D01*
X20043481Y2825252D01*
X20043481Y4296995D01*
X21236862Y4296995D01*
X21236862Y4873015D01*
X20043481Y4873015D01*
X20043481Y5909299D01*
X21468372Y5909299D01*
X21468372Y6485318D01*
G37*
X21468372Y6485318D02*
X19315878Y6485318D01*
X19315878Y2825252D01*
X20043481Y2825252D01*
X20043481Y4296995D01*
X21236862Y4296995D01*
X21236862Y4873015D01*
X20043481Y4873015D01*
X20043481Y5909299D01*
X21468372Y5909299D01*
X21468372Y6485318D01*
G36*
X16295220Y-4655285D02*
G01*
X16294869Y-4613379D01*
X16293815Y-4571793D01*
X16292059Y-4530529D01*
X16289601Y-4489585D01*
X16286440Y-4448961D01*
X16282577Y-4408658D01*
X16278012Y-4368676D01*
X16272744Y-4329015D01*
X16266774Y-4289674D01*
X16260101Y-4250653D01*
X16252726Y-4211954D01*
X16244649Y-4173575D01*
X16235869Y-4135517D01*
X16226387Y-4097779D01*
X16216202Y-4060362D01*
X16205315Y-4023266D01*
X16193726Y-3986490D01*
X16181435Y-3950035D01*
X16168441Y-3913901D01*
X16154022Y-3876209D01*
X16138940Y-3839079D01*
X16123195Y-3802510D01*
X16106786Y-3766502D01*
X16089714Y-3731056D01*
X16071978Y-3696171D01*
X16053579Y-3661848D01*
X16034516Y-3628086D01*
X16014789Y-3594885D01*
X15994400Y-3562246D01*
X15973346Y-3530169D01*
X15951629Y-3498652D01*
X15929249Y-3467698D01*
X15906205Y-3437304D01*
X15882498Y-3407472D01*
X15858127Y-3378202D01*
X15833093Y-3349493D01*
X15807395Y-3321345D01*
X15781374Y-3293818D01*
X15754757Y-3266972D01*
X15727545Y-3240806D01*
X15699738Y-3215321D01*
X15671335Y-3190517D01*
X15642337Y-3166392D01*
X15612743Y-3142949D01*
X15582554Y-3120186D01*
X15551769Y-3098103D01*
X15520389Y-3076701D01*
X15488413Y-3055979D01*
X15455842Y-3035938D01*
X15422676Y-3016578D01*
X15388914Y-2997898D01*
X15354557Y-2979898D01*
X15319604Y-2962579D01*
X15284055Y-2945940D01*
X15247912Y-2929982D01*
X15213190Y-2915294D01*
X15178071Y-2901399D01*
X15142555Y-2888298D01*
X15106642Y-2875991D01*
X15070332Y-2864478D01*
X15033625Y-2853759D01*
X14996521Y-2843834D01*
X14959020Y-2834703D01*
X14921122Y-2826366D01*
X14882827Y-2818823D01*
X14844135Y-2812074D01*
X14805046Y-2806119D01*
X14765561Y-2800958D01*
X14725678Y-2796591D01*
X14685398Y-2793018D01*
X14644721Y-2790239D01*
X14603647Y-2788254D01*
X14562176Y-2787063D01*
X14560367Y-3401884D01*
X14599698Y-3403721D01*
X14638303Y-3406784D01*
X14676180Y-3411071D01*
X14713329Y-3416583D01*
X14749752Y-3423320D01*
X14785447Y-3431282D01*
X14820414Y-3440469D01*
X14854655Y-3450881D01*
X14888168Y-3462517D01*
X14920954Y-3475379D01*
X14953012Y-3489465D01*
X14987588Y-3505638D01*
X15021162Y-3523085D01*
X15053734Y-3541808D01*
X15085303Y-3561807D01*
X15115871Y-3583081D01*
X15145436Y-3605631D01*
X15173999Y-3629456D01*
X15201560Y-3654557D01*
X15228118Y-3680933D01*
X15253674Y-3708585D01*
X15278228Y-3737512D01*
X15300296Y-3765092D01*
X15321484Y-3793629D01*
X15341790Y-3823123D01*
X15361217Y-3853574D01*
X15379763Y-3884981D01*
X15397429Y-3917346D01*
X15414214Y-3950668D01*
X15430119Y-3984946D01*
X15445143Y-4020182D01*
X15459287Y-4056375D01*
X15472551Y-4093524D01*
X15484934Y-4131631D01*
X15494805Y-4165013D01*
X15503945Y-4199014D01*
X15512354Y-4233634D01*
X15520032Y-4268872D01*
X15526978Y-4304729D01*
X15533194Y-4341205D01*
X15538678Y-4378299D01*
X15543430Y-4416013D01*
X15547452Y-4454345D01*
X15550742Y-4493295D01*
X15553302Y-4532865D01*
X15555130Y-4573053D01*
X15556226Y-4613859D01*
X15556592Y-4655285D01*
X15556226Y-4697104D01*
X15555130Y-4738305D01*
X15553302Y-4778886D01*
X15550742Y-4818849D01*
X15547452Y-4858194D01*
X15543430Y-4896920D01*
X15538678Y-4935026D01*
X15533194Y-4972515D01*
X15526978Y-5009384D01*
X15520032Y-5045635D01*
X15512354Y-5081267D01*
X15503945Y-5116281D01*
X15494805Y-5150675D01*
X15484934Y-5184451D01*
X15472551Y-5222558D01*
X15459287Y-5259707D01*
X15445143Y-5295900D01*
X15430119Y-5331136D01*
X15414214Y-5365414D01*
X15397429Y-5398736D01*
X15379763Y-5431101D01*
X15361217Y-5462508D01*
X15341790Y-5492959D01*
X15321484Y-5522453D01*
X15300296Y-5550990D01*
X15278228Y-5578570D01*
X15253674Y-5607019D01*
X15228118Y-5634238D01*
X15201560Y-5660227D01*
X15173999Y-5684986D01*
X15145436Y-5708515D01*
X15115871Y-5730815D01*
X15085303Y-5751884D01*
X15053734Y-5771723D01*
X15021162Y-5790332D01*
X14987588Y-5807711D01*
X14953012Y-5823860D01*
X14920954Y-5837507D01*
X14888168Y-5849966D01*
X14854655Y-5861240D01*
X14820414Y-5871326D01*
X14785447Y-5880226D01*
X14749752Y-5887939D01*
X14713329Y-5894465D01*
X14676180Y-5899805D01*
X14638303Y-5903959D01*
X14599698Y-5906925D01*
X14560367Y-5908705D01*
X14520308Y-5909298D01*
X14480230Y-5908705D01*
X14440841Y-5906925D01*
X14402142Y-5903959D01*
X14364131Y-5899805D01*
X14326809Y-5894465D01*
X14290176Y-5887939D01*
X14254232Y-5880226D01*
X14218977Y-5871326D01*
X14184412Y-5861240D01*
X14150535Y-5849966D01*
X14117347Y-5837507D01*
X14084848Y-5823860D01*
X14050249Y-5807711D01*
X14016607Y-5790332D01*
X13983921Y-5771723D01*
X13952192Y-5751884D01*
X13921420Y-5730814D01*
X13891604Y-5708515D01*
X13862745Y-5684986D01*
X13834843Y-5660227D01*
X13807897Y-5634238D01*
X13781908Y-5607019D01*
X13756876Y-5578570D01*
X13735249Y-5550990D01*
X13714463Y-5522453D01*
X13694520Y-5492959D01*
X13675419Y-5462508D01*
X13657160Y-5431101D01*
X13639744Y-5398736D01*
X13623169Y-5365414D01*
X13607436Y-5331136D01*
X13592545Y-5295900D01*
X13578497Y-5259707D01*
X13565290Y-5222558D01*
X13552926Y-5184451D01*
X13543054Y-5150675D01*
X13533914Y-5116281D01*
X13525505Y-5081267D01*
X13517827Y-5045635D01*
X13510881Y-5009384D01*
X13504665Y-4972515D01*
X13499181Y-4935026D01*
X13494428Y-4896920D01*
X13490406Y-4858194D01*
X13487116Y-4818849D01*
X13484557Y-4778886D01*
X13482728Y-4738305D01*
X13481632Y-4697104D01*
X13481266Y-4655285D01*
X13481632Y-4613859D01*
X13482728Y-4573053D01*
X13484557Y-4532865D01*
X13487116Y-4493295D01*
X13490406Y-4454345D01*
X13494428Y-4416013D01*
X13499181Y-4378299D01*
X13504665Y-4341205D01*
X13510881Y-4304729D01*
X13517827Y-4268872D01*
X13525505Y-4233634D01*
X13533914Y-4199014D01*
X13543054Y-4165013D01*
X13552926Y-4131631D01*
X13565290Y-4093524D01*
X13578496Y-4056375D01*
X13592545Y-4020182D01*
X13607435Y-3984946D01*
X13623168Y-3950668D01*
X13639742Y-3917346D01*
X13657159Y-3884981D01*
X13675418Y-3853574D01*
X13694520Y-3823123D01*
X13714463Y-3793629D01*
X13735248Y-3765092D01*
X13756876Y-3737512D01*
X13781908Y-3708585D01*
X13807897Y-3680933D01*
X13834843Y-3654557D01*
X13862745Y-3629456D01*
X13891604Y-3605630D01*
X13921420Y-3583081D01*
X13952192Y-3561807D01*
X13983921Y-3541808D01*
X14016607Y-3523085D01*
X14050249Y-3505637D01*
X14084848Y-3489465D01*
X14117347Y-3475379D01*
X14150535Y-3462517D01*
X14184412Y-3450881D01*
X14218977Y-3440469D01*
X14254232Y-3431282D01*
X14290176Y-3423320D01*
X14326809Y-3416583D01*
X14364131Y-3411071D01*
X14402142Y-3406784D01*
X14440841Y-3403721D01*
X14480230Y-3401884D01*
X14520308Y-3401271D01*
X14560367Y-3401884D01*
X14562176Y-2787063D01*
X14520308Y-2786666D01*
X14478440Y-2787063D01*
X14436969Y-2788254D01*
X14395895Y-2790239D01*
X14355218Y-2793018D01*
X14314938Y-2796591D01*
X14275056Y-2800958D01*
X14235570Y-2806119D01*
X14196481Y-2812074D01*
X14157789Y-2818823D01*
X14119494Y-2826366D01*
X14081596Y-2834703D01*
X14044095Y-2843834D01*
X14006991Y-2853759D01*
X13970284Y-2864478D01*
X13933974Y-2875991D01*
X13898062Y-2888298D01*
X13862546Y-2901399D01*
X13827427Y-2915294D01*
X13792705Y-2929982D01*
X13756553Y-2945940D01*
X13720979Y-2962579D01*
X13685984Y-2979898D01*
X13651567Y-2997898D01*
X13617728Y-3016578D01*
X13584468Y-3035938D01*
X13551786Y-3055979D01*
X13519683Y-3076701D01*
X13488158Y-3098103D01*
X13457212Y-3120186D01*
X13426844Y-3142949D01*
X13397055Y-3166392D01*
X13367844Y-3190517D01*
X13339211Y-3215321D01*
X13311157Y-3240806D01*
X13283681Y-3266972D01*
X13256784Y-3293818D01*
X13230465Y-3321345D01*
X13204759Y-3349203D01*
X13179699Y-3377657D01*
X13155286Y-3406707D01*
X13131519Y-3436352D01*
X13108398Y-3466592D01*
X13085924Y-3497427D01*
X13064097Y-3528859D01*
X13042916Y-3560885D01*
X13022382Y-3593507D01*
X13002494Y-3626725D01*
X12983252Y-3660538D01*
X12964657Y-3694946D01*
X12946709Y-3729950D01*
X12929407Y-3765549D01*
X12912752Y-3801744D01*
X12896743Y-3838534D01*
X12881380Y-3875920D01*
X12866664Y-3913901D01*
X12853670Y-3950035D01*
X12841378Y-3986490D01*
X12829789Y-4023266D01*
X12818902Y-4060362D01*
X12808717Y-4097779D01*
X12799235Y-4135517D01*
X12790456Y-4173575D01*
X12782378Y-4211954D01*
X12775003Y-4250653D01*
X12768330Y-4289674D01*
X12762360Y-4329015D01*
X12757092Y-4368676D01*
X12752527Y-4408658D01*
X12748664Y-4448961D01*
X12745503Y-4489585D01*
X12743045Y-4530529D01*
X12741289Y-4571793D01*
X12740235Y-4613379D01*
X12739884Y-4655285D01*
X12740235Y-4697481D01*
X12741289Y-4739357D01*
X12743045Y-4780912D01*
X12745503Y-4822146D01*
X12748664Y-4863059D01*
X12752527Y-4903652D01*
X12757092Y-4943925D01*
X12762360Y-4983876D01*
X12768330Y-5023507D01*
X12775003Y-5062817D01*
X12782378Y-5101807D01*
X12790456Y-5140476D01*
X12799235Y-5178825D01*
X12808717Y-5216852D01*
X12818902Y-5254559D01*
X12829789Y-5291946D01*
X12841378Y-5329012D01*
X12853670Y-5365757D01*
X12866664Y-5402181D01*
X12881380Y-5439873D01*
X12896743Y-5477003D01*
X12912752Y-5513572D01*
X12929407Y-5549580D01*
X12946709Y-5585026D01*
X12964657Y-5619911D01*
X12983252Y-5654234D01*
X13002494Y-5687996D01*
X13022382Y-5721197D01*
X13042916Y-5753836D01*
X13064097Y-5785913D01*
X13085924Y-5817430D01*
X13108398Y-5848384D01*
X13131519Y-5878778D01*
X13155286Y-5908610D01*
X13179699Y-5937880D01*
X13204759Y-5966589D01*
X13230465Y-5994737D01*
X13256784Y-6022264D01*
X13283681Y-6049110D01*
X13311157Y-6075276D01*
X13339211Y-6100761D01*
X13367844Y-6125565D01*
X13397055Y-6149690D01*
X13426844Y-6173133D01*
X13457212Y-6195896D01*
X13488158Y-6217979D01*
X13519683Y-6239381D01*
X13551786Y-6260103D01*
X13584468Y-6280144D01*
X13617728Y-6299504D01*
X13651567Y-6318184D01*
X13685984Y-6336184D01*
X13720979Y-6353503D01*
X13756553Y-6370142D01*
X13792705Y-6386100D01*
X13827427Y-6400506D01*
X13862546Y-6414134D01*
X13898062Y-6426983D01*
X13933974Y-6439053D01*
X13970284Y-6450344D01*
X14006991Y-6460857D01*
X14044095Y-6470591D01*
X14081596Y-6479547D01*
X14119494Y-6487723D01*
X14157789Y-6495121D01*
X14196481Y-6501740D01*
X14235570Y-6507581D01*
X14275056Y-6512642D01*
X14314938Y-6516925D01*
X14355218Y-6520430D01*
X14395895Y-6523155D01*
X14436969Y-6525102D01*
X14478440Y-6526270D01*
X14520308Y-6526659D01*
X14562176Y-6526270D01*
X14603647Y-6525102D01*
X14644721Y-6523155D01*
X14685398Y-6520430D01*
X14725678Y-6516925D01*
X14765561Y-6512642D01*
X14805046Y-6507581D01*
X14844135Y-6501740D01*
X14882827Y-6495121D01*
X14921122Y-6487723D01*
X14959020Y-6479547D01*
X14996521Y-6470591D01*
X15033625Y-6460857D01*
X15070332Y-6450344D01*
X15106642Y-6439053D01*
X15142555Y-6426983D01*
X15178071Y-6414134D01*
X15213190Y-6400506D01*
X15247912Y-6386100D01*
X15284055Y-6370142D01*
X15319604Y-6353503D01*
X15354557Y-6336184D01*
X15388914Y-6318184D01*
X15422676Y-6299504D01*
X15455842Y-6280144D01*
X15488413Y-6260103D01*
X15520389Y-6239381D01*
X15551769Y-6217979D01*
X15582554Y-6195896D01*
X15612743Y-6173133D01*
X15642337Y-6149690D01*
X15671335Y-6125565D01*
X15699738Y-6100761D01*
X15727545Y-6075276D01*
X15754757Y-6049110D01*
X15781374Y-6022264D01*
X15807395Y-5994737D01*
X15833093Y-5966589D01*
X15858127Y-5937880D01*
X15882498Y-5908610D01*
X15906205Y-5878778D01*
X15929249Y-5848384D01*
X15951629Y-5817430D01*
X15973346Y-5785913D01*
X15994400Y-5753836D01*
X16014789Y-5721197D01*
X16034516Y-5687996D01*
X16053579Y-5654234D01*
X16071978Y-5619911D01*
X16089714Y-5585026D01*
X16106786Y-5549580D01*
X16123195Y-5513572D01*
X16138940Y-5477003D01*
X16154022Y-5439873D01*
X16168441Y-5402181D01*
X16181435Y-5365757D01*
X16193726Y-5329012D01*
X16205315Y-5291946D01*
X16216202Y-5254559D01*
X16226387Y-5216852D01*
X16235869Y-5178825D01*
X16244649Y-5140476D01*
X16252726Y-5101807D01*
X16260101Y-5062817D01*
X16266774Y-5023507D01*
X16272744Y-4983876D01*
X16278012Y-4943925D01*
X16282577Y-4903652D01*
X16286440Y-4863059D01*
X16289601Y-4822146D01*
X16292059Y-4780912D01*
X16293815Y-4739357D01*
X16294869Y-4697481D01*
X16295220Y-4655285D01*
G37*
X16295220Y-4655285D02*
X16294869Y-4613379D01*
X16293815Y-4571793D01*
X16292059Y-4530529D01*
X16289601Y-4489585D01*
X16286440Y-4448961D01*
X16282577Y-4408658D01*
X16278012Y-4368676D01*
X16272744Y-4329015D01*
X16266774Y-4289674D01*
X16260101Y-4250653D01*
X16252726Y-4211954D01*
X16244649Y-4173575D01*
X16235869Y-4135517D01*
X16226387Y-4097779D01*
X16216202Y-4060362D01*
X16205315Y-4023266D01*
X16193726Y-3986490D01*
X16181435Y-3950035D01*
X16168441Y-3913901D01*
X16154022Y-3876209D01*
X16138940Y-3839079D01*
X16123195Y-3802510D01*
X16106786Y-3766502D01*
X16089714Y-3731056D01*
X16071978Y-3696171D01*
X16053579Y-3661848D01*
X16034516Y-3628086D01*
X16014789Y-3594885D01*
X15994400Y-3562246D01*
X15973346Y-3530169D01*
X15951629Y-3498652D01*
X15929249Y-3467698D01*
X15906205Y-3437304D01*
X15882498Y-3407472D01*
X15858127Y-3378202D01*
X15833093Y-3349493D01*
X15807395Y-3321345D01*
X15781374Y-3293818D01*
X15754757Y-3266972D01*
X15727545Y-3240806D01*
X15699738Y-3215321D01*
X15671335Y-3190517D01*
X15642337Y-3166392D01*
X15612743Y-3142949D01*
X15582554Y-3120186D01*
X15551769Y-3098103D01*
X15520389Y-3076701D01*
X15488413Y-3055979D01*
X15455842Y-3035938D01*
X15422676Y-3016578D01*
X15388914Y-2997898D01*
X15354557Y-2979898D01*
X15319604Y-2962579D01*
X15284055Y-2945940D01*
X15247912Y-2929982D01*
X15213190Y-2915294D01*
X15178071Y-2901399D01*
X15142555Y-2888298D01*
X15106642Y-2875991D01*
X15070332Y-2864478D01*
X15033625Y-2853759D01*
X14996521Y-2843834D01*
X14959020Y-2834703D01*
X14921122Y-2826366D01*
X14882827Y-2818823D01*
X14844135Y-2812074D01*
X14805046Y-2806119D01*
X14765561Y-2800958D01*
X14725678Y-2796591D01*
X14685398Y-2793018D01*
X14644721Y-2790239D01*
X14603647Y-2788254D01*
X14562176Y-2787063D01*
X14560367Y-3401884D01*
X14599698Y-3403721D01*
X14638303Y-3406784D01*
X14676180Y-3411071D01*
X14713329Y-3416583D01*
X14749752Y-3423320D01*
X14785447Y-3431282D01*
X14820414Y-3440469D01*
X14854655Y-3450881D01*
X14888168Y-3462517D01*
X14920954Y-3475379D01*
X14953012Y-3489465D01*
X14987588Y-3505638D01*
X15021162Y-3523085D01*
X15053734Y-3541808D01*
X15085303Y-3561807D01*
X15115871Y-3583081D01*
X15145436Y-3605631D01*
X15173999Y-3629456D01*
X15201560Y-3654557D01*
X15228118Y-3680933D01*
X15253674Y-3708585D01*
X15278228Y-3737512D01*
X15300296Y-3765092D01*
X15321484Y-3793629D01*
X15341790Y-3823123D01*
X15361217Y-3853574D01*
X15379763Y-3884981D01*
X15397429Y-3917346D01*
X15414214Y-3950668D01*
X15430119Y-3984946D01*
X15445143Y-4020182D01*
X15459287Y-4056375D01*
X15472551Y-4093524D01*
X15484934Y-4131631D01*
X15494805Y-4165013D01*
X15503945Y-4199014D01*
X15512354Y-4233634D01*
X15520032Y-4268872D01*
X15526978Y-4304729D01*
X15533194Y-4341205D01*
X15538678Y-4378299D01*
X15543430Y-4416013D01*
X15547452Y-4454345D01*
X15550742Y-4493295D01*
X15553302Y-4532865D01*
X15555130Y-4573053D01*
X15556226Y-4613859D01*
X15556592Y-4655285D01*
X15556226Y-4697104D01*
X15555130Y-4738305D01*
X15553302Y-4778886D01*
X15550742Y-4818849D01*
X15547452Y-4858194D01*
X15543430Y-4896920D01*
X15538678Y-4935026D01*
X15533194Y-4972515D01*
X15526978Y-5009384D01*
X15520032Y-5045635D01*
X15512354Y-5081267D01*
X15503945Y-5116281D01*
X15494805Y-5150675D01*
X15484934Y-5184451D01*
X15472551Y-5222558D01*
X15459287Y-5259707D01*
X15445143Y-5295900D01*
X15430119Y-5331136D01*
X15414214Y-5365414D01*
X15397429Y-5398736D01*
X15379763Y-5431101D01*
X15361217Y-5462508D01*
X15341790Y-5492959D01*
X15321484Y-5522453D01*
X15300296Y-5550990D01*
X15278228Y-5578570D01*
X15253674Y-5607019D01*
X15228118Y-5634238D01*
X15201560Y-5660227D01*
X15173999Y-5684986D01*
X15145436Y-5708515D01*
X15115871Y-5730815D01*
X15085303Y-5751884D01*
X15053734Y-5771723D01*
X15021162Y-5790332D01*
X14987588Y-5807711D01*
X14953012Y-5823860D01*
X14920954Y-5837507D01*
X14888168Y-5849966D01*
X14854655Y-5861240D01*
X14820414Y-5871326D01*
X14785447Y-5880226D01*
X14749752Y-5887939D01*
X14713329Y-5894465D01*
X14676180Y-5899805D01*
X14638303Y-5903959D01*
X14599698Y-5906925D01*
X14560367Y-5908705D01*
X14520308Y-5909298D01*
X14480230Y-5908705D01*
X14440841Y-5906925D01*
X14402142Y-5903959D01*
X14364131Y-5899805D01*
X14326809Y-5894465D01*
X14290176Y-5887939D01*
X14254232Y-5880226D01*
X14218977Y-5871326D01*
X14184412Y-5861240D01*
X14150535Y-5849966D01*
X14117347Y-5837507D01*
X14084848Y-5823860D01*
X14050249Y-5807711D01*
X14016607Y-5790332D01*
X13983921Y-5771723D01*
X13952192Y-5751884D01*
X13921420Y-5730814D01*
X13891604Y-5708515D01*
X13862745Y-5684986D01*
X13834843Y-5660227D01*
X13807897Y-5634238D01*
X13781908Y-5607019D01*
X13756876Y-5578570D01*
X13735249Y-5550990D01*
X13714463Y-5522453D01*
X13694520Y-5492959D01*
X13675419Y-5462508D01*
X13657160Y-5431101D01*
X13639744Y-5398736D01*
X13623169Y-5365414D01*
X13607436Y-5331136D01*
X13592545Y-5295900D01*
X13578497Y-5259707D01*
X13565290Y-5222558D01*
X13552926Y-5184451D01*
X13543054Y-5150675D01*
X13533914Y-5116281D01*
X13525505Y-5081267D01*
X13517827Y-5045635D01*
X13510881Y-5009384D01*
X13504665Y-4972515D01*
X13499181Y-4935026D01*
X13494428Y-4896920D01*
X13490406Y-4858194D01*
X13487116Y-4818849D01*
X13484557Y-4778886D01*
X13482728Y-4738305D01*
X13481632Y-4697104D01*
X13481266Y-4655285D01*
X13481632Y-4613859D01*
X13482728Y-4573053D01*
X13484557Y-4532865D01*
X13487116Y-4493295D01*
X13490406Y-4454345D01*
X13494428Y-4416013D01*
X13499181Y-4378299D01*
X13504665Y-4341205D01*
X13510881Y-4304729D01*
X13517827Y-4268872D01*
X13525505Y-4233634D01*
X13533914Y-4199014D01*
X13543054Y-4165013D01*
X13552926Y-4131631D01*
X13565290Y-4093524D01*
X13578496Y-4056375D01*
X13592545Y-4020182D01*
X13607435Y-3984946D01*
X13623168Y-3950668D01*
X13639742Y-3917346D01*
X13657159Y-3884981D01*
X13675418Y-3853574D01*
X13694520Y-3823123D01*
X13714463Y-3793629D01*
X13735248Y-3765092D01*
X13756876Y-3737512D01*
X13781908Y-3708585D01*
X13807897Y-3680933D01*
X13834843Y-3654557D01*
X13862745Y-3629456D01*
X13891604Y-3605630D01*
X13921420Y-3583081D01*
X13952192Y-3561807D01*
X13983921Y-3541808D01*
X14016607Y-3523085D01*
X14050249Y-3505637D01*
X14084848Y-3489465D01*
X14117347Y-3475379D01*
X14150535Y-3462517D01*
X14184412Y-3450881D01*
X14218977Y-3440469D01*
X14254232Y-3431282D01*
X14290176Y-3423320D01*
X14326809Y-3416583D01*
X14364131Y-3411071D01*
X14402142Y-3406784D01*
X14440841Y-3403721D01*
X14480230Y-3401884D01*
X14520308Y-3401271D01*
X14560367Y-3401884D01*
X14562176Y-2787063D01*
X14520308Y-2786666D01*
X14478440Y-2787063D01*
X14436969Y-2788254D01*
X14395895Y-2790239D01*
X14355218Y-2793018D01*
X14314938Y-2796591D01*
X14275056Y-2800958D01*
X14235570Y-2806119D01*
X14196481Y-2812074D01*
X14157789Y-2818823D01*
X14119494Y-2826366D01*
X14081596Y-2834703D01*
X14044095Y-2843834D01*
X14006991Y-2853759D01*
X13970284Y-2864478D01*
X13933974Y-2875991D01*
X13898062Y-2888298D01*
X13862546Y-2901399D01*
X13827427Y-2915294D01*
X13792705Y-2929982D01*
X13756553Y-2945940D01*
X13720979Y-2962579D01*
X13685984Y-2979898D01*
X13651567Y-2997898D01*
X13617728Y-3016578D01*
X13584468Y-3035938D01*
X13551786Y-3055979D01*
X13519683Y-3076701D01*
X13488158Y-3098103D01*
X13457212Y-3120186D01*
X13426844Y-3142949D01*
X13397055Y-3166392D01*
X13367844Y-3190517D01*
X13339211Y-3215321D01*
X13311157Y-3240806D01*
X13283681Y-3266972D01*
X13256784Y-3293818D01*
X13230465Y-3321345D01*
X13204759Y-3349203D01*
X13179699Y-3377657D01*
X13155286Y-3406707D01*
X13131519Y-3436352D01*
X13108398Y-3466592D01*
X13085924Y-3497427D01*
X13064097Y-3528859D01*
X13042916Y-3560885D01*
X13022382Y-3593507D01*
X13002494Y-3626725D01*
X12983252Y-3660538D01*
X12964657Y-3694946D01*
X12946709Y-3729950D01*
X12929407Y-3765549D01*
X12912752Y-3801744D01*
X12896743Y-3838534D01*
X12881380Y-3875920D01*
X12866664Y-3913901D01*
X12853670Y-3950035D01*
X12841378Y-3986490D01*
X12829789Y-4023266D01*
X12818902Y-4060362D01*
X12808717Y-4097779D01*
X12799235Y-4135517D01*
X12790456Y-4173575D01*
X12782378Y-4211954D01*
X12775003Y-4250653D01*
X12768330Y-4289674D01*
X12762360Y-4329015D01*
X12757092Y-4368676D01*
X12752527Y-4408658D01*
X12748664Y-4448961D01*
X12745503Y-4489585D01*
X12743045Y-4530529D01*
X12741289Y-4571793D01*
X12740235Y-4613379D01*
X12739884Y-4655285D01*
X12740235Y-4697481D01*
X12741289Y-4739357D01*
X12743045Y-4780912D01*
X12745503Y-4822146D01*
X12748664Y-4863059D01*
X12752527Y-4903652D01*
X12757092Y-4943925D01*
X12762360Y-4983876D01*
X12768330Y-5023507D01*
X12775003Y-5062817D01*
X12782378Y-5101807D01*
X12790456Y-5140476D01*
X12799235Y-5178825D01*
X12808717Y-5216852D01*
X12818902Y-5254559D01*
X12829789Y-5291946D01*
X12841378Y-5329012D01*
X12853670Y-5365757D01*
X12866664Y-5402181D01*
X12881380Y-5439873D01*
X12896743Y-5477003D01*
X12912752Y-5513572D01*
X12929407Y-5549580D01*
X12946709Y-5585026D01*
X12964657Y-5619911D01*
X12983252Y-5654234D01*
X13002494Y-5687996D01*
X13022382Y-5721197D01*
X13042916Y-5753836D01*
X13064097Y-5785913D01*
X13085924Y-5817430D01*
X13108398Y-5848384D01*
X13131519Y-5878778D01*
X13155286Y-5908610D01*
X13179699Y-5937880D01*
X13204759Y-5966589D01*
X13230465Y-5994737D01*
X13256784Y-6022264D01*
X13283681Y-6049110D01*
X13311157Y-6075276D01*
X13339211Y-6100761D01*
X13367844Y-6125565D01*
X13397055Y-6149690D01*
X13426844Y-6173133D01*
X13457212Y-6195896D01*
X13488158Y-6217979D01*
X13519683Y-6239381D01*
X13551786Y-6260103D01*
X13584468Y-6280144D01*
X13617728Y-6299504D01*
X13651567Y-6318184D01*
X13685984Y-6336184D01*
X13720979Y-6353503D01*
X13756553Y-6370142D01*
X13792705Y-6386100D01*
X13827427Y-6400506D01*
X13862546Y-6414134D01*
X13898062Y-6426983D01*
X13933974Y-6439053D01*
X13970284Y-6450344D01*
X14006991Y-6460857D01*
X14044095Y-6470591D01*
X14081596Y-6479547D01*
X14119494Y-6487723D01*
X14157789Y-6495121D01*
X14196481Y-6501740D01*
X14235570Y-6507581D01*
X14275056Y-6512642D01*
X14314938Y-6516925D01*
X14355218Y-6520430D01*
X14395895Y-6523155D01*
X14436969Y-6525102D01*
X14478440Y-6526270D01*
X14520308Y-6526659D01*
X14562176Y-6526270D01*
X14603647Y-6525102D01*
X14644721Y-6523155D01*
X14685398Y-6520430D01*
X14725678Y-6516925D01*
X14765561Y-6512642D01*
X14805046Y-6507581D01*
X14844135Y-6501740D01*
X14882827Y-6495121D01*
X14921122Y-6487723D01*
X14959020Y-6479547D01*
X14996521Y-6470591D01*
X15033625Y-6460857D01*
X15070332Y-6450344D01*
X15106642Y-6439053D01*
X15142555Y-6426983D01*
X15178071Y-6414134D01*
X15213190Y-6400506D01*
X15247912Y-6386100D01*
X15284055Y-6370142D01*
X15319604Y-6353503D01*
X15354557Y-6336184D01*
X15388914Y-6318184D01*
X15422676Y-6299504D01*
X15455842Y-6280144D01*
X15488413Y-6260103D01*
X15520389Y-6239381D01*
X15551769Y-6217979D01*
X15582554Y-6195896D01*
X15612743Y-6173133D01*
X15642337Y-6149690D01*
X15671335Y-6125565D01*
X15699738Y-6100761D01*
X15727545Y-6075276D01*
X15754757Y-6049110D01*
X15781374Y-6022264D01*
X15807395Y-5994737D01*
X15833093Y-5966589D01*
X15858127Y-5937880D01*
X15882498Y-5908610D01*
X15906205Y-5878778D01*
X15929249Y-5848384D01*
X15951629Y-5817430D01*
X15973346Y-5785913D01*
X15994400Y-5753836D01*
X16014789Y-5721197D01*
X16034516Y-5687996D01*
X16053579Y-5654234D01*
X16071978Y-5619911D01*
X16089714Y-5585026D01*
X16106786Y-5549580D01*
X16123195Y-5513572D01*
X16138940Y-5477003D01*
X16154022Y-5439873D01*
X16168441Y-5402181D01*
X16181435Y-5365757D01*
X16193726Y-5329012D01*
X16205315Y-5291946D01*
X16216202Y-5254559D01*
X16226387Y-5216852D01*
X16235869Y-5178825D01*
X16244649Y-5140476D01*
X16252726Y-5101807D01*
X16260101Y-5062817D01*
X16266774Y-5023507D01*
X16272744Y-4983876D01*
X16278012Y-4943925D01*
X16282577Y-4903652D01*
X16286440Y-4863059D01*
X16289601Y-4822146D01*
X16292059Y-4780912D01*
X16293815Y-4739357D01*
X16294869Y-4697481D01*
X16295220Y-4655285D01*
G36*
X17141335Y-2828008D02*
G01*
X16760997Y-2828008D01*
X16760997Y-6488074D01*
X17400405Y-6488074D01*
X17400405Y-4319044D01*
X17400147Y-4282138D01*
X17399372Y-4244458D01*
X17398080Y-4206002D01*
X17396271Y-4166771D01*
X17393946Y-4126765D01*
X17391104Y-4085983D01*
X17387745Y-4044427D01*
X17383869Y-4002095D01*
X19180830Y-6364050D01*
X19208391Y-6394884D01*
X19235952Y-6421239D01*
X19263512Y-6443115D01*
X19291073Y-6460513D01*
X19321734Y-6472571D01*
X19355841Y-6481184D01*
X19393392Y-6486352D01*
X19434389Y-6488074D01*
X19806459Y-6488074D01*
X19806459Y-2828008D01*
X19169806Y-2828008D01*
X19169806Y-4972234D01*
X19170010Y-5008607D01*
X19170622Y-5045457D01*
X19171643Y-5082783D01*
X19173072Y-5120585D01*
X19174909Y-5158864D01*
X19177155Y-5197619D01*
X19179809Y-5236851D01*
X19182871Y-5276559D01*
X19186342Y-5316743D01*
X17383870Y-2941005D01*
X17354931Y-2908621D01*
X17328748Y-2883127D01*
X17305322Y-2863834D01*
X17279139Y-2850054D01*
X17252267Y-2839032D01*
X17221261Y-2833518D01*
X17197681Y-2830457D01*
X17171039Y-2828620D01*
X17141335Y-2828008D01*
G37*
X17141335Y-2828008D02*
X16760997Y-2828008D01*
X16760997Y-6488074D01*
X17400405Y-6488074D01*
X17400405Y-4319044D01*
X17400147Y-4282138D01*
X17399372Y-4244458D01*
X17398080Y-4206002D01*
X17396271Y-4166771D01*
X17393946Y-4126765D01*
X17391104Y-4085983D01*
X17387745Y-4044427D01*
X17383869Y-4002095D01*
X19180830Y-6364050D01*
X19208391Y-6394884D01*
X19235952Y-6421239D01*
X19263512Y-6443115D01*
X19291073Y-6460513D01*
X19321734Y-6472571D01*
X19355841Y-6481184D01*
X19393392Y-6486352D01*
X19434389Y-6488074D01*
X19806459Y-6488074D01*
X19806459Y-2828008D01*
X19169806Y-2828008D01*
X19169806Y-4972234D01*
X19170010Y-5008607D01*
X19170622Y-5045457D01*
X19171643Y-5082783D01*
X19173072Y-5120585D01*
X19174909Y-5158864D01*
X19177155Y-5197619D01*
X19179809Y-5236851D01*
X19182871Y-5276559D01*
X19186342Y-5316743D01*
X17383870Y-2941005D01*
X17354931Y-2908621D01*
X17328748Y-2883127D01*
X17305322Y-2863834D01*
X17279139Y-2850054D01*
X17252267Y-2839032D01*
X17221261Y-2833518D01*
X17197681Y-2830457D01*
X17171039Y-2828620D01*
X17141335Y-2828008D01*
G36*
X22500000Y7500000D02*
G01*
X22500000Y7000000D01*
X24500000Y7000000D01*
X24500000Y-7000000D01*
X22500000Y-7000000D01*
X22500000Y-7500000D01*
X25000000Y-10000000D01*
X27500000Y-7500000D01*
X27500000Y-7000000D01*
X25500000Y-7000000D01*
X25500000Y7000000D01*
X27500000Y7000000D01*
X27500000Y7500000D01*
X25000000Y10000000D01*
X22500000Y7500000D01*
G37*
X22500000Y7500000D02*
X22500000Y7000000D01*
X24500000Y7000000D01*
X24500000Y-7000000D01*
X22500000Y-7000000D01*
X22500000Y-7500000D01*
X25000000Y-10000000D01*
X27500000Y-7500000D01*
X27500000Y-7000000D01*
X25500000Y-7000000D01*
X25500000Y7000000D01*
X27500000Y7000000D01*
X27500000Y7500000D01*
X25000000Y10000000D01*
X22500000Y7500000D01*
D12*
%TO.C,J2*%
X4600000Y33100000D02*
X2000000Y33100000D01*
X4600000Y47800000D02*
X4600000Y33100000D01*
X-4600000Y33100000D02*
X-4600000Y35000000D01*
X-1900000Y33100000D02*
X-4600000Y33100000D01*
X-4600000Y39000000D02*
X-4600000Y47800000D01*
X4800000Y33950000D02*
X4800000Y32900000D01*
X3750000Y32900000D02*
X4800000Y32900000D01*
%TO.C,RV3*%
X27966073Y-19240376D02*
X31265433Y-22539736D01*
X34029514Y-25303816D02*
X36161441Y-27435743D01*
X19240376Y-27966073D02*
X22539736Y-31265433D01*
X25303816Y-34029514D02*
X27435743Y-36161441D01*
X27966073Y-19240376D02*
X25986881Y-21219567D01*
X24755101Y-22451347D02*
X24218407Y-22988041D01*
X22987334Y-24219114D02*
X22450640Y-24755808D01*
X21220275Y-25986174D02*
X19240376Y-27966073D01*
X36161441Y-27435743D02*
X27435743Y-36161441D01*
%TO.C,RV2*%
X6170000Y-33380000D02*
X6170000Y-38046000D01*
X6170000Y-41955000D02*
X6170000Y-44970000D01*
X-6170000Y-33380000D02*
X-6170000Y-38046000D01*
X-6170000Y-41955000D02*
X-6170000Y-44970000D01*
X6170000Y-33380000D02*
X3371000Y-33380000D01*
X1629000Y-33380000D02*
X870000Y-33380000D01*
X-871000Y-33380000D02*
X-1630000Y-33380000D01*
X-3370000Y-33380000D02*
X-6170000Y-33380000D01*
X6170000Y-44970000D02*
X-6170000Y-44970000D01*
%TO.C,RV1*%
X-19240376Y-27966073D02*
X-22539736Y-31265433D01*
X-25303816Y-34029514D02*
X-27435743Y-36161441D01*
X-27966073Y-19240376D02*
X-31265433Y-22539736D01*
X-34029514Y-25303816D02*
X-36161441Y-27435743D01*
X-19240376Y-27966073D02*
X-21219567Y-25986881D01*
X-22451347Y-24755101D02*
X-22988041Y-24218407D01*
X-24219114Y-22987334D02*
X-24755808Y-22450640D01*
X-25986174Y-21220275D02*
X-27966073Y-19240376D01*
X-27435743Y-36161441D02*
X-36161441Y-27435743D01*
%TO.C,C4*%
X11690000Y-19046267D02*
X11690000Y-18753733D01*
X12710000Y-19046267D02*
X12710000Y-18753733D01*
%TO.C,C5*%
X5610000Y-25553733D02*
X5610000Y-25846267D01*
X4590000Y-25553733D02*
X4590000Y-25846267D01*
%TO.C,C6*%
X-28953733Y19210000D02*
X-29246267Y19210000D01*
X-28953733Y18190000D02*
X-29246267Y18190000D01*
%TO.C,C7*%
X-28953733Y16090000D02*
X-29246267Y16090000D01*
X-28953733Y17110000D02*
X-29246267Y17110000D01*
%TO.C,C8*%
X-17590000Y21053733D02*
X-17590000Y21346267D01*
X-18610000Y21053733D02*
X-18610000Y21346267D01*
%TO.C,C9*%
X-10453733Y-26790000D02*
X-10746267Y-26790000D01*
X-10453733Y-27810000D02*
X-10746267Y-27810000D01*
%TO.C,C10*%
X4253733Y-28790000D02*
X4546267Y-28790000D01*
X4253733Y-29810000D02*
X4546267Y-29810000D01*
%TO.C,C11*%
X14353733Y-22510000D02*
X14646267Y-22510000D01*
X14353733Y-21490000D02*
X14646267Y-21490000D01*
%TO.C,D1*%
X-10750000Y27000000D02*
X-14650000Y27000000D01*
X-10750000Y29000000D02*
X-14650000Y29000000D01*
X-10750000Y27000000D02*
X-10750000Y29000000D01*
%TO.C,J1*%
X-30734315Y37381118D02*
X-37381118Y30734315D01*
X-33279899Y26633095D02*
X-34694113Y28047309D01*
X-36037615Y29390812D02*
X-37381118Y30734315D01*
X-26633095Y33279899D02*
X-28047309Y34694113D01*
X-29390812Y36037615D02*
X-30734315Y37381118D01*
%TO.C,R1*%
X-10345276Y-26122500D02*
X-10854724Y-26122500D01*
X-10345276Y-25077500D02*
X-10854724Y-25077500D01*
%TO.C,R2*%
X1154724Y-28777500D02*
X645276Y-28777500D01*
X1154724Y-29822500D02*
X645276Y-29822500D01*
%TO.C,R3*%
X14245276Y-23077500D02*
X14754724Y-23077500D01*
X14245276Y-24122500D02*
X14754724Y-24122500D01*
%TO.C,R5*%
X-37254724Y25522500D02*
X-36745276Y25522500D01*
X-37254724Y24477500D02*
X-36745276Y24477500D01*
%TO.C,R6*%
X-37254724Y22577500D02*
X-36745276Y22577500D01*
X-37254724Y23622500D02*
X-36745276Y23622500D01*
%TO.C,R7*%
X3145276Y-14177500D02*
X3654724Y-14177500D01*
X3145276Y-15222500D02*
X3654724Y-15222500D01*
%TO.C,R8*%
X-29222500Y-3645276D02*
X-29222500Y-4154724D01*
X-28177500Y-3645276D02*
X-28177500Y-4154724D01*
%TO.C,U1*%
X10610000Y-19900000D02*
X10610000Y-17450000D01*
X7390000Y-18100000D02*
X7390000Y-19900000D01*
%TO.C,U2*%
X0Y-25435000D02*
X3450000Y-25435000D01*
X0Y-25435000D02*
X-1950000Y-25435000D01*
X0Y-16565000D02*
X1950000Y-16565000D01*
X0Y-16565000D02*
X-1950000Y-16565000D01*
%TO.C,U3*%
X-23300000Y15940000D02*
X-19850000Y15940000D01*
X-23300000Y15940000D02*
X-25250000Y15940000D01*
X-23300000Y26060000D02*
X-21350000Y26060000D01*
X-23300000Y26060000D02*
X-25250000Y26060000D01*
%TO.C,C1*%
X6310000Y-18753733D02*
X6310000Y-19046267D01*
X5290000Y-18753733D02*
X5290000Y-19046267D01*
%TO.C,C2*%
X37260000Y16740000D02*
X37260000Y20490000D01*
X37260000Y27260000D02*
X37260000Y23510000D01*
X27804437Y27260000D02*
X37260000Y27260000D01*
X27804437Y16740000D02*
X37260000Y16740000D01*
X26740000Y17804437D02*
X26740000Y20490000D01*
X26740000Y26195563D02*
X26740000Y23510000D01*
X26740000Y26195563D02*
X27804437Y27260000D01*
X26740000Y17804437D02*
X27804437Y16740000D01*
X25250000Y24760000D02*
X26500000Y24760000D01*
X25875000Y25385000D02*
X25875000Y24135000D01*
%TO.C,C3*%
X13740000Y21260000D02*
X13740000Y17510000D01*
X13740000Y10740000D02*
X13740000Y14490000D01*
X23195563Y10740000D02*
X13740000Y10740000D01*
X23195563Y21260000D02*
X13740000Y21260000D01*
X24260000Y20195563D02*
X24260000Y17510000D01*
X24260000Y11804437D02*
X24260000Y14490000D01*
X24260000Y11804437D02*
X23195563Y10740000D01*
X24260000Y20195563D02*
X23195563Y21260000D01*
X25750000Y13240000D02*
X24500000Y13240000D01*
X25125000Y12615000D02*
X25125000Y13865000D01*
%TO.C,C12*%
X-35646267Y-7290000D02*
X-35353733Y-7290000D01*
X-35646267Y-8310000D02*
X-35353733Y-8310000D01*
%TO.C,C13*%
X-35646267Y-6710000D02*
X-35353733Y-6710000D01*
X-35646267Y-5690000D02*
X-35353733Y-5690000D01*
%TO.C,C14*%
X-29310000Y253733D02*
X-29310000Y546267D01*
X-28290000Y253733D02*
X-28290000Y546267D01*
%TO.C,J4*%
X-46400000Y4800000D02*
X-48300000Y4800000D01*
X-42500000Y4800000D02*
X-44500000Y4800000D01*
X-46400000Y-4600000D02*
X-48300000Y-4600000D01*
X-42500000Y-4600000D02*
X-44500000Y-4600000D01*
X-48300000Y4800000D02*
X-48300000Y-4600000D01*
%TO.C,R9*%
X-42645276Y-7022500D02*
X-43154724Y-7022500D01*
X-42645276Y-5977500D02*
X-43154724Y-5977500D01*
%TO.C,R10*%
X-42645276Y-7677500D02*
X-43154724Y-7677500D01*
X-42645276Y-8722500D02*
X-43154724Y-8722500D01*
%TO.C,U4*%
X-33625000Y5285000D02*
X-35575000Y5285000D01*
X-33625000Y5285000D02*
X-31675000Y5285000D01*
X-33625000Y-4835000D02*
X-35575000Y-4835000D01*
X-33625000Y-4835000D02*
X-30175000Y-4835000D01*
%TO.C,*%
D10*
%TO.C,R4*%
X-16166666Y17047619D02*
X-16500000Y17523809D01*
X-16738095Y17047619D02*
X-16738095Y18047619D01*
X-16357142Y18047619D01*
X-16261904Y18000000D01*
X-16214285Y17952380D01*
X-16166666Y17857142D01*
X-16166666Y17714285D01*
X-16214285Y17619047D01*
X-16261904Y17571428D01*
X-16357142Y17523809D01*
X-16738095Y17523809D01*
X-15309523Y17714285D02*
X-15309523Y17047619D01*
X-15547619Y18095238D02*
X-15785714Y17380952D01*
X-15166666Y17380952D01*
%TO.C,*%
%TO.C,J2*%
X-333333Y43847619D02*
X-333333Y43133333D01*
X-380952Y42990476D01*
X-476190Y42895238D01*
X-619047Y42847619D01*
X-714285Y42847619D01*
X95238Y43752380D02*
X142857Y43800000D01*
X238095Y43847619D01*
X476190Y43847619D01*
X571428Y43800000D01*
X619047Y43752380D01*
X666666Y43657142D01*
X666666Y43561904D01*
X619047Y43419047D01*
X47619Y42847619D01*
X666666Y42847619D01*
%TO.C,RV3*%
X25354828Y-26196622D02*
X24782408Y-26095607D01*
X24950767Y-26600683D02*
X24243660Y-25893576D01*
X24513034Y-25624202D01*
X24614050Y-25590531D01*
X24681393Y-25590531D01*
X24782408Y-25624202D01*
X24883424Y-25725218D01*
X24917095Y-25826233D01*
X24917095Y-25893576D01*
X24883424Y-25994592D01*
X24614050Y-26263966D01*
X24849752Y-25287485D02*
X25792561Y-25758889D01*
X25321156Y-24816080D01*
X25489515Y-24647721D02*
X25927248Y-24209989D01*
X25960920Y-24715065D01*
X26061935Y-24614050D01*
X26162950Y-24580378D01*
X26230294Y-24580378D01*
X26331309Y-24614050D01*
X26499668Y-24782408D01*
X26533340Y-24883424D01*
X26533340Y-24950767D01*
X26499668Y-25051782D01*
X26297637Y-25253813D01*
X26196622Y-25287485D01*
X26129279Y-25287485D01*
%TO.C,RV2*%
X-595238Y-36452380D02*
X-928571Y-35976190D01*
X-1166666Y-36452380D02*
X-1166666Y-35452380D01*
X-785714Y-35452380D01*
X-690476Y-35500000D01*
X-642857Y-35547619D01*
X-595238Y-35642857D01*
X-595238Y-35785714D01*
X-642857Y-35880952D01*
X-690476Y-35928571D01*
X-785714Y-35976190D01*
X-1166666Y-35976190D01*
X-309523Y-35452380D02*
X23809Y-36452380D01*
X357142Y-35452380D01*
X642857Y-35547619D02*
X690476Y-35500000D01*
X785714Y-35452380D01*
X1023809Y-35452380D01*
X1119047Y-35500000D01*
X1166666Y-35547619D01*
X1214285Y-35642857D01*
X1214285Y-35738095D01*
X1166666Y-35880952D01*
X595238Y-36452380D01*
X1214285Y-36452380D01*
%TO.C,RV1*%
X-26196622Y-25354828D02*
X-26095607Y-24782408D01*
X-26600683Y-24950767D02*
X-25893576Y-24243660D01*
X-25624202Y-24513034D01*
X-25590531Y-24614050D01*
X-25590531Y-24681393D01*
X-25624202Y-24782408D01*
X-25725218Y-24883424D01*
X-25826233Y-24917095D01*
X-25893576Y-24917095D01*
X-25994592Y-24883424D01*
X-26263966Y-24614050D01*
X-25287485Y-24849752D02*
X-25758889Y-25792561D01*
X-24816080Y-25321156D01*
X-24917095Y-26634355D02*
X-25321156Y-26230294D01*
X-25119126Y-26432324D02*
X-24412019Y-25725218D01*
X-24580378Y-25758889D01*
X-24715065Y-25758889D01*
X-24816080Y-25725218D01*
%TO.C,C4*%
X11933333Y-16757142D02*
X11885714Y-16804761D01*
X11742857Y-16852380D01*
X11647619Y-16852380D01*
X11504761Y-16804761D01*
X11409523Y-16709523D01*
X11361904Y-16614285D01*
X11314285Y-16423809D01*
X11314285Y-16280952D01*
X11361904Y-16090476D01*
X11409523Y-15995238D01*
X11504761Y-15900000D01*
X11647619Y-15852380D01*
X11742857Y-15852380D01*
X11885714Y-15900000D01*
X11933333Y-15947619D01*
X12790476Y-16185714D02*
X12790476Y-16852380D01*
X12552380Y-15804761D02*
X12314285Y-16519047D01*
X12933333Y-16519047D01*
%TO.C,C5*%
X6833333Y-26057142D02*
X6785714Y-26104761D01*
X6642857Y-26152380D01*
X6547619Y-26152380D01*
X6404761Y-26104761D01*
X6309523Y-26009523D01*
X6261904Y-25914285D01*
X6214285Y-25723809D01*
X6214285Y-25580952D01*
X6261904Y-25390476D01*
X6309523Y-25295238D01*
X6404761Y-25200000D01*
X6547619Y-25152380D01*
X6642857Y-25152380D01*
X6785714Y-25200000D01*
X6833333Y-25247619D01*
X7738095Y-25152380D02*
X7261904Y-25152380D01*
X7214285Y-25628571D01*
X7261904Y-25580952D01*
X7357142Y-25533333D01*
X7595238Y-25533333D01*
X7690476Y-25580952D01*
X7738095Y-25628571D01*
X7785714Y-25723809D01*
X7785714Y-25961904D01*
X7738095Y-26057142D01*
X7690476Y-26104761D01*
X7595238Y-26152380D01*
X7357142Y-26152380D01*
X7261904Y-26104761D01*
X7214285Y-26057142D01*
%TO.C,C6*%
X-32366666Y18342857D02*
X-32414285Y18295238D01*
X-32557142Y18247619D01*
X-32652380Y18247619D01*
X-32795238Y18295238D01*
X-32890476Y18390476D01*
X-32938095Y18485714D01*
X-32985714Y18676190D01*
X-32985714Y18819047D01*
X-32938095Y19009523D01*
X-32890476Y19104761D01*
X-32795238Y19200000D01*
X-32652380Y19247619D01*
X-32557142Y19247619D01*
X-32414285Y19200000D01*
X-32366666Y19152380D01*
X-31509523Y19247619D02*
X-31700000Y19247619D01*
X-31795238Y19200000D01*
X-31842857Y19152380D01*
X-31938095Y19009523D01*
X-31985714Y18819047D01*
X-31985714Y18438095D01*
X-31938095Y18342857D01*
X-31890476Y18295238D01*
X-31795238Y18247619D01*
X-31604761Y18247619D01*
X-31509523Y18295238D01*
X-31461904Y18342857D01*
X-31414285Y18438095D01*
X-31414285Y18676190D01*
X-31461904Y18771428D01*
X-31509523Y18819047D01*
X-31604761Y18866666D01*
X-31795238Y18866666D01*
X-31890476Y18819047D01*
X-31938095Y18771428D01*
X-31985714Y18676190D01*
%TO.C,C7*%
X-32366666Y16242857D02*
X-32414285Y16195238D01*
X-32557142Y16147619D01*
X-32652380Y16147619D01*
X-32795238Y16195238D01*
X-32890476Y16290476D01*
X-32938095Y16385714D01*
X-32985714Y16576190D01*
X-32985714Y16719047D01*
X-32938095Y16909523D01*
X-32890476Y17004761D01*
X-32795238Y17100000D01*
X-32652380Y17147619D01*
X-32557142Y17147619D01*
X-32414285Y17100000D01*
X-32366666Y17052380D01*
X-32033333Y17147619D02*
X-31366666Y17147619D01*
X-31795238Y16147619D01*
%TO.C,C8*%
X-16166666Y20842857D02*
X-16214285Y20795238D01*
X-16357142Y20747619D01*
X-16452380Y20747619D01*
X-16595238Y20795238D01*
X-16690476Y20890476D01*
X-16738095Y20985714D01*
X-16785714Y21176190D01*
X-16785714Y21319047D01*
X-16738095Y21509523D01*
X-16690476Y21604761D01*
X-16595238Y21700000D01*
X-16452380Y21747619D01*
X-16357142Y21747619D01*
X-16214285Y21700000D01*
X-16166666Y21652380D01*
X-15595238Y21319047D02*
X-15690476Y21366666D01*
X-15738095Y21414285D01*
X-15785714Y21509523D01*
X-15785714Y21557142D01*
X-15738095Y21652380D01*
X-15690476Y21700000D01*
X-15595238Y21747619D01*
X-15404761Y21747619D01*
X-15309523Y21700000D01*
X-15261904Y21652380D01*
X-15214285Y21557142D01*
X-15214285Y21509523D01*
X-15261904Y21414285D01*
X-15309523Y21366666D01*
X-15404761Y21319047D01*
X-15595238Y21319047D01*
X-15690476Y21271428D01*
X-15738095Y21223809D01*
X-15785714Y21128571D01*
X-15785714Y20938095D01*
X-15738095Y20842857D01*
X-15690476Y20795238D01*
X-15595238Y20747619D01*
X-15404761Y20747619D01*
X-15309523Y20795238D01*
X-15261904Y20842857D01*
X-15214285Y20938095D01*
X-15214285Y21128571D01*
X-15261904Y21223809D01*
X-15309523Y21271428D01*
X-15404761Y21319047D01*
%TO.C,C9*%
X-7666666Y-27657142D02*
X-7714285Y-27704761D01*
X-7857142Y-27752380D01*
X-7952380Y-27752380D01*
X-8095238Y-27704761D01*
X-8190476Y-27609523D01*
X-8238095Y-27514285D01*
X-8285714Y-27323809D01*
X-8285714Y-27180952D01*
X-8238095Y-26990476D01*
X-8190476Y-26895238D01*
X-8095238Y-26800000D01*
X-7952380Y-26752380D01*
X-7857142Y-26752380D01*
X-7714285Y-26800000D01*
X-7666666Y-26847619D01*
X-7190476Y-27752380D02*
X-7000000Y-27752380D01*
X-6904761Y-27704761D01*
X-6857142Y-27657142D01*
X-6761904Y-27514285D01*
X-6714285Y-27323809D01*
X-6714285Y-26942857D01*
X-6761904Y-26847619D01*
X-6809523Y-26800000D01*
X-6904761Y-26752380D01*
X-7095238Y-26752380D01*
X-7190476Y-26800000D01*
X-7238095Y-26847619D01*
X-7285714Y-26942857D01*
X-7285714Y-27180952D01*
X-7238095Y-27276190D01*
X-7190476Y-27323809D01*
X-7095238Y-27371428D01*
X-6904761Y-27371428D01*
X-6809523Y-27323809D01*
X-6761904Y-27276190D01*
X-6714285Y-27180952D01*
%TO.C,C10*%
X6957142Y-29657142D02*
X6909523Y-29704761D01*
X6766666Y-29752380D01*
X6671428Y-29752380D01*
X6528571Y-29704761D01*
X6433333Y-29609523D01*
X6385714Y-29514285D01*
X6338095Y-29323809D01*
X6338095Y-29180952D01*
X6385714Y-28990476D01*
X6433333Y-28895238D01*
X6528571Y-28800000D01*
X6671428Y-28752380D01*
X6766666Y-28752380D01*
X6909523Y-28800000D01*
X6957142Y-28847619D01*
X7909523Y-29752380D02*
X7338095Y-29752380D01*
X7623809Y-29752380D02*
X7623809Y-28752380D01*
X7528571Y-28895238D01*
X7433333Y-28990476D01*
X7338095Y-29038095D01*
X8528571Y-28752380D02*
X8623809Y-28752380D01*
X8719047Y-28800000D01*
X8766666Y-28847619D01*
X8814285Y-28942857D01*
X8861904Y-29133333D01*
X8861904Y-29371428D01*
X8814285Y-29561904D01*
X8766666Y-29657142D01*
X8719047Y-29704761D01*
X8623809Y-29752380D01*
X8528571Y-29752380D01*
X8433333Y-29704761D01*
X8385714Y-29657142D01*
X8338095Y-29561904D01*
X8290476Y-29371428D01*
X8290476Y-29133333D01*
X8338095Y-28942857D01*
X8385714Y-28847619D01*
X8433333Y-28800000D01*
X8528571Y-28752380D01*
%TO.C,C11*%
X17257142Y-22457142D02*
X17209523Y-22504761D01*
X17066666Y-22552380D01*
X16971428Y-22552380D01*
X16828571Y-22504761D01*
X16733333Y-22409523D01*
X16685714Y-22314285D01*
X16638095Y-22123809D01*
X16638095Y-21980952D01*
X16685714Y-21790476D01*
X16733333Y-21695238D01*
X16828571Y-21600000D01*
X16971428Y-21552380D01*
X17066666Y-21552380D01*
X17209523Y-21600000D01*
X17257142Y-21647619D01*
X18209523Y-22552380D02*
X17638095Y-22552380D01*
X17923809Y-22552380D02*
X17923809Y-21552380D01*
X17828571Y-21695238D01*
X17733333Y-21790476D01*
X17638095Y-21838095D01*
X19161904Y-22552380D02*
X18590476Y-22552380D01*
X18876190Y-22552380D02*
X18876190Y-21552380D01*
X18780952Y-21695238D01*
X18685714Y-21790476D01*
X18590476Y-21838095D01*
%TO.C,D1*%
X-13738095Y25547619D02*
X-13738095Y26547619D01*
X-13500000Y26547619D01*
X-13357142Y26500000D01*
X-13261904Y26404761D01*
X-13214285Y26309523D01*
X-13166666Y26119047D01*
X-13166666Y25976190D01*
X-13214285Y25785714D01*
X-13261904Y25690476D01*
X-13357142Y25595238D01*
X-13500000Y25547619D01*
X-13738095Y25547619D01*
X-12214285Y25547619D02*
X-12785714Y25547619D01*
X-12500000Y25547619D02*
X-12500000Y26547619D01*
X-12595238Y26404761D01*
X-12690476Y26309523D01*
X-12785714Y26261904D01*
%TO.C,J1*%
X-31922927Y31351522D02*
X-31417851Y30846446D01*
X-31350507Y30711759D01*
X-31350507Y30577072D01*
X-31417851Y30442385D01*
X-31485194Y30375042D01*
X-30508713Y31351522D02*
X-30912774Y30947461D01*
X-30710744Y31149492D02*
X-31417851Y31856599D01*
X-31384179Y31688240D01*
X-31384179Y31553553D01*
X-31417851Y31452538D01*
%TO.C,R1*%
X-7666666Y-26052380D02*
X-8000000Y-25576190D01*
X-8238095Y-26052380D02*
X-8238095Y-25052380D01*
X-7857142Y-25052380D01*
X-7761904Y-25100000D01*
X-7714285Y-25147619D01*
X-7666666Y-25242857D01*
X-7666666Y-25385714D01*
X-7714285Y-25480952D01*
X-7761904Y-25528571D01*
X-7857142Y-25576190D01*
X-8238095Y-25576190D01*
X-6714285Y-26052380D02*
X-7285714Y-26052380D01*
X-7000000Y-26052380D02*
X-7000000Y-25052380D01*
X-7095238Y-25195238D01*
X-7190476Y-25290476D01*
X-7285714Y-25338095D01*
%TO.C,R2*%
X-2066666Y-29752380D02*
X-2400000Y-29276190D01*
X-2638095Y-29752380D02*
X-2638095Y-28752380D01*
X-2257142Y-28752380D01*
X-2161904Y-28800000D01*
X-2114285Y-28847619D01*
X-2066666Y-28942857D01*
X-2066666Y-29085714D01*
X-2114285Y-29180952D01*
X-2161904Y-29228571D01*
X-2257142Y-29276190D01*
X-2638095Y-29276190D01*
X-1685714Y-28847619D02*
X-1638095Y-28800000D01*
X-1542857Y-28752380D01*
X-1304761Y-28752380D01*
X-1209523Y-28800000D01*
X-1161904Y-28847619D01*
X-1114285Y-28942857D01*
X-1114285Y-29038095D01*
X-1161904Y-29180952D01*
X-1733333Y-29752380D01*
X-1114285Y-29752380D01*
%TO.C,R3*%
X17233333Y-24052380D02*
X16900000Y-23576190D01*
X16661904Y-24052380D02*
X16661904Y-23052380D01*
X17042857Y-23052380D01*
X17138095Y-23100000D01*
X17185714Y-23147619D01*
X17233333Y-23242857D01*
X17233333Y-23385714D01*
X17185714Y-23480952D01*
X17138095Y-23528571D01*
X17042857Y-23576190D01*
X16661904Y-23576190D01*
X17566666Y-23052380D02*
X18185714Y-23052380D01*
X17852380Y-23433333D01*
X17995238Y-23433333D01*
X18090476Y-23480952D01*
X18138095Y-23528571D01*
X18185714Y-23623809D01*
X18185714Y-23861904D01*
X18138095Y-23957142D01*
X18090476Y-24004761D01*
X17995238Y-24052380D01*
X17709523Y-24052380D01*
X17614285Y-24004761D01*
X17566666Y-23957142D01*
%TO.C,R5*%
X-34266666Y24547619D02*
X-34600000Y25023809D01*
X-34838095Y24547619D02*
X-34838095Y25547619D01*
X-34457142Y25547619D01*
X-34361904Y25500000D01*
X-34314285Y25452380D01*
X-34266666Y25357142D01*
X-34266666Y25214285D01*
X-34314285Y25119047D01*
X-34361904Y25071428D01*
X-34457142Y25023809D01*
X-34838095Y25023809D01*
X-33361904Y25547619D02*
X-33838095Y25547619D01*
X-33885714Y25071428D01*
X-33838095Y25119047D01*
X-33742857Y25166666D01*
X-33504761Y25166666D01*
X-33409523Y25119047D01*
X-33361904Y25071428D01*
X-33314285Y24976190D01*
X-33314285Y24738095D01*
X-33361904Y24642857D01*
X-33409523Y24595238D01*
X-33504761Y24547619D01*
X-33742857Y24547619D01*
X-33838095Y24595238D01*
X-33885714Y24642857D01*
%TO.C,R6*%
X-34266666Y22647619D02*
X-34600000Y23123809D01*
X-34838095Y22647619D02*
X-34838095Y23647619D01*
X-34457142Y23647619D01*
X-34361904Y23600000D01*
X-34314285Y23552380D01*
X-34266666Y23457142D01*
X-34266666Y23314285D01*
X-34314285Y23219047D01*
X-34361904Y23171428D01*
X-34457142Y23123809D01*
X-34838095Y23123809D01*
X-33409523Y23647619D02*
X-33600000Y23647619D01*
X-33695238Y23600000D01*
X-33742857Y23552380D01*
X-33838095Y23409523D01*
X-33885714Y23219047D01*
X-33885714Y22838095D01*
X-33838095Y22742857D01*
X-33790476Y22695238D01*
X-33695238Y22647619D01*
X-33504761Y22647619D01*
X-33409523Y22695238D01*
X-33361904Y22742857D01*
X-33314285Y22838095D01*
X-33314285Y23076190D01*
X-33361904Y23171428D01*
X-33409523Y23219047D01*
X-33504761Y23266666D01*
X-33695238Y23266666D01*
X-33790476Y23219047D01*
X-33838095Y23171428D01*
X-33885714Y23076190D01*
%TO.C,R7*%
X3233333Y-13722380D02*
X2900000Y-13246190D01*
X2661904Y-13722380D02*
X2661904Y-12722380D01*
X3042857Y-12722380D01*
X3138095Y-12770000D01*
X3185714Y-12817619D01*
X3233333Y-12912857D01*
X3233333Y-13055714D01*
X3185714Y-13150952D01*
X3138095Y-13198571D01*
X3042857Y-13246190D01*
X2661904Y-13246190D01*
X3566666Y-12722380D02*
X4233333Y-12722380D01*
X3804761Y-13722380D01*
%TO.C,R8*%
X-27166666Y-4452380D02*
X-27500000Y-3976190D01*
X-27738095Y-4452380D02*
X-27738095Y-3452380D01*
X-27357142Y-3452380D01*
X-27261904Y-3500000D01*
X-27214285Y-3547619D01*
X-27166666Y-3642857D01*
X-27166666Y-3785714D01*
X-27214285Y-3880952D01*
X-27261904Y-3928571D01*
X-27357142Y-3976190D01*
X-27738095Y-3976190D01*
X-26595238Y-3880952D02*
X-26690476Y-3833333D01*
X-26738095Y-3785714D01*
X-26785714Y-3690476D01*
X-26785714Y-3642857D01*
X-26738095Y-3547619D01*
X-26690476Y-3500000D01*
X-26595238Y-3452380D01*
X-26404761Y-3452380D01*
X-26309523Y-3500000D01*
X-26261904Y-3547619D01*
X-26214285Y-3642857D01*
X-26214285Y-3690476D01*
X-26261904Y-3785714D01*
X-26309523Y-3833333D01*
X-26404761Y-3880952D01*
X-26595238Y-3880952D01*
X-26690476Y-3928571D01*
X-26738095Y-3976190D01*
X-26785714Y-4071428D01*
X-26785714Y-4261904D01*
X-26738095Y-4357142D01*
X-26690476Y-4404761D01*
X-26595238Y-4452380D01*
X-26404761Y-4452380D01*
X-26309523Y-4404761D01*
X-26261904Y-4357142D01*
X-26214285Y-4261904D01*
X-26214285Y-4071428D01*
X-26261904Y-3976190D01*
X-26309523Y-3928571D01*
X-26404761Y-3880952D01*
%TO.C,U1*%
X8238095Y-15552380D02*
X8238095Y-16361904D01*
X8285714Y-16457142D01*
X8333333Y-16504761D01*
X8428571Y-16552380D01*
X8619047Y-16552380D01*
X8714285Y-16504761D01*
X8761904Y-16457142D01*
X8809523Y-16361904D01*
X8809523Y-15552380D01*
X9809523Y-16552380D02*
X9238095Y-16552380D01*
X9523809Y-16552380D02*
X9523809Y-15552380D01*
X9428571Y-15695238D01*
X9333333Y-15790476D01*
X9238095Y-15838095D01*
%TO.C,U2*%
X-761904Y-20252380D02*
X-761904Y-21061904D01*
X-714285Y-21157142D01*
X-666666Y-21204761D01*
X-571428Y-21252380D01*
X-380952Y-21252380D01*
X-285714Y-21204761D01*
X-238095Y-21157142D01*
X-190476Y-21061904D01*
X-190476Y-20252380D01*
X238095Y-20347619D02*
X285714Y-20300000D01*
X380952Y-20252380D01*
X619047Y-20252380D01*
X714285Y-20300000D01*
X761904Y-20347619D01*
X809523Y-20442857D01*
X809523Y-20538095D01*
X761904Y-20680952D01*
X190476Y-21252380D01*
X809523Y-21252380D01*
%TO.C,U3*%
X-23961904Y19947619D02*
X-23961904Y19138095D01*
X-23914285Y19042857D01*
X-23866666Y18995238D01*
X-23771428Y18947619D01*
X-23580952Y18947619D01*
X-23485714Y18995238D01*
X-23438095Y19042857D01*
X-23390476Y19138095D01*
X-23390476Y19947619D01*
X-23009523Y19947619D02*
X-22390476Y19947619D01*
X-22723809Y19566666D01*
X-22580952Y19566666D01*
X-22485714Y19519047D01*
X-22438095Y19471428D01*
X-22390476Y19376190D01*
X-22390476Y19138095D01*
X-22438095Y19042857D01*
X-22485714Y18995238D01*
X-22580952Y18947619D01*
X-22866666Y18947619D01*
X-22961904Y18995238D01*
X-23009523Y19042857D01*
%TO.C,C1*%
X5633333Y-16757142D02*
X5585714Y-16804761D01*
X5442857Y-16852380D01*
X5347619Y-16852380D01*
X5204761Y-16804761D01*
X5109523Y-16709523D01*
X5061904Y-16614285D01*
X5014285Y-16423809D01*
X5014285Y-16280952D01*
X5061904Y-16090476D01*
X5109523Y-15995238D01*
X5204761Y-15900000D01*
X5347619Y-15852380D01*
X5442857Y-15852380D01*
X5585714Y-15900000D01*
X5633333Y-15947619D01*
X6585714Y-16852380D02*
X6014285Y-16852380D01*
X6300000Y-16852380D02*
X6300000Y-15852380D01*
X6204761Y-15995238D01*
X6109523Y-16090476D01*
X6014285Y-16138095D01*
%TO.C,C2*%
X31833333Y21642857D02*
X31785714Y21595238D01*
X31642857Y21547619D01*
X31547619Y21547619D01*
X31404761Y21595238D01*
X31309523Y21690476D01*
X31261904Y21785714D01*
X31214285Y21976190D01*
X31214285Y22119047D01*
X31261904Y22309523D01*
X31309523Y22404761D01*
X31404761Y22500000D01*
X31547619Y22547619D01*
X31642857Y22547619D01*
X31785714Y22500000D01*
X31833333Y22452380D01*
X32214285Y22452380D02*
X32261904Y22500000D01*
X32357142Y22547619D01*
X32595238Y22547619D01*
X32690476Y22500000D01*
X32738095Y22452380D01*
X32785714Y22357142D01*
X32785714Y22261904D01*
X32738095Y22119047D01*
X32166666Y21547619D01*
X32785714Y21547619D01*
%TO.C,C3*%
X18833333Y15642857D02*
X18785714Y15595238D01*
X18642857Y15547619D01*
X18547619Y15547619D01*
X18404761Y15595238D01*
X18309523Y15690476D01*
X18261904Y15785714D01*
X18214285Y15976190D01*
X18214285Y16119047D01*
X18261904Y16309523D01*
X18309523Y16404761D01*
X18404761Y16500000D01*
X18547619Y16547619D01*
X18642857Y16547619D01*
X18785714Y16500000D01*
X18833333Y16452380D01*
X19166666Y16547619D02*
X19785714Y16547619D01*
X19452380Y16166666D01*
X19595238Y16166666D01*
X19690476Y16119047D01*
X19738095Y16071428D01*
X19785714Y15976190D01*
X19785714Y15738095D01*
X19738095Y15642857D01*
X19690476Y15595238D01*
X19595238Y15547619D01*
X19309523Y15547619D01*
X19214285Y15595238D01*
X19166666Y15642857D01*
%TO.C,C12*%
X-32542857Y-8157142D02*
X-32590476Y-8204761D01*
X-32733333Y-8252380D01*
X-32828571Y-8252380D01*
X-32971428Y-8204761D01*
X-33066666Y-8109523D01*
X-33114285Y-8014285D01*
X-33161904Y-7823809D01*
X-33161904Y-7680952D01*
X-33114285Y-7490476D01*
X-33066666Y-7395238D01*
X-32971428Y-7300000D01*
X-32828571Y-7252380D01*
X-32733333Y-7252380D01*
X-32590476Y-7300000D01*
X-32542857Y-7347619D01*
X-31590476Y-8252380D02*
X-32161904Y-8252380D01*
X-31876190Y-8252380D02*
X-31876190Y-7252380D01*
X-31971428Y-7395238D01*
X-32066666Y-7490476D01*
X-32161904Y-7538095D01*
X-31209523Y-7347619D02*
X-31161904Y-7300000D01*
X-31066666Y-7252380D01*
X-30828571Y-7252380D01*
X-30733333Y-7300000D01*
X-30685714Y-7347619D01*
X-30638095Y-7442857D01*
X-30638095Y-7538095D01*
X-30685714Y-7680952D01*
X-31257142Y-8252380D01*
X-30638095Y-8252380D01*
%TO.C,C13*%
X-32542857Y-6557142D02*
X-32590476Y-6604761D01*
X-32733333Y-6652380D01*
X-32828571Y-6652380D01*
X-32971428Y-6604761D01*
X-33066666Y-6509523D01*
X-33114285Y-6414285D01*
X-33161904Y-6223809D01*
X-33161904Y-6080952D01*
X-33114285Y-5890476D01*
X-33066666Y-5795238D01*
X-32971428Y-5700000D01*
X-32828571Y-5652380D01*
X-32733333Y-5652380D01*
X-32590476Y-5700000D01*
X-32542857Y-5747619D01*
X-31590476Y-6652380D02*
X-32161904Y-6652380D01*
X-31876190Y-6652380D02*
X-31876190Y-5652380D01*
X-31971428Y-5795238D01*
X-32066666Y-5890476D01*
X-32161904Y-5938095D01*
X-31257142Y-5652380D02*
X-30638095Y-5652380D01*
X-30971428Y-6033333D01*
X-30828571Y-6033333D01*
X-30733333Y-6080952D01*
X-30685714Y-6128571D01*
X-30638095Y-6223809D01*
X-30638095Y-6461904D01*
X-30685714Y-6557142D01*
X-30733333Y-6604761D01*
X-30828571Y-6652380D01*
X-31114285Y-6652380D01*
X-31209523Y-6604761D01*
X-31257142Y-6557142D01*
%TO.C,C14*%
X-27042857Y42857D02*
X-27090476Y-4761D01*
X-27233333Y-52380D01*
X-27328571Y-52380D01*
X-27471428Y-4761D01*
X-27566666Y90476D01*
X-27614285Y185714D01*
X-27661904Y376190D01*
X-27661904Y519047D01*
X-27614285Y709523D01*
X-27566666Y804761D01*
X-27471428Y900000D01*
X-27328571Y947619D01*
X-27233333Y947619D01*
X-27090476Y900000D01*
X-27042857Y852380D01*
X-26090476Y-52380D02*
X-26661904Y-52380D01*
X-26376190Y-52380D02*
X-26376190Y947619D01*
X-26471428Y804761D01*
X-26566666Y709523D01*
X-26661904Y661904D01*
X-25233333Y614285D02*
X-25233333Y-52380D01*
X-25471428Y995238D02*
X-25709523Y280952D01*
X-25090476Y280952D01*
%TO.C,J4*%
X-44533333Y647619D02*
X-44533333Y-66666D01*
X-44580952Y-209523D01*
X-44676190Y-304761D01*
X-44819047Y-352380D01*
X-44914285Y-352380D01*
X-43628571Y314285D02*
X-43628571Y-352380D01*
X-43866666Y695238D02*
X-44104761Y-19047D01*
X-43485714Y-19047D01*
%TO.C,R9*%
X-40066666Y-6952380D02*
X-40400000Y-6476190D01*
X-40638095Y-6952380D02*
X-40638095Y-5952380D01*
X-40257142Y-5952380D01*
X-40161904Y-6000000D01*
X-40114285Y-6047619D01*
X-40066666Y-6142857D01*
X-40066666Y-6285714D01*
X-40114285Y-6380952D01*
X-40161904Y-6428571D01*
X-40257142Y-6476190D01*
X-40638095Y-6476190D01*
X-39590476Y-6952380D02*
X-39400000Y-6952380D01*
X-39304761Y-6904761D01*
X-39257142Y-6857142D01*
X-39161904Y-6714285D01*
X-39114285Y-6523809D01*
X-39114285Y-6142857D01*
X-39161904Y-6047619D01*
X-39209523Y-6000000D01*
X-39304761Y-5952380D01*
X-39495238Y-5952380D01*
X-39590476Y-6000000D01*
X-39638095Y-6047619D01*
X-39685714Y-6142857D01*
X-39685714Y-6380952D01*
X-39638095Y-6476190D01*
X-39590476Y-6523809D01*
X-39495238Y-6571428D01*
X-39304761Y-6571428D01*
X-39209523Y-6523809D01*
X-39161904Y-6476190D01*
X-39114285Y-6380952D01*
%TO.C,R10*%
X-40042857Y-8852380D02*
X-40376190Y-8376190D01*
X-40614285Y-8852380D02*
X-40614285Y-7852380D01*
X-40233333Y-7852380D01*
X-40138095Y-7900000D01*
X-40090476Y-7947619D01*
X-40042857Y-8042857D01*
X-40042857Y-8185714D01*
X-40090476Y-8280952D01*
X-40138095Y-8328571D01*
X-40233333Y-8376190D01*
X-40614285Y-8376190D01*
X-39090476Y-8852380D02*
X-39661904Y-8852380D01*
X-39376190Y-8852380D02*
X-39376190Y-7852380D01*
X-39471428Y-7995238D01*
X-39566666Y-8090476D01*
X-39661904Y-8138095D01*
X-38471428Y-7852380D02*
X-38376190Y-7852380D01*
X-38280952Y-7900000D01*
X-38233333Y-7947619D01*
X-38185714Y-8042857D01*
X-38138095Y-8233333D01*
X-38138095Y-8471428D01*
X-38185714Y-8661904D01*
X-38233333Y-8757142D01*
X-38280952Y-8804761D01*
X-38376190Y-8852380D01*
X-38471428Y-8852380D01*
X-38566666Y-8804761D01*
X-38614285Y-8757142D01*
X-38661904Y-8661904D01*
X-38709523Y-8471428D01*
X-38709523Y-8233333D01*
X-38661904Y-8042857D01*
X-38614285Y-7947619D01*
X-38566666Y-7900000D01*
X-38471428Y-7852380D01*
%TO.C,U4*%
X-34361904Y747619D02*
X-34361904Y-61904D01*
X-34314285Y-157142D01*
X-34266666Y-204761D01*
X-34171428Y-252380D01*
X-33980952Y-252380D01*
X-33885714Y-204761D01*
X-33838095Y-157142D01*
X-33790476Y-61904D01*
X-33790476Y747619D01*
X-32885714Y414285D02*
X-32885714Y-252380D01*
X-33123809Y795238D02*
X-33361904Y80952D01*
X-32742857Y80952D01*
%TD*%
M02*
