M48
METRIC
T1C0.400
T2C0.500
T3C0.600
T4C1.000
T5C1.300
T6C3.200
T7C0.650
T8C2.000
%
G90
G05
T1
X-42.6Y2.0
X-38.8Y-2.3
X-28.3Y24.8
X-28.2Y30.8
X-27.7Y-6.7
X-26.5Y-4.8
X-26.1Y15.5
X-24.2Y17.3
X-22.7Y20.8
X-20.3Y-14.1
X-19.94Y15.4
X-18.8Y-12.4
X-16.8Y16.4
X-16.3Y18.9
X-14.9Y13.1
X-14.9Y-12.9
X-13.3Y13.1
X-13.1Y-12.0
X-11.9Y-23.0
X-11.2Y-20.2
X-8.47Y23.66
X-8.2Y-19.6
X-6.7Y-28.5
X-6.5Y31.07
X-6.5Y-18.8
X-4.4Y-23.2
X-2.475Y-25.975
X-1.3Y-26.9
X-0.8Y-25.7
X0.8Y-25.5
X0.9Y-27.4
X2.475Y-26.025
X3.4Y40.8
X3.5Y-27.1
X3.8Y33.8
X4.5Y-23.4
X5.3Y-12.7
X6.4Y43.8
X8.3Y-6.9
X8.4Y38.9
X9.0Y-12.6
X9.2Y19.6
X10.0Y-23.2
X10.61Y33.61
X10.7Y-24.3
X10.9Y-14.0
X11.1Y17.9
X11.7Y-25.0
X12.0Y-6.6
X12.2Y-22.7
X12.3Y-21.3
X12.8Y30.6
X12.8Y28.2
X15.0Y19.8
X15.0Y13.4
X16.0Y32.7
X16.66Y31.7
X16.9Y26.06
X16.92Y23.86
X17.0Y30.0
X19.0Y15.4
X22.7Y1.3
X23.7Y-1.3
X24.0Y40.0
X24.5Y21.4
X26.7Y13.7
X28.8Y1.0
X30.8Y-8.7
X30.9Y-1.3
X33.2Y-8.7
X34.0Y19.0
X34.0Y7.5
X36.0Y26.0
T2
X-39.9Y12.5
X-39.9Y-12.5
X-39.197Y14.197
X-39.197Y10.803
X-39.197Y-10.803
X-39.197Y-14.197
X-37.5Y14.9
X-37.5Y10.1
X-37.5Y-10.1
X-37.5Y-14.9
X-35.803Y14.197
X-35.803Y10.803
X-35.803Y-10.803
X-35.803Y-14.197
X-35.1Y12.5
X-35.1Y-12.5
X-14.9Y37.5
X-14.9Y-37.5
X-14.197Y39.197
X-14.197Y35.803
X-14.197Y-35.803
X-14.197Y-39.197
X-12.5Y39.9
X-12.5Y35.1
X-12.5Y-35.1
X-12.5Y-39.9
X-10.803Y39.197
X-10.803Y35.803
X-10.803Y-35.803
X-10.803Y-39.197
X-10.1Y37.5
X-10.1Y-37.5
X10.1Y37.5
X10.1Y-37.5
X10.803Y39.197
X10.803Y35.803
X10.803Y-35.803
X10.803Y-39.197
X12.5Y39.9
X12.5Y35.1
X12.5Y-35.1
X12.5Y-39.9
X14.197Y39.197
X14.197Y35.803
X14.197Y-35.803
X14.197Y-39.197
X14.9Y37.5
X14.9Y-37.5
X35.1Y12.5
X35.1Y-12.5
X35.803Y14.197
X35.803Y10.803
X35.803Y-10.803
X35.803Y-14.197
X37.5Y14.9
X37.5Y10.1
X37.5Y-10.1
X37.5Y-14.9
X39.197Y14.197
X39.197Y10.803
X39.197Y-10.803
X39.197Y-14.197
X39.9Y12.5
X39.9Y-12.5
T4
X-31.12Y13.0
X-28.58Y13.0
X-26.04Y13.0
X-24.749Y-21.213
X-23.5Y13.0
X-22.981Y-22.981
X-21.213Y-24.749
X-2.5Y-32.5
X0.0Y-32.5
X2.5Y-32.5
X21.213Y-24.749
X22.981Y-22.981
X24.749Y-21.213
T5
X20.0Y35.0
X20.0Y30.0
X20.0Y25.0
T6
X-37.5Y12.5
X-37.5Y-12.5
X-12.5Y37.5
X-12.5Y-37.5
X12.5Y37.5
X12.5Y-37.5
X37.5Y12.5
X37.5Y-12.5
T7
X-41.8Y2.99
X-41.8Y-2.79
X-31.505Y27.418
X-27.418Y31.505
T8
X-31.643Y-24.926
X-24.926Y-31.643
X-4.75Y-40.0
X4.75Y-40.0
X24.926Y-31.643
X31.643Y-24.926
T3
G00X-45.15Y4.42
M15
G01X-45.75Y4.42
M16
G05
G00X-45.15Y-4.22
M15
G01X-45.75Y-4.22
M16
G05
G00X-40.72Y4.42
M15
G01X-41.82Y4.42
M16
G05
G00X-40.72Y-4.22
M15
G01X-41.82Y-4.22
M16
G05
G00X-34.885Y28.776
M15
G01X-35.309Y29.2
M16
G05
G00X-31.753Y25.643
M15
G01X-32.53Y26.421
M16
G05
G00X-28.776Y34.885
M15
G01X-29.2Y35.309
M16
G05
G00X-25.643Y31.753
M15
G01X-26.421Y32.53
M16
G05
T4
G00X-4.7Y38.0
M15
G01X-4.7Y36.0
M16
G05
G00X1.0Y40.0
M15
G01X-1.0Y40.0
M16
G05
G00X1.0Y34.0
M15
G01X-1.0Y34.0
M16
G05
G00X35.85Y4.7
M15
G01X34.35Y4.7
M16
G05
G00X35.85Y0.0
M15
G01X34.35Y0.0
M16
G05
G00X35.85Y-4.7
M15
G01X34.35Y-4.7
M16
G05
G00X40.65Y4.7
M15
G01X39.15Y4.7
M16
G05
G00X40.65Y0.0
M15
G01X39.15Y0.0
M16
G05
G00X40.65Y-4.7
M15
G01X39.15Y-4.7
M16
G05
T0
M30
