%TF.GenerationSoftware,KiCad,Pcbnew,5.1.9+dfsg1-1+deb11u1*%
%TF.CreationDate,2023-04-18T21:32:13+02:00*%
%TF.ProjectId,base,62617365-2e6b-4696-9361-645f70636258,rev?*%
%TF.SameCoordinates,Original*%
%TF.FileFunction,Soldermask,Bot*%
%TF.FilePolarity,Negative*%
%FSLAX46Y46*%
G04 Gerber Fmt 4.6, Leading zero omitted, Abs format (unit mm)*
G04 Created by KiCad (PCBNEW 5.1.9+dfsg1-1+deb11u1) date 2023-04-18 21:32:13*
%MOMM*%
%LPD*%
G01*
G04 APERTURE LIST*
%ADD10C,4.000000*%
%ADD11C,1.800000*%
%ADD12C,2.600000*%
%ADD13R,2.600000X2.600000*%
%ADD14R,1.700000X1.700000*%
%ADD15O,1.700000X1.700000*%
%ADD16R,3.500000X3.500000*%
%ADD17C,0.800000*%
%ADD18C,6.400000*%
%ADD19C,0.650000*%
%ADD20O,1.600000X1.000000*%
%ADD21O,2.100000X1.000000*%
G04 APERTURE END LIST*
D10*
%TO.C,RV3*%
X24925514Y-31643028D03*
X31643028Y-24925514D03*
D11*
X21213203Y-24748737D03*
X22980970Y-22980970D03*
X24748737Y-21213203D03*
%TD*%
D10*
%TO.C,RV2*%
X-4750000Y-40000000D03*
X4750000Y-40000000D03*
D11*
X-2500000Y-32500000D03*
X0Y-32500000D03*
X2500000Y-32500000D03*
%TD*%
D10*
%TO.C,RV1*%
X-31643028Y-24925514D03*
X-24925514Y-31643028D03*
D11*
X-24748737Y-21213203D03*
X-22980970Y-22980970D03*
X-21213203Y-24748737D03*
%TD*%
D12*
%TO.C,J3*%
X20000000Y35000000D03*
X20000000Y30000000D03*
D13*
X20000000Y25000000D03*
%TD*%
D14*
%TO.C,J5*%
X-23500000Y13000000D03*
D15*
X-26040000Y13000000D03*
X-28580000Y13000000D03*
X-31120000Y13000000D03*
%TD*%
D16*
%TO.C,J2*%
X0Y34000000D03*
G36*
G01*
X-1000000Y41500000D02*
X1000000Y41500000D01*
G75*
G02*
X1750000Y40750000I0J-750000D01*
G01*
X1750000Y39250000D01*
G75*
G02*
X1000000Y38500000I-750000J0D01*
G01*
X-1000000Y38500000D01*
G75*
G02*
X-1750000Y39250000I0J750000D01*
G01*
X-1750000Y40750000D01*
G75*
G02*
X-1000000Y41500000I750000J0D01*
G01*
G37*
G36*
G01*
X-5575000Y38750000D02*
X-3825000Y38750000D01*
G75*
G02*
X-2950000Y37875000I0J-875000D01*
G01*
X-2950000Y36125000D01*
G75*
G02*
X-3825000Y35250000I-875000J0D01*
G01*
X-5575000Y35250000D01*
G75*
G02*
X-6450000Y36125000I0J875000D01*
G01*
X-6450000Y37875000D01*
G75*
G02*
X-5575000Y38750000I875000J0D01*
G01*
G37*
%TD*%
D17*
%TO.C,REF\u002A\u002A*%
X39197056Y-10802944D03*
X37500000Y-10100000D03*
X35802944Y-10802944D03*
X35100000Y-12500000D03*
X35802944Y-14197056D03*
X37500000Y-14900000D03*
X39197056Y-14197056D03*
X39900000Y-12500000D03*
D18*
X37500000Y-12500000D03*
%TD*%
D17*
%TO.C,REF\u002A\u002A*%
X-10802944Y-35802944D03*
X-12500000Y-35100000D03*
X-14197056Y-35802944D03*
X-14900000Y-37500000D03*
X-14197056Y-39197056D03*
X-12500000Y-39900000D03*
X-10802944Y-39197056D03*
X-10100000Y-37500000D03*
D18*
X-12500000Y-37500000D03*
%TD*%
D17*
%TO.C,REF\u002A\u002A*%
X-10802944Y39197056D03*
X-12500000Y39900000D03*
X-14197056Y39197056D03*
X-14900000Y37500000D03*
X-14197056Y35802944D03*
X-12500000Y35100000D03*
X-10802944Y35802944D03*
X-10100000Y37500000D03*
D18*
X-12500000Y37500000D03*
%TD*%
D17*
%TO.C,REF\u002A\u002A*%
X14197056Y39197056D03*
X12500000Y39900000D03*
X10802944Y39197056D03*
X10100000Y37500000D03*
X10802944Y35802944D03*
X12500000Y35100000D03*
X14197056Y35802944D03*
X14900000Y37500000D03*
D18*
X12500000Y37500000D03*
%TD*%
D17*
%TO.C,REF\u002A\u002A*%
X14197056Y-35802944D03*
X12500000Y-35100000D03*
X10802944Y-35802944D03*
X10100000Y-37500000D03*
X10802944Y-39197056D03*
X12500000Y-39900000D03*
X14197056Y-39197056D03*
X14900000Y-37500000D03*
D18*
X12500000Y-37500000D03*
%TD*%
D17*
%TO.C,REF\u002A\u002A*%
X-35802944Y-10802944D03*
X-37500000Y-10100000D03*
X-39197056Y-10802944D03*
X-39900000Y-12500000D03*
X-39197056Y-14197056D03*
X-37500000Y-14900000D03*
X-35802944Y-14197056D03*
X-35100000Y-12500000D03*
D18*
X-37500000Y-12500000D03*
%TD*%
D17*
%TO.C,REF\u002A\u002A*%
X39197056Y14197056D03*
X37500000Y14900000D03*
X35802944Y14197056D03*
X35100000Y12500000D03*
X35802944Y10802944D03*
X37500000Y10100000D03*
X39197056Y10802944D03*
X39900000Y12500000D03*
D18*
X37500000Y12500000D03*
%TD*%
D17*
%TO.C,REF\u002A\u002A*%
X-35802944Y14197056D03*
X-37500000Y14900000D03*
X-39197056Y14197056D03*
X-39900000Y12500000D03*
X-39197056Y10802944D03*
X-37500000Y10100000D03*
X-35802944Y10802944D03*
X-35100000Y12500000D03*
D18*
X-37500000Y12500000D03*
%TD*%
%TO.C,J1*%
G36*
G01*
X-34955742Y29553446D02*
X-34531478Y29129182D01*
G75*
G02*
X-34531478Y28422076I-353553J-353553D01*
G01*
X-34531478Y28422076D01*
G75*
G02*
X-35238584Y28422076I-353553J353553D01*
G01*
X-35662848Y28846340D01*
G75*
G02*
X-35662848Y29553446I353553J353553D01*
G01*
X-35662848Y29553446D01*
G75*
G02*
X-34955742Y29553446I353553J-353553D01*
G01*
G37*
D19*
X-31505061Y27417984D03*
G36*
G01*
X-28846340Y35662848D02*
X-28422076Y35238584D01*
G75*
G02*
X-28422076Y34531478I-353553J-353553D01*
G01*
X-28422076Y34531478D01*
G75*
G02*
X-29129182Y34531478I-353553J353553D01*
G01*
X-29553446Y34955742D01*
G75*
G02*
X-29553446Y35662848I353553J353553D01*
G01*
X-29553446Y35662848D01*
G75*
G02*
X-28846340Y35662848I353553J-353553D01*
G01*
G37*
X-27417984Y31505061D03*
G36*
G01*
X-26067410Y32883919D02*
X-25289592Y32106101D01*
G75*
G02*
X-25289592Y31398995I-353553J-353553D01*
G01*
X-25289592Y31398995D01*
G75*
G02*
X-25996698Y31398995I-353553J353553D01*
G01*
X-26774516Y32176813D01*
G75*
G02*
X-26774516Y32883919I353553J353553D01*
G01*
X-26774516Y32883919D01*
G75*
G02*
X-26067410Y32883919I353553J-353553D01*
G01*
G37*
G36*
G01*
X-32176813Y26774516D02*
X-31398995Y25996698D01*
G75*
G02*
X-31398995Y25289592I-353553J-353553D01*
G01*
X-31398995Y25289592D01*
G75*
G02*
X-32106101Y25289592I-353553J353553D01*
G01*
X-32883919Y26067410D01*
G75*
G02*
X-32883919Y26774516I353553J353553D01*
G01*
X-32883919Y26774516D01*
G75*
G02*
X-32176813Y26774516I353553J-353553D01*
G01*
G37*
%TD*%
%TO.C,SW1*%
G36*
G01*
X38900000Y-3200000D02*
X40900000Y-3200000D01*
G75*
G02*
X41650000Y-3950000I0J-750000D01*
G01*
X41650000Y-5450000D01*
G75*
G02*
X40900000Y-6200000I-750000J0D01*
G01*
X38900000Y-6200000D01*
G75*
G02*
X38150000Y-5450000I0J750000D01*
G01*
X38150000Y-3950000D01*
G75*
G02*
X38900000Y-3200000I750000J0D01*
G01*
G37*
G36*
G01*
X38900000Y1500000D02*
X40900000Y1500000D01*
G75*
G02*
X41650000Y750000I0J-750000D01*
G01*
X41650000Y-750000D01*
G75*
G02*
X40900000Y-1500000I-750000J0D01*
G01*
X38900000Y-1500000D01*
G75*
G02*
X38150000Y-750000I0J750000D01*
G01*
X38150000Y750000D01*
G75*
G02*
X38900000Y1500000I750000J0D01*
G01*
G37*
G36*
G01*
X38900000Y6200000D02*
X40900000Y6200000D01*
G75*
G02*
X41650000Y5450000I0J-750000D01*
G01*
X41650000Y3950000D01*
G75*
G02*
X40900000Y3200000I-750000J0D01*
G01*
X38900000Y3200000D01*
G75*
G02*
X38150000Y3950000I0J750000D01*
G01*
X38150000Y5450000D01*
G75*
G02*
X38900000Y6200000I750000J0D01*
G01*
G37*
G36*
G01*
X34100000Y-3200000D02*
X36100000Y-3200000D01*
G75*
G02*
X36850000Y-3950000I0J-750000D01*
G01*
X36850000Y-5450000D01*
G75*
G02*
X36100000Y-6200000I-750000J0D01*
G01*
X34100000Y-6200000D01*
G75*
G02*
X33350000Y-5450000I0J750000D01*
G01*
X33350000Y-3950000D01*
G75*
G02*
X34100000Y-3200000I750000J0D01*
G01*
G37*
G36*
G01*
X34100000Y1500000D02*
X36100000Y1500000D01*
G75*
G02*
X36850000Y750000I0J-750000D01*
G01*
X36850000Y-750000D01*
G75*
G02*
X36100000Y-1500000I-750000J0D01*
G01*
X34100000Y-1500000D01*
G75*
G02*
X33350000Y-750000I0J750000D01*
G01*
X33350000Y750000D01*
G75*
G02*
X34100000Y1500000I750000J0D01*
G01*
G37*
G36*
G01*
X34100000Y6200000D02*
X36100000Y6200000D01*
G75*
G02*
X36850000Y5450000I0J-750000D01*
G01*
X36850000Y3950000D01*
G75*
G02*
X36100000Y3200000I-750000J0D01*
G01*
X34100000Y3200000D01*
G75*
G02*
X33350000Y3950000I0J750000D01*
G01*
X33350000Y5450000D01*
G75*
G02*
X34100000Y6200000I750000J0D01*
G01*
G37*
%TD*%
D20*
%TO.C,J4*%
X-45450000Y-4220000D03*
D19*
X-41800000Y-2790000D03*
D20*
X-45450000Y4420000D03*
D19*
X-41800000Y2990000D03*
D21*
X-41270000Y4420000D03*
X-41270000Y-4220000D03*
%TD*%
M02*
